<svg width="164" height="50" viewBox="0 0 164 50" fill="none" xmlns="http://www.w3.org/2000/svg">
<mask id="mask0_2302_1618" style="mask-type:alpha" maskUnits="userSpaceOnUse" x="0" y="0" width="164" height="50">
<path d="M59.1517 11.794C58.833 9.99386 58.3468 8.22059 57.7094 6.50642C57.0937 4.77613 56.3212 3.10495 55.4084 1.51438C54.7386 0.391302 53.426 -0.194416 52.1405 0.0581411C50.3471 0.434291 48.5808 0.939406 46.8578 1.57349C45.1293 2.1807 43.444 2.91688 41.8235 3.77665C40.673 4.40536 40.0464 5.68964 40.2571 6.97392C40.5758 8.77406 41.0619 10.5473 41.6993 12.2615C42.3097 13.9918 43.0767 15.663 43.9895 17.2482C44.6593 18.3713 45.9665 18.957 47.2521 18.7044C49.0454 18.3283 50.8117 17.8178 52.5348 17.1837C54.2633 16.5711 55.9485 15.8349 57.5744 14.9805C58.7303 14.3572 59.3623 13.0783 59.1571 11.7833L59.1517 11.794Z" fill="#F72A16"/>
<path d="M78.9429 3.1853C77.263 2.4545 75.5291 1.84729 73.7574 1.36904C71.9857 0.863923 70.1816 0.487774 68.3559 0.251337C67.0541 0.0955034 65.7901 0.777946 65.2122 1.94938C64.4182 3.60444 63.7754 5.32936 63.2946 7.10263C62.7815 8.86516 62.4358 10.6707 62.2521 12.4977C62.1279 13.8035 62.8517 15.0448 64.0616 15.5821C65.7415 16.3076 67.4754 16.9094 69.2471 17.3823C71.0188 17.882 72.8229 18.2582 74.6487 18.4946C75.9558 18.6558 77.2198 17.9734 77.7924 16.7965C78.5918 15.1415 79.2346 13.4166 79.7153 11.6433C80.2285 9.88077 80.5796 8.08062 80.7632 6.25898C80.8712 4.95321 80.1474 3.72266 78.9483 3.1853H78.9429Z" fill="#FABC22"/>
<path d="M102.591 11.7938C102.272 9.98829 101.791 8.22038 101.149 6.50622C100.533 4.77593 99.7604 3.10475 98.8476 1.51417C98.1778 0.391098 96.8706 -0.189247 95.585 0.0579373C91.993 0.831731 88.5252 2.08377 85.2681 3.77644C84.1176 4.40515 83.491 5.68943 83.7016 6.97372C84.0203 8.77386 84.5065 10.5471 85.1439 12.2613C85.7596 13.9916 86.5321 15.6574 87.4449 17.248C88.1147 18.3764 89.4219 18.9568 90.7128 18.7042C92.5062 18.3281 94.2725 17.8176 95.9901 17.1835C97.724 16.5763 99.4039 15.8347 101.03 14.9803C102.18 14.3516 102.807 13.0727 102.596 11.7831L102.591 11.7938Z" fill="#06C92E"/>
<path d="M122.398 3.1853C119.017 1.74519 115.452 0.756452 111.811 0.251337C110.509 0.0955034 109.246 0.777946 108.668 1.94938C107.874 3.60444 107.231 5.32936 106.75 7.10263C106.242 8.86516 105.891 10.6707 105.708 12.4977C105.589 13.8035 106.312 15.0394 107.517 15.5821C109.197 16.3129 110.931 16.9201 112.703 17.3984C114.469 17.8928 116.268 18.2635 118.088 18.4946C119.395 18.6558 120.659 17.9734 121.232 16.7965C122.026 15.1415 122.668 13.4166 123.149 11.6433C123.651 9.88077 123.997 8.08062 124.17 6.25898C124.289 4.96395 123.581 3.73878 122.398 3.1853Z" fill="#00C2FC"/>
<path d="M4.63392 46.0129C4.63932 46.6094 4.15858 47.1037 3.55901 47.1091C3.54821 47.1091 3.54281 47.1091 3.53201 47.1091H1.67388C1.38219 47.1145 1.09591 47.0016 0.890653 46.7921C0.679993 46.5879 0.56656 46.3031 0.571962 46.0129V41.2788C0.56656 40.9886 0.679993 40.7038 0.890653 40.4996C1.09591 40.29 1.38219 40.1772 1.67388 40.1826H2.25184C2.52732 39.8172 2.74878 39.4195 2.92163 38.995C3.12149 38.5006 3.28894 37.9955 3.41317 37.4797C3.54821 36.9316 3.66164 36.3673 3.74807 35.7762C3.83449 35.1852 3.89931 34.6048 3.93712 34.0137L4.05055 32.3103C4.06676 32.0148 4.19639 31.7353 4.41246 31.5311C4.62312 31.3216 4.9094 31.2087 5.21188 31.2141H13.3682C13.9678 31.2087 14.4647 31.687 14.4701 32.2834C14.4701 32.2942 14.4701 32.2996 14.4701 32.3103V40.1772H15.5396C16.1392 40.1718 16.6361 40.6501 16.6415 41.2465C16.6415 41.2573 16.6415 41.2627 16.6415 41.2734V46.0075C16.6469 46.604 16.1662 47.0984 15.5666 47.1037C15.5558 47.1037 15.5504 47.1037 15.5396 47.1037H13.6815C13.0819 47.1091 12.585 46.6308 12.5796 46.0344C12.5796 46.0236 12.5796 46.0183 12.5796 46.0075V44.2181H4.61231L4.63392 46.0075V46.0129ZM10.1165 35.2711H8.17193L8.10171 35.7924C8.00448 36.7113 7.82083 37.6194 7.55075 38.506C7.3725 39.0971 7.11863 39.656 6.79454 40.1826H10.1057L10.1165 35.2711Z" fill="#0073E6"/>
<path d="M22.3078 39.1725C22.4968 39.7582 22.9073 40.2472 23.4529 40.532C24.0417 40.8329 24.6952 40.9833 25.3542 40.9726C25.7809 40.9726 26.2077 40.9457 26.629 40.8866C26.9963 40.8275 27.3582 40.7308 27.7039 40.5964C27.9092 40.5212 28.1252 40.4836 28.3413 40.4836C28.7734 40.4567 29.1785 40.6932 29.3622 41.0854L29.8051 42.0043C29.8807 42.1655 29.9239 42.3429 29.9185 42.5256C29.9347 42.9178 29.7349 43.2832 29.3946 43.482C28.6816 43.8904 27.9092 44.186 27.1043 44.3633C26.3751 44.4977 25.6297 44.5621 24.8897 44.5621C23.8904 44.5783 22.9019 44.4117 21.9621 44.0731C20.2822 43.482 18.948 42.1924 18.3106 40.5373C17.9595 39.6453 17.7867 38.6942 17.8029 37.7377C17.8029 36.8296 17.9703 35.9322 18.3106 35.0939C18.6401 34.2825 19.1208 33.5463 19.7312 32.9176C20.3578 32.2782 21.114 31.773 21.9459 31.4453C22.8749 31.0745 23.8742 30.8918 24.8735 30.9079C25.6945 30.9079 26.5048 31.0584 27.2718 31.3485C28.0172 31.628 28.7032 32.0471 29.2865 32.5845C29.8699 33.1272 30.3452 33.7774 30.6855 34.4974C31.0366 35.2874 31.2149 36.1471 31.2041 37.0069C31.2149 37.4475 31.1879 37.8935 31.1285 38.3288C31.0799 38.5599 30.9502 38.7694 30.7666 38.9199C30.5991 39.0865 30.3777 39.1886 30.14 39.1993L22.297 39.1778L22.3078 39.1725ZM26.8667 36.2815C26.8559 35.8193 26.6614 35.3787 26.3319 35.0563C25.9052 34.6587 25.3326 34.4491 24.7493 34.4921C24.1551 34.4491 23.5609 34.5995 23.064 34.9327C22.6535 35.282 22.3456 35.7387 22.1781 36.2546L26.8667 36.2815Z" fill="#0073E6"/>
<path d="M37.2538 44.2235C36.6542 44.2289 36.1573 43.7506 36.1519 43.1542C36.1519 43.1434 36.1519 43.138 36.1519 43.1273V35.5667H33.4943C32.8894 35.5667 32.3924 35.0831 32.3924 34.4759C32.3924 34.4759 32.3924 34.4705 32.3924 34.4651V32.3264C32.3924 31.7246 32.8786 31.2302 33.4889 31.2302C33.4889 31.2302 33.4943 31.2302 33.4997 31.2302H43.1793C43.7789 31.2248 44.2758 31.7031 44.2812 32.2996C44.2812 32.3103 44.2812 32.3157 44.2812 32.3264V34.4651C44.2866 35.0616 43.8059 35.5559 43.2063 35.5613C43.1955 35.5613 43.1901 35.5613 43.1793 35.5613H40.5217V43.1219C40.5271 43.7184 40.0464 44.2128 39.4468 44.2181C39.436 44.2181 39.4306 44.2181 39.4198 44.2181H37.2646L37.2538 44.2235Z" fill="#0073E6"/>
<path d="M54.8412 35.4433C54.2255 35.1209 53.5449 34.9436 52.8481 34.9275C52.5024 34.9275 52.1567 34.9866 51.8272 35.0994C51.4977 35.2176 51.2006 35.4003 50.9413 35.6314C50.6658 35.8786 50.4444 36.1795 50.2877 36.5126C50.1149 36.8942 50.0285 37.3079 50.0393 37.7271C50.0339 38.1355 50.1203 38.5439 50.2985 38.9146C50.466 39.2478 50.6928 39.5487 50.9683 39.7959C51.233 40.0323 51.5463 40.2204 51.8812 40.3494C52.2107 40.473 52.5618 40.5321 52.9129 40.5321C53.6367 40.516 54.3389 40.2956 54.9439 39.898C55.1815 39.7314 55.4678 39.6401 55.7595 39.6401C56.116 39.6401 56.4455 39.812 56.6453 40.1022L57.5312 41.2897C57.6824 41.4886 57.7635 41.7304 57.7635 41.9829C57.7743 42.343 57.6122 42.6923 57.3205 42.9072C56.5967 43.5198 55.7595 43.9765 54.852 44.2613C54.1336 44.4655 53.3882 44.573 52.6374 44.5784C51.6165 44.5891 50.601 44.4279 49.6341 44.0894C48.7807 43.7885 47.9975 43.321 47.3385 42.703C46.7011 42.0958 46.2042 41.3542 45.8855 40.5321C45.5344 39.6401 45.3615 38.6889 45.3777 37.7325C45.3777 36.8297 45.5398 35.9323 45.8747 35.0887C46.1934 34.2773 46.6687 33.5357 47.2791 32.9124C47.9002 32.2783 48.6457 31.7785 49.4721 31.44C50.3633 31.0746 51.3194 30.8919 52.2863 30.9026C53.0749 30.8973 53.8635 30.9725 54.6414 31.1337C55.4354 31.3272 56.1808 31.6603 56.856 32.1171C57.2395 32.3159 57.4826 32.6974 57.4934 33.1273C57.4934 33.3208 57.434 33.5142 57.3205 33.6754L56.4779 35.0618C56.2834 35.4218 55.8999 35.6475 55.4894 35.6368C55.2571 35.6368 55.0357 35.5669 54.8412 35.4433Z" fill="#0073E6"/>
<path d="M64.591 38.0118V43.1221C64.5964 43.7186 64.1157 44.2129 63.5161 44.2183C63.5053 44.2183 63.4999 44.2183 63.4891 44.2183H61.3393C60.7397 44.2237 60.2428 43.7454 60.2374 43.149C60.2374 43.1382 60.2374 43.1328 60.2374 43.1221V32.3266C60.232 31.7301 60.7127 31.2358 61.3123 31.2304C61.3231 31.2304 61.3285 31.2304 61.3393 31.2304H63.4783C64.0779 31.225 64.5748 31.7033 64.5802 32.2997C64.5802 32.3105 64.5802 32.3159 64.5802 32.3266V36.8888L67.9454 31.9505C68.102 31.7355 68.3073 31.5582 68.5395 31.4292C68.7718 31.2949 69.0419 31.225 69.312 31.225H71.3429C71.6508 31.2143 71.9533 31.3432 72.1586 31.5743C72.5637 31.9666 72.6015 32.5953 72.2504 33.0305L69.1769 37.0715L70.5975 39.0059C70.9594 39.5863 71.5158 40.0269 72.164 40.2472C72.4988 40.2902 72.8121 40.4461 73.0498 40.6879C73.2173 40.9727 73.2929 41.3058 73.2659 41.639V43.4015C73.2659 43.638 73.174 43.8637 73.0066 44.0356C72.85 44.2183 72.6339 44.3419 72.3962 44.3849L71.9533 44.4225H71.5104C71.1431 44.4225 70.7812 44.3795 70.4247 44.3097C70.0304 44.2183 69.6469 44.0678 69.2903 43.869C68.8744 43.638 68.4963 43.3478 68.1614 43.0146C67.7347 42.5901 67.3512 42.1172 67.0163 41.6121L64.5856 38.0011L64.591 38.0118Z" fill="#0073E6"/>
<path d="M85.8353 44.2236C85.2357 44.2236 84.7441 43.74 84.7441 43.1382V37.4476L80.5796 43.5036C80.4337 43.7078 80.2501 43.8851 80.0448 44.0248C79.8341 44.1645 79.5857 44.2344 79.3372 44.229H76.8363C76.2367 44.2344 75.7398 43.7561 75.7344 43.1597C75.7344 43.1489 75.7344 43.1435 75.7344 43.1328V32.3373C75.729 31.7408 76.2097 31.2465 76.8093 31.2411C76.8201 31.2411 76.8255 31.2411 76.8363 31.2411H78.9861C79.5857 31.2357 80.0826 31.714 80.088 32.3104C80.088 32.3212 80.088 32.3265 80.088 32.3373V38.0225L84.2364 31.9611C84.3768 31.7623 84.5443 31.585 84.7387 31.4399C84.944 31.3002 85.1871 31.2303 85.4355 31.2357H87.9581C88.2497 31.2357 88.536 31.3432 88.7413 31.5528C88.9519 31.7569 89.0654 32.0417 89.06 32.3319V43.1274C89.0654 43.4176 88.9519 43.7024 88.7413 43.9066C88.536 44.1161 88.2497 44.229 87.9581 44.2236H85.8298H85.8353Z" fill="#0073E6"/>
<path d="M102.375 44.2232C101.775 44.2286 101.278 43.7504 101.273 43.1539C101.273 43.1432 101.273 43.1378 101.273 43.127V37.4472L97.1245 43.5139C96.9786 43.7181 96.795 43.8955 96.5897 44.0352C96.3791 44.1749 96.1306 44.2447 95.8767 44.2394H93.3812C92.7816 44.2447 92.2847 43.7665 92.2793 43.17C92.2793 43.1593 92.2793 43.1485 92.2793 43.1324V32.3369C92.2739 31.7405 92.7546 31.2461 93.3542 31.2407C93.365 31.2407 93.3704 31.2407 93.3812 31.2407H95.531C96.1306 31.2353 96.6275 31.7136 96.6329 32.3101C96.6329 32.3208 96.6329 32.3262 96.6329 32.3369V38.0222L100.781 31.9608C100.922 31.762 101.1 31.5846 101.3 31.4395C101.511 31.2945 101.764 31.2246 102.024 31.2353H104.546C105.146 31.2353 105.637 31.7136 105.643 32.3101C105.643 32.3154 105.643 32.3262 105.643 32.3315V43.127C105.648 43.7235 105.167 44.2179 104.568 44.2232C104.562 44.2232 104.552 44.2232 104.546 44.2232H102.375ZM101.737 25.5447C102.229 25.5071 102.715 25.6844 103.066 26.0337C103.369 26.383 103.531 26.8398 103.509 27.3019C103.493 28.0864 103.072 28.8065 102.391 29.2095C101.646 29.7254 100.538 29.9833 99.069 29.9833C97.4432 29.9833 96.2764 29.7254 95.5742 29.2095C94.9207 28.7904 94.5209 28.0757 94.5101 27.3073C94.4885 26.8451 94.6506 26.3884 94.9531 26.0391C95.2934 25.6898 95.7741 25.5071 96.2602 25.5447C96.6545 25.5125 97.0435 25.62 97.3622 25.851C97.5944 26.0606 97.7673 26.3347 97.8537 26.6356C97.9401 26.8774 98.0752 27.0977 98.2588 27.2804C98.4857 27.4685 98.7774 27.5598 99.069 27.5383C99.3391 27.5598 99.6038 27.4685 99.7982 27.2804C99.9657 27.0923 100.09 26.872 100.176 26.6356C100.263 26.3347 100.436 26.0606 100.668 25.851C100.976 25.6253 101.354 25.5125 101.737 25.5447Z" fill="#0073E6"/>
<path d="M118.974 43.1219C118.979 43.7183 118.498 44.2127 117.899 44.2181C117.888 44.2181 117.883 44.2181 117.872 44.2181H115.722C115.122 44.2235 114.625 43.7452 114.62 43.1488C114.62 43.138 114.62 43.1326 114.62 43.1219V32.3264C114.615 31.7299 115.095 31.2355 115.695 31.2302C115.706 31.2302 115.711 31.2302 115.722 31.2302H117.78C118.304 31.2409 118.79 31.4827 119.109 31.8965L122.447 35.6472L125.52 31.9234C125.682 31.7245 125.877 31.5526 126.098 31.4236C126.314 31.2947 126.568 31.2302 126.822 31.2356H128.767C129.366 31.2302 129.863 31.7084 129.869 32.3049C129.869 32.3156 129.869 32.321 129.869 32.3318V43.1273C129.874 43.7237 129.393 44.2181 128.794 44.2235C128.783 44.2235 128.777 44.2235 128.767 44.2235H126.617C126.017 44.2288 125.52 43.7506 125.515 43.1541C125.515 43.1434 125.515 43.138 125.515 43.1273V37.8397L123.046 40.6124C122.857 40.8327 122.582 40.9617 122.296 40.9617C122.009 40.9617 121.739 40.8489 121.545 40.6447L118.963 37.8397L118.974 43.1273V43.1219Z" fill="#0073E6"/>
<path d="M143.178 44.2236C142.578 44.229 142.081 43.7507 142.076 43.1543C142.076 43.1435 142.076 43.1382 142.076 43.1274V37.4476L137.906 43.5036C137.76 43.7078 137.577 43.8851 137.371 44.0248C137.161 44.1645 136.912 44.2344 136.664 44.229H134.163C133.563 44.2344 133.066 43.7561 133.061 43.1597C133.061 43.1489 133.061 43.1435 133.061 43.1328V32.3373C133.056 31.7408 133.536 31.2465 134.136 31.2411C134.147 31.2411 134.152 31.2411 134.163 31.2411H136.313C136.912 31.2357 137.409 31.714 137.415 32.3104C137.415 32.3212 137.415 32.3265 137.415 32.3373V38.0225L141.563 31.9611C141.709 31.7623 141.882 31.585 142.087 31.4399C142.292 31.3002 142.535 31.2303 142.784 31.2357H145.306C145.906 31.2303 146.403 31.7086 146.408 32.305C146.408 32.3158 146.408 32.3212 146.408 32.3319V43.1274C146.414 43.7239 145.933 44.2183 145.333 44.2236C145.322 44.2236 145.317 44.2236 145.306 44.2236H143.178Z" fill="#0073E6"/>
<path d="M153.976 48.9037C153.981 49.5002 153.5 49.9946 152.901 50C152.89 50 152.885 50 152.874 50H150.724C150.124 50.0053 149.627 49.5271 149.622 48.9306C149.622 48.9199 149.622 48.9145 149.622 48.9037V32.3263C149.617 31.7298 150.097 31.2355 150.697 31.2301C150.708 31.2301 150.713 31.2301 150.724 31.2301H153.02C153.538 31.2193 153.965 31.6331 153.976 32.149C153.976 32.1597 153.976 32.1705 153.976 32.1866C154.413 31.7997 154.91 31.4934 155.456 31.2785C156.136 31.0044 156.871 30.8701 157.606 30.8862C158.427 30.8808 159.248 31.0474 159.998 31.3806C160.706 31.6976 161.333 32.1705 161.835 32.7669C162.353 33.3903 162.748 34.1049 163.007 34.8734C163.293 35.7278 163.439 36.6198 163.428 37.5172C163.434 38.4575 163.266 39.3979 162.926 40.2738C162.602 41.1013 162.121 41.8644 161.505 42.5092C160.879 43.154 160.123 43.6699 159.291 44.0138C158.373 44.39 157.395 44.5727 156.401 44.5619C155.958 44.5619 155.51 44.5297 155.072 44.4652C154.689 44.4114 154.316 44.3093 153.954 44.1589L153.981 48.9091L153.976 48.9037ZM153.976 40.0427C154.257 40.2147 154.564 40.349 154.889 40.4296C155.256 40.5049 155.629 40.5425 156.007 40.5317C156.806 40.5962 157.584 40.2792 158.113 39.6827C158.578 39.097 158.815 38.3662 158.794 37.6193C158.815 36.9261 158.583 36.249 158.14 35.7116C157.66 35.1743 156.957 34.8895 156.239 34.9378C155.348 34.9701 154.521 35.3946 153.976 36.0932V40.0481V40.0427Z" fill="#0073E6"/>
</mask>
<g mask="url(#mask0_2302_1618)">
<rect x="0.572266" y="-15.7142" width="214.286" height="65.7143" fill="#58687C"/>
</g>
</svg>
