<svg width="254" height="40" viewBox="0 0 254 40" fill="none" xmlns="http://www.w3.org/2000/svg">
<mask id="mask0_2282_1553" style="mask-type:alpha" maskUnits="userSpaceOnUse" x="0" y="0" width="254" height="41">
<path d="M7.60661 9.81258L4.80835 11.6366L2.54973 10.9316L3.07196 12.7644L0.600098 14.4827L3.4114 13.9055L3.94233 15.7603L5.34799 13.4826L8.49874 12.7776L6.20966 12.0639L7.60661 9.80817V9.81258ZM12.1717 4.58296L11.68 6.72415L8.55966 8.01944L11.3884 8.05909L10.8966 10.2355L13.1465 8.08553L15.997 8.12518L14.5217 6.7638L16.7499 4.63582L13.6209 5.9223L12.1674 4.57855L12.1717 4.58296ZM23.1428 1.09801L21.7458 3.33613L18.6038 4.0058L20.8798 4.73275L19.4654 6.99731L22.3029 5.18214L24.6094 5.9179L24.048 4.06308L26.8593 2.25672L23.6998 2.92639L23.1471 1.0936L23.1428 1.09801ZM33.8962 0.000976562L31.6463 2.12014L28.7784 2.04965L30.2537 3.43305L27.9777 5.57425L31.1676 4.30099L32.6603 5.70202L33.1347 3.50355L36.3246 2.22588L33.4262 2.15979L33.8919 0.000976562H33.8962ZM44.0622 4.43316L40.8244 5.07199L39.3926 7.38501L38.8226 5.47292L35.5848 6.10294L38.4744 4.28777L37.913 2.40652L40.2413 3.17312L43.1178 1.37557L41.7035 3.65334L44.0578 4.42875L44.0622 4.43316ZM49.4193 8.7596L46.4166 8.6803L44.1275 10.8788L44.5714 8.63184L41.5947 8.54372L44.8499 7.23962L45.2938 5.02353L46.8561 6.43778L50.1026 5.14249L47.8353 7.32774L49.4237 8.7596H49.4193ZM51.7911 14.8616L49.3497 14.0289L46.3948 15.9013L47.8396 13.5266L45.4069 12.7028L48.7231 12.0551L50.1548 9.71125L50.7771 11.663L54.0933 11.0242L51.1645 12.879L51.7868 14.8616H51.7911ZM50.899 22.1002L49.2148 20.6111L45.89 21.9769L48.1791 19.6991L46.5036 18.2187L49.5934 18.2892L51.8607 16.0335L51.4995 18.3289L54.5894 18.4082L51.2732 19.7696L50.9033 22.0958L50.899 22.1002ZM46.373 30.057L45.7551 27.9775L42.3563 28.6031L45.3591 26.6998L44.7411 24.6379L47.2217 25.5191L50.207 23.6246L48.7535 26.0698L51.2428 26.9553L47.8396 27.5854L46.3687 30.057H46.373ZM38.148 37.2692L38.6224 34.8284L35.5325 34.6786L38.9052 33.3349L39.3796 30.9293L40.9985 32.511L44.3712 31.1761L41.9994 33.4935L43.627 35.0928L40.5285 34.9342L38.1437 37.2692H38.148Z" fill="#FFDC00"/>
<path d="M66.2567 24.9022V12.3238H78.9903V14.6985H69.2421V17.4477H78.69V19.6462H69.2421V22.5231H78.9903V24.8978H66.2567V24.9022ZM91.7065 24.9022H82.1149V12.3238H91.0972C93.8606 12.3238 95.3881 13.1257 95.3881 15.4739C95.3881 17.505 94.8528 17.9367 93.8084 18.2628C95.0487 18.6857 95.8364 19.232 95.8364 21.2058C95.8364 23.9109 94.4873 24.9022 91.6673 24.9022H91.7065ZM85.1177 14.6985V17.4169H91.206C91.998 17.4169 92.4289 16.778 92.4289 15.9453C92.4463 15.7779 92.4289 15.6061 92.3723 15.4475C92.3157 15.2889 92.2243 15.1435 92.1068 15.0245C91.9893 14.9056 91.8457 14.8131 91.6847 14.7558C91.528 14.6985 91.3583 14.6809 91.1929 14.6985H85.1177ZM85.1177 19.6506V22.5275H91.1059C92.6856 22.5275 92.9163 22.1663 92.9163 21.0648C92.9163 20.1044 92.7596 19.6506 91.2103 19.6506H85.1177ZM107.456 21.1882H101.925V24.9066H98.9393V12.3238H107.438C110.598 12.3238 111.816 13.5574 111.816 16.7296C111.816 19.9017 110.546 21.1838 107.473 21.1838H107.456V21.1882ZM106.903 14.8307H101.925V18.6945H106.903C108.405 18.6945 108.84 18.0954 108.84 16.734C108.84 15.5004 108.461 14.8307 106.903 14.8307ZM124.359 24.9066H118.875C115.533 24.9066 114.28 23.6598 114.28 20.611V16.6591C114.28 13.2138 115.489 12.1828 118.875 12.1828H124.359C127.448 12.1828 128.867 13.1257 128.867 16.6591V20.611C128.867 23.7479 127.84 24.9066 124.359 24.9066ZM125.882 16.9102C125.882 15.0774 125.272 14.6545 123.51 14.6545H119.663C117.8 14.6545 117.291 15.1259 117.291 16.9234V20.2762C117.291 21.9328 117.813 22.3777 119.663 22.3777H123.614C125.512 22.3777 125.986 21.9636 125.986 20.2586L125.882 16.9058V16.9102ZM142.353 24.9066V14.8307H134.651V24.9066H131.665V12.3238H145.339V24.9022H142.353V24.9066ZM148.442 24.9066V12.3238H161.175V14.6985H151.418V17.4477H160.875V19.6462H151.418V22.5231H161.175V24.8978H148.442V24.9066ZM177.39 24.9066V14.8307H176.981L169.492 24.9066H164.374V12.3238H167.351V22.391H167.76L175.358 12.315H180.367V24.9022H177.39V24.9066ZM171.859 11.3986C168.265 11.3986 167.586 10.6717 167.586 8.82566V8.66705H170.01C170.01 9.82576 170.279 9.94031 171.859 9.94031C173.439 9.94031 173.73 9.83017 173.73 8.66705H176.154C176.154 10.4249 175.776 11.403 171.859 11.403V11.3986ZM193.488 24.9066H187.957C184.506 24.9066 183.413 23.836 183.413 20.4701V16.897C183.413 13.2182 184.584 12.1872 188.24 12.1872H193.201C196.147 12.1872 197.996 13.0331 197.996 16.571H195.02C195.02 15.2536 194.35 14.6853 192.648 14.6853H188.823C186.834 14.6853 186.412 15.0378 186.412 17.0115V20.1308C186.412 22.0517 187.117 22.4086 188.823 22.4086H192.648C194.424 22.4086 195.02 22.0826 195.02 20.5626H198.014C198.014 23.9198 197.222 24.911 193.51 24.911H193.488V24.9066ZM211.496 24.9066L205.73 19.5228H203.919V24.9066H200.934V12.3238H203.919V17.0159H205.673L211.117 12.3238H215.595L208.241 18.2187L215.878 24.9022H211.496V24.9066ZM231.345 24.9066V14.8307H230.927L223.437 24.9066H218.32V12.3238H221.305V22.3998H221.714L229.312 12.3238H234.322V24.9022H231.345V24.9066ZM253.361 12.3282V24.9066H250.65V14.8307H250.241L242.742 24.9066H237.625V12.3238H240.61V22.391H241.019L248.617 12.3238H253.357L253.361 12.3282ZM245.136 11.3986C241.541 11.3986 240.862 10.6717 240.862 8.82566V8.66705H243.286C243.286 9.82576 243.556 9.94031 245.136 9.94031C246.716 9.94031 246.999 9.83017 246.999 8.66705H249.409C249.409 10.4249 249.04 11.403 245.118 11.403H245.136V11.3986Z" fill="#FFDC00"/>
<path d="M68.4457 37.9391H67.7277V29.8722H65.617V28.9998H70.552V29.8722H68.4414V37.9391H68.4457ZM74.608 28.9029C76.797 28.9029 77.3235 29.7047 77.3235 33.4761C77.3235 37.2474 76.7926 38.036 74.5906 38.036C72.3885 38.036 71.8576 37.2342 71.8576 33.4761C71.8576 29.718 72.4016 28.9029 74.608 28.9029ZM74.608 37.1637C76.3835 37.1637 76.6142 36.6262 76.6142 33.4761C76.6142 30.326 76.3922 29.7752 74.608 29.7752C72.8237 29.7752 72.5843 30.3039 72.5843 33.4761C72.5843 36.6482 72.828 37.1637 74.608 37.1637ZM79.7997 37.9391H79.0817V28.9998H82.1933C83.451 28.9998 83.9166 29.8017 83.9166 31.5419C83.9166 33.7096 83.4118 34.4365 81.745 34.4365H79.7997V37.9391ZM81.5361 33.573C82.7068 33.573 83.1855 33.269 83.1855 31.6697C83.1855 30.392 83.0288 29.8722 82.0801 29.8722H79.7954V33.573H81.5361ZM89.6176 28.9998V29.8722H86.3058V37.9391H85.5877V28.9998H89.6176ZM93.5995 28.9029C95.7885 28.9029 96.3151 29.7047 96.3151 33.4761C96.3151 37.2474 95.7841 38.036 93.5821 38.036C91.3801 38.036 90.8491 37.2342 90.8491 33.4761C90.8491 29.718 91.3931 28.9029 93.5995 28.9029ZM93.5995 37.1637C95.3751 37.1637 95.6057 36.6262 95.6057 33.4761C95.6057 30.326 95.3838 29.7752 93.5995 29.7752C91.8152 29.7752 91.5759 30.3039 91.5759 33.4761C91.5759 36.6482 91.8196 37.1637 93.5995 37.1637ZM98.0689 28.9998H101.228C102.342 28.9998 102.878 29.5858 102.878 31.1983C102.878 32.1984 102.808 32.8945 102.086 33.247C102.947 33.573 103.091 34.1678 103.091 35.3485C103.091 36.9478 102.686 37.9391 101.433 37.9391H98.108L98.0689 28.9998ZM100.863 32.9518C101.825 32.9518 102.134 32.5685 102.134 31.2952C102.134 30.207 101.912 29.8722 101.128 29.8722H98.7565L98.7782 32.9518H100.863ZM100.802 37.0712C101.916 37.0712 102.325 36.8949 102.325 35.4234C102.325 33.9519 102.055 33.8241 101.106 33.8241H98.7826V37.0712H100.802ZM107.364 28.9073C109.553 28.9073 110.08 29.7091 110.08 33.4805C110.08 37.2518 109.549 38.0404 107.338 38.0404C105.128 38.0404 104.605 37.2386 104.605 33.4805C104.605 29.7224 105.158 28.9073 107.36 28.9073H107.364ZM107.364 37.1681C109.14 37.1681 109.362 36.6306 109.362 33.4805C109.362 30.3304 109.149 29.7796 107.364 29.7796C105.58 29.7796 105.341 30.3083 105.341 33.4805C105.341 36.6526 105.585 37.1681 107.364 37.1681ZM111.568 33.106H113.992V33.6655H111.568V33.106ZM116.373 37.9435H115.646V29.0042H118.758C120.02 29.0042 120.49 29.8061 120.49 31.5463C120.49 33.714 119.976 34.4409 118.318 34.4409H116.373V37.9435ZM116.373 33.5774H118.105C119.276 33.5774 119.763 33.2734 119.763 31.6741C119.763 30.3964 119.598 29.8766 118.658 29.8766H116.373V33.5774ZM124.62 29.0042L127.052 37.9435H126.26L125.769 36.1063H122.483L121.961 37.9435H121.169L123.553 29.0042H124.62ZM124.097 29.74L122.661 35.234H125.547L124.102 29.74H124.097ZM128.567 31.5948C128.623 29.2994 129.359 28.9073 130.991 28.9073C132.623 28.9073 133.363 29.5153 133.363 31.1763C133.363 32.5685 133.04 33.1853 132.279 33.3351C133.236 33.5113 133.471 34.2074 133.471 35.5644C133.471 37.3884 132.745 38.036 130.952 38.036C128.954 38.036 128.41 37.4853 128.41 35.5644V35.2692H129.137V35.5556C129.137 36.961 129.42 37.1549 130.952 37.1549C132.483 37.1549 132.745 36.5777 132.745 35.4102C132.745 34.2427 132.375 33.8109 131.395 33.8109H129.911V32.9474H131.382C132.401 32.9474 132.662 32.6522 132.662 31.2908C132.662 30.1541 132.227 29.7708 130.978 29.7708C129.729 29.7708 129.341 30.1629 129.272 31.586H128.567V31.5948ZM135.177 29.0042H138.337C139.451 29.0042 139.982 29.5902 139.982 31.2027C139.982 32.2028 139.912 32.8989 139.19 33.2514C140.051 33.5774 140.195 34.1722 140.195 35.3529C140.195 36.9522 139.79 37.9435 138.537 37.9435H135.212L135.182 29.0042H135.177ZM137.971 32.9562C138.933 32.9562 139.242 32.5729 139.242 31.2996C139.242 30.2114 139.02 29.8766 138.237 29.8766H135.865L135.887 32.9562H137.971ZM137.91 37.0756C139.024 37.0756 139.433 36.8993 139.433 35.4278C139.433 33.9563 139.164 33.8285 138.215 33.8285H135.891V37.0756H137.91ZM146.993 29.0086V37.9479H146.275V29.881H143.115V35.3353C143.115 37.0315 142.815 37.9523 141.892 37.9523H141.435V37.08H141.609C142.162 37.08 142.401 36.8553 142.401 35.441V29.0439L146.997 29.013L146.993 29.0086ZM153.116 29.0086V29.881H149.634V32.9606H152.959V33.8329H149.634V37.08H153.094V37.9523H148.916V29.013H153.12L153.116 29.0086ZM155.527 32.9606H156.175L158.847 29.0086H159.809L156.815 33.3263L160.166 37.9479H159.16L156.175 33.8285H155.527V37.9479H154.8V29.0086H155.527V32.9606ZM164.609 29.0086L167.042 37.9479H166.25L165.758 36.1107H162.463L161.941 37.9479H161.149L163.551 29.0086H164.609ZM164.095 29.7444L162.659 35.2384H165.545L164.1 29.7444H164.095ZM170.484 37.9479H169.766V29.881H167.655V29.0086H172.59V29.881H170.48V37.9479H170.484ZM178.265 29.0086V29.881H174.788V32.9606H178.104V33.8329H174.788V37.08H178.248V37.9523H174.07V29.013H178.265V29.0086ZM185.067 29.0086V37.9479H184.34V29.881H181.181V35.3353C181.181 37.0315 180.872 37.9523 179.949 37.9523H179.492V37.08H179.666C180.219 37.08 180.458 36.8553 180.458 35.441V29.0439L185.071 29.013L185.067 29.0086ZM187.704 32.9606H189.876C191.299 32.9606 191.812 33.5466 191.812 35.3617C191.812 37.1769 191.277 37.9215 189.902 37.9215H187.017V29.013H187.743L187.704 32.965V32.9606ZM187.704 37.08H189.845C190.881 37.08 191.094 36.5909 191.094 35.3926C191.094 34.0268 190.785 33.7933 189.75 33.7933H187.704V37.08ZM198.14 32.9606V29.0086H198.858V37.9479H198.14V33.8285H194.323V37.9479H193.597V29.0086H194.323V32.9606H198.14ZM201.504 32.9606H203.676C205.099 32.9606 205.612 33.5466 205.612 35.3617C205.612 37.1769 205.077 37.9215 203.693 37.9215H200.777V29.013H201.504V32.965V32.9606ZM201.504 37.08H203.645C204.681 37.08 204.894 36.5909 204.894 35.3926C204.894 34.0268 204.585 33.7933 203.549 33.7933H201.504V37.08ZM207.388 37.9523H206.661V29.013H207.388V37.9523ZM210.025 37.2562L213.737 29.013H214.899V37.9523H214.172V29.762L210.452 37.9523H209.307V29.013H210.025V37.2562ZM213.328 27.4182C213.328 28.5196 213.01 28.7927 211.983 28.7927C210.956 28.7927 210.647 28.5196 210.647 27.4182H211.143C211.143 28.0746 211.505 28.1143 211.979 28.1143C212.453 28.1143 212.823 28.1143 212.823 27.4182H213.328ZM223.076 37.08H226.893V29.013H227.62V37.08H228.111V40.001H227.406V37.9523H222.35V29.013H223.076V37.08ZM233.804 29.013V29.8854H230.326V32.965H233.643V33.8373H230.326V37.0844H233.786V37.9567H229.6V29.0174H233.804V29.013ZM240.027 32.965V29.013H240.754V37.9523H240.027V33.8329H236.21V37.9523H235.483V29.013H236.21V32.965H240.027ZM245.018 37.9567H244.292V29.8898H242.19V29.0174H247.125V29.8898H245.014V37.9567H245.018ZM249.322 33.6082V29.8898H251.607C252.547 29.8898 252.713 30.4097 252.713 31.6873C252.713 33.2866 252.221 33.5906 251.054 33.5906L249.322 33.6082ZM253.365 32.7051V30.555C253.2 29.4933 252.704 29.0174 251.707 29.0174H248.626V37.9567H249.353V34.4541H251.298C252.625 34.4541 253.217 33.9915 253.4 32.7007H253.37L253.365 32.7051Z" fill="#006EBD"/>
<path d="M32.8692 23.8581L10.0785 30.8016C11.8714 33.282 16.3103 34.0883 21.5239 32.511C24.0262 31.7532 26.3719 30.5505 28.4608 28.96L34.9624 30.8941C31.0632 34.2381 26.5242 36.7229 21.6283 38.1945C10.0785 41.675 0.882969 38.1945 1.01352 30.6033C1.13973 23.1885 10.122 14.6017 21.1409 11.196C32.1598 7.79038 41.6165 10.7554 42.0125 18.0822C42.0603 19.122 41.9515 20.1661 41.6817 21.1706L32.8736 23.8581H32.8692ZM9.88263 25.3473L32.8779 18.2937C31.1459 15.6723 26.559 14.8308 21.2497 16.4697C15.9404 18.1086 11.4885 21.717 9.88263 25.3473Z" fill="#006EBD"/>
</mask>
<g mask="url(#mask0_2282_1553)">
<rect x="0.600098" width="253.125" height="40" fill="#58687C"/>
</g>
</svg>
