<svg width="92" height="60" viewBox="0 0 92 60" fill="none" xmlns="http://www.w3.org/2000/svg">
<path fill-rule="evenodd" clip-rule="evenodd" d="M46 0C20.596 0 0 13.4319 0 29.9976C0 46.5633 20.596 60 46 60C71.404 60 92 46.5681 92 29.9976C92 13.4271 71.404 0 46 0ZM46 55.6928C23.0631 55.6928 4.47151 44.1927 4.47151 29.9976C4.47151 15.8025 23.0631 4.30241 46 4.30241C68.9369 4.30241 87.5332 15.8073 87.5332 29.9976C87.5332 44.1879 68.9369 55.6928 46 55.6928Z" fill="#C4A158"/>
<path fill-rule="evenodd" clip-rule="evenodd" d="M46 3.91137C22.7126 3.91137 3.83606 15.5927 3.83606 29.9977C3.83606 44.4027 22.7126 56.0888 46 56.0888C69.2874 56.0888 88.1686 44.4074 88.1686 29.9977C88.1686 15.588 69.2874 3.91137 46 3.91137ZM46 55.6928C23.0631 55.6928 4.47151 44.1927 4.47151 29.9976C4.47151 15.8025 23.0631 4.30241 46 4.30241C68.9369 4.30241 87.5332 15.8073 87.5332 29.9976C87.5332 44.1879 68.9369 55.6928 46 55.6928Z" fill="#FEFEFE"/>
<path fill-rule="evenodd" clip-rule="evenodd" d="M30.6791 25.2896C30.6885 26.215 30.4829 27.0497 30.1231 27.8224C29.6512 28.8098 28.5158 28.4472 27.6514 28.4949C25.9646 28.3709 24.2359 28.4091 22.5398 28.4616C22.3529 28.4472 22.1333 28.4234 22.0398 28.2326C22.0165 28.099 22.1706 28.0704 22.2361 28.0227C22.6659 27.9989 23.0911 27.8844 23.3574 27.4599C23.6705 26.9495 23.6939 26.3008 23.6939 25.6378L23.6798 17.4766C23.6331 16.9757 23.4742 16.4511 23.021 16.203C22.8949 16.079 22.5958 16.0886 22.6426 15.8405C22.7827 15.7022 22.965 15.6927 23.1612 15.664L25.7684 15.7165L29.6045 15.5782C29.7633 15.602 29.9596 15.5543 30.067 15.7165L29.5437 18.4115C29.4877 18.4878 29.4176 18.5355 29.3241 18.4973C29.0952 18.2875 29.1886 17.8772 29.0858 17.5767C29.0157 17.0998 28.5999 16.6657 28.17 16.5512C27.4552 16.4034 26.4973 16.3032 25.9226 16.866C25.6563 17.1904 25.6095 17.6149 25.6423 18.0728V20.8059L25.6656 20.8202C27.03 21.0969 28.6092 21.0206 29.9128 20.6724C29.9969 20.6581 30.067 20.7105 30.1231 20.7821C30.1698 20.9443 30.0764 21.1064 29.9596 21.2066C29.4877 21.5834 28.9457 21.7694 28.4037 21.9698C27.5486 22.256 26.6001 22.3037 25.6563 22.318V26.2627C25.6796 26.773 26.0488 27.2739 26.4973 27.436C27.6514 27.7604 29.0157 27.6221 29.7867 26.5393C30.1698 26.1386 30.1091 25.5376 30.4922 25.1656C30.5857 25.1274 30.6558 25.2037 30.6791 25.2896ZM56.2233 25.1656C56.1298 25.2037 56.1111 25.3039 56.0504 25.3755C55.8915 26.0528 55.5084 26.6872 54.943 27.1117C54.1113 27.6841 52.7844 27.7747 51.92 27.25C51.5929 27.0115 51.4434 26.6633 51.3966 26.2865V22.318C52.3592 22.318 53.2796 22.2178 54.1347 21.9698C54.6907 21.7456 55.2561 21.593 55.728 21.1828C55.8308 21.0826 55.9009 20.9347 55.8541 20.7964C55.8074 20.7201 55.728 20.6581 55.6486 20.6724C54.3543 21.0206 52.761 21.0969 51.42 20.8202L51.3873 20.8059V17.7246C51.3873 17.4527 51.4434 17.1904 51.5742 16.9757C52.1489 16.265 53.2703 16.3891 54.0319 16.6037C54.401 16.7277 54.7328 17.1284 54.8169 17.5243C54.929 17.8391 54.8169 18.2731 55.0692 18.4973C55.1486 18.5355 55.2421 18.4878 55.2794 18.4115L55.7981 15.726C55.728 15.54 55.5084 15.6163 55.3589 15.5782L51.5275 15.7165L48.8922 15.664C48.71 15.6927 48.5138 15.7022 48.3736 15.8405C48.3175 16.0647 48.5932 16.0647 48.71 16.1649C49.2053 16.4129 49.3875 16.9901 49.4342 17.5386L49.4482 25.6998C50.5322 26.8875 51.7564 27.7127 53.0273 28.4329L53.2936 28.4616C54.1347 28.4472 55.2794 28.8336 55.8074 27.9083C56.1906 27.1117 56.4429 26.2245 56.4102 25.2514C56.3728 25.1894 56.3074 25.1417 56.2233 25.1656ZM22.3762 20.9824C20.8624 21.3306 19.0728 21.3592 17.4935 21.1446V18.7883C17.5029 18.2731 17.4608 17.7389 17.6104 17.2762C17.7599 16.7516 18.2785 16.4892 18.7411 16.4511C19.7223 16.4654 20.9324 16.2507 21.4184 17.3239C21.6847 17.7389 21.4511 18.3733 21.7081 18.7883C21.7548 18.836 21.8109 18.8598 21.8903 18.8503C21.951 18.836 21.9978 18.774 22.0165 18.712C22.194 17.7008 22.3529 16.6752 22.493 15.664C22.2267 15.5639 21.9043 15.6402 21.6146 15.6402L16.9142 15.7404L14.5826 15.6783C14.4097 15.664 14.2509 15.6927 14.1247 15.7928C14.0874 15.8405 14.0546 15.9025 14.064 15.9788C14.2275 16.1887 14.5266 16.1649 14.7555 16.2412C15.405 16.6514 15.461 17.4527 15.5405 18.173L15.5311 26.3008C15.4984 26.6633 15.461 27.0354 15.3022 27.3502C15.0919 27.9226 14.5266 27.9226 14.0874 28.0847C14.0173 28.1086 13.9705 28.1706 13.9846 28.2469C13.9939 28.3232 14.0406 28.3614 14.1014 28.3852C14.606 28.4616 15.1153 28.3328 15.6246 28.3232L17.8954 28.4091C18.2318 28.3995 18.6149 28.4854 18.8999 28.3328C18.9373 28.2851 18.9467 28.1992 18.9233 28.1086C18.8205 27.9226 18.5682 27.975 18.3953 27.8987C17.9795 27.8129 17.6991 27.312 17.6197 26.897C17.3908 25.5758 17.5263 24.0637 17.5029 22.6566C18.0916 22.6805 18.6944 22.6805 19.2597 22.6042C20.4605 22.4706 21.6053 22.1558 22.5491 21.3592C22.6052 21.2829 22.6285 21.1684 22.6192 21.0826C22.5958 20.9586 22.4697 20.9824 22.3762 20.9824ZM43.2152 28.0609C43.2386 28.1467 43.2012 28.2469 43.1311 28.3089C42.9582 28.4329 42.7527 28.4616 42.5424 28.4711C41.0332 28.5331 39.5567 28.4234 38.5381 27.1498C37.2205 25.7141 36.5757 23.954 35.146 22.6042C34.8423 22.3418 34.4498 22.1415 34.0386 22.2941L34.0479 26.3628C34.0947 26.9495 34.2909 27.5744 34.8329 27.8462C35.0619 27.9989 35.5478 27.8606 35.5244 28.2994C35.5011 28.3709 35.4216 28.4091 35.3422 28.4329C34.347 28.4711 33.4125 28.2469 32.4079 28.3614L30.6978 28.4472C30.5717 28.4234 30.4128 28.4472 30.3427 28.2994C30.3053 28.1849 30.4128 28.1086 30.4689 28.0704C30.8941 27.9369 31.394 27.9464 31.6603 27.4503C32.0154 26.8493 31.9687 26.0766 31.9827 25.3134L31.9594 17.5624C31.9126 17.0616 31.8099 16.5655 31.3706 16.2793C31.1277 16.1029 30.7819 16.1267 30.5857 15.8644C30.5623 15.7928 30.5857 15.7022 30.6558 15.664C31.679 15.5925 32.6836 15.7642 33.7115 15.7642L34.4731 15.7547C35.8235 15.6545 37.4635 15.4017 38.6176 16.141C39.3371 16.7134 39.739 17.5624 39.6128 18.5355C39.4726 20.0857 38.0288 21.2829 36.8187 21.9078C37.1644 22.1415 37.5009 22.4706 37.7999 22.8188L40.2342 25.8763C41.0426 26.7873 41.8649 27.7604 42.9956 27.8749C43.0751 27.8987 43.1779 27.9607 43.2152 28.0609ZM37.2906 19.6707C37.5709 18.898 37.4635 17.8629 37.0476 17.1999C36.5056 16.3795 35.5712 16.0886 34.6927 16.3652C34.2208 16.5417 34.0947 17.0616 34.0479 17.5386L34.0386 21.0969L34.0713 21.2448C34.2208 21.5453 34.5666 21.4069 34.8423 21.4451C35.8608 21.3831 36.8888 20.7344 37.2906 19.6707ZM51.8032 28.2994C51.6303 28.4234 51.42 28.4711 51.2004 28.4711C49.5651 28.5856 48.0045 28.3614 46.9672 26.897C45.7897 25.5281 45.1309 23.8777 43.7806 22.6042C43.4675 22.3418 43.0891 22.1415 42.6826 22.2941V27.2214C41.8042 27.1498 41.1921 26.277 40.6034 25.5901L40.594 17.4384C40.5333 16.9519 40.3604 16.4034 39.8885 16.203C39.6829 16.0552 39.2203 16.141 39.2437 15.7404C39.3371 15.602 39.496 15.664 39.6362 15.6402C40.7996 15.6545 41.9443 15.8262 43.1218 15.7547C44.3226 15.6402 45.7197 15.5162 46.841 15.9025C47.5419 16.1649 48.1073 16.9757 48.2474 17.7389C48.4764 19.3464 47.3924 20.6962 46.1916 21.4689C45.9486 21.6073 45.7056 21.7694 45.4673 21.9078C45.8131 22.1558 46.1448 22.4802 46.4439 22.8284L48.8689 25.862C49.7006 26.773 50.5089 27.7985 51.663 27.8844C51.7471 27.9083 51.8265 27.975 51.8499 28.0609C51.8826 28.1467 51.8499 28.2326 51.8032 28.2994ZM45.743 20.0857C46.2149 19.3368 46.1916 18.1348 45.7991 17.3621C45.3038 16.4034 44.2525 16.079 43.318 16.3795C42.8555 16.5655 42.7293 17.0759 42.6966 17.5529C42.6732 18.7597 42.6592 20.0094 42.6966 21.2209C42.7386 21.3449 42.8555 21.4069 42.9723 21.4308C44.089 21.5453 45.1076 21.0969 45.743 20.0857ZM69.1892 28.3089C68.6332 28.5951 67.895 28.4616 67.2595 28.4616C66.1194 28.4091 65.1382 27.8844 64.3766 26.8875C63.1852 25.5138 62.5497 23.8396 61.19 22.5946C60.8863 22.318 60.4939 22.1558 60.092 22.2941L60.1014 26.1625C60.1481 26.8637 60.321 27.6602 61.0265 27.8987C61.2134 27.9846 61.4657 27.9464 61.6059 28.1467C61.6059 28.2469 61.5919 28.3471 61.4984 28.3995C60.4845 28.5331 59.5033 28.2231 58.4613 28.3614L56.7559 28.4472C56.6391 28.4234 56.4896 28.4329 56.4102 28.3089C56.3961 28.2088 56.4335 28.1086 56.5129 28.0847C56.9381 27.9226 57.4381 27.9464 57.7138 27.4503C57.9661 26.9972 58.0502 26.4725 58.0362 25.9001L58.0268 17.6244C57.9894 17.0902 57.8726 16.5417 57.4007 16.2507C57.1577 16.0886 56.7886 16.141 56.6391 15.8405C56.6391 15.7547 56.6765 15.6783 56.7559 15.6545C58.0268 15.602 59.251 15.8548 60.5406 15.7547C62.0171 15.6927 63.8533 15.3015 64.9981 16.4272C65.6896 17.1284 65.8625 18.2636 65.5307 19.1842C65.1242 20.4196 63.9001 21.3592 62.8721 21.9078C63.2225 22.1415 63.5543 22.4706 63.8533 22.8188L66.325 25.9145C67.1334 26.8016 67.9417 27.7985 69.0864 27.8844C69.1518 27.9083 69.236 27.975 69.2687 28.0609C69.306 28.1467 69.2593 28.2469 69.1892 28.3089ZM63.045 20.2574C63.6104 19.5228 63.6337 18.2493 63.2319 17.4146C62.76 16.4272 61.7087 16.0647 60.7508 16.3652C60.2742 16.5417 60.1481 17.0616 60.1014 17.5386L60.092 21.0969L60.1247 21.2448C60.1715 21.3592 60.2742 21.4069 60.3817 21.4308C61.4423 21.531 62.3768 21.1589 63.045 20.2574ZM76.9127 26.8016C75.1699 28.5474 72.4319 29.1103 70.1938 28.1372C68.0585 27.2977 66.4979 24.8794 66.4512 22.4563C66.2923 19.6993 67.8389 17.0998 70.1564 16.0265C72.4646 14.8913 75.4129 15.4923 77.1791 17.5004C77.7631 18.1491 78.1696 18.898 78.4827 19.685C79.3704 22.132 78.7724 25.0416 76.9127 26.8016ZM75.9783 18.4496C75.768 18.0394 75.4923 17.6483 75.1466 17.2906C74.1046 16.1792 72.3291 16.017 71.0489 16.6514C69.2593 17.6626 68.6566 19.7327 68.5865 21.7838C68.6098 24.1925 69.4322 26.7873 71.6937 27.6602C73.03 28.0847 74.5111 27.7604 75.4222 26.5632C77.0249 24.4406 77.1791 20.8346 75.9783 18.4496ZM47.5559 40.7439C47.4484 40.8155 47.4064 40.93 47.3457 41.0301C46.0561 42.628 43.9628 43.2767 42.1172 42.504C40.3604 41.7504 39.2203 39.7566 39.0007 37.8439C38.7718 35.4637 39.5754 33.0788 41.6079 31.9435C42.6265 31.4046 44.1497 31.3807 45.0608 32.1773C45.8785 32.8546 46.0981 33.8515 46.0093 34.9486C46.0327 35.0106 46.0748 35.1012 46.1682 35.0726C46.3411 34.9629 46.3878 34.7482 46.4439 34.5622L47.0373 31.7432V31.5667C46.9765 31.457 46.8831 31.3807 46.7943 31.3187L46.4345 31.1565C44.2525 30.5937 41.5846 30.67 39.6922 31.8672C37.5009 33.4031 36.4496 36.0504 36.9215 38.8169C37.3046 41.1303 39.2904 43.4007 41.4117 43.9111C43.6778 44.5217 45.7524 43.5486 47.313 41.7504C47.5326 41.5166 47.7755 41.2638 47.7381 40.93C47.7054 40.8536 47.6681 40.7153 47.5559 40.7439ZM58.8772 43.5629C58.7651 43.2767 58.4053 43.3864 58.1857 43.2624C57.5409 42.9238 57.4614 42.1415 57.4007 41.4546L57.3914 33.9135C57.4007 33.1026 57.4007 32.2774 57.9567 31.7051C58.1997 31.4809 58.5455 31.519 58.8211 31.3664C58.8772 31.3044 58.8772 31.2042 58.8678 31.1279C58.8118 31.0182 58.7043 31.0182 58.6155 30.9943L55.714 31.1041C55.172 31.0802 54.6533 31.0039 54.1207 30.9943C53.9945 31.0039 53.8684 31.0039 53.8123 31.1184C53.7749 31.1947 53.7983 31.2805 53.8684 31.3282C54.3309 31.4809 54.9197 31.5047 55.1486 32.0914C55.5785 33.2505 55.3121 34.7244 55.3682 36.0361C53.859 36.4749 52.0695 36.6228 50.4528 36.3366C50.5089 34.9486 50.2566 33.3888 50.6724 32.1534C50.8219 31.6287 51.3312 31.457 51.7704 31.3807C51.8826 31.3425 51.92 31.1947 51.8826 31.0802C51.8265 31.0039 51.7471 30.9562 51.6396 30.9562L48.7193 31.0564L47.7522 30.98C47.4858 30.9705 47.1401 30.8942 46.9205 31.042C46.8831 31.1184 46.8737 31.1947 46.9298 31.2567C47.2102 31.395 47.5326 31.4284 47.8082 31.5667C48.3269 31.9149 48.411 32.5636 48.453 33.1789L48.467 40.6056C48.4437 41.4022 48.4997 42.2274 48.1773 42.8761C47.9344 43.3483 47.4485 43.3864 47.0466 43.5009C46.9532 43.5248 46.8597 43.6106 46.8971 43.7251C46.9438 43.8253 47.0373 43.8491 47.1167 43.8634L48.8268 43.7632C49.7613 43.7489 50.635 43.8873 51.5742 43.8634C51.6863 43.8491 51.8125 43.8634 51.8826 43.7346C51.9667 43.2863 51.4574 43.4484 51.2378 43.3006C50.7752 43.1145 50.6023 42.5899 50.5089 42.1272C50.3734 40.7916 50.4622 39.3798 50.4762 38.006C51.8966 37.9822 53.2703 37.82 54.5505 37.4337C54.8262 37.3335 55.1159 37.2238 55.3822 37.1475L55.3682 41.6645C55.3448 42.0652 55.2888 42.4515 55.1252 42.7902C54.8963 43.3387 54.3403 43.3387 53.9057 43.4866C53.8357 43.5104 53.7749 43.5868 53.7983 43.6726C53.8357 43.7871 53.9525 43.8109 54.0553 43.8348C54.644 43.8348 55.1953 43.7489 55.7747 43.7251C56.7653 43.7346 57.7605 43.8634 58.751 43.8014C58.8351 43.7728 58.9006 43.6726 58.8772 43.5629ZM67.5819 40.5818C67.5352 40.5436 67.4558 40.5674 67.409 40.5913C67.11 40.9538 67.1334 41.4546 66.8343 41.8171C66.0821 43.0144 64.6523 43.1861 63.4608 42.8236C62.9983 42.6757 62.6432 42.1749 62.6198 41.6645V37.7437C64.0869 37.7341 65.47 37.51 66.6848 36.8088C66.867 36.6848 67.1334 36.4845 67.0866 36.1983C67.0306 36.1124 66.9371 36.0599 66.8343 36.0742C65.5494 36.4367 63.9468 36.5226 62.6105 36.2126V33.1789C62.6198 32.9166 62.6432 32.6543 62.76 32.4396C63.2786 31.6526 64.3533 31.8148 65.1382 31.9531C65.5634 32.0771 65.9793 32.4921 66.0587 32.9786C66.1428 33.2791 66.0727 33.6655 66.2783 33.904C66.3484 33.9517 66.4418 33.9135 66.4886 33.8372C66.6848 32.9404 66.8577 32.0294 67.0166 31.1184C66.8577 30.918 66.554 31.0182 66.3157 30.9943L62.6899 31.1184L60.1481 31.0802L59.7696 31.1279C59.6855 31.1661 59.5594 31.2185 59.5827 31.3569C59.6855 31.4904 59.8491 31.519 59.9892 31.6049C60.4378 31.8672 60.6013 32.3919 60.6574 32.9023L60.6667 40.0428C60.6107 41.0683 60.8303 42.1892 60.2415 42.9619C59.9519 43.3626 59.5126 43.3626 59.1108 43.4771C59.0407 43.5009 58.9706 43.5868 59.0174 43.6726C59.1202 43.8253 59.293 43.8491 59.4566 43.8634C61.2461 43.8348 63.1057 43.7632 64.8719 43.9254C65.6102 43.8873 66.4886 44.1258 66.9698 43.4246C67.3763 42.7377 67.5492 41.9412 67.6286 41.116C67.6193 40.9395 67.6987 40.7153 67.5819 40.5818ZM34.9123 41.6788C33.1368 43.7871 30.4128 44.5598 27.8944 43.6488C25.8385 42.9619 24.1097 40.6772 23.9368 38.359C23.6238 35.5257 24.904 32.888 27.2122 31.5429C29.0718 30.3838 31.8753 30.5174 33.6087 31.8529C34.66 32.5922 35.5384 33.7513 35.9776 34.939C36.842 37.1236 36.4262 39.9426 34.9123 41.6788ZM33.3798 33.7275C32.9032 32.8021 32.0388 31.9769 31.1137 31.7432C29.74 31.3807 28.3196 31.7289 27.3851 32.8784C26.2216 34.3619 25.9226 36.3223 26.1048 38.3304C26.3384 40.329 27.3851 42.6757 29.3942 43.1766C30.7445 43.5009 32.1089 43.1002 32.9733 41.8887C34.5105 39.7184 34.604 36.0981 33.3798 33.7275ZM26.6141 43.6392C26.3571 43.9254 25.946 43.873 25.5628 43.9016C24.1331 43.9254 22.8014 43.6869 21.8436 42.4515C20.5867 41.0397 19.9512 39.3321 18.5542 38.006C18.2458 37.7437 17.8533 37.5481 17.4468 37.7103V41.5787C17.5169 42.2035 17.6104 42.8904 18.1851 43.2243C18.3953 43.3387 18.6383 43.3626 18.8532 43.4484C18.9607 43.5009 18.9607 43.6249 18.9373 43.7251C18.8766 43.8109 18.7738 43.8348 18.6803 43.8348C17.1338 43.8014 15.6339 43.7346 14.1014 43.8491C13.9705 43.8491 13.835 43.8253 13.765 43.7108L13.7743 43.5725C14.064 43.2863 14.5359 43.4627 14.8162 43.1622C15.3349 42.6757 15.391 41.965 15.3816 41.2543L15.3676 33.0025C15.3349 32.4778 15.2181 31.9292 14.7462 31.6526C14.5032 31.519 14.1901 31.5286 14.0079 31.2805C13.9705 31.1947 14.0079 31.0945 14.0874 31.0659C15.5171 30.98 16.9375 31.3425 18.3813 31.1184C19.9419 31.042 21.8109 30.7415 22.722 32.3299C23.1612 33.0168 23.1285 34.09 22.7921 34.8245C22.3202 35.9741 21.1988 36.785 20.2176 37.3096C20.6568 37.5958 21.0586 38.0347 21.4184 38.4687C22.722 39.9951 23.806 41.8505 25.446 42.9762C25.7684 43.2243 26.2076 43.1766 26.5534 43.3626C26.6235 43.4246 26.6375 43.5391 26.6141 43.6392ZM20.3904 35.664C20.9698 34.9009 20.9792 33.6273 20.5773 32.7783C20.4465 32.5016 20.2409 32.244 19.998 32.0533C19.4326 31.643 18.5542 31.5286 17.9187 31.8672C17.5496 32.1439 17.4795 32.5922 17.4468 33.0406V36.4749L17.4795 36.6466C17.5263 36.7468 17.6197 36.8088 17.7132 36.8326C18.7644 36.9328 19.7223 36.5751 20.3904 35.664ZM80.1554 43.6488C79.8891 43.9111 79.4873 43.8873 79.1181 43.9016C77.8706 43.9254 76.6931 43.7632 75.7914 42.8617C74.2682 41.3783 73.6327 39.4561 72.0955 37.9965C71.7871 37.7437 71.404 37.5481 71.0021 37.696L71.0115 41.6645C71.0816 42.2751 71.2077 42.9524 71.7871 43.2529C72.0067 43.3864 72.3151 43.3244 72.502 43.5486C72.5347 43.6488 72.488 43.7728 72.3992 43.8109C72.0721 43.8634 71.717 43.8348 71.3946 43.8348C70.1471 43.7012 68.8995 43.8253 67.6427 43.8491C67.5165 43.8348 67.3623 43.8348 67.3203 43.7012C67.2829 43.6011 67.353 43.5248 67.4231 43.4866C67.8389 43.3387 68.3342 43.3626 68.6005 42.8904C68.8996 42.4134 68.9323 41.8172 68.9323 41.2161L68.9229 32.9786C68.8668 32.4778 68.7734 31.9435 68.3108 31.6669C68.0678 31.5047 67.7314 31.5429 67.5492 31.2662C67.5352 31.1947 67.5492 31.0802 67.6427 31.0659C69.1191 30.98 70.5863 31.3425 72.0721 31.1041C73.4038 31.042 74.9036 30.8417 75.8942 31.8291C76.5763 32.5159 76.7492 33.6368 76.4362 34.5622C76.0577 35.8214 74.8102 36.7611 73.7729 37.3096C74.1747 37.5958 74.5672 37.9679 74.9036 38.3972C76.2072 39.9426 77.3286 41.8171 78.978 42.9619C79.3004 43.2386 79.7489 43.1622 80.0993 43.3769C80.1788 43.4389 80.1881 43.5629 80.1554 43.6488ZM73.9691 35.6354C74.5205 34.877 74.5438 33.613 74.128 32.764C73.6467 31.7909 72.5954 31.4904 71.6609 31.7671C71.161 31.9435 71.0348 32.4921 71.0021 32.9786L70.9881 36.4606L71.0255 36.6466C71.0582 36.7229 71.1376 36.7993 71.2217 36.8231C72.3057 36.971 73.2869 36.5608 73.9691 35.6354Z" fill="#3F241B"/>
</svg>
