<svg width="124" height="60" viewBox="0 0 124 60" fill="none" xmlns="http://www.w3.org/2000/svg">
<path fill-rule="evenodd" clip-rule="evenodd" d="M38.2983 39.2273H46.1704V41.8174H42.4269V60H38.2983V39.2273Z" fill="#0079C2"/>
<path fill-rule="evenodd" clip-rule="evenodd" d="M50.836 52.2037L51.5432 41.8174H51.7802L52.4875 52.2037H50.836ZM46.2667 60H50.3065L50.6879 54.4845H52.6319L53.017 60H57.0567L54.9054 39.2273H48.4181L46.2667 60Z" fill="#0079C2"/>
<path fill-rule="evenodd" clip-rule="evenodd" d="M62.9664 52.7292V56.646C62.9664 57.1752 63.3738 57.328 63.6107 57.328C63.9995 57.328 64.2698 57.0037 64.2698 56.646V51.8124C64.2698 51.164 64.1513 50.4484 62.611 50.4484H60.9373V48.1677H62.6813C63.8477 48.1677 64.2698 47.8956 64.2698 46.6174V42.4956C64.2698 42.1379 63.9995 41.8136 63.6107 41.8136C63.3738 41.8136 62.9664 41.9515 62.9664 42.4956V45.8832H58.8378V42.9391C58.8378 41.4931 59.0081 39.2273 61.9 39.2273H65.3177C68.2096 39.2273 68.3948 41.4931 68.3948 42.9391V46.2596C68.3948 48.5254 66.8211 49.1366 65.588 49.0845V49.2894C68.3615 49.2223 68.3948 51.3652 68.3948 52.0994V56.2882C68.3948 57.7528 68.2096 60 65.3177 60H61.9C59.0081 60 58.8378 57.7528 58.8378 56.2882V52.7292H62.9664Z" fill="#0079C2"/>
<path fill-rule="evenodd" clip-rule="evenodd" d="M71.1015 39.2273H80.6585V60H76.5336V41.8174H75.2302V60H71.1015V39.2273Z" fill="#0079C2"/>
<path fill-rule="evenodd" clip-rule="evenodd" d="M87.4939 41.8174H88.0345C88.4752 41.8174 88.7973 42.1938 88.7973 42.8571V49.6174C88.7973 50.2807 88.4752 50.6571 88.0345 50.6571H87.4939V41.8174ZM83.3653 60H87.4939V52.9342H89.8637C92.7408 52.9342 92.9259 50.6869 92.9259 49.2224V42.9391C92.9259 41.4931 92.7408 39.2273 89.8637 39.2273H83.369V60H83.3653Z" fill="#0079C2"/>
<path fill-rule="evenodd" clip-rule="evenodd" d="M101.061 56.646C101.061 57.0037 100.791 57.328 100.402 57.328C100.165 57.328 99.7576 57.1752 99.7576 56.646V42.4956C99.7576 41.9515 100.165 41.8136 100.402 41.8136C100.791 41.8136 101.061 42.1379 101.061 42.4956V56.646ZM95.629 56.2882C95.629 57.7528 95.8141 60 98.6912 60H102.124C105.001 60 105.186 57.7528 105.186 56.2882V42.9391C105.186 41.4931 105.001 39.2273 102.124 39.2273H98.6912C95.8141 39.2273 95.629 41.4931 95.629 42.9391V56.2882Z" fill="#0079C2"/>
<path fill-rule="evenodd" clip-rule="evenodd" d="M118.62 39.2273H124V60H119.875V46.9751H119.72L117.59 60H114.291L112.177 46.9751H112.025V60H107.896V39.2273H113.258L115.95 53.836L118.62 39.2273Z" fill="#0079C2"/>
<path fill-rule="evenodd" clip-rule="evenodd" d="M32.9514 10.8298C31.6887 5.26212 28.5191 0.734163 28.0859 0C27.3972 1.03975 24.8718 5.03852 23.587 9.46585C22.1836 14.4187 21.9799 18.8125 22.4613 23.1205C22.9427 27.4435 24.757 31.8895 24.757 31.8895C25.7198 34.2038 27.1676 36.7081 28.1081 37.9342C29.4855 36.1305 32.6552 30.7491 33.6438 23.7354C34.1918 19.8187 34.2177 16.3975 32.9551 10.8298H32.9514ZM28.0859 36.5404C27.4638 35.3665 26.5011 33.1342 26.4085 29.6609C26.3863 26.3255 27.7156 23.4448 28.1044 22.8522C28.4525 23.4485 29.5966 25.9491 29.7336 29.374C29.8262 32.7094 28.7228 35.3516 28.0822 36.5404H28.0859ZM32.5848 20.2808C32.5367 22.4087 32.2849 24.6559 31.9627 26.0013C32.0775 23.687 31.8035 20.4336 31.274 17.8808C30.7445 15.3429 29.2523 11.087 28.06 9.13045C26.9602 11.005 25.6013 14.6795 24.8903 17.8659C24.1757 21.0485 24.1572 24.9131 24.1572 26.0721C23.9683 25.1031 23.4944 21.6112 23.6277 18.1193C23.7388 15.2423 24.409 12.2609 24.7756 10.9006C26.1752 6.35405 27.76 3.44348 28.06 2.9851C28.3562 3.44348 30.3557 7.03604 31.3888 10.8C32.4182 14.564 32.6255 18.1715 32.5848 20.2845V20.2808Z" fill="#0079C2"/>
<path fill-rule="evenodd" clip-rule="evenodd" d="M20.6173 39.2274V45.7156C20.6173 45.7156 20.6321 45.697 20.6395 45.697C22.9019 43.4163 26.5751 43.4163 28.8376 45.697C31.1 47.9628 31.1 51.656 28.8376 53.9368C28.8264 53.9554 28.819 53.9554 28.8079 53.9703C28.8079 53.9703 28.7857 53.9889 28.7746 54.0039C26.5159 56.2511 23.5647 57.3765 20.6173 57.3765C17.6699 57.3765 14.6891 56.2511 12.4304 53.9703C8.44613 49.9678 7.97217 43.7554 11.0122 39.2274C11.4232 38.6162 11.8935 38.0349 12.4304 37.4908C14.6891 35.21 17.655 34.0846 20.6173 34.0846V18.492C9.23113 18.492 0 27.7715 0 39.2274C0 50.6833 9.23113 59.9815 20.621 59.9815C26.5603 59.9815 31.9072 57.4436 35.6693 53.4113V39.2274H20.6173Z" fill="#0079C2"/>
</svg>
