<svg width="339" height="24" viewBox="0 0 339 24" fill="none" xmlns="http://www.w3.org/2000/svg">
<path fill-rule="evenodd" clip-rule="evenodd" d="M20.4804 0.966692V23.4609H15.045V15.0953H6.18537V23.5538H0.75V1.07823H6.18537V10.0759H15.0631V1.07823H20.4985V0.966692H20.4804ZM83.1501 23.4609H77.7148V12.2138L72.8048 19.9287H69.7791L64.8692 12.1022V23.4609H59.4338V0.966692H63.5104L71.2467 12.976L78.9649 0.966692H83.0414V23.4609H83.1501ZM40.0115 0C31.3511 0 24.3576 6.8598 24.3576 15.3184C24.3576 18.3114 25.191 21.0999 26.7673 23.4609H34.2862C31.9852 21.639 30.5358 18.8505 30.5358 15.6344C30.5358 10.2804 34.8116 5.89311 40.0296 5.89311C45.2475 5.89311 49.5415 10.2804 49.5415 15.6344C49.5415 18.8505 48.0739 21.639 45.7729 23.4609H53.2919C54.7594 21.0999 55.7015 18.3114 55.7015 15.3184C55.7015 6.8598 48.708 0 40.0296 0H40.0115Z" fill="#C8102E"/>
<path fill-rule="evenodd" clip-rule="evenodd" d="M34.9022 17.9024C35.6269 20.1518 37.6199 21.7692 40.0115 21.7692C42.403 21.7692 44.396 20.1704 45.1207 17.9024H34.8841H34.9022ZM93.0606 5.89311V9.96437H102.772V14.6863H93.0606V18.5531H104.131V23.3679H87.5347V0.855152H104.131V5.68861H93.0606V5.9117V5.89311ZM266.213 17.2517C266.213 21.007 263.296 23.4609 258.386 23.4609H247.316V0.966693H257.752C262.553 0.966693 265.271 3.32765 265.271 6.97134C265.271 9.01627 264.13 11.2657 262.245 11.8978C264.854 12.5484 266.213 14.8908 266.213 17.2517ZM252.734 5.57707V10.299H256.81C258.894 10.299 260.053 9.22076 260.053 7.82649C260.053 6.43222 258.912 5.68861 256.81 5.68861H252.734V5.57707ZM260.887 16.5081C260.887 15.1139 259.745 14.3703 257.752 14.3703H252.734V18.8691H257.643C259.836 18.8691 260.887 17.9024 260.887 16.5081ZM283.027 19.6127H273.732L272.265 23.4609H266.413L275.707 0.966693H280.925L290.219 23.4795H284.367L283.009 19.6127H283.027ZM281.251 15.0023L278.334 7.39892L275.417 15.0023H281.269H281.251ZM312.269 0.966693V23.4609H308.084L297.539 11.1356V23.4609H292.104V0.966693H296.289L306.834 13.6081V0.966693H312.269ZM325.531 15.1139L322.288 18.962V23.5724H316.853V1.07823H322.288V11.3586L331.057 1.07823H337.525L329.173 10.9311L338.25 23.5724H331.456L325.495 15.1139H325.531ZM155.422 23.4795L151.237 16.9357H147.161V23.4795H141.635V0.966693H151.237C156.673 0.966693 160.314 3.95972 160.314 8.90473C160.314 11.8048 158.955 14.2587 156.654 15.653L161.764 23.4795H155.386H155.422ZM147.07 12.0093H151.147C153.23 12.0093 154.897 10.8381 154.897 9.01627C154.897 7.19442 153.23 6.02324 151.147 6.02324H147.07V12.0279V12.0093ZM169.935 5.89311V9.96437H179.646V14.6863H169.935V18.5531H181.005V23.3679H164.409V0.855152H181.005V5.68861H169.935V5.9117V5.89311ZM205.337 12.2138C205.337 18.8505 200.427 23.5724 193.542 23.5724H184.773V1.07823H193.542C200.337 0.966693 205.337 5.57707 205.337 12.2138ZM199.793 12.2138C199.793 8.77459 197.075 6.0976 193.524 6.0976H190.173V18.5345H193.506C197.057 18.4229 199.775 15.7459 199.775 12.2138H199.793ZM213.69 0.966693V23.4609H208.254V0.966693H213.69ZM234.579 6.00465H228.311V23.4609H222.875V5.98606H216.607V0.966693H234.561V6.00465H234.579ZM132.757 15.4299C131.924 17.4562 130.148 18.7576 127.738 18.7576C124.187 18.7576 121.687 16.0806 121.687 12.3253C121.687 8.5701 124.187 5.89311 127.738 5.89311C130.148 5.89311 131.924 7.06429 132.757 9.22076H138.5C137.359 4.07126 133.282 0.650659 127.738 0.650659C121.161 0.650659 116.143 5.57707 116.143 12.3253C116.143 19.0736 121.161 24 127.738 24C133.264 24 137.341 20.5794 138.5 15.4299H132.757Z" fill="#C8102E"/>
</svg>
