<svg width="226" height="24" viewBox="0 0 226 24" fill="none" xmlns="http://www.w3.org/2000/svg">
<path fill-rule="evenodd" clip-rule="evenodd" d="M21.4873 23.6293H16.4433V8.36717L5.36253 23.6293H0.5V0.365402H5.60806V15.6328L16.7476 0.365402H21.4873V23.6293ZM25.1809 0.42895H30.353V9.58517H40.6919V0.42895H45.864V23.6293H40.6919V14.2877H30.353V23.6293H25.1809V0.42895ZM54.6603 23.6293H49.5523V0.365402H65.4316V5.00441H54.6603V23.6293ZM90.2299 12.0265C90.2299 4.94616 85.0578 0.121801 77.9215 0H77.7987C70.6624 0.0635481 65.4903 4.94616 65.4903 11.9682C65.4903 18.9903 70.6624 23.8729 77.7987 23.9365H77.9215C85.0578 23.9365 90.2299 19.0538 90.2299 12.0318V12.0265ZM77.8574 19.2921C73.7315 19.2921 70.8438 16.4854 70.8438 12.0265C70.8438 7.56752 73.7368 4.76081 77.8574 4.76081C81.978 4.76081 84.871 7.56752 84.871 12.0265C84.871 16.4854 81.978 19.2921 77.8574 19.2921ZM144.075 5.12621H136.507V0.42895H156.752V5.13151H149.242V23.6346H144.07V5.13151L144.075 5.12621ZM159.896 0.42895H170.422C176.021 0.42895 179.405 3.72816 179.405 8.48897C179.405 13.8641 175.22 16.6708 169.925 16.6708H165.063V23.6293H159.891V0.42895H159.896ZM170.048 12.09C172.631 12.09 174.11 10.5649 174.11 8.48897C174.11 6.22771 172.509 4.94616 169.925 4.94616H165.004V12.0265H170.048V12.09ZM225.5 23.6293L217.189 11.7246L225.132 0.365402H219.223L214.238 7.50927L209.252 0.365402H203.162L211.163 11.8464L202.853 23.6293H208.761L214.115 15.9982L219.41 23.6293H225.5ZM197.067 23.6293H202.298L192.268 0.243601H187.529L177.499 23.6293H182.73L184.945 18.2542H194.852L197.067 23.6293ZM186.787 13.737L189.925 6.47132L193.064 13.737H186.787ZM104.812 19.2921C100.686 19.2921 97.7986 16.4854 97.7986 12.0265C97.7986 7.56752 100.692 4.76081 104.812 4.76081C106.969 4.76081 108.751 5.36981 110.289 6.65137L113.491 3.47396C111.34 1.40335 108.447 0.0635481 104.876 0.0635481H104.753C97.6171 0.127096 92.445 5.00971 92.445 12.0318C92.445 19.0538 97.6171 23.9365 104.753 24H104.876C108.383 23.9365 111.276 22.5966 113.491 20.579L110.289 17.4016C108.751 18.6831 106.963 19.2921 104.812 19.2921ZM126.291 19.2921C122.165 19.2921 119.277 16.4854 119.277 12.0265C119.277 7.56752 122.17 4.76081 126.291 4.76081C128.447 4.76081 130.23 5.36981 131.767 6.65137L134.969 3.47396C132.818 1.40335 129.925 0.0635481 126.355 0.0635481H126.232C119.095 0.127096 113.923 5.00971 113.923 12.0318C113.923 19.0538 119.095 23.9365 126.232 24H126.355C129.861 23.9365 132.754 22.5966 134.969 20.579L131.767 17.4016C130.23 18.6831 128.442 19.2921 126.291 19.2921Z" fill="#0047BB"/>
</svg>
