<svg width="121" height="60" viewBox="0 0 121 60" fill="none" xmlns="http://www.w3.org/2000/svg">
<mask id="mask0_2302_1493" style="mask-type:alpha" maskUnits="userSpaceOnUse" x="0" y="0" width="121" height="60">
<path d="M107.29 40.0069C107.29 41.9425 107.29 43.8699 107.29 45.8056C107.29 46.1425 107.278 46.4302 107.751 46.4138C109.059 46.3768 110.385 46.4549 111.685 46.3275C113.614 46.1425 115.184 45.259 115.995 43.3521C116.721 41.6467 116.77 39.8508 116.407 38.0425C115.905 35.5151 114.209 33.9453 111.702 33.748C110.438 33.6453 109.161 33.6905 107.893 33.6288C107.384 33.6042 107.273 33.8014 107.278 34.2823C107.298 36.1932 107.282 38.1042 107.282 40.011M103.025 29.8768C103.074 29.8521 103.094 29.8316 103.114 29.8357C106.678 29.8645 110.27 29.4165 113.785 30.1521C117.361 30.896 119.909 33.3453 120.696 37.2124C121.218 39.785 121.096 42.296 120.105 44.7412C119.098 47.2028 117.308 48.8343 114.858 49.5905C113.545 49.9973 112.13 50.1946 110.756 50.2562C108.342 50.359 105.912 50.2891 103.494 50.2891C103.351 50.2891 103.212 50.2686 103.025 50.2562V29.8768Z" fill="#231F20"/>
<path d="M65.4389 39.4273C66.8212 39.4273 68.13 39.4273 69.4389 39.4273C69.7855 39.4273 70.1402 39.4273 70.4786 39.3615C72.183 39.0204 73.0433 37.9807 72.974 36.3862C72.9047 34.8615 71.9465 33.8547 70.238 33.7232C68.7865 33.6122 67.3268 33.6656 65.867 33.6369C65.5449 33.6287 65.4348 33.7643 65.4389 34.0807C65.4471 34.8821 65.4389 35.6793 65.4389 36.4766V39.4314M78.9434 50.2848C77.2513 50.2848 75.7222 50.2889 74.1972 50.2684C74.0505 50.2684 73.871 50.1122 73.7691 49.9766C72.1463 47.8396 70.5439 45.6862 68.9047 43.5615C68.7212 43.3273 68.3502 43.1547 68.0525 43.1259C67.3798 43.0643 65.4593 43.093 65.4593 43.093C65.4593 43.093 65.4348 43.2574 65.4389 43.7136C65.4593 45.6245 65.447 47.5355 65.447 49.4465V50.2355H61.1902V29.8314C61.3615 29.8108 61.496 29.7821 61.6387 29.7821C64.5745 29.7903 67.5062 29.7698 70.4419 29.8191C71.9139 29.8396 73.3084 30.2424 74.5928 31.015C76.3338 32.0629 77.1697 33.6862 77.3043 35.6793C77.3654 36.5629 77.2961 37.4958 77.1045 38.3588C76.6886 40.2574 75.4531 41.4903 73.7365 42.2547C73.5163 42.3533 73.2961 42.4561 73.0107 42.5876C74.976 45.1396 76.9128 47.6465 78.9434 50.2766" fill="#231F20"/>
<path d="M90.5804 34.2494C89.5121 37.0932 88.4561 39.9083 87.3796 42.7891H93.8057C92.717 39.9165 91.6528 37.0932 90.5804 34.2494ZM101.039 50.2809C99.6079 50.2809 98.2582 50.2974 96.9045 50.2645C96.7537 50.2645 96.5457 50.0179 96.4723 49.8412C96.085 48.8919 95.7261 47.9343 95.3836 46.9727C95.2532 46.6111 95.0778 46.459 94.6742 46.459C91.9627 46.4795 89.2552 46.4795 86.5437 46.459C86.1278 46.459 85.928 46.5905 85.7894 47.0015C85.4428 47.9837 85.0432 48.9535 84.6396 49.9111C84.5743 50.0631 84.3827 50.2604 84.2441 50.2645C82.8944 50.2932 81.5407 50.2809 80.0932 50.2809C80.5581 49.0933 80.978 47.9919 81.4184 46.8946C83.6284 41.3672 85.8465 35.8439 88.0442 30.3124C88.1992 29.922 88.3908 29.7741 88.8026 29.7864C90.0136 29.8111 91.2287 29.7987 92.4356 29.7946C92.7455 29.7946 92.9494 29.8439 93.0921 30.1974C95.6935 36.7604 98.3072 43.3193 100.921 49.8782C100.953 49.9686 100.974 50.0713 101.035 50.2809" fill="#231F20"/>
<path d="M23.9183 50.2931H19.6492V29.852C20.9621 29.852 22.2506 29.8438 23.5309 29.8685C23.6655 29.8685 23.8245 30.0698 23.9224 30.2137C26.5849 34.015 29.2393 37.8287 31.8938 41.6383C32.2118 42.0945 32.538 42.5424 32.9376 43.1013V29.8767H37.1659V50.3219C35.8693 50.3219 34.589 50.3342 33.3046 50.3013C33.1578 50.3013 32.9865 50.0671 32.8724 49.9109C30.0222 45.8301 27.1762 41.7452 24.3301 37.6602C24.2322 37.5164 24.114 37.389 23.9142 37.1507V50.289" fill="#231F20"/>
<path d="M13.8796 29.8768H9.65539V50.2768H13.8796V29.8768Z" fill="#231F20"/>
<path d="M56.7947 39.0904C56.7947 38.9466 56.7621 38.6835 56.4971 38.6835C56.387 38.6835 56.281 38.6836 56.1709 38.6794H55.6367C54.6867 38.6671 53.7285 38.6712 52.7254 38.6712V38.6794H49.2759V42.637H52.7213C52.7213 43.6644 52.7213 44.6918 52.7458 45.6329C52.7254 46.7342 52.3299 46.7383 51.6531 46.8699C51.1515 46.9644 50.5807 46.9685 49.757 46.8986C48.0119 46.7507 46.4135 46.1836 45.2229 44.7781C44.175 43.5411 43.8651 42.0411 43.7632 40.4507C43.5797 37.4096 45.2148 34.8657 48.0445 33.9616C50.7479 33.0986 53.337 33.4972 55.8324 34.7794C55.967 34.8493 56.1097 34.9027 56.3421 35.0096C56.3421 33.8014 56.3217 32.6836 56.3544 31.5699C56.3707 31.1014 56.232 30.8671 55.7998 30.6986C53.0557 29.6466 50.2586 29.2849 47.3717 29.9383C45.2433 30.4233 43.3432 31.3562 41.8794 33.0534C39.4533 35.8808 39.0089 39.2425 39.6817 42.7644C40.4442 46.7836 42.964 49.2288 46.7927 50.2808C50.071 51.1808 54.071 50.8068 56.3992 49.5452C56.5786 49.4753 56.7988 49.2082 56.7988 49.0315C56.8192 45.9288 56.8192 42.189 56.7988 39.0904" fill="#231F20"/>
<path d="M4.22831 55.7384V22.6438L32.9457 7.12192V24.4068H37.17V0L0 20.0918V60H37.17V55.7384H4.22831Z" fill="#FFCF33"/>
</mask>
<g mask="url(#mask0_2302_1493)">
<rect width="121.333" height="60" fill="#58687C"/>
</g>
</svg>
