<svg width="146" height="50" viewBox="0 0 146 50" fill="none" xmlns="http://www.w3.org/2000/svg">
<mask id="mask0_2302_1626" style="mask-type:alpha" maskUnits="userSpaceOnUse" x="0" y="0" width="146" height="50">
<path d="M23.7688 12.7542C23.4286 12.7542 23.2397 12.3916 23.457 12.1483C26.1215 9.11406 27.9781 4.34801 28.8852 0.187855C28.9372 -0.0602274 29.2348 -0.0649982 29.2962 0.187855C30.2033 4.34801 32.0599 9.11406 34.7244 12.1483C34.937 12.3916 34.7527 12.7542 34.4126 12.7542H23.7688ZM11.0463 50C11.3865 50 11.5754 49.6374 11.3581 49.3941C8.69363 46.3599 6.83699 41.5938 5.92993 37.4337C5.87324 37.1808 5.57561 37.1856 5.51892 37.4337C4.61186 41.5938 2.75522 46.3599 0.0907257 49.3941C-0.121867 49.6374 0.0623801 50 0.402528 50H11.0463ZM26.6223 50C26.9624 50 27.1514 49.6374 26.9341 49.3941C24.2696 46.3599 22.4129 41.5938 21.5059 37.4337C21.4492 37.1808 21.1515 37.1856 21.0949 37.4337C20.1878 41.5938 18.3312 46.3599 15.6667 49.3941C15.4541 49.6374 15.6383 50 15.9785 50H26.6223ZM42.1982 50C42.5383 50 42.7273 49.6374 42.51 49.3941C39.8455 46.3599 37.9889 41.5938 37.0818 37.4337C37.0251 37.1808 36.7275 37.1856 36.6708 37.4337C35.7637 41.5938 33.9071 46.3599 31.2426 49.3941C31.03 49.6374 31.2143 50 31.5544 50H42.1982ZM57.7741 50C58.1143 50 58.3033 49.6374 58.0859 49.3941C55.4214 46.3599 53.5648 41.5938 52.6577 37.4337C52.6011 37.1808 52.3034 37.1856 52.2467 37.4337C51.3397 41.5938 49.483 46.3599 46.8185 49.3941C46.6059 49.6374 46.7902 50 47.1303 50H57.7741ZM25.3656 32.3098C25.7861 32.3098 26.0128 31.8661 25.7483 31.5655C22.4743 27.8395 20.1972 21.9857 19.0823 16.8762C19.0114 16.5661 18.6477 16.5709 18.5815 16.8762C17.4666 21.9857 15.1895 27.8395 11.9156 31.5655C11.651 31.8661 11.8825 32.3098 12.2983 32.3098H25.3656ZM45.8737 32.3098C46.2941 32.3098 46.5209 31.8661 46.2564 31.5655C42.9824 27.8395 40.7053 21.9857 39.5904 16.8762C39.5195 16.5661 39.1558 16.5709 39.0896 16.8762C37.9747 21.9857 35.6976 27.8395 32.4237 31.5655C32.1591 31.8661 32.3906 32.3098 32.8063 32.3098H45.8737ZM98.5021 29.4425C99.258 29.4425 99.7588 29.2708 99.7588 29.2708V16.881C102.116 16.9191 103.779 17.067 103.779 17.067C103.779 17.067 103.987 16.5327 103.982 16.0604C103.978 15.4926 103.756 15.1825 103.756 15.1825H93.2157C93.2157 15.1825 92.9936 15.4926 92.9889 16.0604C92.9889 16.5279 93.192 17.067 93.192 17.067C93.192 17.067 94.855 16.9191 97.2077 16.881V29.2708C97.2077 29.2708 97.7415 29.4425 98.4974 29.4425H98.5021ZM76.8083 22.229C76.8083 18.1691 73.5768 14.9917 69.4478 14.9917C65.3188 14.9917 62.0874 18.1691 62.0874 22.229C62.0874 26.289 65.3188 29.4664 69.4478 29.4664C73.5768 29.4664 76.8083 26.289 76.8083 22.229ZM74.0965 22.229C74.0965 24.8673 72.1879 27.8109 69.4478 27.8109C66.7077 27.8109 64.7991 24.8673 64.7991 22.229C64.7991 19.5908 66.7077 16.6472 69.4478 16.6472C72.1879 16.6472 74.0965 19.5908 74.0965 22.229ZM133.122 22.229C133.122 18.1691 129.89 14.9917 125.761 14.9917C121.632 14.9917 118.401 18.1691 118.401 22.229C118.401 26.289 121.632 29.4664 125.761 29.4664C129.89 29.4664 133.122 26.289 133.122 22.229ZM130.41 22.229C130.41 24.8673 128.501 27.8109 125.761 27.8109C123.021 27.8109 121.113 24.8673 121.113 22.229C121.113 19.5908 123.021 16.6472 125.761 16.6472C128.501 16.6472 130.41 19.5908 130.41 22.229ZM91.8031 26.5419C91.8031 26.5419 91.6189 26.1411 91.0047 25.664C90.5275 25.2919 89.9323 25.1059 89.9276 25.1059C89.8661 25.3062 88.5481 27.6869 85.9544 27.6869C83.7104 27.6869 81.3058 25.4923 81.3058 22.229C81.3058 18.9658 83.7104 16.7712 85.9544 16.7712C88.5953 16.7712 89.7102 18.9849 89.8284 19.2616C89.8284 19.2616 90.4331 19.066 90.9102 18.6939C91.5244 18.2168 91.7039 17.8351 91.7086 17.8208C91.548 17.5727 89.5685 14.9917 85.9544 14.9917C81.8254 14.9917 78.594 18.1691 78.594 22.229C78.594 26.289 81.8254 29.4664 85.9544 29.4664C89.4788 29.4664 91.5149 26.9617 91.8031 26.5419ZM107.644 29.4425C108.262 29.4425 108.966 29.2708 108.966 29.2708V23.7319C109.203 23.8177 109.831 24.0229 110.606 24.1517C110.998 24.2185 111.39 24.2471 111.768 24.2471C113.001 24.2471 114.05 23.9131 114.886 23.2595C114.933 23.2262 116.058 22.3913 116.454 21.0173C117.083 18.8322 115.954 16.4134 113.941 15.6215C113.015 15.2589 111.801 15.0824 110.218 15.0824C109.037 15.0824 108.116 15.1348 107.549 15.1825L106.42 15.2732V29.2708C106.42 29.2708 107.025 29.4425 107.644 29.4425ZM108.966 16.943C109.359 16.9048 109.741 16.8857 110.11 16.8857C111.432 16.8857 112.453 17.1243 113.143 17.6014C113.436 17.8017 113.847 18.2693 113.998 18.6652C114.163 19.0994 114.187 19.6337 114.069 20.211C113.875 21.1604 113.294 21.8522 112.472 22.1098C111.976 22.2672 111.437 22.2958 111.073 22.2958C110.71 22.2958 110.374 22.2672 110.105 22.21C109.496 22.0907 109.132 21.9714 108.962 21.9046V16.943H108.966ZM141.446 29.2756C144.002 29.2756 146 27.4245 146 25.0677C146 23.1832 144.583 22.105 143.921 21.7043C144.257 21.356 144.946 20.4686 144.946 19.0087C144.946 17.1577 143.619 15.1921 141.153 15.1921H135.503C135.503 15.1921 135.276 17.5632 135.276 22.0239C135.276 26.4846 135.498 29.2756 135.498 29.2756H141.446ZM137.87 22.7682C138.318 22.7586 138.753 22.7538 139.155 22.7538C140.326 22.7538 141.162 22.792 141.644 22.8683C142.906 23.0639 143.473 24.1851 143.473 25.2108C143.473 26.3367 142.565 27.496 141.569 27.6392C140.936 27.7298 139.821 27.7489 138.989 27.7489C138.621 27.7489 138.314 27.7489 138.129 27.7441C138.073 27.2336 137.898 25.5209 137.87 22.7682ZM137.87 21.2224C137.893 18.5269 138.063 17.1863 138.125 16.7903C138.38 16.7808 138.862 16.7617 139.386 16.7617C140.161 16.7617 140.77 16.7951 141.195 16.8619C142.504 17.067 142.608 18.5412 142.608 18.9897C142.608 19.9104 142.041 20.9886 141.129 21.1222C140.572 21.2033 139.244 21.2224 138.229 21.2224H137.87ZM96.1353 49.8283C96.1353 49.8283 96.2817 49.4848 96.2817 48.9743C96.2817 48.4638 96.1447 48.1203 96.1447 48.1203H89.6205C89.5638 47.648 89.3937 46.0688 89.3606 43.3638H94.5337C94.5337 43.3638 94.6566 42.9153 94.6518 42.4716C94.6471 42.028 94.5385 41.6511 94.5385 41.6511H89.3606C89.389 39.0939 89.5402 37.8869 89.611 37.4575H96.14C96.14 37.4575 96.2817 37.1188 96.2817 36.6035C96.2817 36.0883 96.14 35.7496 96.14 35.7496H86.9702C86.9702 35.7496 86.767 39.0462 86.767 42.5766C86.767 47.0326 86.9891 49.8187 86.9891 49.8187L96.1305 49.8283H96.1353ZM109.056 49.8283V35.7496C109.056 35.7496 108.626 35.5778 107.79 35.5778C106.954 35.5778 106.524 35.7496 106.524 35.7496V41.7131C105.962 42.4716 104.894 42.9821 103.874 42.9821C103.056 42.9821 102.315 42.6672 101.729 42.0757C99.995 40.3248 101.979 35.8593 101.998 35.8163C101.856 35.6923 101.237 35.5778 100.619 35.5778C99.8816 35.5778 99.5178 35.6494 99.3572 35.7018C99.3572 35.7018 97.7273 40.2341 99.0879 42.6768C99.8674 44.0794 101.488 44.9859 103.217 44.9859C104.431 44.9859 105.598 44.5374 106.51 43.7216V49.8283H106.514C106.514 49.8283 107.063 50 107.781 50C108.225 50 108.669 49.938 109.051 49.8283H109.056ZM139.041 49.8283V35.7496C139.041 35.7496 138.611 35.5778 137.766 35.5778C136.996 35.5778 136.49 35.7496 136.49 35.7496V49.8283C136.49 49.8283 136.925 50 137.766 50C138.559 50 139.041 49.8283 139.041 49.8283ZM132.068 49.5611C132.295 49.4895 132.559 49.3846 132.559 49.3798C134.289 48.6499 135.408 46.6366 135.167 44.6996C135.077 43.6357 134.605 42.6434 133.797 41.8419C132.692 40.7446 131.27 40.5156 130.268 40.5156C129.89 40.5156 129.508 40.549 129.13 40.611C128.416 40.7303 127.854 40.9879 127.552 41.1501V35.7543C127.552 35.7543 126.923 35.5826 126.281 35.5826C125.638 35.5826 125.01 35.7543 125.01 35.7543V49.7281C125.01 49.7281 126.47 49.9523 128.804 49.9523C130.183 49.9523 131.218 49.8283 132.068 49.5659V49.5611ZM127.552 42.9964C127.641 42.901 127.944 42.6386 128.624 42.4669C128.874 42.4049 129.229 42.3667 129.602 42.3667C130.145 42.3667 130.656 42.443 131.043 42.5814C132.186 42.9869 132.626 43.8075 132.791 44.4277C133.051 45.4057 132.81 46.5936 132.196 47.314C131.945 47.6146 131.227 48.0774 130.75 48.1966C129.909 48.4018 129.38 48.4065 128.761 48.4065H128.468C128.171 48.4065 127.864 48.3922 127.547 48.3636V42.9964H127.552ZM83.6348 49.7996C83.6348 49.7996 83.8427 46.336 83.8427 41.8467C83.8427 37.3573 83.6207 35.7496 83.6207 35.7496C83.6207 35.7496 83.0537 35.5778 82.3451 35.5778C81.6365 35.5778 81.164 35.7352 81.131 35.7448C78.7499 37.5338 76.9641 40.6683 76.2744 42.0089C75.391 40.3725 73.6052 37.4623 71.2667 35.7448C71.2667 35.7448 70.7045 35.573 70.0525 35.573C69.4006 35.573 68.8006 35.7448 68.8006 35.7448C68.8006 35.7448 68.5691 37.6245 68.5691 41.8658C68.5691 46.107 68.7817 49.7949 68.7817 49.7949C68.7817 49.7949 69.188 49.9666 69.736 49.9666C70.2557 49.9666 70.6809 49.7949 70.6809 49.7949C70.6809 49.7949 70.4824 45.1528 70.4824 41.1931C70.4824 40.1578 70.4919 39.2036 70.5155 38.3497C71.9989 39.5424 74.4697 42.4049 75.3579 45.5918V45.6108L75.3768 45.6204C75.3862 45.6204 75.5752 45.7206 75.9815 45.7206C76.3878 45.7206 76.572 45.6252 76.5957 45.5965C78.2586 41.2408 80.4601 38.7218 81.1971 37.9584C81.2396 39.0319 81.2632 40.3343 81.2632 41.8371C81.2632 46.2215 81.0459 49.7901 81.0459 49.7901C81.0459 49.7901 81.5939 49.9618 82.3451 49.9618C83.0963 49.9618 83.6301 49.7901 83.6301 49.7901L83.6348 49.7996ZM117.073 50C117.82 50 118.339 49.8235 118.339 49.8235V37.4337C120.683 37.4718 122.341 37.6197 122.341 37.6197C122.341 37.6197 122.544 37.0854 122.544 36.6178C122.539 36.0501 122.322 35.7448 122.322 35.7448H111.834C111.834 35.7448 111.617 36.0501 111.612 36.6178C111.612 37.0854 111.815 37.6197 111.815 37.6197C111.815 37.6197 113.469 37.4718 115.812 37.4337V49.8235C115.812 49.8235 116.332 50 117.078 50H117.073Z" fill="url(#paint0_linear_2302_1626)"/>
</mask>
<g mask="url(#mask0_2302_1626)">
<rect width="146.667" height="50" fill="#58687C"/>
</g>
<defs>
<linearGradient id="paint0_linear_2302_1626" x1="42.4769" y1="-9.51122" x2="102.635" y2="75.566" gradientUnits="userSpaceOnUse">
<stop stop-color="#EA5D0B"/>
<stop offset="0.26" stop-color="#E9580D"/>
<stop offset="0.52" stop-color="#E84C13"/>
<stop offset="0.79" stop-color="#E6371D"/>
<stop offset="1" stop-color="#E42229"/>
</linearGradient>
</defs>
</svg>
