<svg width="169" height="60" viewBox="0 0 169 60" fill="none" xmlns="http://www.w3.org/2000/svg">
<path d="M15.5219 34.0541H10.9138V57.0034H15.5219V34.0541Z" fill="#FFD200"/>
<path d="M20.9766 29.3168H16.3728V57.0077H20.9766V29.3168Z" fill="#FFD200"/>
<path d="M26.4356 34.0541H21.8319V57.0034H26.4356V34.0541Z" fill="#FFD200"/>
<path fill-rule="evenodd" clip-rule="evenodd" d="M4.60376 34.9527L0 30.861V19.0962H4.60376V34.9527Z" fill="#221F20"/>
<path fill-rule="evenodd" clip-rule="evenodd" d="M10.0628 40.0695L5.45906 35.5546V13.8922H10.0628V40.0695Z" fill="#221F20"/>
<path d="M15.5219 8.77971H10.9138V33.3343H15.5219V8.77971Z" fill="#221F20"/>
<path d="M20.9766 3.65854H16.3728V28.3047H20.9766V3.65854Z" fill="#221F20"/>
<path fill-rule="evenodd" clip-rule="evenodd" d="M32.75 34.9527L37.3494 30.861V19.0962H32.75V34.9527Z" fill="#221F20"/>
<path fill-rule="evenodd" clip-rule="evenodd" d="M27.2866 40.0695L31.8947 35.5546V13.8922H27.2866V40.0695Z" fill="#221F20"/>
<path d="M26.4356 8.77971H21.8319V33.3343H26.4356V8.77971Z" fill="#221F20"/>
<path fill-rule="evenodd" clip-rule="evenodd" d="M70.1081 56.1964C69.5278 56.7809 68.4499 57.0732 66.8702 57.0732H61.6948C60.1326 57.0732 59.046 56.7984 58.4438 56.2313C57.8329 55.6729 57.5274 54.8179 57.5274 53.6838V48.676C57.5274 47.5331 57.8329 46.6912 58.4438 46.1242C59.046 45.5614 60.1326 45.2779 61.6948 45.2779H66.8702C68.4499 45.2779 69.5278 45.5702 70.1081 46.1503C70.6929 46.7349 70.9765 47.5768 70.9765 48.676V53.6838C70.9765 54.783 70.6929 55.6206 70.1081 56.2007V56.1964ZM67.4375 49.832C67.4375 49.182 67.3022 48.7022 67.036 48.4099C66.7655 48.1133 66.1677 47.9606 65.2338 47.9606H63.2527C62.3886 47.9606 61.8126 48.1264 61.5246 48.4492C61.2366 48.772 61.0926 49.2344 61.0926 49.832V52.5147C61.0926 53.1167 61.2366 53.5704 61.5246 53.8975C61.8126 54.2247 62.393 54.3904 63.2527 54.3904H65.2338C66.1677 54.3904 66.7568 54.2378 67.0186 53.9411C67.2717 53.6402 67.4113 53.1734 67.4375 52.5365V49.832Z" fill="#221F20"/>
<path fill-rule="evenodd" clip-rule="evenodd" d="M85.6169 56.1964C85.0365 56.7809 83.9631 57.0732 82.3877 57.0732H77.208C75.6457 57.0732 74.5592 56.7984 73.9526 56.2313C73.3417 55.6729 73.0406 54.8179 73.0406 53.6838V48.676C73.0406 47.5331 73.3417 46.6912 73.9526 46.1242C74.5592 45.5614 75.6457 45.2779 77.208 45.2779H82.3877C83.9631 45.2779 85.0365 45.5702 85.6169 46.1503C86.2017 46.7349 86.4897 47.5768 86.4897 48.676V49.8364H82.955C82.955 49.1864 82.8198 48.7066 82.5492 48.4143C82.2786 48.1177 81.6808 47.965 80.747 47.965H78.7658C77.9062 47.965 77.3301 48.1308 77.0378 48.4536C76.7498 48.7764 76.6014 49.2387 76.6014 49.8364V52.5191C76.6014 53.1211 76.7454 53.5747 77.0378 53.9019C77.3301 54.229 77.9062 54.3948 78.7658 54.3948H80.747C81.6808 54.3948 82.2786 54.2421 82.5492 53.9455C82.8154 53.6445 82.955 53.169 82.955 52.5191H86.4897V53.6794C86.4897 54.7787 86.2017 55.6162 85.6169 56.1964Z" fill="#221F20"/>
<path fill-rule="evenodd" clip-rule="evenodd" d="M92.0927 57.0688H88.5712L88.5494 53.6751V48.6717L88.5712 45.2779H92.0927V49.7884H98.442V45.2779H101.998V57.0688H98.442V52.4755H92.0927V57.0688Z" fill="#221F20"/>
<path fill-rule="evenodd" clip-rule="evenodd" d="M107.606 52.4755C107.619 53.0993 107.767 53.5747 108.06 53.9019C108.352 54.229 108.924 54.3948 109.792 54.3948H117.516V57.0732H108.234C106.668 57.0732 105.581 56.7984 104.975 56.2313C104.368 55.6686 104.067 54.8136 104.067 53.6794V48.6717C104.067 47.5288 104.372 46.6869 104.975 46.1198C105.581 45.5571 106.668 45.2779 108.234 45.2779H117.516V47.965H109.792C108.924 47.965 108.356 48.1308 108.06 48.4536C107.772 48.7764 107.619 49.2213 107.606 49.7927H117.512V52.4755H107.606Z" fill="#221F20"/>
<path fill-rule="evenodd" clip-rule="evenodd" d="M144.711 47.9606H139.858V45.2779H153.29V47.9606H148.232V57.0688H144.711V47.9606Z" fill="#221F20"/>
<path fill-rule="evenodd" clip-rule="evenodd" d="M136.743 47.3892H131.275V45.2299H127.788V47.3892H122.19C122.19 47.3892 119.008 47.4852 119.008 51.0883C119.008 54.6914 122.277 54.722 122.277 54.722H127.788V57.0601H131.275V54.722H136.651C136.651 54.722 139.92 54.6958 139.92 51.0883C139.92 47.4808 136.738 47.3892 136.738 47.3892H136.743ZM134.871 52.3751H131.275V49.88H134.84C134.84 49.88 136.066 49.7186 136.066 51.193C136.066 52.4231 134.866 52.3751 134.866 52.3751H134.871ZM122.971 51.193C122.971 49.7229 124.201 49.88 124.201 49.88H127.775V52.3751H124.179C124.179 52.3751 122.975 52.4231 122.975 51.193H122.971Z" fill="#221F20"/>
<path fill-rule="evenodd" clip-rule="evenodd" d="M54.5993 46.1503C54.019 45.5658 52.9411 45.2779 51.3614 45.2779H42.0361V57.0732H45.5576V53.0076H51.3614C52.9411 53.0076 54.019 52.7197 54.5993 52.1352C55.1797 51.5507 55.4721 50.7088 55.4721 49.6139V48.676C55.4721 47.5768 55.1797 46.7392 54.5993 46.1503ZM50.7723 50.3249H45.5576V47.965H50.7723C51.4269 47.965 51.9549 48.4928 51.9549 49.1471C51.9549 49.8015 51.4269 50.3249 50.7723 50.3249Z" fill="#221F20"/>
<path fill-rule="evenodd" clip-rule="evenodd" d="M168.293 53.6794V52.7416C168.293 51.6466 168 50.8048 167.424 50.2202C166.84 49.6401 165.762 49.3478 164.186 49.3478H158.383V45.2779H154.861V57.0732H164.182C165.762 57.0732 166.835 56.7853 167.42 56.2007C168 55.6162 168.288 54.7743 168.288 53.6794H168.293ZM164.78 53.2083C164.78 53.8626 164.247 54.3904 163.597 54.3904H158.383V52.0305H163.597C164.247 52.0305 164.78 52.5583 164.78 53.2083Z" fill="#221F20"/>
</svg>
