<svg width="168" height="60" viewBox="0 0 168 60" fill="none" xmlns="http://www.w3.org/2000/svg">
<mask id="mask0_2302_1555" style="mask-type:alpha" maskUnits="userSpaceOnUse" x="0" y="3" width="168" height="55">
<path fill-rule="evenodd" clip-rule="evenodd" d="M15.4949 57.0033H10.8948V34.054H15.4949V57.0033ZM20.9401 29.3124H16.3443V57.0033H20.9401V29.3167V29.3124ZM21.7896 57.0033H26.3853V34.054H21.7896V57.0033ZM4.59576 19.0962H0V30.8653L4.59576 34.957V19.0962ZM10.0453 13.8921H5.44957V35.5503L10.0453 40.0694V13.8921ZM15.4949 8.77532H10.8948V33.3299H15.4949V8.77968V8.77532ZM20.9445 3.65851H16.3487V28.3047H20.9445V3.65851ZM32.693 34.9526L37.2888 30.8609V19.0918H32.693V34.9526ZM27.2391 40.0694L31.8392 35.5503V13.8921H27.2391V40.0694ZM21.7939 33.3299H26.3897V8.77968H21.7939V33.3343V33.3299ZM69.9862 56.192C70.5699 55.6118 70.8531 54.7743 70.8531 53.675V48.6673C70.8531 47.568 70.5699 46.7305 69.9862 46.1416C69.4068 45.557 68.3309 45.2691 66.7539 45.2691H61.5875C60.028 45.2691 58.9433 45.5527 58.3422 46.1154C57.7323 46.6825 57.4274 47.5287 57.4274 48.6673V53.675C57.4274 54.8092 57.7323 55.6642 58.3422 56.2225C58.9433 56.7896 60.028 57.0644 61.5875 57.0644H66.7539C68.3309 57.0644 69.4068 56.7765 69.9862 56.1876V56.192ZM67.3202 52.5365C67.2941 53.1777 67.1547 53.6401 66.902 53.9411C66.6407 54.2334 66.0526 54.3904 65.1204 54.3904H63.1427C62.2801 54.3904 61.7051 54.2247 61.4176 53.8975C61.1301 53.5703 60.9864 53.1123 60.9864 52.5147V49.832C60.9864 49.2343 61.1301 48.772 61.4176 48.4492C61.7051 48.1264 62.2845 47.9606 63.1427 47.9606H65.1204C66.0526 47.9606 66.6494 48.1089 66.9195 48.4099C67.1852 48.7065 67.3202 49.1864 67.3202 49.832V52.5365ZM86.3349 53.675V52.5147H82.8064C82.8064 53.1646 82.6714 53.6401 82.4013 53.9411C82.1312 54.2334 81.5344 54.3904 80.6022 54.3904H78.6245C77.7663 54.3904 77.1913 54.2247 76.8994 53.8975C76.6119 53.5703 76.4638 53.1123 76.4638 52.5147V49.832C76.4638 49.2343 76.6076 48.772 76.8994 48.4492C77.1913 48.1264 77.7663 47.9606 78.6245 47.9606H80.6022C81.5344 47.9606 82.1312 48.1089 82.4013 48.4099C82.667 48.7065 82.8064 49.1864 82.8064 49.832H86.3349V48.6716C86.3349 47.5724 86.0474 46.7348 85.4637 46.1459C84.8843 45.5614 83.8127 45.2735 82.2401 45.2735H77.0693C75.5098 45.2735 74.4251 45.557 73.8196 46.1198C73.2098 46.6868 72.9092 47.5331 72.9092 48.6716V53.6794C72.9092 54.8135 73.2098 55.6685 73.8196 56.2269C74.4251 56.794 75.5098 57.0688 77.0693 57.0688H82.2401C83.8127 57.0688 84.8843 56.7809 85.4637 56.192C86.0474 55.6118 86.3349 54.7743 86.3349 53.675ZM91.9282 52.4711H98.2665V57.0688H101.817V45.2735H98.2665V49.7883H91.9282V45.2735H88.4172L88.3954 48.6716V53.675L88.4172 57.0688H91.9282V52.4711ZM117.303 52.4711V49.7883H107.414C107.427 49.2169 107.576 48.772 107.867 48.4492C108.159 48.1264 108.73 47.9606 109.597 47.9606H117.307V45.2735H108.042C106.478 45.2735 105.393 45.557 104.788 46.1154C104.182 46.6825 103.882 47.5287 103.882 48.6673V53.675C103.882 54.8092 104.186 55.6642 104.788 56.2269C105.393 56.7896 106.478 57.0688 108.042 57.0688H117.307V54.3904H109.597C108.73 54.3904 108.164 54.2247 107.867 53.8975C107.58 53.5703 107.427 53.0949 107.414 52.4711H117.303ZM144.455 57.0688H147.97V47.9606H153.019V45.2779H139.611V47.9606H144.455V57.0688ZM136.496 47.3891C136.496 47.3891 139.672 47.4851 139.672 51.0883C139.672 54.6914 136.409 54.7219 136.409 54.7219H131.042V57.0601H127.562V54.7219H122.06C122.06 54.7219 118.797 54.6958 118.797 51.0883C118.797 47.4808 121.973 47.3891 121.973 47.3891H127.562V45.2299H131.042V47.3891H136.501H136.496ZM134.627 52.3751C134.627 52.3751 135.825 52.4231 135.825 51.193C135.825 49.7229 134.601 49.8799 134.601 49.8799H131.042V52.3751H134.632H134.627ZM123.95 52.3751H127.54V49.8799H123.972C123.972 49.8799 122.744 49.7185 122.744 51.193C122.744 52.4231 123.946 52.3751 123.946 52.3751H123.95ZM54.4913 46.1459C55.0707 46.7305 55.3625 47.5724 55.3625 48.6716V49.6095C55.3625 50.7044 55.0707 51.5463 54.4913 52.1308C53.9119 52.7153 52.836 53.0033 51.259 53.0033H45.4653V57.0688H41.9499V45.2735H51.259C52.836 45.2735 53.9119 45.5614 54.4913 46.1459ZM51.8515 49.1384C51.8515 48.4841 51.3244 47.9562 50.671 47.9562H45.4653V50.3162H50.671C51.3244 50.3162 51.8515 49.7883 51.8515 49.1384ZM167.991 53.675C167.991 54.7699 167.699 55.6118 167.124 56.1964C166.541 56.7809 165.465 57.0688 163.892 57.0688H154.587V45.2735H158.098V49.3434H163.892C165.469 49.3434 166.541 49.6313 167.124 50.2158C167.704 50.8004 167.991 51.6423 167.991 52.7372V53.675ZM163.304 52.0261H158.098V54.3861H163.304C163.953 54.3861 164.485 53.8582 164.485 53.2039C164.485 52.5496 163.953 52.0261 163.304 52.0261Z" fill="#FFD200"/>
</mask>
<g mask="url(#mask0_2302_1555)">
<rect width="168.293" height="60" fill="#58687C"/>
</g>
</svg>
