<svg width="209" height="50" viewBox="0 0 209 50" fill="none" xmlns="http://www.w3.org/2000/svg">
<path d="M10.706 27.3091C10.706 27.1259 10.6683 26.9427 10.6069 26.7735C11.4891 27.1212 12.7722 27.544 13.678 27.6756C15.0932 27.8588 15.8527 27.1635 15.8527 26.3977C15.9234 26.252 15.8904 26.1064 15.8149 25.9232L15.6687 25.6319C15.5979 25.5238 15.4894 25.2279 15.4894 25.0117C15.4894 24.8661 15.5979 24.6077 15.6357 24.4621L15.7064 24.2788L15.8149 24.0251C15.8527 23.9171 15.8857 23.7667 15.8857 23.6587C15.8857 22.8882 15.0885 22.1976 13.6732 22.4513C12.692 22.6157 11.4561 23.0761 10.5834 23.4614L10.5928 23.4379C10.6636 23.2546 10.7013 23.0338 10.7013 22.8177C10.7013 21.5398 9.21532 20.4029 6.63963 20.8069C4.64418 21.0982 1.99773 22.0519 0.40326 22.6345C-0.0307385 22.8177 -0.106217 23.405 0.440999 23.5506C0.440999 23.5506 1.309 23.809 1.60147 23.7714C2.46947 23.7339 5.37066 22.16 7.04061 21.9063C8.56432 21.6526 9.97482 22.0519 10.0503 22.8929C10.1211 23.809 9.47006 24.6124 9.43232 24.6124C9.25306 24.7956 8.99832 24.8661 8.78132 24.7205C8.45582 24.4996 8.05484 24.2835 7.58311 24.1003C6.24337 23.6258 5.1914 24.3916 5.11592 25.1245C5.18668 25.8574 6.27639 26.5856 7.58311 26.0735C8.05484 25.8903 8.4511 25.6695 8.74358 25.4534C8.96058 25.3077 9.25306 25.3453 9.39458 25.5285C9.39458 25.5285 10.0456 26.1863 10.0456 27.248C10.0456 28.3098 8.59734 28.493 7.03589 28.2722C5.40368 28.0514 2.36097 26.4071 1.56373 26.4823C1.16276 26.5198 0.440999 26.7735 0.440999 26.7735C0.00700046 26.9192 -0.139238 27.5064 0.40326 27.6897C1.99773 28.2769 4.75268 29.1508 6.67265 29.4092C9.24834 29.7381 10.6966 28.6058 10.6966 27.3232L10.706 27.3091ZM8.56904 25.4064C8.3143 25.5144 7.80954 25.6977 7.51706 25.7353C7.00759 25.8104 6.57359 25.8104 6.28583 25.6601C5.96033 25.4769 5.92259 25.0023 6.28583 24.7439C6.54057 24.5607 7.0123 24.5231 7.51706 24.5983C7.80482 24.6359 8.35204 24.7815 8.60678 24.8896C9.11625 25.1433 8.97002 25.2185 8.56904 25.4017V25.4064ZM9.94651 25.1151C9.94651 24.8614 10.1258 24.4574 10.2343 24.199L10.2767 24.1003C10.2767 24.1003 10.3145 24.1191 10.3428 24.1285C10.3428 24.1285 10.8145 24.2741 10.9607 24.2741C11.4325 24.2366 12.9892 23.2875 13.895 23.1419C14.7299 22.9963 15.4894 23.2171 15.5272 23.762C15.5649 24.3117 15.2017 24.8238 15.2017 24.8238C15.1309 24.9319 14.9469 24.9695 14.8384 24.899C14.6592 24.7533 14.4375 24.6077 14.1874 24.5325C13.461 24.2413 12.8807 24.7158 12.8477 25.1527C12.8854 25.5896 13.4657 26.0312 14.1874 25.74C14.4422 25.6319 14.6592 25.4863 14.8054 25.3359C14.9139 25.2607 15.0601 25.2607 15.1686 25.3735C15.1686 25.3735 15.5319 25.7775 15.5319 26.3977C15.5319 27.0554 14.7346 27.1682 13.8997 27.0178C12.9939 26.8722 11.3617 25.8856 10.9277 25.9185C10.7107 25.9185 10.3097 26.1017 10.3097 26.1017C10.2012 25.9185 9.94651 25.444 9.94651 25.1151ZM14.7299 25.2232C14.5837 25.2983 14.2959 25.4064 14.1497 25.4064C13.895 25.444 13.6402 25.444 13.4987 25.3688C13.3194 25.2607 13.3194 24.9648 13.4987 24.8191C13.6449 24.7111 13.8997 24.7111 14.1497 24.7439C14.2959 24.7815 14.5837 24.852 14.7299 24.9272C15.0177 25.0352 14.9469 25.1104 14.7299 25.2185V25.2232ZM49.2423 26.6843C49.2423 26.6843 48.5158 26.4259 48.1195 26.393C47.3223 26.3178 44.2749 27.9669 42.6474 28.183C41.1236 28.4038 39.6377 28.2206 39.6377 27.1588C39.6377 26.097 40.2887 25.4769 40.2887 25.4393C40.4679 25.256 40.7604 25.2185 40.9397 25.3641C41.2652 25.5849 41.6661 25.8386 42.1001 25.9843C43.4399 26.4963 44.4919 25.7634 44.5673 25.0352C44.4966 24.3023 43.4446 23.5365 42.1001 24.011C41.6284 24.1943 41.2322 24.4151 40.9019 24.6312C40.6849 24.7768 40.3925 24.7393 40.2509 24.5231C40.2509 24.5231 39.5622 23.7198 39.633 22.8036C39.7037 21.9251 41.1189 21.5586 42.6426 21.817C44.3126 22.1083 47.2091 23.6446 48.0818 23.6822C48.3743 23.6822 49.2423 23.4614 49.2423 23.4614C49.7848 23.3157 49.7517 22.6956 49.28 22.5452C47.6855 21.9251 45.0391 21.0089 43.0436 20.7177C40.4679 20.3512 39.0197 21.4506 38.982 22.7285C38.982 22.9446 39.0197 23.1231 39.0857 23.3392C38.213 22.9775 36.9818 22.4936 36.01 22.3291C34.5948 22.1083 33.8353 22.766 33.7976 23.5365C33.7976 23.6446 33.8353 23.7902 33.8683 23.903L33.9768 24.1567L34.0476 24.3399C34.1183 24.4856 34.1938 24.7439 34.1938 24.8896C34.1938 25.1104 34.0853 25.3641 34.0146 25.5097L33.9438 25.8386C33.9061 25.9843 33.8353 26.1299 33.8353 26.2755C33.8353 27.046 34.5948 27.7367 36.01 27.5534C36.9724 27.4219 38.2602 26.9803 39.1424 26.6279C39.0669 26.8158 39.0197 27.0178 39.0197 27.2246C39.0197 28.5071 40.4349 29.6394 43.0436 29.3105C44.9636 29.0897 47.6855 28.2112 49.28 27.591C49.8225 27.3702 49.714 26.8252 49.2423 26.6749V26.6843ZM41.2321 24.7815C41.4869 24.6735 41.9916 24.5278 42.3219 24.4903C42.8313 24.4151 43.2653 24.4527 43.5531 24.6359C43.9163 24.8943 43.8786 25.3688 43.5531 25.552C43.2653 25.6977 42.7936 25.6977 42.3219 25.6272C42.0294 25.5896 41.4869 25.4064 41.2699 25.2983C40.8359 25.1151 40.6897 25.0399 41.2321 24.7862V24.7815ZM39.4018 25.9983C39.4018 25.9983 39.3877 25.989 39.3829 25.989C39.3829 25.989 38.982 25.8433 38.765 25.8057C38.331 25.7681 36.6987 26.7547 35.793 26.9051C34.958 27.0507 34.1608 26.9427 34.1608 26.2849C34.1608 25.6272 34.524 25.2607 34.524 25.2607C34.6325 25.1527 34.7788 25.1151 34.8873 25.2232C35.0665 25.3688 35.2883 25.5144 35.5053 25.5896C36.2317 25.8809 36.812 25.4816 36.845 25.0023C36.8073 24.5654 36.227 24.0862 35.5053 24.3822C35.2505 24.4903 35.0335 24.6406 34.8543 24.7486C34.7458 24.8238 34.5665 24.8238 34.491 24.7111C34.491 24.7111 34.1278 24.199 34.1655 23.6493C34.2033 23.1372 34.9628 22.8788 35.7977 23.0291C36.7035 23.2124 38.2649 24.1285 38.7319 24.1614C38.8782 24.1614 39.3499 24.0157 39.3499 24.0157C39.3688 24.011 39.3829 24.0016 39.4018 23.9923L39.4584 24.1238C39.5669 24.3775 39.7462 24.7815 39.7462 25.0399C39.7462 25.3923 39.548 25.8057 39.4018 26.003V25.9983ZM35.0713 24.8191C35.2175 24.744 35.5053 24.6735 35.6515 24.6359C35.9062 24.5983 36.161 24.5983 36.3025 24.7111C36.4818 24.8567 36.4818 25.148 36.3025 25.2607C36.1563 25.3688 35.9015 25.3359 35.6515 25.2983C35.5053 25.2607 35.2175 25.1903 35.0713 25.1151C34.8543 25.007 34.7835 24.9695 35.0713 24.8238V24.8191ZM27.0612 39.233C26.8677 39.233 26.6743 39.2752 26.4998 39.3269C26.8583 38.4437 27.3348 37.1799 27.4621 36.2309C27.6791 34.8026 27.0281 34.0368 26.2309 33.9992C26.1601 34.0368 26.0139 34.0744 25.8677 34.1449L25.5799 34.2905C25.4714 34.3657 25.1789 34.4738 24.9619 34.4738C24.8157 34.4738 24.5609 34.3657 24.4194 34.3281L24.2402 34.2529L23.9854 34.0697C23.8769 34.0321 23.7307 33.9945 23.6222 33.9945C22.8627 33.9945 22.174 34.7603 22.3532 36.1886C22.4853 37.1987 22.957 38.5094 23.3108 39.3974L23.2589 39.3692C23.0797 39.294 22.858 39.2611 22.641 39.2611C21.372 39.2611 20.2493 40.7223 20.5748 43.3203C20.8295 45.3311 21.6975 48.0372 22.2777 49.6487C22.424 50.0856 23.0372 50.1608 23.1835 49.6111C23.1835 49.6111 23.4382 48.7325 23.4382 48.4413C23.4005 47.5627 21.9145 44.6358 21.6598 42.9163C21.4428 41.38 21.839 39.9518 22.7117 39.8813C23.6175 39.8061 24.4147 40.5014 24.4147 40.5014C24.594 40.6847 24.6317 40.9384 24.4855 41.1592C24.2685 41.488 24.0137 41.8921 23.8345 42.3666C23.325 43.7197 24.0515 44.7814 24.811 44.8519C25.5374 44.7767 26.2592 43.7197 25.7875 42.3666C25.6412 41.8921 25.3865 41.488 25.1695 41.1592C25.0232 40.9384 25.061 40.6471 25.2402 40.5014C25.2402 40.5014 25.8912 39.8813 26.9432 39.8813C27.9952 39.8813 28.1745 41.38 27.9197 42.9163C27.665 44.5606 25.9997 47.6003 26.0328 48.4037C26.0705 48.8077 26.3205 49.5735 26.3205 49.5735C26.429 50.048 27.0093 50.1608 27.2263 49.6111C27.8442 47.9996 28.75 45.2606 29.0377 43.3203C29.401 40.7223 28.3113 39.2611 27.0423 39.2236L27.0612 39.233ZM25.1412 35.2114C25.2119 35.357 25.2874 35.6483 25.3204 35.7986C25.3582 36.057 25.3582 36.3107 25.2497 36.4564C25.1412 36.6396 24.8487 36.6396 24.7072 36.4564C24.5987 36.3107 24.5987 36.0523 24.6364 35.7986C24.6742 35.653 24.7449 35.3617 24.8157 35.2114C24.9619 34.9201 25.0327 35.0281 25.1412 35.2114ZM25.1789 41.4317C25.2874 41.6901 25.4337 42.1975 25.4667 42.4934C25.5044 43.0055 25.5374 43.4425 25.3582 43.7384C25.1789 44.0673 24.6694 44.1049 24.4524 43.7384C24.2732 43.4472 24.2732 43.0055 24.3439 42.4934C24.3817 42.2022 24.5609 41.6525 24.6694 41.4317C24.9572 40.9196 25.0327 41.0652 25.1789 41.4317ZM24.8912 40.041C24.6364 40.041 24.2402 39.8578 23.9854 39.7497L23.9194 39.7169C23.9194 39.7169 23.943 39.6699 23.9524 39.6417C23.9524 39.6417 24.0986 39.1672 24.0986 39.0215C24.0609 38.547 23.1552 36.9356 23.0089 36.0241C22.8627 35.1832 23.1174 34.4127 23.6269 34.3798C24.1694 34.3422 24.6411 34.7087 24.6789 34.7087C24.7874 34.7838 24.8251 34.9624 24.7166 35.0751C24.5704 35.2583 24.4289 35.4792 24.3156 35.7329C24.0279 36.4658 24.4619 37.0483 24.8959 37.0859C25.3299 37.0483 25.7639 36.4658 25.4761 35.7329C25.3676 35.4745 25.2214 35.2583 25.1129 35.0751C25.0421 34.9671 25.0421 34.7838 25.1506 34.7087C25.1506 34.7087 25.5516 34.3798 26.2026 34.3798C26.8536 34.3798 26.9291 35.1832 26.7828 36.0241C26.6366 36.9027 25.6224 38.547 25.6601 38.9886C25.6601 39.2095 25.8394 39.6088 25.8394 39.6088C25.8535 39.6558 25.8771 39.6887 25.9054 39.7216C25.7214 39.8343 25.2544 40.0457 24.9006 40.0457L24.8912 40.041ZM13.9091 34.0791C13.7817 33.8865 13.6497 33.7221 13.4704 33.5858C14.3997 33.4543 15.6404 33.2194 16.4801 32.8717C17.7868 32.3596 18.1453 31.373 17.7491 30.6777C17.8198 30.6025 17.7113 30.4944 17.5698 30.3864L17.3151 30.2032C17.2066 30.128 16.9518 29.9448 16.8433 29.7662C16.7726 29.6206 16.7348 29.3622 16.6971 29.2166L16.6593 28.9957L16.6216 28.7045C16.5839 28.5964 16.5508 28.4508 16.4754 28.338C16.0744 27.6427 15.0601 27.4595 13.9752 28.338C13.2157 28.9441 12.376 29.9401 11.8146 30.6683C11.7769 30.5038 11.7155 30.3253 11.6212 30.1656C10.9702 29.0662 9.15399 28.8125 7.08778 30.4193C5.49331 31.6643 3.6441 33.7831 2.55438 35.1033C2.26662 35.4698 2.48362 36.0194 3.02612 35.8738C3.02612 35.8738 3.89412 35.653 4.14886 35.5073C4.87533 35.0328 6.64907 32.2515 7.99352 31.1898C9.19173 30.2032 10.6022 29.8743 11.1117 30.5696C11.6212 31.3401 11.4372 32.3596 11.4372 32.3596C11.3995 32.6133 11.1494 32.7965 10.8947 32.7636C10.4937 32.7261 10.0267 32.7261 9.55497 32.8388C8.13976 33.0925 7.59726 34.267 7.92276 34.9624C8.35676 35.5825 9.62573 35.6577 10.5315 34.5583C10.857 34.1919 11.074 33.7878 11.2579 33.4261C11.3664 33.2053 11.6212 33.0972 11.8759 33.1724C11.8759 33.1724 12.7439 33.4261 13.2911 34.3422C13.8336 35.2912 12.6401 36.1698 11.1872 36.7195C9.63045 37.3396 6.18676 37.4148 5.53105 37.8517C5.16781 38.0725 4.69607 38.6927 4.69607 38.6927C4.37057 39.0215 4.54983 39.6088 5.13007 39.496C6.83304 39.2048 9.62573 38.6551 11.3995 37.8846C13.7912 36.898 14.5176 35.1785 13.8997 34.0791H13.9091ZM10.9749 33.4919C10.8287 33.7127 10.4324 34.112 10.2154 34.2952C9.81443 34.5865 9.41817 34.8449 9.09267 34.8449C8.72943 34.8449 8.44167 34.4409 8.65867 34.0415C8.80491 33.7502 9.20117 33.4919 9.6729 33.3086C9.96066 33.2006 10.4701 33.0502 10.7626 33.0502C11.3429 32.9751 11.2344 33.1254 10.9796 33.4872L10.9749 33.4919ZM12.0646 32.5428C11.9561 32.322 11.8854 31.8851 11.8854 31.5938V31.4482C11.8854 31.4482 12.3948 31.3401 12.5033 31.2649C12.9043 31.0112 13.81 29.3998 14.5318 28.8125C15.1828 28.2628 15.947 28.0796 16.2348 28.5212C16.5225 28.9582 16.4518 29.583 16.4518 29.583C16.414 29.7287 16.3055 29.8414 16.164 29.8038C15.947 29.7662 15.6923 29.7662 15.4045 29.8038C14.645 29.9119 14.3525 30.6072 14.5365 31.0112C14.7913 31.3777 15.513 31.4858 15.9848 30.8656C16.1216 30.6589 16.2584 30.4522 16.3338 30.2454C16.3244 30.2595 16.3197 30.2689 16.3103 30.283C16.2395 30.3911 16.0225 30.6495 15.9093 30.72C15.6923 30.8656 15.4753 31.0112 15.2913 31.0112C15.0743 31.0112 14.9281 30.7528 15.0366 30.5367C15.1073 30.3535 15.3243 30.2454 15.5791 30.1327C15.7253 30.0575 16.0131 30.0246 16.197 30.0246C16.3999 30.0246 16.414 30.0716 16.3621 30.1844C16.4376 30.0622 16.5697 30.0293 16.6688 30.0622C16.6688 30.0622 17.1783 30.2455 17.466 30.7951C17.7915 31.3824 17.1405 31.8569 16.3433 32.1482C15.5083 32.4771 13.5883 32.4019 13.2251 32.6603C13.0458 32.7683 12.7911 33.1348 12.7911 33.1348C12.7769 33.1489 12.7675 33.163 12.7581 33.1771C12.5505 33.0408 12.2156 32.7965 12.0646 32.5475V32.5428ZM16.3621 30.175C16.3621 30.175 16.3433 30.2126 16.3291 30.2361C16.3291 30.222 16.3386 30.2126 16.3433 30.1985C16.348 30.1891 16.3574 30.1844 16.3621 30.175ZM19.7492 38.5047C19.57 38.3826 19.3671 38.3403 19.1595 38.3074C19.919 37.7108 20.9663 36.8228 21.5607 36.057C22.4287 34.9248 22.2494 33.9006 21.5607 33.5341C21.4899 33.4965 21.3814 33.4261 21.1975 33.4261L20.872 33.3885C20.7257 33.3885 20.438 33.3509 20.254 33.2429C20.1077 33.1677 19.9662 32.9516 19.853 32.8388L19.7445 32.6556L19.5652 32.4348C19.4945 32.3596 19.386 32.2515 19.2775 32.214C18.5887 31.8099 17.6075 32.1764 17.1028 33.4965C16.7443 34.4127 16.5084 35.7328 16.381 36.6866C16.2348 36.5362 16.0933 36.3906 15.9093 36.2778C14.8196 35.6201 13.1166 36.353 12.1401 38.8007C11.3806 40.6659 10.8334 43.4847 10.5456 45.1291C10.4749 45.6036 10.9466 45.9325 11.3429 45.566C11.3429 45.566 11.9939 44.9459 12.1401 44.6875C12.5411 43.8841 12.6826 40.6283 13.3006 39.0168C13.8431 37.5557 14.895 36.5315 15.6923 36.8933C16.4895 37.2973 16.8528 38.2839 16.8528 38.2839C16.9235 38.5376 16.815 38.796 16.598 38.9041C16.2348 39.0873 15.8385 39.3081 15.4375 39.637C14.3478 40.5531 14.461 41.8686 15.0743 42.3055C15.763 42.6344 16.8858 42.0471 17.1405 40.6236C17.2113 40.1491 17.2113 39.6746 17.1782 39.2705C17.1405 39.0121 17.3245 38.796 17.5792 38.7209C17.5792 38.7209 18.4472 38.5 19.3907 39.0121C20.3342 39.5618 19.7162 40.9149 18.7397 42.1599C17.6877 43.4754 14.7865 45.27 14.428 46.0029C14.2488 46.3694 14.1025 47.1352 14.1025 47.1352C13.994 47.6097 14.428 48.0137 14.862 47.6097C16.1687 46.5103 18.3057 44.5747 19.5039 43.0384C21.0984 40.9525 20.8437 39.1249 19.7587 38.5047H19.7492ZM20.037 33.9711C20.037 34.1167 19.9662 34.408 19.9285 34.5583C19.82 34.812 19.7115 35.0328 19.5275 35.108C19.3482 35.2161 19.0935 35.0704 19.0558 34.8167C19.018 34.6335 19.1643 34.4127 19.3105 34.1966C19.419 34.0885 19.636 33.8677 19.7445 33.7925C20.0323 33.6845 20.0323 33.7549 20.0323 33.9758L20.037 33.9711ZM17.065 39.4209C17.0273 39.6746 16.9188 40.2243 16.8103 40.5202C16.631 40.9572 16.3763 41.3988 16.1216 41.5444C15.7961 41.7277 15.3621 41.5068 15.3621 41.0699C15.3621 40.741 15.5413 40.337 15.8715 39.9377C16.0508 39.7169 16.4518 39.3175 16.6688 39.1672C17.1028 38.8759 17.1028 39.0215 17.0697 39.4256L17.065 39.4209ZM17.499 38.0678C17.282 37.9222 17.0273 37.5933 16.848 37.3725L16.8009 37.2926C16.8009 37.2926 16.8339 37.2738 16.848 37.2597C16.848 37.2597 17.2113 36.9309 17.282 36.7852C17.499 36.3483 17.499 34.516 17.7915 33.6375C18.0793 32.8341 18.6595 32.2844 19.1312 32.5381C19.6407 32.7965 19.8577 33.3415 19.8577 33.3415C19.9285 33.4872 19.8577 33.6328 19.7115 33.6704C19.4945 33.7455 19.2775 33.8912 19.0605 34.0368C18.4425 34.5113 18.551 35.2442 18.9142 35.4979C19.3152 35.6812 19.9662 35.3899 20.0747 34.6194C20.1125 34.3657 20.1125 34.0697 20.0747 33.8865C20.037 33.7408 20.1455 33.6328 20.2917 33.5952C20.2917 33.5952 20.8012 33.4872 21.3437 33.816C21.9239 34.1449 21.5984 34.8778 21.0559 35.5355C20.4757 36.2309 18.8105 37.1799 18.6265 37.5463C18.518 37.7671 18.4802 38.1665 18.4802 38.1665C18.4755 38.2041 18.4802 38.2416 18.4802 38.2745C18.2491 38.2745 17.7774 38.2323 17.499 38.0537V38.0678ZM42.803 30.3488C40.7368 28.7374 38.9254 28.9957 38.2696 30.0951C38.1611 30.2783 38.0904 30.4616 38.0526 30.6824L38.0432 30.8327C37.4582 30.0951 36.5289 28.9676 35.7364 28.3051C34.6467 27.4266 33.5994 27.6098 33.2362 28.3051C33.1654 28.4132 33.1277 28.5259 33.09 28.6716L33.0522 28.9629L33.09 29.1085C33.0522 29.2541 33.0192 29.5454 32.9437 29.6582C32.8352 29.8414 32.5805 30.0246 32.472 30.0951L32.2172 30.3159C32.1087 30.424 32.0002 30.5367 31.9295 30.6448C31.5285 31.3401 31.8917 32.2891 33.1985 32.8388C34.0806 33.2006 35.4345 33.4449 36.3544 33.5717C36.2129 33.6986 36.0996 33.8442 35.9864 34.0133C35.3685 35.1127 36.0572 36.8275 38.4866 37.8188C40.2651 38.5517 43.0908 39.1343 44.756 39.4303C45.3363 39.5383 45.5155 38.9558 45.19 38.6269C45.19 38.6269 44.6806 38.0396 44.3551 37.7859C43.7041 37.349 40.2604 37.2738 38.6989 36.6537C37.2507 36.104 36.0525 35.2255 36.595 34.2764C37.1375 33.3603 37.9724 33.1066 38.0102 33.1066C38.2649 33.0314 38.5197 33.1442 38.6282 33.3603C38.8074 33.6892 39.0291 34.1308 39.3546 34.4925C40.2604 35.5919 41.5671 35.5167 41.9633 34.8966C42.2888 34.2013 41.7086 33.0314 40.3311 32.773C39.8217 32.6979 39.3546 32.6979 38.9914 32.6979C38.7367 32.7355 38.5197 32.5522 38.4489 32.2938C38.4489 32.2938 38.2696 31.2321 38.7744 30.5038C39.2461 29.7709 40.6944 30.1374 41.8926 31.124C43.2323 32.1858 44.973 34.9624 45.7372 35.4416C45.9542 35.5872 46.86 35.808 46.86 35.808C47.4025 35.9537 47.6572 35.404 47.3317 35.0375C46.242 33.7221 44.3975 31.5985 42.7983 30.3535L42.803 30.3488ZM37.8356 32.4348C37.6564 32.7636 37.2554 33.022 37.0384 33.1301L36.9488 33.1912C36.9346 33.1583 36.9158 33.1254 36.8922 33.0972C36.8922 33.0972 36.6374 32.7683 36.4582 32.6227C36.0949 32.3643 34.175 32.4395 33.34 32.1106C32.5427 31.8193 31.8917 31.3401 32.2172 30.7575C32.5427 30.2079 33.0145 30.0246 33.0145 30.0246C33.1607 29.9871 33.3022 30.0246 33.34 30.1703C33.4107 30.3535 33.557 30.6072 33.7032 30.828C34.175 31.4482 34.9014 31.3777 35.1515 30.9737C35.3307 30.5696 35.0807 29.8743 34.2835 29.7662C33.9957 29.7287 33.741 29.7287 33.524 29.7662C33.3777 29.8038 33.2692 29.6911 33.2362 29.5454C33.2362 29.5454 33.1654 28.9253 33.4532 28.4837C33.741 28.0467 34.5429 28.23 35.1939 28.7749C35.9204 29.3622 36.8261 30.969 37.2224 31.2274C37.3686 31.3025 37.8404 31.4106 37.8404 31.4106C37.9111 31.4294 37.9724 31.42 38.0196 31.4012V31.4858C37.9819 31.7395 37.9489 32.2187 37.8404 32.4348H37.8356ZM33.7032 29.9119C33.8495 29.9119 34.1372 29.9871 34.3212 30.0199C34.5759 30.128 34.7929 30.2408 34.8637 30.424C34.9722 30.6448 34.7929 30.8985 34.609 30.8985C34.425 30.8985 34.208 30.7904 33.991 30.6072C33.8825 30.4991 33.6655 30.2783 33.59 30.1703C33.4107 29.9871 33.373 29.9119 33.6985 29.9119H33.7032ZM39.0669 32.9469C39.3546 32.9469 39.8641 33.0925 40.1566 33.2006C40.6283 33.3838 40.9916 33.6375 41.1331 33.9335C41.3123 34.3375 41.0623 34.7369 40.6991 34.7369C40.3736 34.7369 39.9726 34.4832 39.5763 34.1872C39.3593 34.0039 38.9584 33.5999 38.8169 33.3838C38.5999 33.0549 38.4914 32.9093 39.0716 32.9469H39.0669ZM37.5809 38.7631C36.6044 36.3107 34.8967 35.6154 33.8117 36.2778C33.6325 36.3859 33.4862 36.5315 33.34 36.6819C33.2173 35.7516 32.9767 34.3845 32.6182 33.4637C32.1087 32.1482 31.1322 31.7817 30.4435 32.1811C30.335 32.2562 30.2265 32.3267 30.1558 32.4019L29.9765 32.6227L29.868 32.8059C29.7595 32.914 29.6133 33.1348 29.467 33.21C29.2878 33.318 28.9953 33.3556 28.849 33.3556L28.5943 33.318C28.4481 33.3556 28.3065 33.3932 28.1603 33.4637C27.5093 33.8677 27.2923 34.8919 28.1603 35.9865C28.7594 36.7617 29.8161 37.6497 30.5709 38.2463C30.368 38.2886 30.1793 38.345 29.9718 38.439C28.8821 39.0591 28.632 40.8914 30.2265 43.0102C31.387 44.5465 33.524 46.4868 34.8684 47.5815C35.3024 47.948 35.7741 47.5439 35.6279 47.107C35.6279 47.107 35.4817 46.3412 35.3024 45.9748C34.9392 45.2418 32.005 43.4519 30.9907 42.1317C30.0142 40.9243 29.434 39.5336 30.3397 38.984C31.2455 38.4719 32.1182 38.6927 32.1512 38.6927C32.4059 38.7303 32.5852 38.984 32.5522 39.2423C32.5144 39.6464 32.5144 40.0833 32.5899 40.5954C32.8447 42.0236 33.9674 42.5686 34.6561 42.2773C35.2741 41.8404 35.3826 40.5578 34.2929 39.6088C33.9297 39.2799 33.4957 39.0591 33.1324 38.8759C32.9154 38.7678 32.8069 38.5094 32.8777 38.2557C32.8777 38.2557 33.2409 37.2316 34.0382 36.8651C34.7976 36.4986 35.8496 37.5228 36.4299 38.9886C37.0478 40.6001 37.1894 43.8888 37.5903 44.6593C37.7366 44.913 38.3876 45.5378 38.3876 45.5378C38.7885 45.9419 39.2933 45.5754 39.1848 45.1009C38.897 43.419 38.3498 40.6377 37.5903 38.7725L37.5809 38.7631ZM30.0425 33.7502C30.1888 33.8254 30.4058 34.0415 30.4765 34.1543C30.6558 34.3751 30.7643 34.5912 30.7313 34.7744C30.6935 35.0281 30.4435 35.1409 30.2595 35.0657C30.1133 34.9906 29.9718 34.7744 29.8586 34.516C29.7878 34.3704 29.7501 34.0791 29.7501 33.9288C29.7878 33.6704 29.7878 33.5623 30.0378 33.7455L30.0425 33.7502ZM33.1985 39.092C33.4155 39.2376 33.8164 39.6417 33.9957 39.8625C34.3212 40.2665 34.5052 40.6659 34.5052 40.9947C34.4674 41.4317 34.0712 41.6525 33.7457 41.4693C33.4579 41.3236 33.2362 40.882 33.0569 40.4451C32.9484 40.1867 32.8022 39.6417 32.8022 39.3833C32.7314 38.9464 32.7314 38.7631 33.2032 39.092H33.1985ZM32.2927 38.0678C31.9672 38.251 31.4955 38.2886 31.2785 38.2886H31.2313C31.2549 38.2323 31.2596 38.1712 31.2407 38.1054C31.2407 38.1054 31.17 37.6685 31.0945 37.4853C30.9152 37.0812 29.2453 36.1698 28.6651 35.4745C28.1226 34.8167 27.7971 34.0838 28.3773 33.7549C28.9198 33.4261 29.4293 33.5341 29.4293 33.5341C29.5755 33.5717 29.684 33.6798 29.6463 33.8254C29.6085 34.0462 29.6085 34.2999 29.6463 34.5583C29.7548 35.3288 30.4058 35.6201 30.8067 35.4369C31.17 35.1832 31.2785 34.4503 30.6605 33.9758C30.4435 33.7925 30.1888 33.6845 30.0095 33.6093C29.8633 33.5341 29.8303 33.3885 29.8633 33.2804C29.8633 33.2804 30.118 32.6932 30.5898 32.4771C31.0615 32.2562 31.6417 32.8059 31.9295 33.6093C32.255 34.4879 32.2172 36.3154 32.439 36.757C32.5097 36.9027 32.873 37.2316 32.873 37.2316C32.9013 37.2597 32.9296 37.2785 32.9626 37.2973L32.9107 37.3819C32.7645 37.6027 32.4767 37.9692 32.2927 38.0772V38.0678ZM22.6693 10.7389C22.8863 10.7389 23.0703 10.7013 23.2873 10.6308L23.3297 10.6073C22.9759 11.4953 22.5136 12.8483 22.3438 13.8866C22.1268 15.3148 22.8155 16.0806 23.6128 16.0806C23.7213 16.0806 23.8675 16.043 23.976 16.0054L24.2307 15.8974L24.41 15.8222C24.5562 15.7471 24.811 15.6766 24.9525 15.6766C25.1695 15.6766 25.462 15.7846 25.5705 15.8598L25.8252 15.935C25.9714 16.0101 26.113 16.0101 26.2592 16.0101C27.0187 16.0101 27.7074 15.2068 27.4904 13.7785C27.3631 12.8389 26.8913 11.5845 26.5375 10.7013C26.7121 10.7577 26.9008 10.7764 27.0942 10.7764C28.3631 10.7764 29.4481 9.27774 29.0896 6.67968C28.8349 4.73936 27.8914 1.99566 27.2782 0.388903C27.0612 -0.160777 26.4809 -0.0151349 26.3724 0.426488C26.3724 0.426488 26.1177 1.15939 26.0847 1.59632C26.0469 2.3997 27.7169 5.43468 27.9716 7.08372C28.2263 8.62001 28.0801 10.1187 26.9951 10.1187C25.9101 10.1187 25.2921 9.49856 25.2921 9.49856C25.1129 9.31533 25.0751 9.06163 25.2214 8.84082C25.4384 8.51195 25.6554 8.10791 25.8394 7.6334C26.3111 6.28034 25.5846 5.21857 24.8629 5.1481C24.1364 5.22327 23.3769 6.31793 23.8864 7.6334C24.0656 8.10791 24.2873 8.51195 24.5374 8.84082C24.6836 9.06163 24.6459 9.35291 24.4666 9.49856C24.4666 9.49856 23.6694 10.1939 22.7636 10.1187C21.8956 10.0435 21.4946 8.65759 21.7116 7.08372C21.9664 5.4018 23.4524 2.47487 23.4901 1.55874C23.4901 1.26745 23.2354 0.388903 23.2354 0.388903C23.0891 -0.160777 22.4759 -0.0856067 22.3296 0.351318C21.7494 1.96277 20.8814 4.6313 20.6266 6.67968C20.3012 9.27774 21.4239 10.7389 22.6929 10.7389H22.6693ZM24.7732 14.8356C24.7025 14.69 24.594 14.4316 24.594 14.2484C24.5562 13.9947 24.5562 13.7363 24.6647 13.5906C24.811 13.4074 25.0987 13.4074 25.2072 13.5906C25.3157 13.7363 25.3157 13.9947 25.278 14.2484C25.2402 14.394 25.1695 14.6853 25.0987 14.8356C24.9902 15.0564 24.9195 15.1269 24.7732 14.8356ZM24.3015 7.55823C24.2307 7.04614 24.2307 6.60921 24.41 6.31323C24.627 5.94678 25.1365 5.94678 25.3157 6.31323C25.462 6.60451 25.462 7.04614 25.4242 7.55823C25.3865 7.84952 25.245 8.3992 25.1365 8.62001C24.9572 8.98646 24.8817 9.1321 24.627 8.62001C24.5185 8.36631 24.3392 7.84952 24.3015 7.55823ZM24.9525 9.97307C25.3016 9.97307 25.7073 10.1704 25.9337 10.2878C25.9007 10.3207 25.8724 10.363 25.8582 10.4147C25.8582 10.4147 25.712 10.8187 25.679 11.0348C25.6412 11.4718 26.6555 13.1208 26.8017 13.9994C26.9479 14.8403 26.8725 15.6437 26.2215 15.6437C25.5705 15.6437 25.2072 15.3148 25.1695 15.3148C25.061 15.2068 25.0232 15.0611 25.1317 14.9484C25.278 14.7651 25.3865 14.5443 25.495 14.2906C25.7827 13.5577 25.3487 12.9752 24.9147 12.9376C24.443 13.0127 24.009 13.5953 24.2968 14.3282C24.4053 14.5819 24.5515 14.8027 24.6977 14.986C24.7685 15.094 24.7685 15.2397 24.66 15.3524C24.66 15.3524 24.1505 15.7189 23.608 15.7189C23.0986 15.6813 22.8485 14.9155 22.9901 14.0745C23.1363 13.1584 24.042 11.5516 24.0798 11.0771C24.0798 10.9315 23.9335 10.457 23.9335 10.457C23.9194 10.4147 23.8958 10.3818 23.8722 10.3536L24.042 10.2784C24.2968 10.1704 24.693 9.98716 24.9478 9.98716L24.9525 9.97307ZM6.97456 19.6277C9.04078 21.2392 10.8522 20.9808 11.508 19.8861C11.6165 19.7029 11.6872 19.5196 11.725 19.2988L11.7391 19.1062C12.3241 19.8438 13.2675 20.9995 14.0789 21.6761C15.1686 22.5546 16.2159 22.3714 16.5791 21.6761C16.6499 21.568 16.6876 21.4553 16.7254 21.3096L16.7631 21.0183L16.8009 20.7975C16.8386 20.6519 16.8716 20.3606 16.9471 20.2479C17.0556 20.0646 17.3103 19.8814 17.4188 19.8109L17.5651 19.6653C17.6736 19.5572 17.7821 19.4445 17.8528 19.3364C18.2538 18.6411 17.8906 17.6921 16.5839 17.1424C15.6923 16.7759 14.329 16.5316 13.4043 16.4095C13.5412 16.2826 13.678 16.1417 13.7912 15.9726C14.4091 14.8732 13.7204 13.1584 11.291 12.1671C9.51251 11.4342 6.6868 10.8516 5.02157 10.5556C4.44133 10.4476 4.26207 11.0301 4.58757 11.359C4.58757 11.359 5.09705 11.9463 5.42255 12.2C6.07355 12.6369 9.51723 12.7121 11.0787 13.3322C12.5269 13.8819 13.7251 14.7604 13.1826 15.7095C12.6401 16.6256 11.8052 16.8793 11.7674 16.8793C11.5127 16.9545 11.2579 16.8417 11.1494 16.6256C10.9702 16.2967 10.7485 15.8551 10.423 15.4934C9.51723 14.394 8.21052 14.4692 7.81426 15.0893C7.48876 15.7846 8.069 16.9545 9.44647 17.2129C9.95595 17.288 10.423 17.288 10.7862 17.288C11.0409 17.288 11.2579 17.4337 11.3287 17.6921C11.3287 17.6921 11.508 18.7538 11.0032 19.4821C10.5315 20.215 9.08323 19.8485 7.88502 18.8619C6.54528 17.8001 4.80457 15.0235 4.04036 14.5443C3.82336 14.3987 2.91762 14.1779 2.91762 14.1779C2.37512 14.0322 2.12038 14.5819 2.44588 14.9484C3.5356 16.2638 5.38009 18.3874 6.97928 19.6324L6.97456 19.6277ZM11.942 17.5417C12.1212 17.2129 12.5222 16.9545 12.7392 16.8464L12.8288 16.7853C12.843 16.8182 12.8618 16.8511 12.8854 16.8793C12.8854 16.8793 13.1402 17.2082 13.3194 17.3538C13.6827 17.6075 15.6026 17.537 16.4376 17.8659C17.2349 18.1572 17.8859 18.6317 17.5604 19.219C17.2349 19.7686 16.7631 19.9519 16.7631 19.9519C16.6169 19.9895 16.4754 19.9519 16.4376 19.8062C16.3669 19.5854 16.2206 19.3693 16.0744 19.1485C15.6026 18.5283 14.8762 18.5988 14.6261 19.0028C14.4469 19.4069 14.6969 20.1022 15.4941 20.2103C15.7819 20.2479 16.0366 20.2479 16.2536 20.2103C16.3999 20.1727 16.5084 20.2854 16.5414 20.4311C16.5414 20.4311 16.6122 21.0512 16.3244 21.4929C16.0366 21.9298 15.2724 21.7512 14.6214 21.2016C13.895 20.6143 12.9892 19.0075 12.593 18.7492C12.4845 18.674 11.975 18.5659 11.975 18.5659C11.8901 18.5424 11.8193 18.5612 11.758 18.5941V18.4908C11.7957 18.2371 11.8287 17.7578 11.9372 17.5417H11.942ZM16.0744 20.027C15.9281 20.027 15.6404 19.9519 15.4564 19.919C15.2017 19.8109 14.9847 19.6982 14.9139 19.5149C14.8054 19.2941 14.9847 19.0404 15.1686 19.0404C15.3526 19.0404 15.5696 19.1485 15.7866 19.3317C15.8951 19.4398 16.1121 19.6606 16.1876 19.7686C16.3669 19.9519 16.4046 20.0599 16.0791 20.0223L16.0744 20.027ZM10.673 17.0296C10.3852 17.0296 9.87575 16.884 9.58327 16.7712C9.11154 16.588 8.7483 16.3343 8.60678 16.0383C8.38978 15.6343 8.67754 15.235 9.04078 15.235C9.36627 15.235 9.76725 15.4934 10.1635 15.7846C10.3805 15.9679 10.7815 16.3719 10.923 16.588C11.1777 16.9169 11.2485 17.0625 10.6683 17.0249L10.673 17.0296ZM12.159 11.2885C13.1355 13.7034 14.8431 14.4363 15.9281 13.7738C16.1074 13.6658 16.2536 13.5201 16.3999 13.3698C16.5225 14.3141 16.7631 15.6343 17.1216 16.5504C17.6311 17.8659 18.6076 18.2324 19.2964 17.8283C19.4049 17.7532 19.5133 17.6827 19.5841 17.5746L19.7634 17.3538L19.8719 17.1706C19.9804 17.0625 20.1266 16.8417 20.2728 16.7665C20.4521 16.6585 20.7446 16.6209 20.8908 16.6209L21.1456 16.6585C21.2918 16.6209 21.4333 16.5833 21.5796 16.5128C22.2306 16.1088 22.4476 15.0846 21.5796 13.99C20.9805 13.2195 19.9238 12.3268 19.169 11.7302C19.3718 11.6879 19.5605 11.6315 19.7681 11.5375C20.8578 10.9174 21.1078 9.08512 19.5134 7.00385C18.3529 5.46757 16.2159 3.52725 14.8715 2.43259C14.4375 2.06613 14.0035 2.47017 14.112 2.90709C14.112 2.90709 14.2582 3.67759 14.4375 4.03934C14.8007 4.77225 17.7349 6.56223 18.7491 7.8824C19.7256 9.12741 20.3059 10.4805 19.4001 11.0301C18.4944 11.5422 17.6217 11.3214 17.5887 11.3214C17.3339 11.2838 17.1547 11.0301 17.1877 10.7717C17.2254 10.3677 17.2254 9.93078 17.1499 9.41869C16.8952 7.99046 15.7725 7.44548 15.0837 7.73676C14.4658 8.17369 14.3573 9.45627 15.447 10.4053C15.8479 10.7342 16.2442 10.9926 16.6074 11.1382C16.8244 11.2463 16.9329 11.5047 16.8622 11.7584C16.8622 11.7584 16.4989 12.7825 15.7017 13.149C14.9422 13.5154 13.8902 12.4913 13.31 11.0254C12.692 9.41399 12.5505 6.15819 12.1495 5.35482C12.041 5.10112 11.3523 4.47627 11.3523 4.47627C10.9513 4.07223 10.4466 4.43868 10.5551 4.91319C10.8428 6.59512 11.39 9.3764 12.1495 11.2791L12.159 11.2885ZM19.7351 16.2263C19.5888 16.1511 19.3718 15.935 19.2633 15.8222C19.0841 15.6014 18.9756 15.3853 19.0086 15.2021C19.0463 14.9484 19.2964 14.8356 19.4803 14.9108C19.6266 14.986 19.7681 15.2021 19.8813 15.4605C19.9521 15.6061 19.9898 15.8974 19.9898 16.0477C19.9898 16.3014 19.9898 16.4142 19.7351 16.231V16.2263ZM16.5791 10.8845C16.3621 10.7389 15.9612 10.3348 15.7819 10.114C15.4941 9.70997 15.2724 9.31063 15.2724 8.98176C15.3102 8.54484 15.7064 8.32403 16.0319 8.50725C16.3197 8.65289 16.5414 9.09452 16.7207 9.53144C16.8292 9.78514 16.9754 10.3348 16.9754 10.6308C17.0462 11.0348 17.0462 11.2181 16.5744 10.8892L16.5791 10.8845ZM17.5226 11.9463C17.8009 11.7724 18.268 11.7302 18.5038 11.7255C18.4944 11.7724 18.4897 11.8194 18.5038 11.8711C18.5038 11.8711 18.5746 12.308 18.6501 12.4913C18.8293 12.8953 20.4993 13.8067 21.0795 14.5021C21.622 15.1598 21.9475 15.8927 21.3673 16.2216C20.8248 16.5504 20.3153 16.4424 20.3153 16.4424C20.1691 16.4048 20.0606 16.2967 20.0983 16.1511C20.136 15.9303 20.136 15.6766 20.0983 15.4182C19.9898 14.6477 19.3388 14.3564 18.9378 14.5396C18.5746 14.7933 18.4661 15.5262 19.0841 16.0008C19.3011 16.184 19.5181 16.292 19.7351 16.3672C19.8813 16.4048 19.9143 16.588 19.8813 16.6961C19.8813 16.6961 19.6266 17.2833 19.1548 17.4995C18.6831 17.7203 18.1029 17.1706 17.8151 16.4001C17.4896 15.5215 17.5273 13.694 17.3056 13.2524C17.2349 13.1067 16.8716 12.7778 16.8716 12.7778C16.8575 12.7637 16.8386 12.7544 16.8244 12.745L16.8716 12.6698C17.0179 12.449 17.3056 12.0825 17.5226 11.9369V11.9463ZM35.8638 16.043C35.9676 16.2498 36.1374 16.4283 36.3402 16.5692C35.4062 16.6961 34.1419 16.9357 33.2881 17.288C31.9814 17.8001 31.6229 18.7867 32.0191 19.4821C31.9484 19.5572 32.0569 19.6653 32.1984 19.7733L32.4531 19.9566C32.5616 20.0317 32.8163 20.2103 32.9249 20.3935C32.9956 20.5391 33.0334 20.7975 33.0711 20.9432L33.1088 21.164L33.1466 21.4553C33.1843 21.5633 33.2173 21.709 33.2928 21.8217C33.6938 22.517 34.708 22.7003 35.793 21.8217C36.5525 21.2157 37.4016 20.215 37.963 19.4821C38.0055 19.6371 38.0621 19.8062 38.1517 19.9566C38.8027 21.0888 40.6189 21.3096 42.6851 19.7029C44.2796 18.4579 46.1288 16.339 47.2185 15.0188C47.511 14.6524 47.2893 14.1027 46.7468 14.2484C46.7468 14.2484 45.8788 14.4692 45.624 14.6148C44.8975 15.0893 43.1238 17.8706 41.7794 18.9324C40.5481 19.919 39.1707 20.2854 38.6612 19.5525C38.1517 18.782 38.3357 17.7625 38.3357 17.7625C38.3734 17.5088 38.6234 17.3256 38.8782 17.3585C39.2792 17.3961 39.7462 17.3961 40.2179 17.2833C41.6331 17.0249 42.1756 15.8551 41.8501 15.1598C41.4161 14.5396 40.1472 14.4645 39.2414 15.5638C38.9159 15.9303 38.6989 16.3343 38.5149 16.6961C38.4064 16.9169 38.1517 17.0249 37.897 16.9498C37.897 16.9498 37.029 16.6961 36.4818 15.7799C35.9393 14.8309 37.1327 13.9524 38.5857 13.4027C40.1424 12.7825 43.5531 12.7074 44.2418 12.2704C44.5673 12.0496 45.0768 11.4295 45.0768 11.4295C45.4023 11.1006 45.223 10.5134 44.6428 10.6261C42.9398 10.9174 40.1472 11.4671 38.3734 12.2376C35.9817 13.2242 35.2552 14.9437 35.8732 16.043H35.8638ZM38.765 16.6632C38.9112 16.4424 39.3075 16.043 39.5245 15.8598C39.9254 15.5685 40.3217 15.3101 40.6472 15.3101C41.0104 15.3101 41.2982 15.7142 41.0812 16.1135C40.935 16.4048 40.5387 16.6632 40.1047 16.8464C39.8169 16.9545 39.3075 17.1048 39.015 17.1048C38.4347 17.1424 38.5432 16.9968 38.7602 16.6679L38.765 16.6632ZM37.713 17.6122C37.8215 17.833 37.8922 18.2699 37.8922 18.5612V18.7069C37.8922 18.7069 37.3828 18.8149 37.2743 18.8901C36.8733 19.1485 35.9676 20.7552 35.2458 21.3425C34.5948 21.8922 33.8306 22.0754 33.5428 21.6338C33.2551 21.1593 33.3258 20.572 33.3258 20.572C33.3636 20.4264 33.4721 20.3183 33.6136 20.3512C33.8306 20.3888 34.0853 20.3888 34.3731 20.3512C35.1326 20.2432 35.4251 19.5478 35.2411 19.1438C34.9863 18.7773 34.2646 18.6693 33.7929 19.2894C33.656 19.4962 33.524 19.7029 33.4485 19.9096C33.4532 19.9002 33.4626 19.8908 33.4674 19.8767C33.5381 19.7686 33.7551 19.5102 33.8683 19.4398C34.0853 19.2565 34.3023 19.1485 34.4863 19.1485C34.7033 19.1485 34.8495 19.4022 34.741 19.623C34.6703 19.8062 34.4533 19.9143 34.1985 20.027C34.0523 20.1022 33.7645 20.1351 33.5806 20.1351C33.3636 20.1351 33.3494 20.0928 33.4013 19.9988C33.3211 20.1022 33.2032 20.1304 33.1088 20.0975C33.1088 20.0975 32.5994 19.9143 32.3116 19.3646C31.9861 18.7773 32.6371 18.3028 33.4343 18.0115C34.2693 17.6827 36.1893 17.7531 36.5525 17.4995C36.7318 17.3914 36.9865 17.0249 36.9865 17.0249C37.0007 17.0108 37.0101 16.9968 37.0195 16.9827C37.2271 17.1189 37.562 17.3632 37.713 17.6122ZM33.4013 19.9988C33.4155 19.9754 33.4343 19.9425 33.4532 19.9096C33.4485 19.9237 33.439 19.9378 33.439 19.9519C33.4296 19.9707 33.4155 19.9848 33.406 19.9988H33.4013ZM29.9199 11.6503C30.118 11.749 30.3444 11.8147 30.5756 11.8523C29.8161 12.449 28.7736 13.3322 28.1792 14.098C27.3112 15.2303 27.4904 16.2544 28.1792 16.6209C28.2499 16.6585 28.3962 16.729 28.5801 16.729L28.9056 16.7665C29.0519 16.7665 29.3396 16.8041 29.5236 16.9122C29.6699 16.9874 29.8114 17.2035 29.9246 17.3162L30.0331 17.4995L30.2124 17.7203C30.2831 17.7954 30.3916 17.9035 30.5001 17.9411C31.1889 18.3451 32.1654 17.9787 32.6748 16.6632C33.0239 15.7705 33.2598 14.4833 33.3872 13.5389C33.5145 13.6658 33.6419 13.7879 33.7976 13.8819C34.8873 14.5396 36.5903 13.8067 37.5667 11.3966C38.3262 9.53144 38.8735 6.71257 39.1612 5.03064C39.232 4.55614 38.7602 4.22727 38.364 4.59372C38.364 4.59372 37.713 5.21387 37.5667 5.47227C37.1658 6.27565 37.0243 9.53144 36.4063 11.1429C35.8638 12.604 34.8118 13.6282 34.0146 13.2664C33.2173 12.8624 32.8541 11.8758 32.8541 11.8758C32.7833 11.6174 32.8918 11.3637 33.1088 11.2557C33.4721 11.0724 33.8683 10.8516 34.2693 10.5227C35.359 9.60661 35.2458 8.29114 34.6325 7.85421C33.9438 7.52535 32.8211 8.10791 32.5663 9.53614C32.4956 10.0107 32.4956 10.4852 32.5286 10.8892C32.5663 11.1476 32.3824 11.3637 32.1276 11.4389C32.1276 11.4389 31.2596 11.6597 30.3492 11.1476C29.4057 10.5979 30.0237 9.24486 31.0002 7.99986C31.9767 6.68438 34.8778 4.85212 35.2411 4.16149C35.4203 3.79504 35.5666 3.02925 35.5666 3.02925C35.6751 2.55474 35.2411 2.1507 34.8071 2.55474C33.5004 3.6541 31.3634 5.58972 30.1652 7.12601C28.5707 9.21197 28.8255 11.0395 29.9104 11.6597L29.9199 11.6503ZM29.7406 16.184C29.7406 16.0383 29.8114 15.7471 29.8491 15.5967C29.9576 15.3383 30.0661 15.1222 30.2501 15.047C30.4294 14.939 30.6841 15.0846 30.7218 15.3383C30.7596 15.5215 30.6133 15.7424 30.4671 15.9585C30.3586 16.0665 30.1416 16.2873 29.9954 16.3625C29.7076 16.4706 29.7076 16.4001 29.7406 16.1793V16.184ZM32.7126 10.6966C32.7503 10.4382 32.8588 9.8932 32.9673 9.59722C33.1466 9.16029 33.4013 8.71867 33.656 8.57303C33.9815 8.3898 34.4155 8.61061 34.4155 9.04754C34.4155 9.3764 34.2363 9.78044 33.9061 10.1798C33.7268 10.4006 33.3258 10.7999 33.1088 10.9503C32.6748 11.2791 32.6748 11.1335 32.7079 10.6966H32.7126ZM32.2408 12.0496C32.4578 12.1953 32.7126 12.5241 32.8918 12.7825L32.9484 12.8765C32.9484 12.8765 32.9343 12.8859 32.9249 12.8906C32.9249 12.8906 32.5616 13.2195 32.4909 13.3651C32.2739 13.802 32.2739 15.6343 31.9814 16.5128C31.6936 17.3162 31.1134 17.8659 30.6416 17.6122C30.1322 17.3914 29.9152 16.8088 29.9152 16.8088C29.8444 16.6632 29.9152 16.5175 30.0614 16.48C30.2784 16.4048 30.4954 16.2591 30.7124 16.1135C31.3304 15.639 31.2219 14.9061 30.8586 14.6524C30.4577 14.4692 29.7689 14.7604 29.6982 15.5309C29.6604 15.7846 29.6604 16.0806 29.6982 16.2638C29.7359 16.4095 29.6274 16.5175 29.4812 16.5551C29.4812 16.5551 28.9717 16.6632 28.3915 16.3343C27.8112 16.0054 28.1367 15.2725 28.6792 14.6148C29.2594 13.9195 30.9247 12.9705 31.1087 12.604C31.2172 12.3832 31.2549 11.9839 31.2549 11.9839C31.2643 11.9322 31.2549 11.8852 31.2407 11.8382C31.4672 11.8382 31.9531 11.8429 32.2314 12.059L32.2408 12.0496ZM19.8436 22.1459C19.8153 22.0989 19.7822 22.0472 19.7492 21.9956C19.7728 22.0237 19.7964 22.0519 19.8058 22.0754C19.8389 22.1224 19.8624 22.16 19.8624 22.1788C19.8577 22.1694 19.8483 22.16 19.8436 22.1459ZM31.0096 27.2668C31.4813 27.6333 32.0616 28.6199 32.3163 28.7655C32.3871 28.8407 32.7173 28.9112 32.7173 28.9112C32.8965 28.9488 33.005 28.7655 32.8965 28.6575C32.4625 28.291 31.8068 27.5252 31.2643 27.0836C30.7596 26.6984 30.3067 26.6232 30.0048 26.736C30.052 26.5856 30.0897 26.4306 30.1227 26.2708C30.3209 26.5386 30.7549 26.7219 31.3728 26.642C32.0238 26.5668 32.9673 26.238 33.5475 26.0547C33.7268 25.9796 33.6938 25.801 33.5475 25.7259C33.5475 25.7259 33.2928 25.6178 33.1466 25.6178C32.8588 25.5802 31.8068 26.1675 31.2596 26.238C30.7171 26.3131 30.2076 26.2755 30.2076 25.8715C30.2076 25.505 30.4246 25.2842 30.4246 25.2842C30.4954 25.2091 30.5709 25.2091 30.6416 25.2467C30.7501 25.3218 30.8964 25.3923 31.0426 25.4675C31.5144 25.6507 31.8776 25.3923 31.9106 25.1386C31.8729 24.8849 31.5096 24.6265 31.0426 24.7721C30.8964 24.8473 30.7549 24.9178 30.6086 24.993C30.5379 25.0305 30.4294 25.0305 30.3916 24.9554C30.3916 24.9554 30.2926 24.8379 30.2265 24.6782C30.2171 24.5607 30.2029 24.4433 30.1888 24.3305C30.2642 24.0674 30.7077 23.9359 31.2266 24.0063C31.8068 24.1144 32.8211 24.6265 33.1135 24.6641C33.222 24.6641 33.5145 24.5889 33.5145 24.5889C33.6938 24.5513 33.6938 24.3305 33.5145 24.26C33.0428 24.0392 32.0993 23.7104 31.4106 23.6023C30.7643 23.499 30.3303 23.6728 30.1274 23.9406C30.0897 23.7573 30.0378 23.5788 29.9859 23.4003C30.2926 23.4989 30.736 23.405 31.1983 23.015C31.8163 22.6486 32.4673 21.9157 32.8305 21.4412C32.939 21.3331 32.8305 21.1123 32.6512 21.1875C32.6512 21.1875 32.3635 21.2626 32.2503 21.3331C31.9955 21.5163 31.4153 22.4654 30.9436 22.8318C30.5143 23.156 30.0473 23.3016 29.8633 23.0573C29.8303 22.9728 29.7925 22.8882 29.7548 22.8083C29.7123 22.611 29.7453 22.4325 29.7453 22.4325C29.7453 22.3573 29.8538 22.2868 29.9246 22.2868C30.0708 22.2868 30.2124 22.2868 30.3963 22.2493C30.8681 22.1412 31.0473 21.7372 30.9388 21.5163C30.7926 21.2955 30.3586 21.2955 30.0331 21.662C29.9246 21.8076 29.8538 21.9157 29.7784 22.066C29.7406 22.1412 29.6321 22.1741 29.5614 22.1741C29.5614 22.1741 29.467 22.1506 29.3444 22.066C29.2406 21.911 29.1321 21.7559 29.0141 21.6103C29.0141 21.3472 29.3538 21.1123 29.7784 20.9291C30.3209 20.7083 31.5191 20.6754 31.7361 20.4922C31.8446 20.417 32.0238 20.2009 32.0238 20.2009C32.1323 20.0928 32.0616 19.872 31.8776 19.9096C31.2974 20.0176 30.3209 20.2385 29.7029 20.4969C29.1462 20.7412 28.8679 21.0841 28.8066 21.3942C28.7028 21.2814 28.5943 21.1734 28.4811 21.07C28.8066 21.0089 29.1509 20.713 29.3727 20.1351C29.6604 19.4774 29.8444 18.5236 29.9152 17.9411C29.9529 17.7954 29.7689 17.6498 29.6274 17.7954C29.6274 17.7954 29.4104 18.0162 29.3727 18.1243C29.2264 18.4156 29.1934 19.5525 28.9717 20.0975C28.8113 20.5485 28.5141 20.8821 28.2452 20.8586C28.1178 20.7506 27.981 20.6519 27.8442 20.5532C27.7735 20.4452 27.7405 20.3512 27.7405 20.3512C27.7027 20.276 27.7405 20.168 27.8112 20.1304C27.9197 20.0552 28.066 19.9848 28.2122 19.8767C28.5754 19.5478 28.5377 19.1109 28.3207 18.9606C28.1037 18.8525 27.7027 19.0686 27.5942 19.5478C27.5565 19.7311 27.5565 19.8767 27.5942 20.0223C27.5942 20.1304 27.5565 20.2056 27.448 20.2056C27.448 20.2056 27.3772 20.2244 27.2687 20.2197C27.0895 20.1257 26.9055 20.0458 26.7168 19.9754C26.5894 19.7499 26.7828 19.3646 27.0517 18.9981C27.415 18.5236 28.4292 17.8988 28.5377 17.6451C28.6085 17.4995 28.6462 17.2411 28.6462 17.2411C28.6839 17.0954 28.5377 16.9498 28.3915 17.0578C27.9197 17.4619 27.1932 18.1196 26.797 18.6693C26.4432 19.1438 26.3535 19.5713 26.4432 19.872C26.3017 19.8297 26.1601 19.7921 26.0139 19.7592C26.2875 19.5619 26.4715 19.1109 26.363 18.4485C26.2167 17.7907 25.8912 16.8746 25.6742 16.3249C25.6035 16.1793 25.4195 16.1417 25.3487 16.3249C25.3487 16.3249 25.278 16.6162 25.278 16.729C25.278 17.0202 25.8205 18.0444 25.929 18.6317C25.9997 19.1673 25.896 19.6324 25.6176 19.6888C25.5091 19.67 25.4006 19.6559 25.2874 19.6465C25.127 19.5807 25.0232 19.4774 25.0232 19.4774C24.9525 19.4022 24.9525 19.3317 24.9855 19.2565C25.0563 19.1485 25.1317 19.0028 25.2025 18.8196C25.3818 18.3451 25.094 17.9787 24.8393 17.9411C24.5845 17.9787 24.3298 18.3451 24.5138 18.8196C24.5845 18.9653 24.66 19.1109 24.7308 19.2237C24.7685 19.2988 24.7685 19.4069 24.693 19.4445C24.693 19.4445 24.476 19.6653 24.1128 19.6653C23.7496 19.6653 23.6788 19.1532 23.7496 18.6035C23.8203 18.0162 24.4006 16.9592 24.3675 16.7008C24.3675 16.5551 24.259 16.2967 24.259 16.2967C24.2213 16.1511 24.0043 16.0759 23.9335 16.2967C23.7165 16.8464 23.4241 17.7954 23.3533 18.4908C23.2778 19.1062 23.4382 19.5337 23.6835 19.7405C23.5231 19.7733 23.3627 19.8156 23.2071 19.8626C23.2873 19.5619 23.1929 19.1391 22.8485 18.6693C22.4476 18.1196 21.7258 17.4619 21.2541 17.0578C21.1078 16.9122 20.9663 17.0578 20.9993 17.2411C20.9993 17.2411 21.0371 17.4948 21.1078 17.6451C21.2163 17.8988 22.2306 18.5236 22.5938 18.9981C22.858 19.3552 23.0467 19.7311 22.9382 19.9566C22.7589 20.0223 22.5796 20.0975 22.4098 20.1868C22.2825 20.1868 22.1975 20.168 22.1975 20.168C22.1268 20.1304 22.0513 20.0599 22.0513 19.9848V19.5102C21.9805 19.0357 21.5796 18.8149 21.3248 18.923C21.1078 19.0686 21.0701 19.5102 21.4333 19.8391C21.5796 19.9472 21.7211 20.0599 21.8343 20.0975C21.9051 20.1351 21.9428 20.2432 21.9051 20.3183C21.9051 20.3183 21.872 20.4217 21.8013 20.5344C21.6645 20.6237 21.5371 20.7224 21.4097 20.8257C21.1644 20.8492 20.8625 20.5156 20.6738 20.0646C20.4568 19.5149 20.4191 18.3827 20.2728 18.0914C20.2351 18.0162 20.0181 17.7625 20.0181 17.7625C19.8719 17.6169 19.7304 17.7625 19.7304 17.9082C19.8389 18.5283 20.0181 19.4821 20.2728 20.1398C20.4898 20.6989 20.8201 20.9949 21.1361 21.07C21.0182 21.1781 20.905 21.2908 20.8012 21.4083C20.7257 21.1029 20.4474 20.7881 19.9143 20.5767C19.2964 20.3183 18.3199 20.1022 17.7396 19.9895C17.5604 19.9519 17.4849 20.1351 17.5934 20.2807C17.5934 20.2807 17.7726 20.5016 17.8811 20.572C18.0981 20.7177 19.2964 20.7928 19.8389 21.0089C20.2257 21.1781 20.5465 21.3895 20.5983 21.6244C20.4521 21.8076 20.32 22.0002 20.1974 22.1976C20.1172 22.2352 20.0558 22.2539 20.0558 22.2539C19.9898 22.2868 19.9002 22.2539 19.8577 22.1741C19.8577 22.2023 19.8153 22.2164 19.6926 22.2164C19.5841 22.2164 19.4049 22.1412 19.3294 22.1083C19.1831 22.0331 19.0416 21.9627 19.0039 21.8546C18.9331 21.709 19.0416 21.5633 19.1501 21.6009C19.2586 21.6009 19.4049 21.6761 19.5511 21.7841C19.603 21.8358 19.6879 21.9251 19.7492 21.9956C19.702 21.9157 19.6502 21.8311 19.5888 21.7466C19.2633 21.3801 18.8293 21.3801 18.6831 21.6009C18.5746 21.8217 18.7539 22.2586 19.2256 22.3338C19.4049 22.3714 19.5511 22.3714 19.6973 22.3714C19.8058 22.3714 19.8766 22.4466 19.8766 22.517C19.8766 22.517 19.9002 22.6392 19.886 22.7895C19.8247 22.9211 19.7728 23.0526 19.7209 23.1889C19.5134 23.3721 19.0841 23.2265 18.6831 22.9258C18.2114 22.5593 17.6311 21.5727 17.3764 21.3895C17.3056 21.3519 16.9754 21.2439 16.9754 21.2439C16.7961 21.2063 16.6876 21.3895 16.7961 21.4975C17.2301 21.9345 17.8859 22.6674 18.4284 23.109C18.8954 23.4614 19.3199 23.5553 19.6171 23.4802C19.57 23.6258 19.5369 23.7808 19.5039 23.9312C19.3058 23.6587 18.8624 23.4802 18.2114 23.5835C17.5604 23.7292 16.6546 24.058 16.1074 24.2788C15.9612 24.354 15.9281 24.5325 16.1074 24.6077C16.1074 24.6077 16.3952 24.6829 16.5084 24.6829C16.7961 24.6829 17.8151 24.1332 18.3953 24.0251C18.919 23.9547 19.3718 24.058 19.4379 24.3258C19.419 24.4433 19.4049 24.556 19.3954 24.6782C19.3294 24.8379 19.2303 24.9413 19.2303 24.9413C19.1595 25.0164 19.0841 25.0164 19.0133 24.9789C18.9048 24.9037 18.7586 24.8332 18.5793 24.758C18.1076 24.5748 17.7443 24.8661 17.7113 25.1245C17.7491 25.3782 18.1123 25.6366 18.5793 25.4534C18.7255 25.3782 18.8671 25.3077 18.9803 25.2326C19.051 25.195 19.1595 25.195 19.1973 25.2701C19.1973 25.2701 19.4143 25.491 19.4143 25.8574C19.4143 26.2239 18.9048 26.2943 18.3623 26.2239C17.7821 26.1487 16.7301 25.5661 16.4754 25.6037C16.3291 25.6037 16.0744 25.7118 16.0744 25.7118C15.9281 25.7493 15.8951 25.9702 16.0744 26.0406C16.6169 26.2614 17.5604 26.5527 18.2491 26.6279C18.8671 26.7031 19.2964 26.5386 19.4945 26.2849C19.5322 26.4541 19.5747 26.6185 19.6219 26.7829C19.3199 26.7266 18.919 26.8205 18.4991 27.1776C17.8811 27.544 17.2301 28.3098 16.8669 28.7514C16.7584 28.8971 16.8669 29.0803 17.0462 29.0098C17.0462 29.0098 17.3717 28.9347 17.4471 28.8642C17.7019 28.681 18.2821 27.732 18.7539 27.3655C19.1124 27.093 19.4898 26.9521 19.7162 27.0507C19.787 27.248 19.8719 27.436 19.9615 27.6239C19.9615 27.7085 19.9473 27.7695 19.9473 27.7695C19.9473 27.8447 19.8389 27.9152 19.7681 27.9152C19.6218 27.9152 19.4803 27.9152 19.2964 27.9528C18.8246 28.0608 18.6076 28.4649 18.7539 28.6857C18.9001 28.9065 19.3341 28.9065 19.6596 28.54C19.7681 28.3944 19.8389 28.2863 19.9143 28.136C19.9521 28.0608 20.0606 28.0279 20.1313 28.0279C20.1313 28.0279 20.1596 28.0373 20.2068 28.0561C20.3436 28.2769 20.4993 28.493 20.6644 28.6904C20.5936 28.9112 20.2823 29.1132 19.9143 29.2729C19.3718 29.4937 18.1736 29.5266 17.9566 29.7099C17.8481 29.785 17.6689 30.0011 17.6689 30.0011C17.5604 30.1092 17.6311 30.33 17.8151 30.2924C18.3953 30.1844 19.3718 29.9636 19.9898 29.7052C20.4898 29.4844 20.7682 29.1837 20.8625 28.9018C20.9522 28.9957 21.0465 29.0897 21.1408 29.179C20.8248 29.2541 20.4946 29.5454 20.2776 30.1092C20.0228 30.7294 19.8436 31.6831 19.7351 32.2656C19.6973 32.4113 19.8813 32.5569 20.0228 32.4113C20.0228 32.4113 20.2398 32.1905 20.2776 32.12C20.4238 31.8287 20.4568 30.6918 20.6785 30.1468C20.8295 29.7146 21.1125 29.3904 21.372 29.3857C21.5182 29.5078 21.6739 29.6159 21.8296 29.724C21.8862 29.8179 21.9098 29.8884 21.9098 29.8884C21.9475 29.9636 21.9098 30.0716 21.839 30.1092C21.7305 30.1844 21.5843 30.2548 21.438 30.3629C21.0748 30.6918 21.1125 31.1334 21.3295 31.279C21.5465 31.3871 21.9475 31.171 22.056 30.6918C22.0938 30.5085 22.0938 30.3629 22.056 30.2173C22.056 30.1092 22.1268 30.034 22.2023 30.034C22.2023 30.034 22.2589 30.0199 22.3485 30.0199C22.5419 30.1186 22.74 30.2032 22.9476 30.2783C23.0561 30.5085 22.8674 30.8844 22.6032 31.2368C22.24 31.7113 21.2258 32.3361 21.1173 32.5898C21.0465 32.7355 21.0088 32.9939 21.0088 32.9939C20.971 33.1395 21.1173 33.2851 21.2635 33.1771C21.7352 32.773 22.4617 32.1153 22.858 31.5656C23.2071 31.0958 23.3014 30.6777 23.2165 30.3723C23.3486 30.4146 23.4854 30.4475 23.6222 30.4757C23.3958 30.7012 23.2589 31.1193 23.325 31.7066C23.3958 32.3643 23.726 33.318 23.9052 33.9006C23.976 34.0838 24.193 34.0462 24.2307 33.9006C24.2307 33.9006 24.3392 33.6469 24.3392 33.4965C24.377 33.2053 23.7967 32.1435 23.7213 31.5938C23.6505 31.077 23.6835 30.5931 24.0279 30.5414C24.1411 30.5555 24.2543 30.5743 24.3675 30.5837C24.5515 30.6495 24.6647 30.7528 24.6647 30.7528C24.7355 30.828 24.7355 30.8985 24.7025 30.9737C24.6317 31.0817 24.5562 31.2274 24.4855 31.3777C24.3062 31.8522 24.5562 32.2187 24.811 32.2562C25.0657 32.2187 25.3204 31.8522 25.1742 31.3777C25.1034 31.2321 25.028 31.0488 24.9572 30.9408C24.9195 30.8656 24.9195 30.7575 24.9949 30.72C24.9949 30.72 25.0751 30.6495 25.1978 30.5884C25.3535 30.5743 25.5091 30.5555 25.6601 30.532C25.8912 30.6448 25.9997 31.0723 25.9007 31.5656C25.7922 32.1529 25.2827 33.1771 25.2497 33.4684C25.2497 33.5764 25.3204 33.8724 25.3204 33.8724C25.3582 34.0556 25.5752 34.0556 25.6459 33.8724C25.9007 33.3227 26.2262 32.4113 26.3347 31.716C26.4337 31.1052 26.2828 30.6777 26.0469 30.4616C26.1932 30.424 26.3394 30.3864 26.4809 30.3394C26.4007 30.6401 26.4904 31.0629 26.8394 31.5327C27.2404 32.0824 27.9622 32.7402 28.4339 33.1442C28.5801 33.2898 28.7217 33.1442 28.6886 32.961C28.6886 32.961 28.6509 32.7026 28.5801 32.5569C28.4716 32.3032 27.4574 31.6784 27.0942 31.2039C26.83 30.8468 26.6413 30.4663 26.7545 30.2361C26.9479 30.1609 27.1366 30.0763 27.3206 29.9824C27.4244 29.9824 27.4952 29.9964 27.4952 29.9964C27.5659 30.034 27.6414 30.1045 27.6414 30.1797V30.6542C27.7122 31.1287 28.1131 31.3495 28.3679 31.2415C28.5849 31.0958 28.6226 30.6542 28.2594 30.3253C28.1131 30.2173 27.9716 30.1045 27.8584 30.0716C27.7876 30.034 27.7499 29.926 27.7876 29.8508C27.7876 29.8508 27.8159 29.7568 27.882 29.6488C28.0141 29.5548 28.1461 29.4609 28.2688 29.3575C28.5141 29.3387 28.8255 29.6488 29.0189 30.1045C29.2359 30.6542 29.2736 31.7864 29.4198 32.0777C29.4576 32.1529 29.6746 32.4066 29.6746 32.4066C29.8208 32.5522 29.9623 32.4066 29.9623 32.2609C29.8538 31.6737 29.6746 30.7247 29.4198 30.0669C29.1934 29.4797 28.8443 29.1837 28.5188 29.132C28.6509 29.0098 28.7736 28.883 28.8915 28.7514C28.9528 29.0662 29.2311 29.4139 29.7831 29.63C30.4011 29.8884 31.3776 30.1045 31.9578 30.2173C32.1371 30.2548 32.2125 30.0716 32.104 29.926C32.104 29.926 31.9248 29.7052 31.8163 29.6347C31.5993 29.4891 30.4011 29.4139 29.8586 29.1978C29.434 29.0145 29.0896 28.7796 29.0943 28.5165C29.2076 28.3709 29.3161 28.2159 29.4151 28.0608C29.5378 27.981 29.6416 27.9575 29.6416 27.9575C29.7076 27.9246 29.7972 27.9575 29.8397 28.0373C29.8444 28.0044 29.8869 27.995 30.0048 27.995C30.1227 27.995 30.2926 28.0702 30.368 28.1031C30.5143 28.1783 30.6558 28.2487 30.6935 28.3615C30.7643 28.5071 30.6558 28.6528 30.5473 28.6528C30.4388 28.6528 30.2926 28.5776 30.1463 28.4696C30.118 28.4414 30.0756 28.3991 30.0331 28.3521C30.0567 28.3897 30.0803 28.4273 30.1086 28.4696C30.4341 28.836 30.8681 28.836 31.0143 28.6152C31.1228 28.3944 30.9436 27.9575 30.4718 27.8823C30.2926 27.8447 30.1463 27.8447 30.0001 27.8447C29.9293 27.8447 29.8208 27.8071 29.8208 27.6991C29.8208 27.6991 29.7501 27.3326 29.9293 27.0789C30.1086 26.8205 30.5803 26.9709 31.019 27.2997L31.0096 27.2668ZM30.7549 25.0352C30.8256 24.9977 31.0096 24.9272 31.1181 24.9272C31.2974 24.8896 31.4436 24.9272 31.5521 24.9648C31.6606 25.0399 31.6606 25.2185 31.5521 25.2936C31.4436 25.3688 31.2974 25.3312 31.1181 25.3312C31.0096 25.3312 30.8303 25.256 30.7549 25.2232C30.6086 25.148 30.5756 25.1151 30.7549 25.0399V25.0352ZM29.8869 22.0707C29.9246 21.9956 30.0661 21.8499 30.1416 21.7794C30.2878 21.6714 30.4294 21.5962 30.5426 21.5962C30.6888 21.5962 30.7596 21.7419 30.6888 21.8875C30.6511 21.9956 30.5096 22.0707 30.3633 22.1412C30.2548 22.1788 30.0756 22.2164 30.0001 22.2493C29.7831 22.2117 29.8208 22.1741 29.8916 22.066L29.8869 22.0707ZM27.7121 19.9143C27.7121 19.8062 27.7499 19.623 27.8206 19.5478C27.8914 19.4022 27.9669 19.2565 28.0754 19.1814C28.1839 19.1062 28.3301 19.1814 28.3301 19.327C28.3301 19.4351 28.2594 19.5854 28.1509 19.7311C28.0801 19.8062 27.9716 19.9519 27.8631 19.9848C27.6838 20.1304 27.6838 20.0599 27.7169 19.9096L27.7121 19.9143ZM21.839 20.0223C21.7683 19.9848 21.622 19.8391 21.5513 19.7639C21.4428 19.6183 21.372 19.4727 21.372 19.3599C21.372 19.2143 21.5182 19.1391 21.6267 19.2143C21.7352 19.2894 21.806 19.4351 21.8815 19.5807C21.9192 19.6888 21.9522 19.872 21.9522 19.9472C21.99 20.0552 21.99 20.1304 21.8437 20.0223H21.839ZM18.9378 25.2185C18.8671 25.256 18.6831 25.3265 18.5746 25.3265C18.3953 25.3641 18.2491 25.3641 18.1406 25.2889C18.0321 25.2138 18.0321 25.0681 18.1406 24.9601C18.2114 24.9225 18.3953 24.8849 18.5746 24.9225C18.6831 24.9225 18.8624 24.9976 18.9378 25.0305C19.1171 25.1057 19.0463 25.1386 18.9378 25.2138V25.2185ZM19.7728 28.1454C19.7351 28.2206 19.5935 28.3662 19.5181 28.4367C19.3718 28.5447 19.2303 28.6199 19.1171 28.6199C18.9709 28.6199 18.9001 28.4743 18.9709 28.3286C19.0086 28.2206 19.1501 28.1454 19.2964 28.0749C19.4049 28.0373 19.5841 27.9997 19.6596 27.9669C19.9143 27.9669 19.8766 28.0044 19.7681 28.1501L19.7728 28.1454ZM21.9098 30.6307C21.839 30.7763 21.7635 30.922 21.655 30.9972C21.5465 31.0723 21.4003 30.9971 21.4003 30.8515C21.4003 30.7435 21.4711 30.5931 21.5796 30.4475C21.6503 30.3723 21.7588 30.2267 21.8673 30.1891C21.9758 30.0434 21.9758 30.1139 21.9758 30.2642C21.9758 30.3723 21.9381 30.5555 21.9051 30.6307H21.9098ZM27.8537 30.1562C27.9244 30.1938 28.0707 30.3394 28.1414 30.4099C28.2499 30.5555 28.3207 30.7012 28.3207 30.8139C28.3207 30.9596 28.1745 31.0347 28.066 30.9596C27.9575 30.8844 27.8867 30.7388 27.8112 30.5931C27.7735 30.4851 27.7405 30.3018 27.7405 30.2267C27.6697 30.1186 27.6697 30.0434 27.849 30.1515L27.8537 30.1562ZM30.2454 24.7768C30.2076 24.8849 30.2831 25.0352 30.2831 25.1057C30.2831 25.1668 30.2595 25.242 30.2359 25.3124C30.2359 25.242 30.2454 25.1762 30.2454 25.1057C30.2454 24.9976 30.2359 24.8896 30.2312 24.7862C30.2359 24.7862 30.2407 24.7768 30.2454 24.7768ZM24.7355 19.1814C24.6977 19.1062 24.627 18.9277 24.627 18.8149C24.5892 18.6317 24.5892 18.4861 24.6647 18.378C24.7355 18.2699 24.8817 18.2699 24.9902 18.378C25.061 18.4861 25.061 18.6317 25.028 18.8149C25.028 18.923 24.9572 19.1062 24.9195 19.1814C24.8487 19.3646 24.811 19.2894 24.7402 19.1814H24.7355ZM25.0232 31.3965C25.061 31.5797 25.0232 31.7254 24.9855 31.8334C24.9147 31.9415 24.7308 31.9415 24.66 31.8334C24.5892 31.7254 24.6223 31.575 24.6223 31.3965C24.6223 31.2884 24.693 31.1052 24.7308 31.03C24.8015 30.8844 24.8393 30.8092 24.91 31.03C24.9478 31.1052 25.0185 31.2837 25.0185 31.3965H25.0232ZM29.8444 28.0326C29.8963 28.1125 29.9529 28.2159 30.0237 28.3192C29.9623 28.2534 29.9057 28.1877 29.8821 28.1454C29.8491 28.0749 29.8208 28.0326 29.8255 28.0044C29.8303 28.0138 29.8397 28.0232 29.8444 28.0373V28.0326ZM16.1074 22.6533C16.3621 22.5781 16.5791 22.362 16.6499 22.1036C16.7207 21.7747 16.8292 21.958 16.8292 21.958C16.8292 21.958 16.9377 22.2117 16.8292 22.5781C16.7584 22.8694 16.5037 23.1983 16.3952 23.1654C16.2867 23.1278 16.2867 23.0573 16.0697 22.8741C16.0697 22.8741 15.8149 22.7285 16.1074 22.6533ZM18.4991 19.1438C18.4284 19.0686 18.4991 18.9982 18.3906 18.7398C18.3906 18.7398 18.2114 18.4861 18.4991 18.5565C18.7539 18.5941 19.0416 18.5189 19.2256 18.3357C19.4426 18.1149 19.4426 18.3357 19.4426 18.3357C19.4426 18.3357 19.4049 18.627 19.1548 18.8854C18.9378 19.1062 18.5369 19.2894 18.5038 19.1438H18.4991ZM26.6932 33.3368C26.9479 33.2616 27.3819 33.2992 27.4527 33.412C27.4527 33.4872 27.3819 33.52 27.3442 33.816C27.3442 33.816 27.3442 34.1449 27.1272 33.9241C26.9479 33.7408 26.6555 33.6657 26.4007 33.7408C26.0752 33.816 26.1837 33.6328 26.1837 33.6328C26.1837 33.6328 26.33 33.4496 26.6932 33.3415V33.3368ZM33.6513 22.8036C33.4721 22.9869 33.3966 23.2781 33.4721 23.5365C33.5428 23.8654 33.3636 23.7573 33.3636 23.7573C33.3636 23.7573 33.1843 23.6117 33.0758 23.2453C33.005 22.954 33.0381 22.5499 33.1135 22.4748C33.222 22.4748 33.2598 22.5499 33.5475 22.5828C33.5475 22.5828 33.8353 22.5828 33.656 22.8036H33.6513ZM32.8541 28.2159C32.8541 28.2159 32.7456 27.9622 32.8541 27.5957C32.9249 27.3044 33.1796 26.9756 33.2551 27.0084C33.3636 27.046 33.3636 27.1165 33.5806 27.2997C33.5806 27.2997 33.8683 27.4454 33.5806 27.5205C33.3258 27.5957 33.1088 27.8118 33.0381 28.0702C32.9673 28.3991 32.8588 28.2159 32.8588 28.2159H32.8541ZM31.1841 31.0347C31.2549 31.1099 31.1841 31.1804 31.2926 31.4388C31.2926 31.4388 31.4719 31.6972 31.1841 31.622C30.9294 31.5468 30.6416 31.6596 30.4577 31.8428C30.2407 32.0636 30.2407 31.8428 30.2407 31.8428C30.2407 31.8428 30.2784 31.5515 30.5284 31.2931C30.7454 31.1099 31.1087 30.9267 31.1794 31.0347H31.1841ZM15.9942 27.4501C16.1734 27.2668 16.2819 26.9756 16.2489 26.7172C16.2112 26.3507 16.3574 26.4963 16.3574 26.4963C16.3574 26.4963 16.5367 26.6796 16.6122 27.046C16.6499 27.3373 16.5744 27.7414 16.4659 27.8165C16.3574 27.8165 16.3574 27.7414 16.0649 27.6709C16.0649 27.6709 15.7772 27.6333 15.9942 27.4501ZM22.9901 33.816C22.9193 33.8912 22.8438 33.8912 22.6268 34.0697C22.6268 34.0697 22.4476 34.2905 22.4098 33.9945C22.4098 33.7362 22.2306 33.4825 21.9758 33.3744C21.6881 33.2288 21.8673 33.1536 21.8673 33.1536C21.8673 33.1536 22.1551 33.116 22.4853 33.2616C22.74 33.3697 23.0278 33.6657 22.9948 33.8113L22.9901 33.816ZM18.3482 31.5139C18.4189 31.2555 18.3482 30.9643 18.2019 30.7435C17.9849 30.4898 18.2019 30.5226 18.2019 30.5226C18.2019 30.5226 18.4897 30.5978 18.7114 30.8891C18.8907 31.1099 19.0369 31.5092 18.9661 31.5844C18.8576 31.622 18.7869 31.5844 18.5321 31.6596C18.5321 31.6596 18.2444 31.8052 18.3529 31.5139H18.3482ZM22.1551 16.7008C22.1173 16.6256 22.2258 16.5927 22.2636 16.2967C22.2636 16.2967 22.3013 16.0054 22.4806 16.2216C22.6598 16.4048 22.9523 16.48 23.2071 16.4424C23.5326 16.3672 23.4241 16.5504 23.4241 16.5504C23.4241 16.5504 23.2448 16.7712 22.8816 16.8417C22.6268 16.8793 22.1928 16.8417 22.1551 16.6961V16.7008ZM27.231 16.9921C26.9762 16.9169 26.6507 16.6256 26.6885 16.5175C26.7262 16.4095 26.8347 16.4424 27.014 16.2263C27.014 16.2263 27.1602 15.9726 27.231 16.2638C27.2687 16.5175 27.4857 16.7384 27.7405 16.8511C28.0282 16.9592 27.849 17.0343 27.849 17.0343C27.849 17.0343 27.5942 17.1424 27.231 16.9968V16.9921ZM31.2926 18.6035C31.1841 18.8619 31.2549 19.1532 31.4011 19.374C31.6181 19.6324 31.4011 19.5948 31.4011 19.5948C31.4011 19.5948 31.1464 19.5196 30.9294 19.2284C30.7501 19.0075 30.6416 18.6082 30.6747 18.533C30.7832 18.4579 30.8539 18.533 31.1087 18.4579C31.1087 18.4579 31.3964 18.3498 31.2879 18.6035H31.2926Z" fill="#C1B793"/>
<path d="M41.3407 12.9707C41.3407 12.9707 41.3029 12.9331 41.2322 12.9331C41.1944 12.9331 41.0529 12.9331 40.9444 13.0083C40.7651 13.1164 36.8827 16.0057 35.0005 17.3963L34.057 18.0917C33.5145 18.4205 32.5711 18.9326 31.7738 19.4071C31.3398 19.6655 30.9388 19.8441 30.6841 20.0273C29.4859 20.6474 27.8914 21.7844 27.1319 22.5878C26.7687 22.9542 26.4054 23.3207 26.0422 23.6871C25.8629 23.9079 25.6412 24.0912 25.462 24.3073C25.462 24.3073 25.4242 24.3449 25.3912 24.3449C25.3204 24.2697 25.2119 24.2368 25.1034 24.1992C24.8487 24.1241 24.5609 24.1616 24.344 24.2744C24.3062 24.2744 24.3062 24.2368 24.2732 24.2368C24.0939 24.0912 23.7637 23.7623 23.4052 23.3958C23.1174 23.1046 22.825 22.7757 22.5702 22.5549C21.8437 21.8596 20.07 20.6146 18.9803 20.0696C18.1831 19.6655 16.4423 18.7165 15.6074 18.242C15.3196 18.0588 14.9186 17.7299 14.4469 17.3635C13.6874 16.8138 12.8524 16.1936 12.2344 15.752C12.0552 15.6064 11.8712 15.7144 11.8335 15.752C11.8335 15.752 11.7957 15.8272 11.7957 15.8601C11.7957 15.9352 11.8335 16.0057 11.975 16.0809C12.1543 16.2265 14.5507 17.946 15.3102 18.5333C15.8197 18.9702 16.5791 19.7031 17.2679 20.3233C17.6311 20.6521 17.9566 20.981 18.1736 21.1642C19.1171 22.1133 20.7116 23.2878 21.6881 23.7623C22.1221 24.0207 22.5938 24.2368 23.0655 24.4576C23.3203 24.5657 23.575 24.716 23.825 24.8241C23.825 24.8241 23.8628 24.8241 23.8628 24.8617V24.8992C23.792 25.1905 23.825 25.4489 23.9335 25.7026L23.8958 25.7402L18.4944 29.7289L18.6737 29.9497C19.2162 29.5457 22.9853 26.7691 24.1458 25.8905L24.1836 25.853C24.2921 25.961 24.4006 26.0362 24.5845 26.0738C24.9855 26.1818 25.3818 26.0738 25.6365 25.7825C25.6617 25.7825 25.6853 25.795 25.7073 25.8201L31.2549 29.7712L31.4011 29.5504C30.8586 29.1463 27.0517 26.4026 25.8912 25.5617C25.8661 25.5366 25.8425 25.5116 25.8205 25.4865C25.8205 25.4489 25.8582 25.4489 25.8582 25.4113C25.896 25.2657 25.896 25.0825 25.896 24.9368C25.9211 24.9118 25.9447 24.8867 25.9667 24.8617C26.146 24.716 26.5847 24.5328 27.0564 24.312C27.4197 24.1287 27.8159 23.9831 28.1084 23.7999C28.9764 23.3254 30.7171 22.0099 31.5898 21.1313C32.2408 20.5112 33.6561 19.1206 34.3825 18.4628L35.3968 17.7299C37.1752 16.4144 40.5057 13.962 41.2699 13.3795C41.3076 13.2714 41.4161 13.1211 41.3407 12.9754V12.9707Z" fill="#030304"/>
<path d="M63.4227 34.8356H62.3943V34.4222H64.8992V34.8356H63.8708V38.9841H63.418V34.8356H63.4227ZM70.9044 36.6585C70.9044 35.5403 70.0412 34.751 68.975 34.751C67.9089 34.751 67.0456 35.5826 67.0456 36.7008C67.0456 37.8189 67.9089 38.6505 68.975 38.6505C70.0412 38.6505 70.9044 37.8189 70.9044 36.6585ZM71.3573 36.6585C71.3573 38.0256 70.3289 39.0216 68.975 39.0216C67.6212 39.0216 66.5928 38.0256 66.5928 36.7008C66.5928 35.3759 67.6212 34.3376 68.975 34.3376C70.3289 34.3376 71.3573 35.3336 71.3573 36.6585ZM73.9472 36.7431H74.9331C75.7539 36.7431 76.0417 36.2873 76.0417 35.7893C76.0417 35.2913 75.7539 34.8356 74.9331 34.8356H73.9472V36.7431ZM73.4943 34.4222H74.9331C76.2492 34.4222 76.4945 35.2537 76.4945 35.7893C76.4945 36.4518 76.0841 37.1565 74.9331 37.1565H73.9472V38.9794H73.4943V34.4175V34.4222ZM78.5089 34.4222H80.8109V34.8356H78.9617V38.9841H78.5089V34.4222ZM86.8539 36.6632C86.8539 35.545 85.9906 34.7557 84.9245 34.7557C83.8584 34.7557 82.9951 35.5873 82.9951 36.7055C82.9951 37.8236 83.8584 38.6552 84.9245 38.6552C85.9906 38.6552 86.8539 37.8236 86.8539 36.6632ZM87.3068 36.6632C87.3068 38.0303 86.2359 39.0263 84.9245 39.0263C83.6131 39.0263 82.5422 38.0303 82.5422 36.7055C82.5422 35.3806 83.6131 34.3423 84.9245 34.3423C86.2359 34.3423 87.3068 35.3383 87.3068 36.6632ZM90.675 38.5706C91.0854 38.5706 91.826 38.4861 91.826 37.7015C91.826 36.8699 91.0854 36.79 90.675 36.79H89.8919V38.5753H90.675V38.5706ZM90.5523 36.3719C90.9203 36.3719 91.5807 36.2873 91.5807 35.5826C91.5807 34.8356 90.8825 34.7933 90.5523 34.7933H89.8966V36.3296L90.5523 36.3719ZM89.4437 34.4222H90.5523C91.0052 34.4222 92.0336 34.4645 92.0336 35.6249C92.0336 36.1229 91.7458 36.3719 91.5005 36.5363C92.076 36.7008 92.2836 37.1988 92.2836 37.6968C92.2836 38.0679 92.1185 38.9841 90.6372 38.9841H89.406V34.4222H89.4485H89.4437ZM98.4869 36.6632C98.4869 35.545 97.6237 34.7557 96.5575 34.7557C95.4914 34.7557 94.6281 35.5873 94.6281 36.7055C94.6281 37.8236 95.4914 38.6552 96.5575 38.6552C97.6237 38.6552 98.4869 37.8236 98.4869 36.6632ZM98.9398 36.6632C98.9398 38.0303 97.9114 39.0263 96.5575 39.0263C95.2037 39.0263 94.1753 38.0303 94.1753 36.7055C94.1753 35.3806 95.2037 34.3423 96.5575 34.3423C97.9114 34.3423 98.9398 35.3383 98.9398 36.6632ZM102.435 36.9122H100.794V37.3256H102.435V36.9122ZM104.94 36.7477H105.926C106.747 36.7477 107.035 36.292 107.035 35.794C107.035 35.296 106.747 34.8403 105.926 34.8403H104.94V36.7477ZM104.487 34.4269H105.926C107.242 34.4269 107.488 35.2584 107.488 35.794C107.488 36.4565 107.077 37.1612 105.926 37.1612H104.94V38.9841H104.487V34.4222V34.4269ZM112.172 37.039L111.309 34.9672L110.445 37.039H112.172ZM111.063 34.4269H111.559L113.488 38.9888H112.993L112.337 37.4525H110.243L109.587 38.9888H109.092L111.063 34.4269ZM116.696 34.3423C117.639 34.3423 118.012 34.9625 118.012 35.545C118.012 36.0853 117.682 36.4142 117.314 36.5833C117.847 36.7055 118.135 37.2035 118.135 37.7438C118.135 38.4062 117.682 39.0686 116.696 39.0686C115.71 39.0686 115.177 38.3639 115.215 37.6169H115.668C115.668 38.1572 115.955 38.6975 116.696 38.6975C117.352 38.6975 117.682 38.3263 117.682 37.8283C117.682 37.3303 117.394 36.9169 116.654 36.9169H116.408V36.5034H116.654C117.394 36.5034 117.597 36.0054 117.597 35.6343C117.597 35.3007 117.389 34.845 116.776 34.845C116.201 34.845 115.913 35.2584 115.913 35.7142H115.46C115.337 34.9672 115.748 34.347 116.691 34.347L116.696 34.3423ZM121.38 38.5706C121.791 38.5706 122.531 38.4861 122.531 37.7015C122.531 36.8699 121.791 36.79 121.38 36.79H120.597V38.5753H121.38V38.5706ZM121.258 36.3719C121.626 36.3719 122.286 36.2873 122.286 35.5826C122.286 34.8356 121.588 34.7933 121.258 34.7933H120.602V36.3296L121.258 36.3719ZM120.149 34.4222H121.258C121.711 34.4222 122.739 34.4645 122.739 35.6249C122.739 36.1229 122.451 36.3719 122.206 36.5363C122.781 36.7008 122.989 37.1988 122.989 37.6968C122.989 38.0679 122.824 38.9841 121.343 38.9841H120.111V34.4222H120.154H120.149ZM128.82 38.9841H128.324L126.72 35.0047L125.159 38.9841H124.664L126.513 34.4222H126.966L128.815 38.9841H128.82ZM130.711 34.4222H133.216V34.8356H131.159V36.4941H133.131V36.8652H131.159V38.5659H133.216V38.9794H130.711V34.4175V34.4222ZM138.438 34.4222L136.712 36.5786L138.519 38.9418H137.943L136.174 36.6209L137.901 34.4222H138.438ZM135.849 34.4222V38.9841H135.396V34.4222H135.849ZM143.165 37.0343L142.302 34.9625L141.439 37.0343H143.165ZM142.057 34.4222H142.552L144.481 38.9841H143.986L143.33 37.4478H141.236L140.58 38.9841H140.085L142.057 34.4222ZM147.029 34.8356H146V34.4222H148.51V34.8356H147.482V38.9841H147.029V34.8356ZM150.397 34.4222H152.864V34.8356H150.85V36.4941H152.822V36.8652H150.85V38.5659H152.864V38.9794H150.397V34.4175V34.4222ZM158.865 38.9841H158.369L156.765 35.0047L155.204 38.9841H154.709L156.558 34.4222H156.968L158.86 38.9841H158.865ZM161.209 38.5706H162.238C163.021 38.5706 163.223 37.9881 163.223 37.6592C163.223 37.3303 163.021 36.7477 162.238 36.7477H161.209V38.5706ZM161.209 36.2873H162.238C163.143 36.2873 163.676 36.8276 163.676 37.6122C163.676 38.3968 163.101 38.9371 162.238 38.9371H160.756V34.4175H161.209V36.2873ZM165.728 34.4222H166.181V36.4142H168.526V34.4222H168.979V38.9841H168.526V36.8276H166.181V38.9841H165.728V34.4222ZM174.687 34.4222H175.14V38.9841H174.687V34.4222ZM171.729 38.5706H172.757C173.54 38.5706 173.743 37.9881 173.743 37.6592C173.743 37.3303 173.54 36.7477 172.757 36.7477H171.729V38.5706ZM171.729 36.2873H172.757C173.663 36.2873 174.196 36.8276 174.196 37.6122C174.196 38.3968 173.621 38.9371 172.757 38.9371H171.276V34.4175H171.729V36.2873ZM178.593 33.304C178.635 33.553 178.8 33.802 179.248 33.802C179.697 33.802 179.866 33.553 179.904 33.304H180.357C180.315 33.7597 179.947 34.1732 179.248 34.1732C178.55 34.1732 178.178 33.802 178.14 33.304H178.593ZM177.895 34.4222V38.3216L180.565 34.4222H181.06V38.9841H180.607V35.0846L177.937 38.9841H177.442V34.4222H177.895ZM188.004 38.5706H188.66V39.8156H188.207V38.9841H184.796V34.4222H185.249V38.5706H187.593V34.4222H188.004V38.5706ZM190.594 34.4222H193.061V34.8356H191.047V36.4941H192.976V36.8652H191.047V38.5659H193.061V38.9794H190.594V34.4175V34.4222ZM195.278 34.4222H195.731V36.4142H198.075V34.4222H198.528V38.9841H198.075V36.8276H195.731V38.9841H195.278V34.4222ZM201.444 34.8356H200.415V34.4222H202.925V34.8356H201.897V38.9841H201.444V34.8356ZM205.307 36.7431H206.293C207.114 36.7431 207.402 36.2873 207.402 35.7893C207.402 35.2913 207.114 34.8356 206.293 34.8356H205.307V36.7431ZM204.854 34.4222H206.293C207.609 34.4222 207.855 35.2537 207.855 35.7893C207.855 36.4518 207.444 37.1565 206.293 37.1565H205.307V38.9794H204.854V34.4175V34.4222ZM67.8617 14.3048V14.7183H66.4229V27.4079H71.5177V14.7183H70.0789V14.3048H75.2161V14.7183H73.7773V27.4079H78.8721V14.7183H77.4333V14.3048H82.7356V14.7183H81.1742V27.4079H82.6554L83.1508 31.5986H82.6979C82.3677 29.7335 81.5893 28.9442 81.4667 28.822C80.6034 28.0327 79.2495 27.8683 78.0984 27.8683H62.5641V27.4549H64.1256V14.7183H62.5641V14.3048H67.8665H67.8617ZM91.1231 12.1484C91.1231 11.6927 91.3307 11.2792 92.3166 11.2792C93.0148 11.2792 93.5101 11.486 93.5101 12.1907C93.5101 13.0598 92.7695 13.1444 92.3166 13.1444C91.208 13.1021 91.1231 12.482 91.1231 12.1484ZM86.8067 12.1484C86.8067 11.4437 87.2596 11.237 88.0002 11.237C89.1937 11.237 89.1937 11.9417 89.1937 12.1484C89.1937 12.482 89.0711 13.1021 88.0002 13.1021C87.5898 13.1021 86.8067 13.0598 86.8067 12.1484ZM94.5762 14.3048L94.7838 18.2043H94.2885C94.1658 17.415 93.8356 16.419 93.5054 15.9257C92.9299 15.0941 92.1091 14.723 90.9156 14.723H88.3257V20.403H89.0663C89.4343 20.403 90.4627 20.4453 90.958 19.2848C91.1231 18.8714 91.2033 18.3311 91.2882 17.9177H91.6986V23.3111H91.2882C91.2458 23.1044 91.1656 22.2728 91.0005 21.9017C90.6325 20.9057 89.807 20.8211 89.2315 20.8211H88.3682V27.4173H91.2882C91.6184 27.4173 93.0148 27.375 93.9583 26.13C94.3262 25.6743 94.5762 24.9273 94.8215 23.64H95.3169L94.9065 27.8683H84.5471V27.4549H86.1086V14.7183H84.5471V14.3048H94.5762ZM109.247 14.7183H107.686V27.4079H109.247V27.8213H103.822V27.4079H105.384V14.7183H103.082C102.714 14.7183 101.973 14.7183 101.52 15.174C101.152 15.5076 101.067 16.0431 100.987 16.4613C100.907 17.3304 100.907 18.4956 100.865 21.1453L100.784 24.4622C100.784 25.4582 100.784 26.285 100.497 26.9099C100.129 27.6146 99.8408 27.9482 98.7275 28.028C98.0718 28.028 97.4963 27.9059 97.0859 27.5723C96.6755 27.281 96.3453 26.8253 96.3453 26.0783C96.3453 25.2092 96.8406 24.542 97.7841 24.542C98.5247 24.542 99.0153 25.04 99.0153 25.6602C99.0153 26.0313 98.9351 26.3226 98.77 26.6139C98.6473 26.7783 98.5247 26.9851 98.5247 27.1119C98.5247 27.2763 98.6049 27.5253 99.0577 27.5253C99.4257 27.5253 99.8786 27.3609 100.129 26.6938C100.374 26.1958 100.374 25.5333 100.374 24.4528L100.454 21.1359C100.454 19.7687 100.497 18.9372 100.497 18.4392V16.7807C100.497 16.3673 100.497 15.7847 100.166 15.2867C99.8361 14.8733 99.5106 14.7042 98.7275 14.7042H98.2322V14.2907H109.29L109.247 14.7042V14.7183ZM116.399 14.3048V14.7183H114.837V20.1916H116.809C117.055 20.1916 118.003 20.1916 118.493 19.4023C118.904 18.862 118.824 18.115 118.989 16.6257C119.069 15.9633 119.154 15.174 119.564 14.676C120.017 14.1357 120.593 14.0558 121.083 14.0558C121.616 14.0558 122.154 14.1404 122.602 14.5538C122.97 14.8874 123.135 15.3854 123.135 15.7988C123.135 16.1324 123.055 16.5458 122.805 16.7948C122.682 16.9593 122.395 17.2506 121.777 17.2506C121.078 17.2506 120.583 16.7526 120.583 16.17C120.583 16.0478 120.583 15.8364 120.663 15.5076C120.744 15.2163 120.786 15.0941 120.786 14.925C120.786 14.8028 120.706 14.5538 120.376 14.5538C119.512 14.5538 119.39 15.921 119.305 16.668C119.225 17.8707 119.225 18.4533 119.059 18.9889C118.979 19.2379 118.729 20.107 117.701 20.2761V20.3983C118.729 20.605 119.182 20.5627 119.795 20.8963C120.371 21.2299 121.149 21.7654 121.479 23.0105C121.645 23.6306 121.687 24.4199 121.767 25.8293C121.81 27.1166 122.3 27.3233 122.55 27.3233C122.838 27.3233 123.291 27.032 123.579 26.6609L123.909 26.9522C123.253 27.6569 122.678 27.9905 121.814 27.9905C120.828 27.9905 120.21 27.6193 119.885 27.328C119.39 26.7877 119.229 26.0407 119.144 25.4629C118.979 24.138 119.102 23.142 118.857 22.3104C118.489 20.7741 117.253 20.6097 116.677 20.6097H114.705V27.4126H116.267V27.826H110.842V27.4126H112.403V14.7183H110.842V14.3048H116.399ZM127.659 24.7535C128.315 26.7877 129.876 27.6992 131.112 27.6992C132.348 27.6992 133.905 26.83 134.565 24.7535C134.896 23.7152 134.976 22.4749 134.976 21.0607C134.976 19.6466 134.896 18.4486 134.565 17.368C133.91 15.3337 132.306 14.4646 131.112 14.4646C129.919 14.4646 128.32 15.3337 127.659 17.368C127.329 18.4063 127.249 19.6466 127.249 21.0607C127.206 22.4702 127.291 23.7152 127.659 24.7535ZM126.14 16.5834C127.414 14.8827 129.428 14.0934 131.075 14.0934C132.721 14.0934 134.731 14.8827 136.009 16.5834C136.915 17.7439 137.49 19.3224 137.49 21.0607C137.49 22.799 136.915 24.3776 136.009 25.538C134.49 27.53 132.353 28.0656 131.075 28.0656C129.796 28.0656 127.664 27.5676 126.14 25.538C125.234 24.3776 124.659 22.799 124.659 21.0607C124.659 19.3224 125.234 17.7861 126.14 16.5834ZM145.581 27.4079C146.114 27.4079 146.934 27.2857 147.472 26.8676C147.883 26.534 148.501 25.787 148.501 24.0487C148.501 22.9682 148.293 22.1413 147.472 21.4789C146.774 20.9386 145.788 20.6896 144.925 20.6896H143.283V27.4079H145.585H145.581ZM144.76 20.3184C145.623 20.3184 146.651 20.0694 147.142 19.5291C147.76 18.909 147.798 17.8707 147.798 17.415C147.798 16.917 147.755 16.0056 147.265 15.4653C146.689 14.8451 145.703 14.7606 145.005 14.7606H143.278V20.3184H144.76ZM145.623 14.3048C147.717 14.3048 148.746 14.7606 149.279 15.1364C149.935 15.5921 150.43 16.3814 150.43 17.3774C150.43 18.3734 149.897 19.0358 149.114 19.5338C148.331 20.0318 147.345 20.3231 146.401 20.403V20.4876C147.265 20.6097 148.416 20.8587 149.236 21.3191C150.963 22.2306 151.086 23.5178 151.086 24.138C151.086 25.2984 150.553 26.13 149.977 26.628C148.949 27.5394 147.345 27.7884 145.906 27.7884H139.41V27.375H140.972V14.7183H139.41V14.3048H145.623ZM163.294 14.0981V18.4956H162.884C162.841 17.8754 162.554 16.4237 162.063 15.719C161.568 15.0143 160.624 14.474 159.516 14.474C158.077 14.474 157.256 15.221 156.883 15.719C155.94 16.9217 155.855 18.8714 155.855 19.7406V23.0997C155.855 23.9313 155.935 25.0072 156.43 25.9609C156.926 26.83 157.992 27.7039 159.185 27.7039C160.379 27.7039 161.653 26.9569 162.351 25.881C162.846 25.134 163.006 24.3071 163.172 23.391H163.667L163.502 27.8683H162.969C162.969 27.6616 162.846 27.0367 162.313 27.0367C161.983 27.0367 161.657 27.2857 161.247 27.4925C160.549 27.9059 159.766 28.075 158.865 28.075C157.303 28.075 155.534 27.328 154.383 25.5052C153.727 24.4669 153.275 23.0574 153.275 21.2346C153.275 19.6607 153.562 18.2466 154.426 16.9217C155.907 14.6008 157.921 14.1028 159.318 14.1028C159.935 14.1028 160.346 14.1874 160.921 14.3941C161.539 14.6431 161.785 14.7277 162.115 14.7277C162.483 14.7277 162.733 14.521 162.856 14.1075H163.308L163.294 14.0981ZM170.526 14.3048V14.7183H168.965V20.1916H170.936C171.182 20.1916 172.13 20.1916 172.62 19.4023C172.988 18.862 172.951 18.115 173.116 16.6257C173.196 15.9633 173.281 15.174 173.691 14.676C174.144 14.1357 174.72 14.0558 175.21 14.0558C175.743 14.0558 176.281 14.1404 176.729 14.5538C177.097 14.8874 177.262 15.3854 177.262 15.7988C177.262 16.1324 177.182 16.5458 176.932 16.7948C176.81 16.9593 176.522 17.2506 175.904 17.2506C175.206 17.2506 174.71 16.7526 174.71 16.17C174.71 16.0478 174.71 15.8364 174.79 15.5076C174.871 15.2163 174.913 15.0941 174.913 14.925C174.913 14.8028 174.833 14.5538 174.503 14.5538C173.639 14.5538 173.517 15.921 173.432 16.668C173.309 17.8707 173.309 18.4533 173.144 18.9889C173.064 19.2379 172.814 20.107 171.786 20.2761V20.3983C172.814 20.605 173.267 20.5627 173.88 20.8963C174.456 21.2299 175.239 21.7654 175.564 23.0105C175.729 23.6306 175.772 24.4199 175.852 25.8293C175.894 27.1166 176.385 27.3233 176.635 27.3233C176.923 27.3233 177.376 27.032 177.663 26.6609L177.994 26.9522C177.338 27.6569 176.762 27.9905 175.899 27.9905C174.913 27.9905 174.295 27.6193 173.97 27.328C173.474 26.7877 173.314 26.0407 173.229 25.4629C173.064 24.138 173.187 23.142 172.984 22.3104C172.616 20.7741 171.38 20.6097 170.804 20.6097H168.832V27.4126H170.394V27.826H164.969V27.4126H166.53V14.7183H164.969V14.3048H170.526ZM184.088 14.3048V14.7183H182.65V25.4582L188.693 16.0854V14.7183H187.254V14.3048H192.556V14.7183H190.995V27.4079H192.556V27.8213H187.254V27.4079H188.693V16.8324L182.65 26.2897V27.4079H184.088V27.8213H178.786V27.4079H180.39V14.7183H178.786V14.3048H184.088ZM202.298 12.98C202.75 12.8578 202.916 12.6088 202.916 12.4397C202.873 11.984 202.26 11.7772 202.26 11.237C202.26 10.6168 202.713 10.1987 203.288 10.1987C203.944 10.1987 204.519 10.6544 204.519 11.4014C204.519 11.9417 204.274 12.6464 203.411 13.0598C202.835 13.3511 201.93 13.5156 201.194 13.5156C200.458 13.5156 199.547 13.3511 198.972 13.0598C198.109 12.6464 197.863 11.9417 197.863 11.4014C197.863 10.6544 198.439 10.1987 199.094 10.1987C199.67 10.1987 200.123 10.6121 200.123 11.237C200.123 11.7772 199.547 11.984 199.467 12.4397C199.467 12.6041 199.59 12.8531 200.085 12.98C200.415 13.0645 200.868 13.1021 201.194 13.1021C201.481 13.1021 201.977 13.0598 202.302 12.98H202.298ZM199.585 14.3048V14.7183H198.146V25.4159L204.189 16.0431V14.7183H202.75V14.3048H208.053V14.7183H206.491V27.4079H208.053V27.8213H202.75V27.4079H204.189V16.8324L198.146 26.3273V27.4455H199.585V27.8589H194.283V27.4455H195.844V14.7183H194.283V14.3048H199.585Z" fill="#01070A"/>
</svg>
