<svg width="233" height="40" viewBox="0 0 233 40" fill="none" xmlns="http://www.w3.org/2000/svg">
<mask id="mask0_2282_1539" style="mask-type:alpha" maskUnits="userSpaceOnUse" x="0" y="0" width="233" height="40">
<path d="M70.5102 24.8184C70.5102 27.8536 67.6403 30.056 63.6078 30.056H54.1538V11.2055H63.2835C67.212 11.2055 69.9717 13.2993 69.9717 16.2319C69.9717 18.2231 68.907 19.4782 67.316 20.2084C69.0171 20.8359 70.5041 22.5134 70.5041 24.8184H70.5102ZM58.2965 14.663V18.7481H63.1795C64.6664 18.7481 65.621 17.9094 65.621 16.7569C65.621 15.6044 64.5563 14.663 63.1795 14.663H58.2965ZM63.6078 26.5985C65.1988 26.5985 66.3675 25.6571 66.3675 24.2934C66.3675 22.9297 65.3028 21.9884 63.6078 21.9884H58.2965V26.5985H63.6078Z" fill="black"/>
<path d="M86.12 29.9474L79.5358 22.5134H78.4711V29.9474H74.2245V11.2055H78.4711V18.4283H79.5358L85.9058 11.2055H90.899L82.9319 20.2084L91.6394 29.9474H86.12Z" fill="black"/>
<path d="M91.6455 20.6304C91.6455 14.9765 95.8922 10.8914 101.84 10.8914C107.788 10.8914 112.034 14.9765 112.034 20.6304C112.034 26.2844 107.788 30.3695 101.84 30.3695C95.8922 30.3695 91.6455 26.2844 91.6455 20.6304ZM107.574 20.6304C107.574 17.0703 105.236 14.6627 101.84 14.6627C98.4438 14.6627 96.1063 17.0703 96.1063 20.6304C96.1063 24.1906 98.4438 26.5982 101.84 26.5982C105.236 26.5982 107.574 24.1906 107.574 20.6304Z" fill="black"/>
<path d="M128.281 11.2055H132.527V29.9474H128.281V22.4108H119.787V29.9474H115.541V11.2055H119.787V18.6395H128.281V11.2055Z" fill="black"/>
<path d="M141.657 14.9768H135.073V11.2055H152.384V14.9768H145.799V29.9534H141.657V14.9768Z" fill="black"/>
<path d="M170.649 19.4781V29.9472H167.571L166.721 27.0147C165.766 28.5835 163.747 30.3636 160.669 30.3636C156.844 30.3636 154.085 27.8534 154.085 24.3959C154.085 20.9383 156.844 18.5307 162.474 18.5307H166.617C166.402 16.1231 165.13 14.4456 162.792 14.4456C160.883 14.4456 159.604 15.4956 158.968 16.6421L155.143 16.0145C156.098 12.7682 159.39 10.8855 163 10.8855C167.675 10.8855 170.643 14.0293 170.643 19.472L170.649 19.4781ZM166.506 21.7831H162.578C159.39 21.7831 158.331 22.833 158.331 24.1907C158.331 25.7596 159.604 26.8095 161.727 26.8095C164.487 26.8095 166.506 24.8182 166.506 21.7831Z" fill="black"/>
<path d="M187.005 29.9474L180.421 22.5134H179.357V29.9474H175.11V11.2055H179.357V18.4283H180.421L186.791 11.2055H191.784L183.817 20.2084L192.525 29.9474H187.005Z" fill="black"/>
<path d="M200.174 14.9768H193.59V11.2055H210.9V14.9768H204.316V29.9534H200.174V14.9768Z" fill="black"/>
<path d="M232.134 21.7831H216.842C217.264 24.7157 219.394 26.5983 222.576 26.5983C224.803 26.5983 226.504 25.657 227.459 24.2933L231.387 24.9208C230.004 28.4809 226.29 30.3636 222.251 30.3636C216.518 30.3636 212.375 26.2785 212.375 20.6246C212.375 14.9706 216.518 10.8855 222.251 10.8855C227.985 10.8855 232.128 14.9706 232.128 20.4134C232.232 20.9383 232.128 21.3547 232.128 21.7771L232.134 21.7831ZM217.16 18.5368H227.673C226.926 16.2317 225.017 14.5603 222.362 14.5603C219.81 14.4577 217.797 16.1292 217.16 18.5368Z" fill="black"/>
<path d="M37.439 2.81146C34.6276 0 30.1027 0 21.0529 0H19.4481C10.3983 0 5.87341 0 3.06195 2.81146C0.250488 5.62293 0.250488 10.1478 0.250488 19.1976V20.7964C0.250488 29.8462 0.250488 34.371 3.06195 37.1885C5.87341 40 10.3983 40 19.4481 40H21.0529C30.1027 40 34.6276 40 37.439 37.1885C40.2505 34.371 40.2505 29.8462 40.2505 20.7964V19.1976C40.2505 10.1478 40.2505 5.62293 37.439 2.81146ZM28.9503 28.8145C27.9307 25.6471 25.3968 23.1976 22.0484 22.8658V28.8145H21.5356C12.4194 28.8145 7.21881 22.5641 7.00162 12.1689H11.5687C11.7196 19.8009 15.0861 23.0347 17.7528 23.6983V12.1689H22.0484V18.7511C24.6849 18.4676 27.4481 15.4691 28.3832 12.1689H32.6849C31.9669 16.2353 28.9684 19.2338 26.8327 20.4646C28.9684 21.4661 32.3832 24.0845 33.6804 28.8145H28.9503Z" fill="#0077FF"/>
</mask>
<g mask="url(#mask0_2282_1539)">
<rect x="0.250488" width="232.174" height="40" fill="#58687C"/>
</g>
</svg>
