<svg width="232" height="40" viewBox="0 0 232 40" fill="none" xmlns="http://www.w3.org/2000/svg">
<path d="M70.4574 24.8184C70.4574 27.8535 67.5897 30.056 63.5602 30.056H54.1133V11.2055H63.2361C67.1616 11.2055 69.9193 13.2993 69.9193 16.2319C69.9193 18.2231 68.8554 19.4782 67.2656 20.2083C68.9654 20.8359 70.4512 22.5134 70.4512 24.8184H70.4574ZM58.2528 14.663V18.7481H63.1322C64.618 18.7481 65.5719 17.9093 65.5719 16.7568C65.5719 15.6043 64.5079 14.663 63.1322 14.663H58.2528ZM63.5602 26.5984C65.15 26.5984 66.3178 25.6571 66.3178 24.2934C66.3178 22.9297 65.2539 21.9884 63.5602 21.9884H58.2528V26.5984H63.5602Z" fill="black"/>
<path d="M86.0555 29.9474L79.4763 22.5134H78.4123V29.9474H74.1689V11.2055H78.4123V18.4283H79.4763L85.8415 11.2055H90.8309L82.8698 20.2083L91.5707 29.9474H86.0555Z" fill="black"/>
<path d="M91.5769 20.6304C91.5769 14.9765 95.8203 10.8914 101.764 10.8914C107.707 10.8914 111.95 14.9765 111.95 20.6304C111.95 26.2844 107.707 30.3694 101.764 30.3694C95.8203 30.3694 91.5769 26.2844 91.5769 20.6304ZM107.493 20.6304C107.493 17.0703 105.157 14.6627 101.764 14.6627C98.3701 14.6627 96.0343 17.0703 96.0343 20.6304C96.0343 24.1905 98.3701 26.5981 101.764 26.5981C105.157 26.5981 107.493 24.1905 107.493 20.6304Z" fill="black"/>
<path d="M128.184 11.2055H132.428V29.9474H128.184V22.4108H119.697V29.9474H115.454V11.2055H119.697V18.6395H128.184V11.2055Z" fill="black"/>
<path d="M141.551 14.9768H134.972V11.2055H152.269V14.9768H145.69V29.9534H141.551V14.9768Z" fill="black"/>
<path d="M170.521 19.478V29.9472H167.446L166.596 27.0146C165.642 28.5835 163.624 30.3635 160.549 30.3635C156.727 30.3635 153.969 27.8534 153.969 24.3958C153.969 20.9383 156.727 18.5307 162.352 18.5307H166.492C166.278 16.1231 165.006 14.4456 162.67 14.4456C160.763 14.4456 159.485 15.4955 158.849 16.642L155.027 16.0145C155.981 12.7681 159.271 10.8855 162.878 10.8855C167.55 10.8855 170.515 14.0293 170.515 19.472L170.521 19.478ZM166.382 21.7831H162.456C159.271 21.7831 158.213 22.833 158.213 24.1907C158.213 25.7595 159.485 26.8095 161.606 26.8095C164.364 26.8095 166.382 24.8182 166.382 21.7831Z" fill="black"/>
<path d="M186.865 29.9474L180.286 22.5134H179.222V29.9474H174.979V11.2055H179.222V18.4283H180.286L186.651 11.2055H191.641L183.68 20.2083L192.381 29.9474H186.865Z" fill="black"/>
<path d="M200.024 14.9768H193.445V11.2055H210.742V14.9768H204.163V29.9534H200.024V14.9768Z" fill="black"/>
<path d="M231.96 21.7831H216.68C217.102 24.7156 219.229 26.5983 222.409 26.5983C224.635 26.5983 226.334 25.657 227.288 24.2933L231.214 24.9208C229.832 28.4809 226.12 30.3635 222.085 30.3635C216.356 30.3635 212.216 26.2785 212.216 20.6245C212.216 14.9706 216.356 10.8855 222.085 10.8855C227.814 10.8855 231.954 14.9706 231.954 20.4133C232.058 20.9383 231.954 21.3546 231.954 21.777L231.96 21.7831ZM216.998 18.5367H227.502C226.756 16.2317 224.849 14.5603 222.195 14.5603C219.645 14.4577 217.634 16.1291 216.998 18.5367Z" fill="black"/>
<path d="M0 19.2005C0 10.1493 0 5.62377 2.84936 2.81189C5.69872 0 10.2846 0 19.4564 0H21.0767C30.2485 0 34.8343 0 37.6837 2.81189C40.5331 5.62377 40.5331 10.1493 40.5331 19.2005V20.7995C40.5331 29.8507 40.5331 34.3762 37.6837 37.1881C34.8343 40 30.2485 40 21.0767 40H19.4564C10.2846 40 5.69872 40 2.84936 37.1881C0 34.3762 0 29.8507 0 20.7995V19.2005Z" fill="#0077FF"/>
<path d="M21.5658 28.8195C12.3268 28.8195 7.05606 22.5682 6.83594 12.1714H11.4646C11.6175 19.8046 15.0294 23.0388 17.732 23.7026V12.1654H22.0916V18.7486C24.7576 18.465 27.5641 15.4661 28.5119 12.1654H32.8715C32.1439 16.2324 29.105 19.2313 26.9404 20.4683C29.105 21.47 32.5658 24.0827 33.8804 28.8195H29.0866C28.0594 25.6516 25.4913 23.2018 22.0916 22.8699V28.8195H21.5658Z" fill="white"/>
</svg>
