<svg width="200" height="40" viewBox="0 0 200 40" fill="none" xmlns="http://www.w3.org/2000/svg">
<path d="M45.4357 39.0213L42.8732 34.6C43.8499 33.0907 44.0625 31.072 43.0714 29.2773L27.1524 1.216C26.9816 0.908 26.5447 0.908 26.3739 1.216L24.9941 3.73067L23.0536 0.377333C22.9167 0.146667 22.6716 0 22.4042 0H15.5995L21.3323 10.408L13.5912 24.5187L9.42985 24.4693C8.81432 24.4627 8.22748 24.8053 7.9132 25.3493L0.0821575 39.064C-0.0273858 39.26 -0.0273858 39.4907 0.0821575 39.6853C0.191701 39.8813 0.389922 40 0.607704 40H6.93513C7.23507 40 7.50893 39.832 7.65238 39.5667L9.26423 36.5493H35.6237L35.7881 36.8427L37.3256 39.6653C37.4351 39.868 37.6464 40.0013 37.8785 40.0013H44.888C45.1201 40.0013 45.3248 39.876 45.4344 39.6733C45.5504 39.4707 45.5504 39.2267 45.4344 39.024L45.4357 39.0213ZM45.0119 39.42C44.9988 39.448 44.9636 39.4973 44.8893 39.4973H37.8798C37.825 39.4973 37.7768 39.4693 37.7494 39.42L33.3898 31.4147C32.9999 30.7027 32.2696 30.2627 31.4702 30.2627H13.3708C12.5714 30.2627 11.8333 30.7093 11.4447 31.4293L7.22203 39.3227C7.16726 39.4347 7.05772 39.4973 6.93513 39.4973H0.607704C0.546412 39.4973 0.519027 39.456 0.504682 39.4347C0.491641 39.4213 0.470775 39.3653 0.504682 39.316L8.33442 25.6107C8.56003 25.212 8.97603 24.968 9.42724 24.9747L18.7397 25.072L23.7748 25.2053H23.8152C25.1128 25.2053 26.2813 24.528 26.945 23.3827C27.614 22.2307 27.6284 20.84 26.9855 19.6667L16.4393 0.502667H22.4042C22.4994 0.502667 22.5881 0.552 22.6363 0.636L45.0132 39.2733C45.0536 39.3427 45.0262 39.3987 45.0132 39.42H45.0119ZM131.968 12.588V14.788H137.796C138.309 14.788 138.726 15.2213 138.726 15.7453V27.412H141.452V15.7453C141.452 15.2213 141.869 14.788 142.388 14.788H148.25V12.588H131.968ZM107.645 18.9173V21.3907H117.531V18.9173H107.645ZM151.475 12.5813V14.872H166.145V12.588L151.475 12.5813ZM197.259 12.5813V17.9947C197.259 18.4067 196.93 18.7427 196.527 18.7427H185.65V20.9787H196.527C196.93 20.9787 197.259 21.3147 197.259 21.7333V27.42H199.999V12.5813H197.259ZM172.361 14.7893H182.425V12.5893H172.859C171.486 12.5893 170.556 12.8333 170.065 13.316C169.58 13.7987 169.333 14.7347 169.333 16.1107V23.9133C169.333 25.304 169.572 26.232 170.057 26.708C170.542 27.176 171.47 27.4133 172.858 27.4133H182.423V25.1773H172.36C172.202 25.1773 172.073 25.044 172.073 24.884V15.0893C172.073 14.9213 172.203 14.7893 172.36 14.7893H172.361ZM110.384 12.5893V12.5827H107.645V14.8733H122.3V12.5893H110.384ZM151.475 25.24V27.412H166.145V25.2467L151.475 25.24ZM151.475 18.9173V21.3907H161.812V18.9173H151.475ZM110.384 25.2467V25.24H107.645V27.412H122.3V25.2467H110.384ZM75.757 12.6867C75.7231 12.624 75.6618 12.5893 75.5927 12.5893H73.1945L77.2319 19.924C77.7105 20.7973 77.0885 21.8733 76.1052 21.8587H67.982L64.9279 27.2027C64.8731 27.3 64.9409 27.412 65.0505 27.412H67.51C67.5308 27.412 67.5582 27.3987 67.5647 27.3773L69.1975 24.3387C69.32 24.0947 69.5665 23.948 69.8391 23.948H78.9951C79.2611 23.948 79.5076 24.0947 79.6367 24.332L81.3111 27.4133H84.2831L75.7557 12.688L75.757 12.6867ZM98.6998 21.2787C97.9956 20.552 97.9956 19.3853 98.6998 18.6667L104.35 13.0573C104.481 12.924 104.391 12.7013 104.207 12.7013H101.631C101.57 12.7013 101.515 12.7293 101.475 12.7707L97.3071 17.032C96.5415 17.808 95.3118 17.808 94.5541 17.032L90.3797 12.7707C90.3393 12.7293 90.2845 12.7013 90.2298 12.7013H87.6477C87.4703 12.7013 87.3738 12.9253 87.5042 13.0573L93.1548 18.6667C93.859 19.3867 93.859 20.5533 93.1548 21.2787L87.546 27.0067C87.4156 27.14 87.5055 27.3627 87.6894 27.3627H90.1085C90.1698 27.3627 90.2246 27.3347 90.265 27.2933L94.5554 22.9133C95.3144 22.1373 96.5442 22.1373 97.3084 22.9133L101.592 27.2933C101.633 27.3347 101.687 27.3627 101.749 27.3627H104.168C104.345 27.3627 104.442 27.1387 104.311 27.0067L98.7024 21.2787H98.6998Z" fill="#58687C"/>
</svg>
