<svg width="200" height="40" viewBox="0 0 200 40" fill="none" xmlns="http://www.w3.org/2000/svg">
<path d="M98.7229 18.666C98.0189 19.386 98.0189 20.554 98.7229 21.2739L104.329 27.0071C104.457 27.1378 104.367 27.3617 104.185 27.3617H101.767C101.708 27.3617 101.652 27.3377 101.612 27.2964L97.3253 22.9126C96.5652 22.1353 95.3332 22.1353 94.5731 22.9126L90.2865 27.2964C90.2448 27.3391 90.1887 27.3617 90.1313 27.3617H87.709C87.5278 27.3617 87.4379 27.1378 87.5656 27.0071L93.1742 21.2753C93.8783 20.5553 93.8783 19.3873 93.1742 18.6674L87.5252 13.0556C87.3974 12.9249 87.4874 12.7009 87.6686 12.7009H90.2487C90.3074 12.7009 90.3634 12.7249 90.4038 12.7662L94.5731 17.0301C95.3332 17.8074 96.5652 17.8074 97.3253 17.0301L101.493 12.7662C101.535 12.7236 101.591 12.7009 101.648 12.7009H104.229C104.41 12.7009 104.5 12.9249 104.372 13.0556L98.7229 18.6674V18.666ZM75.617 12.5876H73.2208L77.2558 19.922C77.7355 20.794 77.1124 21.8713 76.1333 21.8606L75.6652 21.8553H68.0111L64.9565 27.2031C64.903 27.2964 64.9695 27.4137 65.0751 27.4137H67.5365C67.5613 27.4137 67.5835 27.4004 67.5952 27.3777L69.2209 24.3365C69.35 24.0965 69.5964 23.9472 69.8637 23.9472H79.0197C79.2857 23.9472 79.5308 24.0939 79.6598 24.3325L81.3377 27.4151H84.3102L75.7813 12.6862C75.7461 12.6262 75.6835 12.5902 75.6157 12.5902L75.617 12.5876ZM110.402 25.2405H107.663V27.4124H122.314V25.2431H110.402V25.2405ZM161.822 18.914H151.486V21.3873H161.822V18.914ZM151.486 27.4124H166.153V25.2431L151.486 25.2405V27.4124ZM110.402 12.5809H107.663V14.8728H122.314V12.5849H110.402V12.5809ZM170.073 13.3129C169.583 13.7969 169.338 14.7275 169.338 16.1061V23.9112C169.338 25.3005 169.58 26.2311 170.064 26.7044C170.548 27.1764 171.481 27.4137 172.862 27.4137H182.431V25.1765H172.365C172.206 25.1765 172.076 25.0445 172.076 24.8805V15.0862C172.076 14.9235 172.205 14.7902 172.365 14.7902H182.431V12.5862H172.862C171.493 12.5862 170.562 12.8289 170.073 13.3115V13.3129ZM197.261 12.5809V17.9927C197.261 18.406 196.932 18.742 196.528 18.742H185.655V20.9793H196.528C196.934 20.9793 197.261 21.3153 197.261 21.7286V27.4151H200V12.5809H197.261ZM151.486 14.8728H166.153V12.5849L151.486 12.5822V14.8742V14.8728ZM117.55 18.9154H107.663V21.3886H117.55V18.9154ZM131.985 14.7915H137.806C138.322 14.7915 138.741 15.2195 138.741 15.7475V27.4137H141.463V15.7475C141.463 15.2195 141.881 14.7915 142.398 14.7915H148.263V12.5876H131.985V14.7915ZM23.8292 25.0085H8.85333C8.51566 25.0085 8.20407 25.1911 8.03329 25.4898L0.0505878 39.4293C-0.0928217 39.6813 0.0857883 39.9973 0.371304 39.9973H6.7765C6.9877 39.9973 7.18065 39.88 7.28234 39.6907L11.5572 31.6949C11.6876 31.4523 11.8623 31.2429 12.0683 31.0776C12.2052 30.967 12.3564 30.875 12.5168 30.8056C12.758 30.7003 13.0213 30.6443 13.2912 30.6443H31.6163C31.8849 30.6443 32.147 30.7003 32.3855 30.8043C32.7049 30.943 32.9865 31.1656 33.1978 31.4549C33.2512 31.5269 33.2994 31.6029 33.3425 31.6829L37.7569 39.792C37.826 39.92 37.9576 39.9987 38.1011 39.9987H45.1998C45.5049 39.9987 45.6939 39.6587 45.5388 39.3907L22.8801 0.258649C22.7862 0.0973206 22.6167 -0.00134277 22.4342 -0.00134277H15.9704L26.8577 19.7847C27.5865 21.1086 27.3727 22.6072 26.5761 23.6605C26.3988 23.8939 26.1928 24.1059 25.9634 24.2898C25.3884 24.7458 24.6584 25.0178 23.8344 25.0098H23.8292" fill="#0D0D0D"/>
<path d="M13.1908 25.0085H23.8344C24.6584 25.0165 25.3872 24.7458 25.9634 24.2885C26.1942 24.1059 26.4001 23.8939 26.5761 23.6592C27.3727 22.6072 27.5865 21.1086 26.8578 19.7833L21.4903 10.0277L13.1908 25.0072V25.0085Z" fill="#ED2E49"/>
<path d="M43.3603 29.3923L27.245 0.97196C27.069 0.661304 26.6283 0.66397 26.4562 0.977293L24.9191 3.77853L43.0044 35.0121C44.1269 33.4682 44.4137 31.3056 43.3603 29.391V29.3923Z" fill="#ED2E49"/>
<path d="M33.3438 31.6816C33.3007 31.6016 33.2512 31.5256 33.1991 31.4523C32.9879 31.163 32.7063 30.9403 32.3868 30.8016C32.147 30.6976 31.8862 30.6416 31.6176 30.6416H13.2925C13.0213 30.6416 12.758 30.699 12.5181 30.803C12.3577 30.8736 12.2065 30.9643 12.0696 31.075C11.8636 31.2403 11.6889 31.4496 11.5586 31.6923L8.85203 36.7534H36.1051L33.3425 31.6789L33.3438 31.6816Z" fill="#ED2E49"/>
</svg>
