<svg width="195" height="40" viewBox="0 0 195 40" fill="none" xmlns="http://www.w3.org/2000/svg">
<path fill-rule="evenodd" clip-rule="evenodd" d="M2.9267 39.8972C0.868983 40.4567 -0.689004 38.6308 0.310459 36.8933C6.45422 26.1739 12.0395 16.5146 18.2126 5.79507L12.4216 28.2353L20.0352 27.234C21.7695 26.9984 22.7396 27.3518 23.7684 28.677L26.7962 32.6232L2.9267 39.8972Z" fill="#58687C"/>
<path fill-rule="evenodd" clip-rule="evenodd" d="M44.669 36.216C46.1682 37.7179 45.3745 39.9855 43.405 39.9855C31.0587 39.9855 19.9176 39.9855 7.57128 39.9855L29.8534 33.7717L25.1795 27.6758C24.1212 26.2917 23.9154 25.2609 24.5622 23.7001L26.4729 19.1061L44.669 36.216Z" fill="#58687C"/>
<path fill-rule="evenodd" clip-rule="evenodd" d="M20.6231 1.84888C21.1816 -0.212557 23.5333 -0.654294 24.5328 1.05376C30.7059 11.7732 36.2617 21.4326 42.4643 32.152L25.9144 15.9256L22.9748 23.0228C22.2987 24.6425 21.5344 25.3198 19.8588 25.526L14.9203 26.1739L20.6231 1.84888Z" fill="#58687C"/>
<path fill-rule="evenodd" clip-rule="evenodd" d="M84.9709 4.38151V23.7885H82.384V11.3315L75.7993 19.3711H75.5642L68.9794 11.3315V23.7885H66.422V4.38151H66.6572L75.7111 15.2482L84.7651 4.38151H84.9709ZM177.215 4.55821H170.131V9.29952L171.718 7.17918L177.215 7.14973C179.538 7.14973 180.714 8.85778 180.714 10.7425C180.714 12.6273 179.479 14.3353 177.215 14.3353H170.131V23.7885H172.718V16.9563H177.245C181.066 16.9563 183.447 14.1881 183.447 10.772C183.418 7.35587 181.096 4.55821 177.215 4.55821ZM125.479 16.4262C127.713 15.4838 129.035 13.2751 129.035 10.7425C129.035 7.32642 126.684 4.52876 122.833 4.52876H115.719L115.748 4.55821V9.29952L117.365 7.14973L122.833 7.12028C125.096 7.12028 126.39 8.82833 126.39 10.7131C126.39 12.5978 125.126 14.3059 122.833 14.3059H115.748V23.759H118.335V16.9268H122.803L126.625 23.7885H129.565L125.479 16.4262ZM60.7192 13.334C61.8068 12.4506 62.5711 11.2432 62.5711 9.74125C62.5711 6.94359 60.8074 4.52876 57.4562 4.52876H50.3424V9.27007L51.9298 7.12028H57.4268C59.1318 7.12028 59.8667 8.2688 59.8667 9.7118C59.8667 11.1254 58.8966 12.3622 57.0153 12.3622H50.313V23.7885H57.515C61.1013 23.7885 63.6294 21.4326 63.6294 17.9576C63.7176 15.69 62.5123 14.1292 60.7192 13.334ZM57.5738 21.1675H52.9586V14.8654H57.5738C59.8079 14.8654 61.0425 16.0728 61.0425 17.987C61.0425 19.9012 59.7785 21.1675 57.5738 21.1675ZM164.164 4.55821L164.193 16.1612C164.134 19.9307 162.194 21.3737 159.578 21.3737C156.962 21.3737 154.992 19.8718 154.992 15.955V4.55821H152.405V16.0728C152.405 21.2853 155.462 24.0241 159.578 24.0241C163.37 24.0241 166.251 21.6976 166.721 17.2802L166.78 4.58766L164.164 4.55821ZM149.671 14.1881C149.671 19.6067 145.821 23.9652 140.47 23.9652C135.12 23.9652 131.299 19.5478 131.299 14.1586C131.299 8.76943 135.15 4.38151 140.47 4.38151C145.791 4.38151 149.671 8.76943 149.671 14.1881ZM147.026 14.1881C147.026 10.2124 144.41 6.97303 140.47 6.97303C136.531 6.97303 133.945 10.1535 133.945 14.1292C133.945 18.1048 136.561 21.3442 140.47 21.3442C144.41 21.3442 147.026 18.1637 147.026 14.1881ZM112.368 12.9807V20.9908C111.104 22.7578 108.135 24.4069 104.313 23.9946C98.9927 23.4351 95.4064 19.6362 95.4064 14.2175C95.4064 8.79888 99.0221 4.76435 104.372 4.41096C107.341 4.20482 110.075 5.17664 111.839 6.61965L110.516 8.59274C109.399 7.67981 107.165 6.85524 104.607 7.06138C100.933 7.29698 98.0521 10.2419 98.0521 14.2175C98.0521 18.1932 100.874 20.9319 104.549 21.4031C106.959 21.727 108.782 20.9908 109.781 20.0779V13.0101L112.368 12.9807Z" fill="#58687C"/>
<path fill-rule="evenodd" clip-rule="evenodd" d="M191.296 0.0524796C193.354 0.0524796 195 1.73108 195 3.76307C195 5.82451 193.324 7.47366 191.296 7.47366C189.238 7.47366 187.592 5.79506 187.592 3.76307C187.592 1.70163 189.268 0.0524796 191.296 0.0524796ZM190.796 5.85396V4.29315H191.296L192.443 5.85396H193.324L192.031 4.14591C192.384 4.02811 192.825 3.67472 192.825 2.96794C192.825 2.26116 192.443 1.70163 191.326 1.70163C191.208 1.70163 190.297 1.70163 190.061 1.70163V5.85396H190.796ZM191.267 2.37896C191.855 2.37896 192.031 2.644 192.031 2.99739C192.031 3.40968 191.649 3.64527 191.237 3.64527H190.767V2.37896C190.973 2.37896 191.149 2.37896 191.267 2.37896ZM191.296 0.612013C193.03 0.612013 194.441 2.02557 194.441 3.76307C194.441 5.50057 193.03 6.91413 191.296 6.91413C189.562 6.91413 188.151 5.50057 188.151 3.76307C188.151 2.02557 189.562 0.612013 191.296 0.612013Z" fill="#58687C"/>
<path d="M58.5145 34.7141C58.5145 35.6565 58.1911 36.3927 57.5738 36.9228C56.9565 37.4529 56.0746 37.7768 54.9576 37.8357V39.956H53.8993V37.8357C52.7823 37.7768 51.9004 37.4823 51.2831 36.9522C50.6658 36.4222 50.3424 35.6859 50.3424 34.7436C50.3424 33.8012 50.6364 33.0649 51.2537 32.5643C51.871 32.0342 52.7529 31.7397 53.8699 31.6808V29.3249H54.9282V31.6808C56.0452 31.7397 56.9271 32.0342 57.5444 32.5643C58.1911 33.0649 58.5145 33.8012 58.5145 34.7141ZM51.4007 34.7141C51.4007 35.362 51.6064 35.8626 52.018 36.2455C52.4295 36.5988 53.0468 36.8344 53.8699 36.8639V32.6232C53.0468 32.6821 52.4295 32.8883 52.018 33.2416C51.6064 33.595 51.4007 34.0957 51.4007 34.7141ZM54.9282 36.8639C56.5743 36.7461 57.3974 36.0099 57.3974 34.7141C57.3974 34.0662 57.1917 33.5656 56.7801 33.2122C56.3686 32.8588 55.7513 32.6527 54.9282 32.5938V36.8639ZM62.1596 31.6514C62.9827 31.6514 63.6294 31.8575 64.0703 32.2698C64.5113 32.6821 64.7464 33.3005 64.7464 34.0957V37.7474H63.7176V36.9522C63.5412 37.2467 63.2766 37.4529 62.9239 37.6001C62.6005 37.7474 62.189 37.8357 61.7186 37.8357C61.0425 37.8357 60.5134 37.659 60.1019 37.3351C59.6903 37.0111 59.4846 36.5694 59.4846 36.0393C59.4846 35.5092 59.6903 35.0675 60.0725 34.7436C60.4546 34.4196 61.0719 34.2724 61.9244 34.2724H63.6588V34.0662C63.6588 33.595 63.5118 33.2416 63.2472 32.9766C62.9827 32.7116 62.5711 32.5938 62.042 32.5938C61.6893 32.5938 61.3365 32.6527 60.9837 32.7705C60.631 32.8883 60.3664 33.0355 60.1313 33.2416L59.6903 32.4171C60.0137 32.152 60.3664 31.9753 60.8074 31.8281C61.2483 31.6808 61.6599 31.6514 62.1596 31.6514ZM61.895 36.9817C62.3066 36.9817 62.6593 36.8933 62.9827 36.7166C63.2766 36.5399 63.5118 36.2749 63.6294 35.9215V35.0675H61.9538C61.0131 35.0675 60.5722 35.3914 60.5722 36.0099C60.5722 36.3044 60.6898 36.5399 60.925 36.7166C61.1601 36.8933 61.4835 36.9817 61.895 36.9817ZM69.7731 31.9164C70.3317 31.9164 70.8314 32.0342 71.2723 32.2993C71.7133 32.5643 72.066 32.8883 72.3012 33.33C72.5364 33.7717 72.6833 34.2724 72.6833 34.8613C72.6833 35.4503 72.5658 35.9804 72.3012 36.4221C72.0366 36.8639 71.6839 37.2173 71.1842 37.4823C70.7138 37.7474 70.1553 37.8652 69.5674 37.8652C68.5385 37.8652 67.7448 37.5118 67.1863 36.805C66.6278 36.0982 66.3632 35.0969 66.3632 33.8306C66.3632 32.5938 66.6278 31.6219 67.1275 30.9152C67.6272 30.2084 68.4209 29.7372 69.4498 29.5311L72.213 28.9126L72.36 29.9139L69.8319 30.4734C69.0382 30.6501 68.4503 30.9446 68.0682 31.3569C67.686 31.7692 67.4509 32.3876 67.4215 33.1533C67.686 32.7705 68.0094 32.476 68.4209 32.2404C68.8325 32.0048 69.2734 31.9164 69.7731 31.9164ZM69.5968 36.9228C69.9789 36.9228 70.3317 36.8344 70.6256 36.6577C70.9196 36.481 71.1548 36.2455 71.3311 35.9215C71.5075 35.627 71.5957 35.2736 71.5957 34.8613C71.5957 34.2724 71.4193 33.7717 71.0372 33.4183C70.6844 33.065 70.1847 32.8588 69.5968 32.8588C69.0089 32.8588 68.5385 33.0355 68.1564 33.4183C67.7742 33.7717 67.5978 34.2724 67.5978 34.8613C67.5978 35.2442 67.686 35.5976 67.8624 35.9215C68.0388 36.216 68.2739 36.481 68.5679 36.6577C68.8619 36.8344 69.2146 36.9228 69.5968 36.9228ZM77.4455 31.6514C78.0334 31.6514 78.5625 31.7692 79.0035 32.0342C79.4738 32.2993 79.8266 32.6527 80.0911 33.1239C80.3557 33.595 80.4733 34.1251 80.4733 34.7436C80.4733 35.362 80.3557 35.8921 80.0911 36.3633C79.8266 36.8344 79.4738 37.1878 79.0035 37.4529C78.5331 37.7179 78.004 37.8357 77.4455 37.8357C77.0045 37.8357 76.6224 37.7474 76.2697 37.5707C75.9169 37.394 75.5935 37.1584 75.3584 36.8344V39.956H74.2707V31.7103H75.329V32.6821C75.5641 32.3582 75.8875 32.0931 76.2403 31.9164C76.593 31.7397 77.0045 31.6514 77.4455 31.6514ZM77.3573 36.8639C77.7395 36.8639 78.0922 36.7755 78.3862 36.5988C78.6801 36.4222 78.9447 36.1571 79.1211 35.8332C79.2974 35.5092 79.3856 35.1264 79.3856 34.7141C79.3856 34.3018 79.2974 33.919 79.1211 33.595C78.9447 33.2711 78.7095 33.0355 78.3862 32.8588C78.0922 32.6821 77.7395 32.5938 77.3573 32.5938C76.9752 32.5938 76.6224 32.6821 76.3284 32.8588C76.0345 33.0355 75.7699 33.3005 75.5936 33.595C75.4172 33.919 75.329 34.2724 75.329 34.7141C75.329 35.1558 75.4172 35.5092 75.5936 35.8332C75.7699 36.1571 76.0051 36.4222 76.3284 36.5988C76.6224 36.7755 76.9752 36.8639 77.3573 36.8639ZM82.09 31.7103H83.1777V36.1277L86.8816 31.7103H87.8811V37.7474H86.7934V33.33L83.0895 37.7474H82.09V31.7103ZM92.3199 35.1853H91.0558V37.7474H89.9682V31.7103H91.0558V34.2724H92.3199L94.2894 31.7103H95.4652L93.1723 34.6258L95.6122 37.7768H94.3482L92.3199 35.1853ZM98.8458 31.6514C99.6688 31.6514 100.316 31.8575 100.757 32.2698C101.197 32.6821 101.433 33.3005 101.433 34.0957V37.7474H100.404V36.9522C100.227 37.2467 99.9628 37.4529 99.6101 37.6001C99.2867 37.7474 98.8752 37.8357 98.4048 37.8357C97.7287 37.8357 97.1996 37.659 96.788 37.3351C96.3765 37.0111 96.1707 36.5694 96.1707 36.0393C96.1707 35.5092 96.3765 35.0675 96.7587 34.7436C97.1408 34.4196 97.7581 34.2724 98.6106 34.2724H100.345V34.0662C100.345 33.595 100.198 33.2416 99.9334 32.9766C99.6688 32.7116 99.2573 32.5938 98.7282 32.5938C98.3754 32.5938 98.0227 32.6527 97.6699 32.7705C97.3172 32.8883 97.0526 33.0355 96.8174 33.2416L96.3765 32.4171C96.6999 32.152 97.0526 31.9753 97.4936 31.8281C97.9345 31.6808 98.346 31.6514 98.8458 31.6514ZM98.5812 36.9817C98.9927 36.9817 99.3455 36.8933 99.6688 36.7166C99.9628 36.5399 100.198 36.2749 100.316 35.9215V35.0675H98.64C97.6993 35.0675 97.2584 35.3914 97.2584 36.0099C97.2584 36.3044 97.376 36.5399 97.6111 36.7166C97.8463 36.8933 98.1697 36.9817 98.5812 36.9817ZM106.459 31.7103H107.547V36.1277L111.251 31.7103H112.25V37.7474H111.163V33.33L107.488 37.7474H106.489V31.7103H106.459ZM114.367 31.7103H115.454V34.2724H118.894V31.7103H119.981V37.7474H118.894V35.2147H115.454V37.7474H114.367V31.7103ZM122.098 31.7103H123.186V34.2724H126.625V31.7103H127.713V37.7474H126.625V35.2147H123.186V37.7474H122.098V31.7103ZM132.445 37.8063C131.857 37.8063 131.299 37.659 130.829 37.394C130.358 37.1289 129.976 36.7461 129.712 36.3044C129.447 35.8332 129.3 35.3031 129.3 34.7141C129.3 34.1251 129.447 33.595 129.712 33.1239C129.976 32.6527 130.358 32.2993 130.829 32.0342C131.299 31.7692 131.857 31.6514 132.445 31.6514C133.033 31.6514 133.592 31.7692 134.062 32.0342C134.532 32.2993 134.915 32.6527 135.179 33.1239C135.444 33.595 135.591 34.1251 135.591 34.7141C135.591 35.3031 135.444 35.8332 135.179 36.3044C134.915 36.7755 134.532 37.1289 134.062 37.394C133.592 37.6885 133.063 37.8063 132.445 37.8063ZM132.445 36.8639C132.827 36.8639 133.18 36.7755 133.474 36.5988C133.768 36.4222 134.033 36.1571 134.209 35.8332C134.385 35.5092 134.474 35.1264 134.474 34.7141C134.474 34.3018 134.385 33.919 134.209 33.595C134.033 33.2711 133.798 33.0355 133.474 32.8588C133.18 32.6821 132.827 32.5938 132.445 32.5938C132.063 32.5938 131.71 32.6821 131.417 32.8588C131.123 33.0355 130.858 33.2711 130.682 33.595C130.505 33.919 130.417 34.3018 130.417 34.7141C130.417 35.1264 130.505 35.5092 130.682 35.8332C130.858 36.1571 131.093 36.4222 131.417 36.5988C131.71 36.7755 132.063 36.8639 132.445 36.8639ZM141.264 34.6258C142.058 34.8319 142.44 35.3031 142.44 36.0982C142.44 36.6283 142.234 37.0406 141.852 37.3351C141.441 37.6296 140.853 37.7768 140.059 37.7768H137.149V31.7397H139.941C140.647 31.7397 141.205 31.887 141.617 32.152C142.028 32.4171 142.234 32.7999 142.234 33.3005C142.234 33.6245 142.146 33.8895 141.97 34.1251C141.823 34.3018 141.587 34.4785 141.264 34.6258ZM138.236 34.3018H139.883C140.294 34.3018 140.617 34.2135 140.823 34.0662C141.029 33.919 141.147 33.6834 141.147 33.4183C141.147 32.8294 140.735 32.5643 139.883 32.5643H138.236V34.3018ZM140 36.8933C140.441 36.8933 140.794 36.8344 141.029 36.6872C141.264 36.5399 141.382 36.3044 141.382 36.0099C141.382 35.6859 141.264 35.4798 141.058 35.3031C140.853 35.1558 140.529 35.0675 140.059 35.0675H138.236V36.8933H140ZM146.32 31.6514C147.143 31.6514 147.79 31.8575 148.231 32.2698C148.672 32.6821 148.907 33.3005 148.907 34.0957V37.7474H147.849V36.9522C147.672 37.2467 147.408 37.4529 147.055 37.6001C146.732 37.7474 146.32 37.8357 145.85 37.8357C145.174 37.8357 144.645 37.659 144.233 37.3351C143.822 37.0111 143.616 36.5694 143.616 36.0393C143.616 35.5092 143.822 35.0675 144.204 34.7436C144.586 34.4196 145.203 34.2724 146.056 34.2724H147.79V34.0662C147.79 33.595 147.643 33.2416 147.379 32.9766C147.114 32.7116 146.702 32.5938 146.173 32.5938C145.821 32.5938 145.468 32.6527 145.115 32.7705C144.762 32.8883 144.498 33.0355 144.263 33.2416L143.822 32.4171C144.145 32.152 144.498 31.9753 144.939 31.8281C145.38 31.6808 145.821 31.6514 146.32 31.6514ZM146.056 36.9817C146.467 36.9817 146.82 36.8933 147.143 36.7166C147.437 36.5399 147.672 36.2749 147.79 35.9215V35.0675H146.114C145.174 35.0675 144.733 35.3914 144.733 36.0099C144.733 36.3044 144.85 36.5399 145.086 36.7166C145.321 36.8933 145.644 36.9817 146.056 36.9817ZM157.314 36.805V39.2198H156.286V37.7768H150.877V31.7397H151.964V36.805H155.257V31.7103H156.344V36.805H157.314ZM158.725 31.7103H159.813V36.1277L163.517 31.7103H164.516V37.7474H163.429V33.33L159.725 37.7474H158.725V31.7103ZM166.633 31.7103H167.721V36.1277L171.424 31.7103H172.424V37.7474H171.336V33.33L167.632 37.7474H166.633V31.7103ZM169.455 30.9152C168.896 30.9152 168.455 30.7679 168.132 30.5029C167.809 30.2378 167.662 29.855 167.662 29.3249H168.397C168.397 29.6194 168.514 29.8256 168.691 30.0022C168.867 30.1789 169.132 30.2673 169.426 30.2673C169.749 30.2673 169.984 30.1789 170.19 30.0022C170.366 29.8256 170.484 29.6194 170.484 29.3249H171.248C171.248 29.8255 171.072 30.2378 170.748 30.5029C170.454 30.7679 170.013 30.9152 169.455 30.9152Z" fill="#58687C"/>
</svg>
