<svg width="210" height="35" viewBox="0 0 210 35" fill="none" xmlns="http://www.w3.org/2000/svg">
<path d="M18.6225 21.9479H27.2803C26.5758 27.07 22.3471 29.0783 17.7176 29.0783C9.81547 29.0783 6.74576 22.8025 6.74576 17.6294C6.74576 11.2007 11.1251 5.92836 17.7687 5.92836C23.3044 5.92836 25.8214 9.69413 26.5247 10.9498L32.2123 7.88703C31.1541 6.02897 27.3799 0.00268555 17.8171 0.00268555C7.44902 0.00268555 0 7.1344 0 17.5288C0 27.9232 7.24865 35.0027 17.6142 35.0027C21.1881 35.0027 26.9765 34.1991 30.9538 28.4747C33.4197 24.9101 34.0235 20.9928 34.0235 17.176V16.3228H18.6225V21.9479Z" fill="#58687C"/>
<path d="M58.8771 0.755287V6.38043H66.427V34.2513H72.9697V6.38043H80.5196V0.755287H58.8771Z" fill="#58687C"/>
<path d="M37.4376 34.2513H56.0588V28.6262H43.9804V19.4875H55.556V13.8623H43.9804V6.38043H56.0588V0.755287H37.4376V34.2513Z" fill="#58687C"/>
<path d="M128.359 33.6738H144.319V30.9651H131.332V17.0976H144.319V14.3393H131.332V4.29762H144.319V1.53928H128.359V33.6738Z" fill="#58687C"/>
<path d="M107.888 28.8052L95.5512 0.180372L91.1758 33.6738H94.1984L96.6552 9.16622L107.936 34.8263L119.463 9.16622L121.823 33.6738H124.844L120.665 0.180372L107.888 28.8052Z" fill="#58687C"/>
<path d="M180.458 1.53928H177.485V33.6738H180.458V1.53928Z" fill="#58687C"/>
<path d="M196.512 0.324117L182.418 33.666H185.293L189.569 22.8168H202.694L206.883 33.666H210L196.512 0.324117ZM190.573 20.312L196.27 6.30075L201.794 20.312H190.573Z" fill="#58687C"/>
<path d="M166.505 3.29545C164.237 2.12076 161.363 1.53277 157.917 1.53277H148.602V33.666H157.709C162.401 33.666 166.211 32.439 169.136 29.9512C172.011 27.4803 173.448 23.3696 173.448 17.5994C173.448 14.0583 172.877 11.0687 171.698 8.6684C170.521 6.24979 168.789 4.47013 166.504 3.29545H166.505ZM169.328 24.3378C168.618 26.3422 167.285 28.0003 165.311 29.3135C163.285 30.6097 160.497 31.2657 156.897 31.2657L151.564 31.2134V4.00365L156.395 3.95139H157.002C162.541 3.95139 166.126 5.22929 167.771 7.76942C169.485 10.4468 170.333 13.7291 170.333 17.5994C170.333 20.0872 170.005 22.3334 169.329 24.3365L169.328 24.3378Z" fill="#58687C"/>
</svg>
