<svg width="214" height="50" viewBox="0 0 214 50" fill="none" xmlns="http://www.w3.org/2000/svg">
<path d="M53.0203 30.954V19.0527C53.0203 18.5642 53.4134 18.1681 53.8981 18.1681H53.9032C54.3879 18.1681 54.781 18.5642 54.781 19.0527V30.954C54.781 31.4424 54.3879 31.8386 53.9032 31.8386H53.8981C53.4134 31.8386 53.0203 31.4424 53.0203 30.954ZM131.665 25.1642C133.119 25.7963 133.845 26.8117 133.845 28.2091V31.0527C133.845 31.4629 133.514 31.7963 133.107 31.7963H132.802C132.395 31.7963 132.064 31.4629 132.064 31.0527V28.2706C132.064 26.7514 130.456 25.9924 127.242 25.9924H119.569C119.443 25.9924 119.34 26.0963 119.34 26.2232V31.054C119.34 31.4642 119.009 31.7976 118.602 31.7976H118.317C117.91 31.7976 117.579 31.4642 117.579 31.054V18.8424C117.579 18.4719 117.878 18.1706 118.245 18.1706H127.483C131.897 18.1706 134.106 19.4142 134.106 21.9014C134.106 23.4065 133.292 24.4963 131.665 25.1681V25.1642ZM127.543 19.6604H119.569C119.443 19.6604 119.34 19.7642 119.34 19.8911V24.2283C119.34 24.3553 119.443 24.4591 119.569 24.4591H127.102C128.462 24.4591 129.61 24.2976 130.544 23.9758C131.745 23.5322 132.345 22.8604 132.345 21.9591C132.345 20.427 130.745 19.6604 127.543 19.6604ZM73.944 31.8386H73.182C73.0204 31.8386 72.8652 31.7796 72.7431 31.6732L60.2273 20.7591C60.0784 20.6296 59.8469 20.736 59.8469 20.9335V30.9514C59.8469 31.4411 59.4525 31.8386 58.9665 31.8386C58.4805 31.8386 58.0862 31.4411 58.0862 30.9514V18.8424C58.0862 18.4706 58.3851 18.1681 58.7553 18.1681H59.5097C59.6751 18.1681 59.8341 18.2296 59.9563 18.3411C61.5033 19.7463 63.6673 21.604 66.3694 23.9142C69.1568 26.2847 71.1897 28.0399 72.4708 29.1796C72.6197 29.3117 72.8512 29.204 72.8512 29.0053V19.0553C72.8512 18.5655 73.2456 18.1681 73.7316 18.1681C74.2175 18.1681 74.6119 18.5655 74.6119 19.0553V31.1642C74.6119 31.536 74.3129 31.8386 73.9427 31.8386H73.944ZM87.0603 19.9104V31.0924C87.0603 31.504 86.7283 31.8386 86.3199 31.8386H86.04C85.6316 31.8386 85.2996 31.504 85.2996 31.0924V19.9104C85.2996 19.7822 85.1965 19.6783 85.0693 19.6783H78.6588C78.2504 19.6783 77.9183 19.3258 77.9183 18.9142C77.9183 18.5027 78.2504 18.1681 78.6588 18.1681H93.7024C94.1108 18.1681 94.4428 18.5027 94.4428 18.9142C94.4428 19.3258 94.1108 19.6783 93.7024 19.6783H87.2893C87.1621 19.6783 87.059 19.7822 87.059 19.9104H87.0603ZM97.7505 31.1655L97.748 18.8437C97.748 18.4719 98.0469 18.1694 98.4171 18.1694H113.545C113.948 18.1694 114.275 18.4988 114.275 18.9053V18.9258C114.275 19.3322 113.948 19.6617 113.545 19.6617H99.7186C99.5914 19.6617 99.4883 19.7655 99.4883 19.8937V23.7719C99.4883 23.9001 99.5914 24.004 99.7186 24.004H111.803C112.206 24.004 112.533 24.3335 112.533 24.7399C112.533 25.1463 112.206 25.4758 111.803 25.4758H99.7186C99.5914 25.4758 99.4883 25.5796 99.4883 25.7078L99.4909 30.1181C99.4909 30.2463 99.5939 30.3501 99.7211 30.3501H113.547C113.951 30.3501 114.278 30.6796 114.278 31.086V31.1065C114.278 31.5129 113.951 31.8424 113.547 31.8424H98.4197C98.0507 31.8424 97.7505 31.5411 97.7505 31.1681V31.1655ZM151.026 31.2745C149.656 31.745 148.007 31.8386 146.081 31.8386C143.897 31.8386 142.105 31.7373 140.707 31.254C138.509 30.4873 137.41 29.177 137.41 27.3219V27.2411C137.41 26.8629 137.719 26.5553 138.102 26.5553H138.509C138.891 26.5553 139.201 26.8617 139.201 27.2411C139.201 29.4053 141.507 30.5386 146.12 30.5386C147.599 30.5386 148.868 30.3399 149.927 30.0437C151.392 29.6399 152.125 29.0155 152.125 28.1681C152.125 27.5899 151.881 27.1527 151.392 26.8578C150.999 26.6155 150.328 26.4014 149.377 26.2129C148.862 26.1053 147.559 25.8976 145.469 25.5886C143.094 25.2386 141.493 24.9168 140.665 24.6206C138.888 23.9758 137.999 22.995 137.999 21.677C137.999 19.2437 140.523 18.1681 145.57 18.1681C148.12 18.1681 150.048 18.377 151.349 19.0758C152.558 19.7309 153.273 20.7181 153.494 22.0373C153.564 22.4514 153.233 22.827 152.81 22.827H152.38C152.042 22.827 151.761 22.5847 151.7 22.2565C151.6 21.7206 151.425 21.2899 151.176 20.9617C150.844 20.5245 150.331 20.1988 149.639 19.9835C148.73 19.6745 147.374 19.4681 145.568 19.4681C141.729 19.4681 139.809 20.2386 139.809 21.677C139.809 22.336 140.29 22.8399 141.254 23.1899C141.987 23.4591 143.249 23.7078 145.04 23.936C148.379 24.3527 150.61 24.8027 151.736 25.2873C153.201 25.8924 153.934 26.8732 153.934 28.2309C153.934 29.5886 152.964 30.6168 151.023 31.2758L151.026 31.2745ZM192.929 31.8386H192.167C192.006 31.8386 191.851 31.7796 191.728 31.6732L179.213 20.7591C179.064 20.6296 178.832 20.736 178.832 20.9335V30.9514C178.832 31.4411 178.438 31.8386 177.952 31.8386C177.466 31.8386 177.072 31.4411 177.072 30.9514V18.8424C177.072 18.4706 177.371 18.1681 177.741 18.1681H178.495C178.661 18.1681 178.82 18.2296 178.942 18.3411C180.489 19.7463 182.653 21.604 185.355 23.9142C188.142 26.2847 190.175 28.0399 191.456 29.1796C191.605 29.3117 191.837 29.204 191.837 29.0053V19.0553C191.837 18.5655 192.231 18.1681 192.717 18.1681C193.203 18.1681 193.597 18.5655 193.597 19.0553V31.1642C193.597 31.536 193.298 31.8386 192.928 31.8386H192.929ZM157.243 31.1642L157.241 18.8424C157.241 18.4706 157.54 18.1681 157.91 18.1681H173.037C173.441 18.1681 173.768 18.4976 173.768 18.904V18.9245C173.768 19.3309 173.441 19.6604 173.037 19.6604H159.211C159.084 19.6604 158.981 19.7642 158.981 19.8924V23.7706C158.981 23.8988 159.084 24.0027 159.211 24.0027H171.296C171.699 24.0027 172.026 24.3322 172.026 24.7386C172.026 25.145 171.699 25.4745 171.296 25.4745H159.211C159.084 25.4745 158.981 25.5783 158.981 25.7065L158.984 30.1168C158.984 30.245 159.087 30.3488 159.214 30.3488H173.04C173.443 30.3488 173.77 30.6783 173.77 31.0847V31.1053C173.77 31.5117 173.443 31.8411 173.04 31.8411H157.912C157.543 31.8411 157.243 31.5399 157.243 31.1668V31.1642ZM210.519 31.2732C209.149 31.7437 207.5 31.8373 205.574 31.8373C203.389 31.8373 201.598 31.736 200.2 31.2527C198.002 30.486 196.902 29.1758 196.902 27.3206V27.2399C196.902 26.8617 197.212 26.554 197.595 26.554H198.002C198.383 26.554 198.694 26.8604 198.694 27.2399C198.694 29.404 201 30.5373 205.613 30.5373C207.091 30.5373 208.361 30.3386 209.42 30.0424C210.885 29.6386 211.618 29.0142 211.618 28.1668C211.618 27.5886 211.374 27.1514 210.885 26.8565C210.492 26.6142 209.82 26.4001 208.87 26.2117C208.355 26.104 207.052 25.8963 204.962 25.5873C202.587 25.2373 200.986 24.9155 200.158 24.6194C198.381 23.9745 197.491 22.9937 197.491 21.6758C197.491 19.2424 200.016 18.1668 205.062 18.1668C207.613 18.1668 209.54 18.3758 210.842 19.0745C212.05 19.7296 212.765 20.7168 212.987 22.036C213.057 22.4501 212.726 22.8258 212.302 22.8258H211.872C211.535 22.8258 211.254 22.5835 211.193 22.2553C211.092 21.7194 210.918 21.2886 210.669 20.9604C210.337 20.5232 209.824 20.1976 209.132 19.9822C208.222 19.6732 206.866 19.4668 205.061 19.4668C201.222 19.4668 199.302 20.2373 199.302 21.6758C199.302 22.3347 199.783 22.8386 200.747 23.1886C201.48 23.4578 202.742 23.7065 204.533 23.9347C207.871 24.3514 210.103 24.8014 211.229 25.286C212.694 25.8911 213.427 26.8719 213.427 28.2296C213.427 29.5873 212.456 30.6155 210.516 31.2745L210.519 31.2732ZM36.4907 25.877C36.4907 21.0309 34.6168 16.627 31.561 13.3578V5.93987C31.561 2.5373 28.7914 0.00268555 25.6771 0.00268555C24.9723 0.00268555 24.2472 0.130891 23.5347 0.41166L6.6566 7.02576C4.39464 7.91294 2.90364 10.1104 2.90364 12.5553V16.3911C1.2447 19.1245 0.272747 22.3335 0.252392 25.7565C0.228221 29.2873 1.20272 32.5899 2.90364 35.3937V38.8668C2.90364 41.477 4.59565 43.7809 7.07133 44.5399L23.952 49.7386C24.5296 49.9155 25.111 50.0027 25.6809 50.0027C28.8194 50.0027 31.561 47.4386 31.561 44.0604V38.395C34.6181 35.1258 36.4907 30.7232 36.4907 25.877ZM1.97367 25.7681C1.98639 23.8847 2.31334 22.077 2.90364 20.3924C3.33745 19.1578 3.9163 17.9847 4.616 16.9027C7.54586 12.3604 12.627 9.35012 18.3709 9.35012H18.4981C18.6215 9.35012 18.7488 9.35397 18.8709 9.35781C22.5297 9.46935 25.6148 12.3347 26.046 16.0309C26.4188 19.227 26.6071 22.5424 26.6071 25.8745C26.6071 29.2065 26.4188 32.5219 26.046 35.7219C25.616 39.4296 22.4979 42.3001 18.7971 42.395C18.6534 42.3988 18.5147 42.4027 18.3709 42.4027C13.9704 42.4027 9.83962 40.6681 6.73802 37.5219C5.93527 36.7091 5.22666 35.8245 4.616 34.8835C3.90739 33.7886 3.33364 32.6168 2.90364 31.3937C2.28026 29.6104 1.96094 27.7142 1.97367 25.7655V25.7681ZM29.8486 44.0604C29.8486 46.3847 27.9798 48.2758 25.6822 48.2758C25.2726 48.2758 24.854 48.2091 24.4533 48.086L7.57257 42.8911C5.80677 42.3463 4.61855 40.727 4.61855 38.8655V37.7668C7.94533 41.6694 12.8712 44.1386 18.3735 44.1386C18.5287 44.1386 18.6852 44.1347 18.8442 44.1309C23.4164 44.0155 27.2228 40.5053 27.7559 35.9219C28.1286 32.7129 28.3296 29.3488 28.3296 25.8758C28.3296 22.4027 28.1286 19.0424 27.7559 15.8296C27.2279 11.2796 23.4699 7.76166 18.9256 7.62448C18.7857 7.62063 18.6508 7.61679 18.5121 7.61679H18.3722C12.8903 7.61679 7.94405 10.1065 4.61728 14.0258V12.5553C4.61728 10.8091 5.66175 9.26807 7.27997 8.63217L24.1568 2.01807C24.653 1.82833 25.1606 1.72961 25.6771 1.72961C27.976 1.72961 29.8486 3.62063 29.8486 5.94115V44.0604Z" fill="white"/>
</svg>
