<svg width="200" height="35" viewBox="0 0 200 35" fill="none" xmlns="http://www.w3.org/2000/svg">
<path d="M4.1516 5.39452L10.4999 15.5018L10.5771 15.6262V35H-0.00134277V5.39452H4.1516Z" fill="#FFDE44"/>
<path d="M30.3823 0V17.4169H28.7349L18.1166 0H-0.00134277V3.12191H6.2335L12.5818 13.2292H17.2356L30.2689 34.9989H36.4711V5.59192L32.9591 0H30.3823Z" fill="black"/>
<path d="M192.738 14.6073V14.8764C192.698 15.8907 192.507 16.7041 192.176 17.3094C191.824 17.9445 191.28 18.4062 190.557 18.6813C189.879 18.9397 188.98 19.0689 187.883 19.0689H180.884C179.926 19.0689 179.079 18.9158 178.372 18.6131C177.638 18.301 177.064 17.8141 176.664 17.1718C176.271 16.5355 176.072 15.7508 176.072 14.8393V14.4422H178.267L178.278 14.8262C178.291 15.2915 178.388 15.6778 178.565 15.9793C178.728 16.2604 179.028 16.484 179.454 16.6479C179.917 16.8285 180.558 16.9194 181.357 16.9194H187.764C188.743 16.9194 189.466 16.7484 189.909 16.4087C190.328 16.0881 190.531 15.5762 190.531 14.8393C190.531 14.3214 190.451 13.9147 190.293 13.6313C190.148 13.3729 189.893 13.1851 189.517 13.0547C189.091 12.9076 188.469 12.8346 187.667 12.8346H180.845C179.927 12.8346 179.146 12.7569 178.524 12.605C177.874 12.4447 177.354 12.2019 176.978 11.8813C176.596 11.5536 176.323 11.1421 176.168 10.6601C176.026 10.2115 175.951 9.66129 175.951 9.02854C175.951 8.06804 176.124 7.26902 176.467 6.65302C176.823 6.01667 177.372 5.5454 178.103 5.25354C178.795 4.97604 179.693 4.83729 180.769 4.83729H187.606C189.207 4.83729 190.451 5.18536 191.301 5.87314C192.176 6.58125 192.62 7.64222 192.62 9.02973V9.42565H190.424L190.413 9.04169C190.398 8.58716 190.299 8.2056 190.119 7.90537C189.95 7.62667 189.65 7.40658 189.226 7.24749C188.758 7.07405 188.118 6.98793 187.317 6.98793H180.79C180.027 6.98793 179.444 7.06688 179.054 7.22357C178.708 7.36113 178.483 7.5537 178.366 7.80728C178.231 8.10153 178.161 8.5142 178.161 9.02973C178.161 9.47469 178.231 9.8132 178.37 10.0381C178.492 10.2378 178.756 10.3921 179.153 10.4974C179.621 10.6218 180.323 10.6864 181.239 10.6864H187.297C188.514 10.6864 189.525 10.8168 190.305 11.0727C191.128 11.3442 191.748 11.7796 192.147 12.3693C192.539 12.9495 192.738 13.703 192.738 14.6097V14.6073ZM172.782 13.0212C173.146 13.6277 173.333 14.453 173.333 15.4709V19.0545H170.987V15.3214C170.987 14.6492 170.864 14.1719 170.628 13.9399C170.386 13.7042 169.959 13.5834 169.354 13.5834H160.57V19.0725H158.224V11.2964H168.81C169.614 11.2964 170.224 11.1122 170.62 10.7486C171.004 10.3945 171.2 9.75339 171.2 8.84912C171.2 8.34076 171.009 7.93527 170.618 7.60873C170.208 7.26544 169.633 7.092 168.909 7.092H158.224V4.80499H168.384C169.541 4.80499 170.513 4.98202 171.272 5.3289C172.061 5.69013 172.647 6.21045 173.011 6.87071C173.367 7.51303 173.546 8.26301 173.546 9.1015C173.546 9.78928 173.446 10.3754 173.245 10.8383C173.044 11.306 172.786 11.6828 172.478 11.9591C172.369 12.0571 172.252 12.1528 172.122 12.2497C172.367 12.4459 172.588 12.7019 172.782 13.02V13.0212ZM97.1625 19.0737H111.173V17.112H97.1625V19.0737ZM74.3279 16.3776V4.76791H76.7309V19.0725H74.3279L62.9783 7.46399V19.0725H60.5753V4.76791H62.9783L74.3279 16.3764V16.3776ZM53.3593 19.0737H55.7622V4.76791H53.3593V19.0737ZM144.567 4.76791V10.9328H133.217V4.76791H130.814V19.0725H133.217V12.9076H144.567V19.0725H146.97V4.76791H144.567ZM116.964 4.76791C115.653 4.76791 114.76 5.00474 114.287 5.47841C113.814 5.95208 113.577 6.8432 113.577 8.15177V15.6898C113.577 16.9984 113.814 17.8883 114.287 18.3632C114.76 18.8368 115.652 19.0737 116.964 19.0737H125.048C126.359 19.0737 127.247 18.8392 127.71 18.3703C128.175 17.9014 128.407 17.0079 128.407 15.691V13.7485H125.989V16.2592C125.989 16.7149 125.616 17.0845 125.156 17.0845H116.812C116.352 17.0845 115.979 16.7149 115.979 16.2592V7.54174C115.979 7.08602 116.352 6.71641 116.812 6.71641H125.156C125.616 6.71641 125.989 7.08602 125.989 7.54174V9.72827H128.407V8.15177C128.407 6.83483 128.175 5.94132 127.71 5.47243C127.246 5.00355 126.359 4.76911 125.048 4.76911M106.597 10.6254L97.1612 10.6158V12.5918H106.597V10.6254ZM111.171 4.76911H97.16V6.68292H111.171V4.76911ZM79.1338 4.76911H94.7559V6.71761H88.1336V19.0737H85.7307V6.71761H79.135V4.76911H79.1338ZM151.776 19.0737H154.179V4.76791H151.776V19.0737ZM176.24 30.2312H179.65V29.8269H176.639V28.3604H179.649V27.9561H176.639V26.6284H179.65V26.2241H176.24V30.2324V30.2312ZM192.378 28.7408C192.372 29.102 192.329 29.3903 192.243 29.6032C192.157 29.8161 192.013 29.974 191.806 30.0757C191.601 30.1774 191.311 30.23 190.943 30.23H187.821V26.2218H190.943C191.221 26.2218 191.449 26.2445 191.626 26.2911C191.805 26.3366 191.95 26.4155 192.06 26.5232C192.168 26.632 192.248 26.7815 192.299 26.9657C192.348 27.1523 192.375 27.3892 192.378 27.6762V28.7408ZM191.958 27.6786C191.958 27.4011 191.932 27.1882 191.876 27.0399C191.821 26.8916 191.724 26.7851 191.583 26.7217C191.442 26.6595 191.239 26.6272 190.971 26.6272H188.239V29.8269H190.978C191.191 29.8269 191.362 29.8066 191.491 29.7671C191.619 29.7276 191.717 29.6654 191.785 29.5805C191.851 29.498 191.897 29.3903 191.921 29.2599C191.945 29.1295 191.957 28.9561 191.957 28.742V27.6798L191.958 27.6786ZM53.3593 30.2312H53.7793V26.2229H53.3593V30.2312ZM66.0112 29.8149L62.8841 26.2229H61.9476V30.2312H62.3688V26.5363H62.6029L65.8241 30.2312H66.4324V26.2229H66.0112V29.8149ZM75.1112 27.0351C75.1752 26.8844 75.2838 26.778 75.4359 26.7158C75.5879 26.6536 75.8016 26.6225 76.0779 26.6225H77.939C78.1924 26.6225 78.3952 26.6512 78.5485 26.7098C78.7017 26.7684 78.8091 26.8509 78.8719 26.9586C78.9347 27.0662 78.966 27.1966 78.966 27.3521H79.38C79.38 26.5997 78.8972 26.2241 77.9329 26.2241H76.0719C75.7171 26.2241 75.4322 26.2732 75.2174 26.3689C75.0038 26.4658 74.8481 26.6189 74.7516 26.8294C74.655 27.0399 74.6043 27.3198 74.5995 27.6703V28.8198C74.6043 29.1702 74.655 29.4477 74.7516 29.6511C74.8481 29.8544 75.0026 30.0027 75.215 30.0948C75.4274 30.1869 75.7135 30.2324 76.0719 30.2324H77.9329C78.2781 30.2324 78.5581 30.1905 78.7717 30.1068C78.9854 30.0231 79.141 29.8975 79.2364 29.7312C79.3317 29.5649 79.38 29.3568 79.38 29.1056H78.966C78.966 29.3604 78.8876 29.5458 78.7319 29.6606C78.5762 29.7755 78.3107 29.8341 77.9378 29.8341H76.0767C75.8728 29.8341 75.7038 29.8173 75.571 29.7838C75.4383 29.7503 75.3297 29.6965 75.2476 29.62C75.1655 29.5446 75.1052 29.4429 75.069 29.3138C75.0315 29.1846 75.0134 29.0207 75.0134 28.8209V27.6715C75.0134 27.3987 75.046 27.1882 75.11 27.0375L75.1112 27.0351ZM92.254 27.6404V28.8724C92.2504 29.1571 92.2238 29.3867 92.1719 29.5625C92.1224 29.7396 92.0404 29.8747 91.9305 29.9728C91.8207 30.0685 91.6783 30.1367 91.5009 30.175C91.3223 30.2121 91.0942 30.2312 90.8142 30.2312H89.04C88.7685 30.2312 88.5404 30.2073 88.3521 30.1594C88.1638 30.1104 88.0117 30.035 87.8983 29.9298C87.7824 29.8257 87.6967 29.6881 87.6436 29.5147C87.5881 29.3437 87.5604 29.1284 87.5567 28.8724V27.6404C87.5604 27.382 87.5869 27.1631 87.6388 26.9885C87.6907 26.8114 87.7716 26.6667 87.8862 26.5555C87.9985 26.4418 88.1481 26.3617 88.3352 26.3091C88.5235 26.2564 88.7588 26.2301 89.0424 26.2301H90.8166C91.1545 26.2301 91.4273 26.2684 91.6324 26.3473C91.8376 26.4251 91.9921 26.5662 92.0947 26.7708C92.1973 26.9765 92.2528 27.266 92.2564 27.6416L92.254 27.6404ZM91.84 27.6081C91.834 27.3401 91.8026 27.1392 91.7411 27.0016C91.6807 26.8617 91.5793 26.766 91.4369 26.711C91.2921 26.6548 91.0833 26.6284 90.8093 26.6284H89.0352C88.7781 26.6284 88.5754 26.6571 88.4245 26.7146C88.2748 26.7732 88.1626 26.8724 88.0902 27.016C88.0178 27.1571 87.9779 27.3557 87.9707 27.6081V28.8724C87.9743 29.065 87.9949 29.2205 88.0335 29.3449C88.0709 29.4669 88.1336 29.5649 88.2157 29.6367C88.299 29.7061 88.4076 29.7575 88.5392 29.785C88.6707 29.8149 88.8361 29.8305 89.0352 29.8305H90.8093C91.0966 29.8305 91.3114 29.8042 91.4538 29.7515C91.5962 29.6989 91.6952 29.6068 91.7507 29.474C91.8038 29.3425 91.834 29.1427 91.84 28.8712V27.6069V27.6081ZM104.573 28.6236C104.669 28.7851 104.718 29.0063 104.718 29.2886V30.2252H104.299V29.2432C104.299 28.998 104.247 28.8245 104.147 28.7265C104.047 28.6284 103.886 28.5781 103.664 28.5781H100.842V30.2312H100.423V26.2229H103.372C103.701 26.2229 103.969 26.2696 104.181 26.3665C104.389 26.4622 104.544 26.5985 104.639 26.7696C104.735 26.943 104.782 27.1428 104.782 27.3724C104.782 27.5614 104.755 27.7169 104.702 27.8401C104.65 27.9621 104.586 28.059 104.508 28.1284C104.429 28.1978 104.33 28.2683 104.211 28.3377C104.353 28.3676 104.475 28.4645 104.572 28.6236H104.573ZM104.362 27.2971C104.362 27.1009 104.288 26.9406 104.136 26.815C103.986 26.6906 103.785 26.626 103.531 26.626H100.843V28.175H103.501C103.782 28.175 103.996 28.1069 104.142 27.9717C104.29 27.8365 104.363 27.6117 104.363 27.2971H104.362ZM117.117 27.4609C117.117 27.7588 117.07 27.9884 116.976 28.1487C116.881 28.309 116.735 28.4202 116.533 28.4824C116.329 28.547 116.052 28.5769 115.7 28.5769H113.371V30.2312H112.951V26.2229H115.694C116.032 26.2229 116.306 26.2624 116.514 26.3438C116.721 26.4263 116.874 26.5591 116.97 26.7397C117.067 26.9203 117.116 27.1619 117.116 27.4609H117.117ZM116.697 27.4609C116.697 27.1535 116.635 26.937 116.507 26.815C116.379 26.6906 116.164 26.6284 115.865 26.6284H113.372V28.1714H115.824C116.052 28.1714 116.229 28.1547 116.352 28.1164C116.474 28.0805 116.563 28.0124 116.616 27.9131C116.672 27.8138 116.699 27.6619 116.699 27.4609H116.697ZM129.977 27.638V28.87C129.974 29.1547 129.948 29.3843 129.897 29.5614C129.848 29.736 129.766 29.8735 129.656 29.9704C129.546 30.0685 129.401 30.1367 129.224 30.1738C129.046 30.2109 128.817 30.23 128.537 30.23H126.771C126.5 30.23 126.269 30.2061 126.081 30.157C125.893 30.1104 125.743 30.035 125.626 29.9286C125.51 29.8245 125.424 29.6858 125.371 29.5135C125.316 29.3401 125.288 29.1248 125.284 28.8688V27.6368C125.288 27.3772 125.315 27.1583 125.366 26.9813C125.418 26.8043 125.499 26.6607 125.614 26.5483C125.726 26.4371 125.876 26.3545 126.064 26.3019C126.252 26.2493 126.488 26.2229 126.771 26.2229H128.537C128.875 26.2229 129.149 26.26 129.354 26.3402C129.559 26.4179 129.714 26.5591 129.816 26.7636C129.919 26.9693 129.972 27.2612 129.976 27.638H129.977ZM129.563 27.6045C129.559 27.3365 129.525 27.1356 129.466 26.9956C129.406 26.8581 129.303 26.76 129.16 26.705C129.015 26.65 128.806 26.6225 128.532 26.6225H126.766C126.509 26.6225 126.307 26.6512 126.156 26.7086C126.005 26.766 125.894 26.8665 125.819 27.01C125.747 27.1535 125.707 27.3509 125.7 27.6033V28.87C125.703 29.0626 125.724 29.2205 125.762 29.3425C125.802 29.4669 125.862 29.5625 125.947 29.6343C126.03 29.7061 126.138 29.7551 126.27 29.785C126.402 29.8137 126.567 29.8281 126.766 29.8281H128.532C128.819 29.8281 129.034 29.8018 129.177 29.7491C129.319 29.6977 129.418 29.6056 129.474 29.474C129.529 29.3425 129.559 29.1403 129.563 28.8688V27.6021V27.6045ZM142.292 28.6236C142.389 28.7851 142.437 29.0063 142.437 29.2886V30.2252H142.018V29.2432C142.018 28.998 141.966 28.8245 141.866 28.7265C141.766 28.6284 141.605 28.5781 141.383 28.5781H138.578V30.2312H138.158V26.2229H141.09C141.421 26.2229 141.689 26.2696 141.9 26.3665C142.109 26.4622 142.263 26.5985 142.358 26.7696C142.454 26.943 142.501 27.1428 142.501 27.3724C142.501 27.5614 142.474 27.7169 142.421 27.8401C142.369 27.9621 142.303 28.059 142.226 28.1284C142.15 28.1978 142.051 28.2683 141.931 28.3377C142.074 28.3676 142.193 28.4645 142.292 28.6236ZM142.081 27.2971C142.081 27.1009 142.007 26.9406 141.855 26.815C141.705 26.6906 141.504 26.626 141.25 26.626H138.58V28.175H141.22C141.5 28.175 141.715 28.1069 141.861 27.9717C142.01 27.8365 142.082 27.6117 142.082 27.2971H142.081ZM155.502 30.2312H155.013L154.494 29.2264H151.649L151.13 30.2312H150.664L152.762 26.2229H153.404L155.502 30.2312ZM154.278 28.8221L153.08 26.5124L151.878 28.8221H154.278ZM163.694 26.6272H165.656V30.23H166.104V26.6272H168.08V26.2229H163.694V26.6272ZM199.999 6.93889C199.999 5.77625 199.049 4.83489 197.876 4.83489C196.703 4.83489 195.753 5.77625 195.753 6.93889C195.753 8.10153 196.703 9.04289 197.876 9.04289C199.049 9.04289 199.999 8.1111 199.999 6.93889ZM197.876 5.19971C198.846 5.19971 199.631 5.9772 199.631 6.93889C199.631 7.90058 198.846 8.67807 197.876 8.67807C196.905 8.67807 196.121 7.90058 196.121 6.93889C196.121 5.9772 196.897 5.19971 197.876 5.19971ZM198.455 7.51423C198.36 7.5549 198.222 7.60873 198.012 7.60873C197.62 7.60873 197.331 7.35036 197.331 6.94846C197.327 6.57287 197.578 6.27025 198.025 6.27025C198.226 6.27025 198.358 6.32408 198.45 6.37432L198.524 6.15303C198.442 6.10758 198.255 6.04897 198.035 6.04897C197.456 6.04897 197.049 6.41977 197.049 6.9676C197.049 7.47476 197.41 7.83599 197.961 7.83599C198.231 7.83599 198.427 7.76303 198.509 7.72714L198.455 7.51423Z" fill="black"/>
</svg>
