<svg width="214" height="50" viewBox="0 0 214 50" fill="none" xmlns="http://www.w3.org/2000/svg">
<g clip-path="url(#clip0_1451_472)">
<g clip-path="url(#clip1_1451_472)">
<path d="M52.9719 30.954V19.0527C52.9719 18.5642 53.3665 18.1681 53.8531 18.1681H53.8582C54.3448 18.1681 54.7394 18.5642 54.7394 19.0527V30.954C54.7394 31.4424 54.3448 31.8386 53.8582 31.8386H53.8531C53.3665 31.8386 52.9719 31.4424 52.9719 30.954ZM131.92 25.1642C133.38 25.7963 134.109 26.8117 134.109 28.2091V31.0527C134.109 31.463 133.777 31.7963 133.368 31.7963H133.062C132.653 31.7963 132.321 31.463 132.321 31.0527V28.2707C132.321 26.7514 130.707 25.9924 127.481 25.9924H119.777C119.651 25.9924 119.548 26.0963 119.548 26.2232V31.054C119.548 31.4642 119.216 31.7976 118.807 31.7976H118.521C118.112 31.7976 117.78 31.4642 117.78 31.054V18.8424C117.78 18.4719 118.08 18.1707 118.449 18.1707H127.722C132.154 18.1707 134.371 19.4142 134.371 21.9014C134.371 23.4066 133.554 24.4963 131.92 25.1681V25.1642ZM127.782 19.6604H119.777C119.651 19.6604 119.548 19.7642 119.548 19.8912V24.2283C119.548 24.3553 119.651 24.4591 119.777 24.4591H127.34C128.706 24.4591 129.858 24.2976 130.795 23.9758C132.001 23.5322 132.603 22.8604 132.603 21.9591C132.603 20.4271 130.997 19.6604 127.782 19.6604ZM73.9765 31.8386H73.2115C73.0493 31.8386 72.8935 31.7796 72.7709 31.6732L60.2067 20.7591C60.0573 20.6296 59.8249 20.736 59.8249 20.9335V30.9514C59.8249 31.4412 59.429 31.8386 58.9411 31.8386C58.4532 31.8386 58.0573 31.4412 58.0573 30.9514V18.8424C58.0573 18.4707 58.3575 18.1681 58.7291 18.1681H59.4864C59.6525 18.1681 59.8121 18.2296 59.9347 18.3412C61.4877 19.7463 63.66 21.604 66.3726 23.9142C69.1707 26.2848 71.2116 28.0399 72.4976 29.1796C72.647 29.3117 72.8795 29.204 72.8795 29.0053V19.0553C72.8795 18.5655 73.2754 18.1681 73.7632 18.1681C74.2511 18.1681 74.647 18.5655 74.647 19.0553V31.1642C74.647 31.536 74.3469 31.8386 73.9752 31.8386H73.9765ZM87.1435 19.9104V31.0924C87.1435 31.504 86.8102 31.8386 86.4002 31.8386H86.1193C85.7093 31.8386 85.376 31.504 85.376 31.0924V19.9104C85.376 19.7822 85.2725 19.6783 85.1448 19.6783H78.7095C78.2995 19.6783 77.9662 19.3258 77.9662 18.9142C77.9662 18.5027 78.2995 18.1681 78.7095 18.1681H93.8113C94.2212 18.1681 94.5546 18.5027 94.5546 18.9142C94.5546 19.3258 94.2212 19.6783 93.8113 19.6783H87.3734C87.2457 19.6783 87.1422 19.7822 87.1422 19.9104H87.1435ZM97.875 31.1655L97.8725 18.8437C97.8725 18.4719 98.1726 18.1694 98.5442 18.1694H113.73C114.135 18.1694 114.463 18.4989 114.463 18.9053V18.9258C114.463 19.3322 114.135 19.6617 113.73 19.6617H99.8507C99.723 19.6617 99.6196 19.7655 99.6196 19.8937V23.7719C99.6196 23.9001 99.723 24.004 99.8507 24.004H111.982C112.387 24.004 112.715 24.3335 112.715 24.7399C112.715 25.1463 112.387 25.4758 111.982 25.4758H99.8507C99.723 25.4758 99.6196 25.5796 99.6196 25.7078L99.6221 30.1181C99.6221 30.2463 99.7256 30.3501 99.8533 30.3501H113.733C114.138 30.3501 114.466 30.6796 114.466 31.086V31.1066C114.466 31.513 114.138 31.8424 113.733 31.8424H98.5468C98.1764 31.8424 97.875 31.5412 97.875 31.1681V31.1655Z" fill="#00B672"/>
<path d="M151.355 31.2732C149.98 31.7437 148.325 31.8373 146.391 31.8373C144.198 31.8373 142.4 31.736 140.997 31.2527C138.79 30.486 137.686 29.1758 137.686 27.3207V27.2399C137.686 26.8617 137.997 26.554 138.381 26.554H138.79C139.173 26.554 139.485 26.8604 139.485 27.2399C139.485 29.404 141.8 30.5373 146.431 30.5373C147.915 30.5373 149.189 30.3386 150.252 30.0424C151.723 29.6386 152.459 29.0142 152.459 28.1668C152.459 27.5886 152.213 27.1514 151.723 26.8566C151.328 26.6142 150.654 26.4001 149.7 26.2117C149.183 26.104 147.875 25.8963 145.777 25.5873C143.392 25.2373 141.786 24.9155 140.954 24.6194C139.17 23.9745 138.278 22.9937 138.278 21.6758C138.278 19.2425 140.811 18.1668 145.878 18.1668C148.438 18.1668 150.373 18.3758 151.68 19.0745C152.893 19.7296 153.611 20.7168 153.833 22.036C153.903 22.4501 153.571 22.8258 153.146 22.8258H152.714C152.376 22.8258 152.093 22.5835 152.032 22.2553C151.931 21.7194 151.756 21.2886 151.506 20.9604C151.173 20.5232 150.658 20.1976 149.963 19.9822C149.05 19.6732 147.689 19.4668 145.876 19.4668C142.022 19.4668 140.095 20.2373 140.095 21.6758C140.095 22.3348 140.578 22.8386 141.546 23.1886C142.281 23.4578 143.548 23.7066 145.346 23.9348C148.698 24.3514 150.938 24.8014 152.068 25.286C153.539 25.8912 154.275 26.8719 154.275 28.2296C154.275 29.5873 153.3 30.6155 151.353 31.2745L151.355 31.2732ZM193.421 31.8373H192.656C192.493 31.8373 192.338 31.7783 192.215 31.6719L179.651 20.7578C179.501 20.6283 179.269 20.7348 179.269 20.9322V30.9501C179.269 31.4399 178.873 31.8373 178.385 31.8373C177.897 31.8373 177.501 31.4399 177.501 30.9501V18.8412C177.501 18.4694 177.802 18.1668 178.173 18.1668H178.931C179.097 18.1668 179.256 18.2283 179.379 18.3399C180.932 19.745 183.104 21.6027 185.817 23.913C188.615 26.2835 190.656 28.0386 191.942 29.1783C192.091 29.3104 192.324 29.2027 192.324 29.004V19.054C192.324 18.5642 192.72 18.1668 193.207 18.1668C193.695 18.1668 194.091 18.5642 194.091 19.054V31.163C194.091 31.5348 193.791 31.8373 193.419 31.8373H193.421ZM157.596 31.163L157.594 18.8412C157.594 18.4694 157.894 18.1668 158.266 18.1668H173.452C173.857 18.1668 174.185 18.4963 174.185 18.9027V18.9232C174.185 19.3296 173.857 19.6591 173.452 19.6591H159.572C159.444 19.6591 159.341 19.763 159.341 19.8912V23.7694C159.341 23.8976 159.444 24.0014 159.572 24.0014H171.703C172.108 24.0014 172.436 24.3309 172.436 24.7373C172.436 25.1437 172.108 25.4732 171.703 25.4732H159.572C159.444 25.4732 159.341 25.5771 159.341 25.7053L159.344 30.1155C159.344 30.2437 159.447 30.3476 159.575 30.3476H173.454C173.859 30.3476 174.187 30.6771 174.187 31.0835V31.104C174.187 31.5104 173.859 31.8399 173.454 31.8399H158.268C157.898 31.8399 157.596 31.5386 157.596 31.1655V31.163ZM211.078 31.2719C209.703 31.7424 208.047 31.836 206.114 31.836C203.921 31.836 202.123 31.7348 200.719 31.2514C198.513 30.4848 197.409 29.1745 197.409 27.3194V27.2386C197.409 26.8604 197.719 26.5527 198.104 26.5527H198.512C198.896 26.5527 199.207 26.8591 199.207 27.2386C199.207 29.4027 201.523 30.536 206.153 30.536C207.637 30.536 208.912 30.3373 209.975 30.0412C211.446 29.6373 212.181 29.013 212.181 28.1655C212.181 27.5873 211.936 27.1501 211.446 26.8553C211.051 26.613 210.377 26.3989 209.423 26.2104C208.906 26.1027 207.598 25.895 205.5 25.586C203.115 25.236 201.509 24.9142 200.677 24.6181C198.893 23.9732 198 22.9924 198 21.6745C198 19.2412 200.534 18.1655 205.6 18.1655C208.161 18.1655 210.096 18.3745 211.402 19.0732C212.616 19.7283 213.333 20.7155 213.556 22.0348C213.626 22.4489 213.294 22.8245 212.868 22.8245H212.437C212.098 22.8245 211.816 22.5822 211.755 22.254C211.654 21.7181 211.479 21.2873 211.229 20.9591C210.895 20.5219 210.381 20.1963 209.686 19.9809C208.773 19.6719 207.411 19.4655 205.599 19.4655C201.745 19.4655 199.818 20.236 199.818 21.6745C199.818 22.3335 200.3 22.8373 201.268 23.1873C202.004 23.4566 203.271 23.7053 205.069 23.9335C208.42 24.3501 210.66 24.8001 211.791 25.2848C213.262 25.8899 213.997 26.8707 213.997 28.2283C213.997 29.586 213.023 30.6142 211.075 31.2732L211.078 31.2719Z" fill="#00B6FF"/>
<path d="M36.3823 25.8783C36.3823 30.7245 34.5024 35.1283 31.4322 38.3975V13.3578C34.5011 16.627 36.3823 21.0321 36.3823 25.8783Z" fill="url(#paint0_radial_1451_472)"/>
<path style="mix-blend-mode:color-dodge" d="M36.3823 25.8783C36.3823 30.7245 34.5024 35.1283 31.4322 38.3975V13.3578C34.5011 16.627 36.3823 21.0321 36.3823 25.8783Z" fill="url(#paint1_linear_1451_472)"/>
<path d="M25.5256 1.72833C27.8346 1.72833 29.7119 3.61935 29.7119 5.94243V44.0642C29.7119 46.3873 27.8358 48.2771 25.5307 48.2771C25.1169 48.2771 24.7005 48.2142 24.2944 48.0886L7.35102 42.8911C5.57584 42.3476 4.38302 40.7296 4.38302 38.8668V12.5578C4.38302 10.8091 5.4328 9.26807 7.05601 8.63346L23.9994 2.02063C24.4949 1.82704 25.0083 1.72833 25.5256 1.72833ZM25.5256 0.00268555C24.818 0.00268555 24.0914 0.132173 23.3762 0.41166L6.43278 7.02576C4.1608 7.91294 2.66403 10.1104 2.66403 12.5578V38.8668C2.66403 41.477 4.36259 43.7796 6.84912 44.5424L23.7925 49.7386C24.3762 49.9181 24.9598 50.0014 25.5307 50.0014C28.68 50.0014 31.4309 47.4386 31.4309 44.0629V5.94371C31.4309 2.53987 28.6519 0.00268555 25.5256 0.00268555Z" fill="url(#paint2_linear_1451_472)"/>
<path d="M18.7454 7.62577C18.6075 7.62192 18.4695 7.61936 18.3303 7.61808C8.31907 7.54243 0.0651226 15.7078 -9.96582e-06 25.7578C-0.0651425 35.8988 8.10452 44.1386 18.1898 44.1386C18.3482 44.1386 18.5053 44.136 18.6624 44.1322C23.2549 44.0142 27.076 40.5053 27.6098 35.9245C27.984 32.7129 28.1845 29.3476 28.1845 25.877C28.1845 22.4065 27.9853 19.0399 27.6098 15.8283C27.0785 11.2783 23.3059 7.76166 18.7441 7.62449L18.7454 7.62577Z" fill="url(#paint3_radial_1451_472)"/>
<g style="mix-blend-mode:screen" opacity="0.7">
<path d="M27.7643 17.2578C16.7275 18.1245 7.12497 24.3976 1.62702 33.4348C0.565738 31.0976 -0.0166232 28.4976 -2.07446e-05 25.7591C0.0651118 15.7078 8.31906 7.54117 18.3316 7.61809C18.4708 7.61937 18.6087 7.62194 18.7454 7.62707C23.3059 7.76296 27.0798 11.2822 27.6111 15.8309C27.666 16.304 27.7171 16.7796 27.7643 17.2578Z" fill="url(#paint4_linear_1451_472)"/>
</g>
<g style="mix-blend-mode:color-dodge">
<path d="M3.69592 36.9103H27.4425C26.514 41.0026 22.9215 44.0244 18.6636 44.1321C18.5078 44.1373 18.3495 44.1385 18.1924 44.1385C12.2755 44.1385 7.01641 41.3026 3.6972 36.9091L3.69592 36.9103Z" fill="url(#paint5_linear_1451_472)"/>
<path d="M27.6404 16.086H2.85687C6.12116 10.9642 11.8579 7.56935 18.3303 7.61807C18.4695 7.61935 18.6075 7.62192 18.7441 7.62705C23.3047 7.76294 27.0785 11.2822 27.6098 15.8309C27.62 15.9155 27.629 16.0001 27.6392 16.086H27.6404Z" fill="url(#paint6_linear_1451_472)"/>
</g>
</g>
</g>
<defs>
<radialGradient id="paint0_radial_1451_472" cx="0" cy="0" r="1" gradientUnits="userSpaceOnUse" gradientTransform="translate(25.7261 26.062) scale(10.8899 14.9769)">
<stop stop-color="#00FFFF"/>
<stop offset="0.05" stop-color="#00F3FF"/>
<stop offset="0.21" stop-color="#00D1FF"/>
<stop offset="0.34" stop-color="#00BDFF"/>
<stop offset="0.43" stop-color="#00B6FF"/>
<stop offset="0.67" stop-color="#0088BE"/>
<stop offset="0.83" stop-color="#00668E"/>
</radialGradient>
<linearGradient id="paint1_linear_1451_472" x1="31.4309" y1="25.8783" x2="36.3823" y2="25.8783" gradientUnits="userSpaceOnUse">
<stop stop-color="#808080"/>
<stop offset="0.22" stop-color="#696969"/>
<stop offset="0.67" stop-color="#2E2E2E"/>
<stop offset="1"/>
</linearGradient>
<linearGradient id="paint2_linear_1451_472" x1="2.66403" y1="25.0027" x2="31.4309" y2="25.0027" gradientUnits="userSpaceOnUse">
<stop stop-color="white" stop-opacity="0"/>
<stop offset="0.11" stop-color="#F8F8F8" stop-opacity="0.23"/>
<stop offset="0.22" stop-color="#F3F3F3" stop-opacity="0.43"/>
<stop offset="0.34" stop-color="#EFEFEF" stop-opacity="0.61"/>
<stop offset="0.46" stop-color="#EBEBEB" stop-opacity="0.75"/>
<stop offset="0.58" stop-color="#E8E8E8" stop-opacity="0.86"/>
<stop offset="0.71" stop-color="#E6E6E6" stop-opacity="0.94"/>
<stop offset="0.84" stop-color="#E5E5E5" stop-opacity="0.98"/>
<stop offset="1" stop-color="#E5E5E5"/>
</linearGradient>
<radialGradient id="paint3_radial_1451_472" cx="0" cy="0" r="1" gradientUnits="userSpaceOnUse" gradientTransform="translate(14.0929 25.8783) scale(16.2716 16.3346)">
<stop stop-color="#84FFBA"/>
<stop offset="0.13" stop-color="#80FCB7"/>
<stop offset="0.26" stop-color="#74F6B1"/>
<stop offset="0.38" stop-color="#61EBA7"/>
<stop offset="0.5" stop-color="#46DD98"/>
<stop offset="0.62" stop-color="#24CA85"/>
<stop offset="0.72" stop-color="#00B672"/>
<stop offset="0.82" stop-color="#00A370"/>
<stop offset="1" stop-color="#00786E"/>
</radialGradient>
<linearGradient id="paint4_linear_1451_472" x1="-1.54149" y1="29.9322" x2="20.0073" y2="12.3587" gradientUnits="userSpaceOnUse">
<stop stop-color="#F1F1F1"/>
<stop offset="0.34" stop-color="#959595"/>
<stop offset="0.66" stop-color="#454545"/>
<stop offset="0.89" stop-color="#131313"/>
<stop offset="1"/>
</linearGradient>
<linearGradient id="paint5_linear_1451_472" x1="15.5692" y1="44.1398" x2="15.5692" y2="36.9103" gradientUnits="userSpaceOnUse">
<stop stop-color="#808080"/>
<stop offset="0.22" stop-color="#696969"/>
<stop offset="0.67" stop-color="#2E2E2E"/>
<stop offset="1"/>
</linearGradient>
<linearGradient id="paint6_linear_1451_472" x1="15.2487" y1="7.61679" x2="15.2487" y2="16.086" gradientUnits="userSpaceOnUse">
<stop stop-color="#808080"/>
<stop offset="0.22" stop-color="#696969"/>
<stop offset="0.67" stop-color="#2E2E2E"/>
<stop offset="1"/>
</linearGradient>
<clipPath id="clip0_1451_472">
<rect width="214" height="50" fill="white" transform="translate(0 0.00268555)"/>
</clipPath>
<clipPath id="clip1_1451_472">
<rect width="214" height="50" fill="white" transform="translate(0 0.00268555)"/>
</clipPath>
</defs>
</svg>
