<svg width="214" height="50" viewBox="0 0 214 50" fill="none" xmlns="http://www.w3.org/2000/svg">
<g clip-path="url(#clip0_1451_470)">
<path d="M53.0207 30.954V19.0527C53.0207 18.5642 53.4138 18.1681 53.8985 18.1681H53.9036C54.3883 18.1681 54.7814 18.5642 54.7814 19.0527V30.954C54.7814 31.4424 54.3883 31.8386 53.9036 31.8386H53.8985C53.4138 31.8386 53.0207 31.4424 53.0207 30.954ZM131.665 25.1642C133.119 25.7963 133.845 26.8117 133.845 28.2091V31.0527C133.845 31.4629 133.515 31.7963 133.108 31.7963H132.802C132.395 31.7963 132.064 31.4629 132.064 31.0527V28.2706C132.064 26.7514 130.456 25.9924 127.243 25.9924H119.569C119.443 25.9924 119.34 26.0963 119.34 26.2232V31.054C119.34 31.4642 119.009 31.7976 118.602 31.7976H118.317C117.91 31.7976 117.579 31.4642 117.579 31.054V18.8424C117.579 18.4719 117.878 18.1706 118.246 18.1706H127.483C131.898 18.1706 134.106 19.4142 134.106 21.9014C134.106 23.4065 133.292 24.4963 131.665 25.1681V25.1642ZM127.543 19.6604H119.569C119.443 19.6604 119.34 19.7642 119.34 19.8911V24.2283C119.34 24.3553 119.443 24.4591 119.569 24.4591H127.103C128.463 24.4591 129.61 24.2976 130.544 23.9758C131.745 23.5322 132.346 22.8604 132.346 21.9591C132.346 20.427 130.745 19.6604 127.543 19.6604ZM73.9444 31.8386H73.1823C73.0208 31.8386 72.8656 31.7796 72.7434 31.6732L60.2276 20.7591C60.0788 20.6296 59.8472 20.736 59.8472 20.9335V30.9514C59.8472 31.4411 59.4529 31.8386 58.9669 31.8386C58.4809 31.8386 58.0865 31.4411 58.0865 30.9514V18.8424C58.0865 18.4706 58.3855 18.1681 58.7557 18.1681H59.5101C59.6755 18.1681 59.8345 18.2296 59.9566 18.3411C61.5036 19.7463 63.6676 21.604 66.3698 23.9142C69.1571 26.2847 71.1901 28.0399 72.4712 29.1796C72.62 29.3117 72.8516 29.204 72.8516 29.0053V19.0553C72.8516 18.5655 73.2459 18.1681 73.7319 18.1681C74.2179 18.1681 74.6123 18.5655 74.6123 19.0553V31.1642C74.6123 31.536 74.3133 31.8386 73.9431 31.8386H73.9444ZM87.0607 19.9104V31.0924C87.0607 31.504 86.7286 31.8386 86.3203 31.8386H86.0404C85.632 31.8386 85.2999 31.504 85.2999 31.0924V19.9104C85.2999 19.7822 85.1969 19.6783 85.0697 19.6783H78.6591C78.2507 19.6783 77.9187 19.3258 77.9187 18.9142C77.9187 18.5027 78.2507 18.1681 78.6591 18.1681H93.7028C94.1111 18.1681 94.4432 18.5027 94.4432 18.9142C94.4432 19.3258 94.1111 19.6783 93.7028 19.6783H87.2897C87.1624 19.6783 87.0594 19.7822 87.0594 19.9104H87.0607ZM97.7509 31.1655L97.7483 18.8437C97.7483 18.4719 98.0473 18.1694 98.4175 18.1694H113.545C113.948 18.1694 114.275 18.4988 114.275 18.9053V18.9258C114.275 19.3322 113.948 19.6617 113.545 19.6617H99.7189C99.5917 19.6617 99.4887 19.7655 99.4887 19.8937V23.7719C99.4887 23.9001 99.5917 24.004 99.7189 24.004H111.803C112.207 24.004 112.534 24.3335 112.534 24.7399C112.534 25.1463 112.207 25.4758 111.803 25.4758H99.7189C99.5917 25.4758 99.4887 25.5796 99.4887 25.7078L99.4912 30.1181C99.4912 30.2463 99.5943 30.3501 99.7215 30.3501H113.548C113.951 30.3501 114.278 30.6796 114.278 31.086V31.1065C114.278 31.5129 113.951 31.8424 113.548 31.8424H98.4201C98.0511 31.8424 97.7509 31.5411 97.7509 31.1681V31.1655ZM151.026 31.2745C149.656 31.745 148.007 31.8386 146.081 31.8386C143.897 31.8386 142.106 31.7373 140.708 31.254C138.509 30.4873 137.41 29.177 137.41 27.3219V27.2411C137.41 26.8629 137.719 26.5553 138.102 26.5553H138.509C138.891 26.5553 139.201 26.8617 139.201 27.2411C139.201 29.4053 141.508 30.5386 146.121 30.5386C147.599 30.5386 148.869 30.3399 149.927 30.0437C151.393 29.6399 152.126 29.0155 152.126 28.1681C152.126 27.5899 151.881 27.1527 151.393 26.8578C151 26.6155 150.328 26.4014 149.378 26.2129C148.862 26.1053 147.56 25.8976 145.469 25.5886C143.094 25.2386 141.494 24.9168 140.666 24.6206C138.888 23.9758 137.999 22.995 137.999 21.677C137.999 19.2437 140.523 18.1681 145.57 18.1681C148.121 18.1681 150.048 18.377 151.35 19.0758C152.558 19.7309 153.273 20.7181 153.494 22.0373C153.564 22.4514 153.234 22.827 152.81 22.827H152.38C152.043 22.827 151.762 22.5847 151.701 22.2565C151.6 21.7206 151.426 21.2899 151.176 20.9617C150.844 20.5245 150.332 20.1988 149.64 19.9835C148.73 19.6745 147.374 19.4681 145.569 19.4681C141.729 19.4681 139.809 20.2386 139.809 21.677C139.809 22.336 140.29 22.8399 141.255 23.1899C141.987 23.4591 143.249 23.7078 145.041 23.936C148.379 24.3527 150.61 24.8027 151.736 25.2873C153.202 25.8924 153.935 26.8732 153.935 28.2309C153.935 29.5886 152.964 30.6168 151.024 31.2758L151.026 31.2745ZM192.93 31.8386H192.168C192.006 31.8386 191.851 31.7796 191.729 31.6732L179.213 20.7591C179.064 20.6296 178.833 20.736 178.833 20.9335V30.9514C178.833 31.4411 178.438 31.8386 177.952 31.8386C177.466 31.8386 177.072 31.4411 177.072 30.9514V18.8424C177.072 18.4706 177.371 18.1681 177.741 18.1681H178.495C178.661 18.1681 178.82 18.2296 178.942 18.3411C180.489 19.7463 182.653 21.604 185.355 23.9142C188.143 26.2847 190.175 28.0399 191.457 29.1796C191.605 29.3117 191.837 29.204 191.837 29.0053V19.0553C191.837 18.5655 192.231 18.1681 192.717 18.1681C193.203 18.1681 193.598 18.5655 193.598 19.0553V31.1642C193.598 31.536 193.299 31.8386 192.929 31.8386H192.93ZM157.244 31.1642L157.241 18.8424C157.241 18.4706 157.54 18.1681 157.91 18.1681H173.038C173.441 18.1681 173.768 18.4976 173.768 18.904V18.9245C173.768 19.3309 173.441 19.6604 173.038 19.6604H159.212C159.084 19.6604 158.981 19.7642 158.981 19.8924V23.7706C158.981 23.8988 159.084 24.0027 159.212 24.0027H171.296C171.699 24.0027 172.026 24.3322 172.026 24.7386C172.026 25.145 171.699 25.4745 171.296 25.4745H159.212C159.084 25.4745 158.981 25.5783 158.981 25.7065L158.984 30.1168C158.984 30.245 159.087 30.3488 159.214 30.3488H173.04C173.444 30.3488 173.771 30.6783 173.771 31.0847V31.1053C173.771 31.5117 173.444 31.8411 173.04 31.8411H157.913C157.544 31.8411 157.244 31.5399 157.244 31.1668V31.1642ZM210.519 31.2732C209.149 31.7437 207.5 31.8373 205.574 31.8373C203.39 31.8373 201.598 31.736 200.2 31.2527C198.002 30.486 196.903 29.1758 196.903 27.3206V27.2399C196.903 26.8617 197.212 26.554 197.595 26.554H198.002C198.384 26.554 198.694 26.8604 198.694 27.2399C198.694 29.404 201.001 30.5373 205.614 30.5373C207.092 30.5373 208.361 30.3386 209.42 30.0424C210.885 29.6386 211.618 29.0142 211.618 28.1668C211.618 27.5886 211.374 27.1514 210.885 26.8565C210.492 26.6142 209.821 26.4001 208.87 26.2117C208.355 26.104 207.052 25.8963 204.962 25.5873C202.587 25.2373 200.987 24.9155 200.158 24.6194C198.381 23.9745 197.492 22.9937 197.492 21.6758C197.492 19.2424 200.016 18.1668 205.063 18.1668C207.613 18.1668 209.541 18.3758 210.842 19.0745C212.051 19.7296 212.766 20.7168 212.987 22.036C213.057 22.4501 212.726 22.8258 212.303 22.8258H211.873C211.536 22.8258 211.254 22.5835 211.193 22.2553C211.093 21.7194 210.919 21.2886 210.669 20.9604C210.337 20.5232 209.824 20.1976 209.132 19.9822C208.223 19.6732 206.867 19.4668 205.061 19.4668C201.222 19.4668 199.302 20.2373 199.302 21.6758C199.302 22.3347 199.783 22.8386 200.747 23.1886C201.48 23.4578 202.742 23.7065 204.533 23.9347C207.872 24.3514 210.103 24.8014 211.229 25.286C212.695 25.8911 213.427 26.8719 213.427 28.2296C213.427 29.5873 212.457 30.6155 210.517 31.2745L210.519 31.2732ZM36.4911 25.877C36.4911 21.0309 34.6172 16.627 31.5614 13.3578V5.93987C31.5614 2.5373 28.7918 0.00268555 25.6775 0.00268555C24.9727 0.00268555 24.2475 0.130891 23.5351 0.41166L6.65696 7.02576C4.39501 7.91294 2.904 10.1104 2.904 12.5553V16.3911C1.24507 19.1245 0.273114 22.3335 0.252759 25.7565C0.228587 29.2873 1.20308 32.5899 2.904 35.3937V38.8668C2.904 41.477 4.59602 43.7809 7.0717 44.5399L23.9524 49.7386C24.53 49.9155 25.1114 50.0027 25.6813 50.0027C28.8198 50.0027 31.5614 47.4386 31.5614 44.0604V38.395C34.6184 35.1258 36.4911 30.7232 36.4911 25.877ZM1.97403 25.7681C1.98675 23.8847 2.31371 22.077 2.904 20.3924C3.33782 19.1578 3.91667 17.9847 4.61637 16.9027C7.54623 12.3604 12.6274 9.35012 18.3713 9.35012H18.4985C18.6219 9.35012 18.7491 9.35397 18.8713 9.35781C22.5301 9.46935 25.6151 12.3347 26.0464 16.0309C26.4192 19.227 26.6075 22.5424 26.6075 25.8745C26.6075 29.2065 26.4192 32.5219 26.0464 35.7219C25.6164 39.4296 22.4983 42.3001 18.7975 42.395C18.6537 42.3988 18.515 42.4027 18.3713 42.4027C13.9708 42.4027 9.83998 40.6681 6.73838 37.5219C5.93563 36.7091 5.22702 35.8245 4.61637 34.8835C3.90776 33.7886 3.334 32.6168 2.904 31.3937C2.28063 29.6104 1.96131 27.7142 1.97403 25.7655V25.7681ZM29.849 44.0604C29.849 46.3847 27.9801 48.2758 25.6826 48.2758C25.2729 48.2758 24.8544 48.2091 24.4536 48.086L7.57294 42.8911C5.80714 42.3463 4.61892 40.727 4.61892 38.8655V37.7668C7.94569 41.6694 12.8716 44.1386 18.3738 44.1386C18.529 44.1386 18.6855 44.1347 18.8445 44.1309C23.4168 44.0155 27.2232 40.5053 27.7562 35.9219C28.129 32.7129 28.33 29.3488 28.33 25.8758C28.33 22.4027 28.129 19.0424 27.7562 15.8296C27.2283 11.2796 23.4702 7.76166 18.926 7.62448C18.786 7.62063 18.6512 7.61679 18.5125 7.61679H18.3726C12.8907 7.61679 7.94442 10.1065 4.61764 14.0258V12.5553C4.61764 10.8091 5.66211 9.26807 7.28034 8.63217L24.1572 2.01807C24.6534 1.82833 25.161 1.72961 25.6775 1.72961C27.9763 1.72961 29.849 3.62063 29.849 5.94115V44.0604Z" fill="#58687C"/>
</g>
<defs>
<clipPath id="clip0_1451_470">
<rect width="214" height="50" fill="white" transform="translate(0 0.00268555)"/>
</clipPath>
</defs>
</svg>
