<svg width="200" height="35" viewBox="0 0 200 35" fill="none" xmlns="http://www.w3.org/2000/svg">
<path d="M4.15294 5.39452L10.5012 15.5018L10.5785 15.6262V35H0V5.39452H4.15294Z" fill="white"/>
<path d="M30.3837 0V17.4169H28.7363L18.118 0H0V3.12191H6.23484L12.5831 13.2292H17.2369L30.2702 34.9989H36.4725V5.59192L32.9604 0H30.3837Z" fill="white"/>
<path d="M192.739 14.6073V14.8764C192.699 15.8908 192.509 16.7041 192.177 17.3094C191.826 17.9445 191.281 18.4062 190.558 18.6813C189.88 18.9397 188.981 19.0689 187.884 19.0689H180.885C179.927 19.0689 179.081 18.9158 178.374 18.6131C177.64 18.301 177.065 17.8141 176.666 17.1718C176.272 16.5355 176.073 15.7508 176.073 14.8393V14.4422H178.269L178.279 14.8262C178.293 15.2915 178.389 15.6778 178.567 15.9793C178.73 16.2604 179.029 16.484 179.455 16.6479C179.918 16.8285 180.559 16.9194 181.358 16.9194H187.766C188.744 16.9194 189.467 16.7484 189.91 16.4087C190.329 16.0881 190.532 15.5762 190.532 14.8393C190.532 14.3214 190.452 13.9147 190.294 13.6313C190.149 13.3729 189.895 13.1851 189.518 13.0547C189.092 12.9076 188.47 12.8346 187.668 12.8346H180.847C179.928 12.8346 179.147 12.7569 178.526 12.605C177.875 12.4447 177.355 12.2019 176.98 11.8813C176.597 11.5536 176.324 11.1421 176.17 10.6601C176.027 10.2115 175.953 9.66129 175.953 9.02854C175.953 8.06804 176.125 7.26902 176.468 6.65302C176.824 6.01667 177.373 5.5454 178.104 5.25354C178.796 4.97604 179.694 4.83729 180.77 4.83729H187.608C189.208 4.83729 190.452 5.18536 191.302 5.87314C192.177 6.58125 192.621 7.64222 192.621 9.02973V9.42565H190.426L190.415 9.04169C190.399 8.58716 190.3 8.2056 190.12 7.90537C189.951 7.62667 189.651 7.40658 189.227 7.24749C188.759 7.07405 188.119 6.98793 187.318 6.98793H180.791C180.028 6.98793 179.445 7.06688 179.055 7.22357C178.709 7.36113 178.485 7.5537 178.368 7.80728C178.232 8.10153 178.162 8.5142 178.162 9.02973C178.162 9.47469 178.232 9.8132 178.371 10.0381C178.493 10.2378 178.757 10.3921 179.154 10.4974C179.623 10.6218 180.324 10.6864 181.24 10.6864H187.299C188.515 10.6864 189.527 10.8168 190.306 11.0727C191.129 11.3442 191.75 11.7796 192.148 12.3693C192.54 12.9495 192.739 13.703 192.739 14.6097V14.6073ZM172.783 13.0212C173.148 13.6277 173.335 14.453 173.335 15.4709V19.0545H170.989V15.3214C170.989 14.6492 170.865 14.1719 170.629 13.9399C170.388 13.7042 169.96 13.5834 169.356 13.5834H160.572V19.0725H158.226V11.2964H168.811C169.615 11.2964 170.226 11.1122 170.622 10.7486C171.005 10.3945 171.201 9.75339 171.201 8.84912C171.201 8.34076 171.01 7.93527 170.619 7.60873C170.209 7.26544 169.634 7.092 168.91 7.092H158.226V4.80499H168.385C169.543 4.80499 170.514 4.98202 171.273 5.3289C172.063 5.69013 172.648 6.21045 173.013 6.87071C173.369 7.51303 173.547 8.26301 173.547 9.1015C173.547 9.78928 173.447 10.3754 173.247 10.8383C173.045 11.306 172.787 11.6828 172.479 11.9591C172.37 12.0571 172.253 12.1528 172.123 12.2497C172.368 12.4459 172.589 12.7019 172.783 13.02V13.0212ZM97.1638 19.0737H111.175V17.112H97.1638V19.0737ZM74.3293 16.3776V4.76791H76.7322V19.0725H74.3293L62.9796 7.46399V19.0725H60.5767V4.76791H62.9796L74.3293 16.3764V16.3776ZM53.3606 19.0737H55.7636V4.76791H53.3606V19.0737ZM144.568 4.76791V10.9328H133.219V4.76791H130.816V19.0725H133.219V12.9076H144.568V19.0725H146.971V4.76791H144.568ZM116.965 4.76791C115.655 4.76791 114.762 5.00474 114.288 5.47841C113.815 5.95208 113.579 6.8432 113.579 8.15177V15.6898C113.579 16.9984 113.815 17.8883 114.288 18.3632C114.762 18.8368 115.653 19.0737 116.965 19.0737H125.049C126.36 19.0737 127.248 18.8392 127.712 18.3703C128.176 17.9014 128.408 17.0079 128.408 15.691V13.7485H125.991V16.2592C125.991 16.7149 125.618 17.0845 125.158 17.0845H116.813C116.353 17.0845 115.981 16.7149 115.981 16.2592V7.54174C115.981 7.08602 116.353 6.71641 116.813 6.71641H125.158C125.618 6.71641 125.991 7.08602 125.991 7.54174V9.72827H128.408V8.15177C128.408 6.83483 128.176 5.94132 127.712 5.47243C127.247 5.00355 126.36 4.76911 125.049 4.76911M106.598 10.6254L97.1626 10.6158V12.5918H106.598V10.6254ZM111.172 4.76911H97.1614V6.68292H111.172V4.76911ZM79.1351 4.76911H94.7572V6.71761H88.135V19.0737H85.732V6.71761H79.1364V4.76911H79.1351ZM151.777 19.0737H154.18V4.76791H151.777V19.0737ZM176.241 30.2312H179.652V29.8269H176.64V28.3604H179.65V27.9561H176.64V26.6284H179.652V26.2241H176.241V30.2324V30.2312ZM192.38 28.7408C192.374 29.102 192.33 29.3903 192.244 29.6032C192.159 29.8161 192.014 29.974 191.808 30.0757C191.602 30.1774 191.313 30.23 190.945 30.23H187.822V26.2218H190.945C191.222 26.2218 191.45 26.2445 191.628 26.2911C191.806 26.3366 191.951 26.4155 192.061 26.5232C192.17 26.632 192.249 26.7815 192.3 26.9657C192.349 27.1523 192.376 27.3892 192.38 27.6762V28.7408ZM191.96 27.6786C191.96 27.4011 191.933 27.1882 191.878 27.0399C191.822 26.8916 191.726 26.7851 191.584 26.7217C191.443 26.6595 191.24 26.6272 190.972 26.6272H188.24V29.8269H190.98C191.192 29.8269 191.363 29.8066 191.493 29.7671C191.621 29.7276 191.718 29.6654 191.786 29.5805C191.852 29.498 191.898 29.3903 191.922 29.2599C191.946 29.1295 191.958 28.9561 191.958 28.742V27.6798L191.96 27.6786ZM53.3606 30.2312H53.7806V26.2229H53.3606V30.2312ZM66.0125 29.8149L62.8855 26.2229H61.9489V30.2312H62.3701V26.5363H62.6042L65.8255 30.2312H66.4337V26.2229H66.0125V29.8149ZM75.1125 27.0351C75.1765 26.8844 75.2851 26.778 75.4372 26.7158C75.5893 26.6536 75.8029 26.6225 76.0793 26.6225H77.9403C78.1938 26.6225 78.3965 26.6512 78.5498 26.7098C78.7031 26.7684 78.8105 26.8509 78.8732 26.9586C78.936 27.0662 78.9674 27.1966 78.9674 27.3521H79.3814C79.3814 26.5997 78.8986 26.2241 77.9343 26.2241H76.0732C75.7184 26.2241 75.4336 26.2732 75.2188 26.3689C75.0051 26.4658 74.8494 26.6189 74.7529 26.8294C74.6563 27.0399 74.6057 27.3198 74.6008 27.6703V28.8198C74.6057 29.1702 74.6563 29.4477 74.7529 29.6511C74.8494 29.8544 75.0039 30.0027 75.2163 30.0948C75.4288 30.1869 75.7148 30.2324 76.0732 30.2324H77.9343C78.2795 30.2324 78.5595 30.1905 78.7731 30.1068C78.9867 30.0231 79.1424 29.8975 79.2377 29.7312C79.3331 29.5649 79.3814 29.3568 79.3814 29.1056H78.9674C78.9674 29.3604 78.8889 29.5458 78.7332 29.6606C78.5776 29.7755 78.312 29.8341 77.9391 29.8341H76.0781C75.8741 29.8341 75.7051 29.8173 75.5724 29.7838C75.4396 29.7503 75.331 29.6965 75.2489 29.62C75.1669 29.5446 75.1065 29.4429 75.0703 29.3138C75.0329 29.1846 75.0148 29.0207 75.0148 28.8209V27.6715C75.0148 27.3987 75.0474 27.1882 75.1113 27.0375L75.1125 27.0351ZM92.2553 27.6404V28.8724C92.2517 29.1571 92.2252 29.3867 92.1733 29.5625C92.1238 29.7396 92.0417 29.8747 91.9319 29.9728C91.8221 30.0685 91.6796 30.1367 91.5022 30.175C91.3236 30.2121 91.0955 30.2312 90.8155 30.2312H89.0414C88.7698 30.2312 88.5417 30.2073 88.3534 30.1594C88.1652 30.1104 88.0131 30.035 87.8996 29.9298C87.7838 29.8257 87.6981 29.6881 87.645 29.5147C87.5895 29.3437 87.5617 29.1284 87.5581 28.8724V27.6404C87.5617 27.382 87.5883 27.1631 87.6402 26.9885C87.6921 26.8114 87.7729 26.6667 87.8876 26.5555C87.9998 26.4418 88.1495 26.3617 88.3365 26.3091C88.5248 26.2564 88.7602 26.2301 89.0438 26.2301H90.8179C91.1559 26.2301 91.4286 26.2684 91.6338 26.3473C91.839 26.4251 91.9934 26.5662 92.096 26.7708C92.1986 26.9765 92.2541 27.266 92.2577 27.6416L92.2553 27.6404ZM91.8414 27.6081C91.8353 27.3401 91.804 27.1392 91.7424 27.0016C91.6821 26.8617 91.5807 26.766 91.4383 26.711C91.2934 26.6548 91.0846 26.6284 90.8107 26.6284H89.0365C88.7795 26.6284 88.5767 26.6571 88.4258 26.7146C88.2762 26.7732 88.164 26.8724 88.0915 27.016C88.0191 27.1571 87.9793 27.3557 87.972 27.6081V28.8724C87.9757 29.065 87.9962 29.2205 88.0348 29.3449C88.0722 29.4669 88.135 29.5649 88.2171 29.6367C88.3003 29.7061 88.409 29.7575 88.5405 29.785C88.6721 29.8149 88.8374 29.8305 89.0365 29.8305H90.8107C91.0979 29.8305 91.3128 29.8042 91.4552 29.7515C91.5976 29.6989 91.6965 29.6068 91.7521 29.474C91.8052 29.3425 91.8353 29.1427 91.8414 28.8712V27.6069V27.6081ZM104.574 28.6236C104.671 28.7851 104.719 29.0063 104.719 29.2886V30.2252H104.3V29.2432C104.3 28.998 104.248 28.8245 104.148 28.7265C104.048 28.6284 103.887 28.5781 103.665 28.5781H100.844V30.2312H100.425V26.2229H103.373C103.703 26.2229 103.971 26.2696 104.182 26.3665C104.391 26.4622 104.545 26.5985 104.641 26.7696C104.736 26.943 104.783 27.1428 104.783 27.3724C104.783 27.5614 104.756 27.7169 104.703 27.8401C104.651 27.9621 104.587 28.059 104.509 28.1284C104.431 28.1978 104.332 28.2683 104.212 28.3377C104.354 28.3676 104.476 28.4645 104.573 28.6236H104.574ZM104.363 27.2971C104.363 27.1009 104.289 26.9406 104.137 26.815C103.988 26.6906 103.786 26.626 103.533 26.626H100.845V28.175H103.502C103.784 28.175 103.997 28.1069 104.143 27.9717C104.292 27.8365 104.364 27.6117 104.364 27.2971H104.363ZM117.119 27.4609C117.119 27.7588 117.072 27.9884 116.977 28.1487C116.882 28.309 116.736 28.4202 116.535 28.4824C116.331 28.547 116.053 28.5769 115.702 28.5769H113.372V30.2312H112.952V26.2229H115.696C116.034 26.2229 116.308 26.2624 116.515 26.3438C116.723 26.4263 116.875 26.5591 116.971 26.7397C117.068 26.9203 117.117 27.1619 117.117 27.4609H117.119ZM116.699 27.4609C116.699 27.1535 116.636 26.937 116.508 26.815C116.38 26.6906 116.165 26.6284 115.866 26.6284H113.374V28.1714H115.825C116.053 28.1714 116.23 28.1547 116.353 28.1164C116.475 28.0805 116.565 28.0124 116.618 27.9131C116.673 27.8138 116.7 27.6619 116.7 27.4609H116.699ZM129.978 27.638V28.87C129.976 29.1547 129.949 29.3843 129.899 29.5614C129.849 29.736 129.767 29.8735 129.657 29.9704C129.547 30.0685 129.402 30.1367 129.225 30.1738C129.048 30.2109 128.818 30.23 128.538 30.23H126.773C126.501 30.23 126.271 30.2061 126.082 30.157C125.894 30.1104 125.744 30.035 125.627 29.9286C125.511 29.8245 125.426 29.6858 125.373 29.5135C125.317 29.3401 125.289 29.1248 125.286 28.8688V27.6368C125.289 27.3772 125.316 27.1583 125.368 26.9813C125.42 26.8043 125.501 26.6607 125.615 26.5483C125.727 26.4371 125.877 26.3545 126.065 26.3019C126.254 26.2493 126.489 26.2229 126.773 26.2229H128.538C128.876 26.2229 129.15 26.26 129.355 26.3402C129.561 26.4179 129.715 26.5591 129.818 26.7636C129.92 26.9693 129.973 27.2612 129.977 27.638H129.978ZM129.564 27.6045C129.561 27.3365 129.527 27.1356 129.468 26.9956C129.407 26.8581 129.305 26.76 129.161 26.705C129.016 26.65 128.807 26.6225 128.534 26.6225H126.768C126.511 26.6225 126.308 26.6512 126.157 26.7086C126.006 26.766 125.895 26.8665 125.82 27.01C125.748 27.1535 125.708 27.3509 125.701 27.6033V28.87C125.705 29.0626 125.725 29.2205 125.764 29.3425C125.803 29.4669 125.864 29.5626 125.948 29.6343C126.032 29.7061 126.139 29.7551 126.272 29.785C126.403 29.8137 126.569 29.8281 126.768 29.8281H128.534C128.821 29.8281 129.036 29.8018 129.178 29.7491C129.32 29.6977 129.419 29.6056 129.475 29.474C129.53 29.3425 129.561 29.1403 129.564 28.8688V27.6021V27.6045ZM142.293 28.6236C142.39 28.7851 142.438 29.0063 142.438 29.2886V30.2252H142.019V29.2432C142.019 28.998 141.967 28.8245 141.867 28.7265C141.767 28.6284 141.607 28.5781 141.385 28.5781H138.58V30.2312H138.16V26.2229H141.091C141.422 26.2229 141.69 26.2696 141.901 26.3665C142.11 26.4622 142.264 26.5985 142.36 26.7696C142.455 26.943 142.502 27.1428 142.502 27.3724C142.502 27.5614 142.476 27.7169 142.422 27.8401C142.371 27.9621 142.304 28.059 142.227 28.1284C142.151 28.1978 142.052 28.2683 141.932 28.3377C142.075 28.3676 142.194 28.4645 142.293 28.6236ZM142.082 27.2971C142.082 27.1009 142.009 26.9406 141.856 26.815C141.707 26.6906 141.505 26.626 141.252 26.626H138.581V28.175H141.222C141.502 28.175 141.716 28.1069 141.862 27.9717C142.011 27.8365 142.083 27.6117 142.083 27.2971H142.082ZM155.503 30.2312H155.014L154.495 29.2264H151.65L151.131 30.2312H150.666L152.763 26.2229H153.405L155.503 30.2312ZM154.279 28.8221L153.082 26.5124L151.88 28.8221H154.279ZM163.695 26.6272H165.658V30.23H166.105V26.6272H168.081V26.2229H163.695V26.6272ZM200 6.93889C200 5.77625 199.05 4.83489 197.877 4.83489C196.704 4.83489 195.754 5.77625 195.754 6.93889C195.754 8.10153 196.704 9.04289 197.877 9.04289C199.05 9.04289 200 8.1111 200 6.93889ZM197.877 5.19971C198.847 5.19971 199.632 5.9772 199.632 6.93889C199.632 7.90058 198.847 8.67807 197.877 8.67807C196.907 8.67807 196.122 7.90058 196.122 6.93889C196.122 5.9772 196.898 5.19971 197.877 5.19971ZM198.456 7.51423C198.361 7.5549 198.223 7.60873 198.013 7.60873C197.621 7.60873 197.333 7.35036 197.333 6.94846C197.328 6.57287 197.579 6.27025 198.027 6.27025C198.227 6.27025 198.36 6.32408 198.452 6.37432L198.525 6.15303C198.443 6.10758 198.256 6.04897 198.036 6.04897C197.457 6.04897 197.05 6.41977 197.05 6.9676C197.05 7.47476 197.411 7.83599 197.963 7.83599C198.232 7.83599 198.429 7.76303 198.511 7.72714L198.456 7.51423Z" fill="white"/>
</svg>
