<svg width="131" height="55" viewBox="0 0 131 55" fill="none" xmlns="http://www.w3.org/2000/svg">
<path d="M25.5831 21.9095C13.2761 21.4611 6.58782 26.1442 3.58044 29.9799C-0.257093 34.8715 -4.0275 48.5127 9.47212 52.7721C25.6077 57.8632 40.7989 42.5339 42.739 34.2393C44.679 25.9447 37.9661 19.1453 37.9661 19.1453L29.0894 24.6758C29.0894 24.6758 30.3582 33.7169 35.6524 33.7169C35.5785 38.0503 33.7884 49.4094 18.5726 48.3625C6.93017 47.5622 3.661 32.5624 12.1573 27.5879C16.8563 24.3754 24.2405 24.3754 24.2405 24.3754L25.5831 21.9095Z" fill="white"/>
<path d="M45.7978 21.7615L52.4368 20.4164L51.3919 38.5009L54.4507 40.9669L50.4968 45.0761C50.4968 45.0761 45.1265 44.4775 45.4241 38.7251C45.7217 32.9726 45.7978 21.7615 45.7978 21.7615Z" fill="white"/>
<path d="M71.0069 28.785L69.8881 30.2803C69.8881 30.2803 72.8709 31.4012 73.0946 33.9411C73.6608 38.1377 71.7834 40.7472 69.7874 42.3007C67.373 44.1816 64.1799 44.8205 61.2486 43.9462C59.1542 43.3208 56.9837 41.8793 56.3102 38.6489C54.8938 31.8495 62.4256 28.785 62.4256 28.785H71.0069ZM63.3252 31.251C63.3252 31.251 60.3424 34.1653 62.0564 37.2298C63.7727 40.2943 66.7554 40.9669 66.7554 40.9669C66.7554 40.9669 69.2168 38.4269 67.5006 34.6159C66.3079 31.5514 63.3229 31.2532 63.3229 31.2532L63.3252 31.251Z" fill="white"/>
<path d="M75.4822 43.5068V34.5397C75.4822 34.5397 78.541 28.637 80.8525 28.2627C83.164 27.8883 85.2539 28.785 85.2539 28.785V21.5373L91.3694 20.4164L90.848 41.7134L91.3694 43.5068L84.8064 45.0761L85.104 37.454L79.1362 44.334L75.4822 43.5068ZM85.3278 33.1946L81.0763 31.9997V39.1734L85.3278 33.1946Z" fill="white"/>
<path d="M93.5332 33.5667V31.251L101.962 28.785L102.707 43.6548L96.3682 44.7017V33.643L93.5332 33.5667Z" fill="white"/>
<path d="M98.8654 26.5431C100.822 26.5431 102.408 25.1711 102.408 23.4786C102.408 21.7861 100.822 20.4141 98.8654 20.4141C96.9091 20.4141 95.3233 21.7861 95.3233 23.4786C95.3233 25.1711 96.9091 26.5431 98.8654 26.5431Z" fill="white"/>
<path d="M106.288 44.3318V29.8297L112.329 28.7828V31.2487C112.329 31.2487 114.193 29.0809 115.983 28.7828C117.773 28.4846 120.608 29.6795 121.13 31.2487C122.546 28.8568 123.07 28.915 124.486 28.7357C125.903 28.5564 130.902 29.1549 130.902 31.9953V41.9331L124.562 45.8943L125.084 35.5821C125.084 35.5821 124.269 33.2215 122.846 31.9953C121.801 32.892 121.43 35.5821 121.43 35.5821V42.4756L115.961 45.8943V36.7411C115.961 36.7411 116.024 32.8561 113.786 31.9953C112.965 33.078 112.182 34.5733 112.182 34.5733L112.144 43.9888L106.288 44.3296V44.3318Z" fill="white"/>
<path d="M112.745 19.3201H103.858C103.345 19.3201 102.931 18.9054 102.931 18.392V9.48767C102.931 8.9743 103.345 8.55957 103.858 8.55957H112.745C113.258 8.55957 113.672 8.9743 113.672 9.48767V18.392C113.672 18.9054 113.258 19.3201 112.745 19.3201ZM112.627 15.8521V10.5346C112.627 10.0212 112.213 9.60648 111.7 9.60648H106.393C105.88 9.60648 105.466 10.0212 105.466 10.5346V15.8521C105.466 16.3655 105.88 16.7802 106.393 16.7802H111.7C112.213 16.7802 112.627 16.3655 112.627 15.8521Z" fill="white"/>
<path d="M130.074 14.0878H122.976C122.463 14.0878 122.049 13.6731 122.049 13.1597V6.0488C122.049 5.53543 122.463 5.1207 122.976 5.1207H130.074C130.586 5.1207 131 5.53543 131 6.0488V13.1597C131 13.6731 130.586 14.0878 130.074 14.0878ZM124.162 8.16505V12.2877C124.162 12.8011 124.576 13.2158 125.088 13.2158H129.203C129.716 13.2158 130.13 12.8011 130.13 12.2877V8.16505C130.13 7.65168 129.716 7.23695 129.203 7.23695H125.088C124.576 7.23695 124.162 7.65168 124.162 8.16505Z" fill="white"/>
<path d="M128.315 10.8574V21.5552C128.315 22.0685 127.901 22.4833 127.388 22.4833H116.711C116.198 22.4833 115.784 22.0685 115.784 21.5552V10.8574C115.784 10.344 116.198 9.92927 116.711 9.92927H127.388C127.901 9.92927 128.315 10.344 128.315 10.8574ZM124.43 11.151H117.928C117.415 11.151 117.001 11.5658 117.001 12.0791V18.5938C117.001 19.1071 117.415 19.5219 117.928 19.5219H124.43C124.943 19.5219 125.357 19.1071 125.357 18.5938V12.0791C125.357 11.5658 124.943 11.151 124.43 11.151Z" fill="white"/>
<path d="M106.511 13.422V0.930785C106.511 0.417416 106.925 0.00268555 107.438 0.00268555H119.906C120.418 0.00268555 120.832 0.417416 120.832 0.930785V13.422C120.832 13.9354 120.418 14.3501 119.906 14.3501H107.438C106.925 14.3501 106.511 13.9354 106.511 13.422ZM110.819 12.9557H118.514C119.026 12.9557 119.44 12.541 119.44 12.0276V4.31812C119.44 3.80475 119.026 3.39002 118.514 3.39002H110.819C110.306 3.39002 109.892 3.80475 109.892 4.31812V12.0276C109.892 12.541 110.306 12.9557 110.819 12.9557Z" fill="white"/>
<path d="M55.9052 51.3755C55.8246 51.6041 55.7396 51.8014 55.6456 51.9695C55.5516 52.1377 55.4554 52.2789 55.3547 52.3955C55.254 52.5121 55.1533 52.604 55.0482 52.6757C54.943 52.7475 54.8423 52.8013 54.7438 52.8416C54.6454 52.8797 54.5514 52.9066 54.4597 52.9201C54.3702 52.9335 54.2874 52.9402 54.2135 52.9402C54.0882 52.9402 53.9696 52.9201 53.86 52.882C53.7503 52.8438 53.6541 52.7833 53.5736 52.7004C53.493 52.6174 53.4281 52.5143 53.3811 52.3865C53.3341 52.261 53.3118 52.1085 53.3118 51.9292C53.3118 51.853 53.3162 51.7678 53.3274 51.6759C53.3386 51.584 53.3543 51.4831 53.3766 51.3777L53.4169 51.167C53.3274 51.2656 53.2357 51.3463 53.1462 51.4091C53.0567 51.4719 52.9694 51.519 52.8844 51.5526C52.7993 51.5862 52.7165 51.6109 52.6382 51.6221C52.5577 51.6355 52.4816 51.64 52.4078 51.64C52.2534 51.64 52.1146 51.6109 51.9871 51.5548C51.8618 51.4988 51.7544 51.4113 51.6693 51.2925C51.6044 51.5795 51.5127 51.8193 51.3986 52.0144C51.2845 52.2094 51.1569 52.3708 51.0204 52.4964C50.8839 52.6219 50.7407 52.7228 50.593 52.7923C50.4454 52.864 50.3044 52.9178 50.1724 52.9537L50.0448 53.5635C49.9844 53.8661 49.8971 54.1105 49.783 54.2965C49.6689 54.4826 49.5413 54.6283 49.4026 54.7337C49.2616 54.839 49.1162 54.9085 48.964 54.9444C48.8119 54.9803 48.6664 54.9982 48.5255 54.9982C48.3957 54.9982 48.2748 54.9803 48.1607 54.9466C48.0466 54.913 47.9482 54.8615 47.8631 54.7942C47.7781 54.7269 47.711 54.6418 47.6595 54.5386C47.608 54.4355 47.5834 54.3145 47.5834 54.1777C47.5834 54.0006 47.6259 53.8459 47.7087 53.7114C47.7915 53.5769 47.9012 53.4581 48.0309 53.3595C48.163 53.2586 48.3107 53.1734 48.474 53.1017C48.6373 53.0299 48.7985 52.9694 48.9573 52.9201L49.0603 52.4672C48.9708 52.5659 48.879 52.6466 48.7895 52.7093C48.7 52.7721 48.6105 52.8192 48.5255 52.8506C48.4404 52.8842 48.3576 52.9066 48.2793 52.9178C48.201 52.929 48.1227 52.9358 48.0488 52.9358C47.9235 52.9358 47.8049 52.9156 47.6953 52.8775C47.5857 52.8394 47.4894 52.7788 47.4089 52.6959C47.3283 52.6129 47.2634 52.5098 47.2165 52.382C47.1695 52.2565 47.1471 52.1041 47.1471 51.9247C47.1471 51.8485 47.1516 51.7633 47.1627 51.6714C47.1739 51.5795 47.1896 51.4786 47.212 51.3732L47.7848 48.6629H48.9998L48.3957 51.5346C48.38 51.6064 48.3711 51.6781 48.3711 51.7499C48.3711 51.7992 48.3755 51.8463 48.3845 51.8911C48.3934 51.9359 48.4069 51.974 48.4248 52.0077C48.4449 52.0413 48.4695 52.0704 48.5009 52.0906C48.5322 52.1108 48.5725 52.122 48.6217 52.122C48.6978 52.122 48.7716 52.1041 48.8387 52.0704C48.9059 52.0368 48.9663 51.9875 49.0222 51.927C49.0782 51.8642 49.1251 51.7924 49.1677 51.7073C49.2102 51.6221 49.2482 51.5302 49.2818 51.4315L49.8703 48.6674H51.0853L50.2507 52.586C50.3916 52.5367 50.5192 52.474 50.6355 52.3977C50.7519 52.3215 50.8571 52.2274 50.9511 52.113C51.045 51.9987 51.1256 51.8619 51.195 51.7028C51.2643 51.5436 51.3225 51.3531 51.365 51.1334L51.8662 48.6674H53.0813L52.7568 50.2389C52.7367 50.3151 52.7277 50.3936 52.7277 50.4743C52.7277 50.5707 52.7456 50.6514 52.7837 50.7186C52.8217 50.7859 52.8866 50.8195 52.9828 50.8195C53.1484 50.8195 53.2871 50.7523 53.4057 50.62C53.5221 50.4877 53.6049 50.3106 53.6496 50.0932L53.9495 48.6652H55.1645L54.5604 51.5369C54.5469 51.584 54.538 51.6288 54.5335 51.6759C54.529 51.7207 54.5268 51.7655 54.5268 51.8104C54.5268 51.9292 54.5536 52.0099 54.6096 52.0547C54.6655 52.0996 54.7528 52.122 54.8736 52.122C54.9564 52.122 55.0325 52.1041 55.0996 52.0659C55.1667 52.0278 55.2316 51.9763 55.2898 51.9113C55.348 51.8463 55.3972 51.7655 55.442 51.6736C55.4867 51.5817 55.5225 51.4808 55.5539 51.3755H55.9074H55.9052ZM48.8723 53.346C48.7627 53.3864 48.6575 53.4312 48.559 53.4805C48.4606 53.5276 48.3733 53.5814 48.2972 53.6397C48.2211 53.698 48.1607 53.7607 48.116 53.8325C48.0712 53.902 48.0488 53.9804 48.0488 54.0656C48.0488 54.0948 48.0533 54.1284 48.0645 54.1598C48.0757 54.1934 48.0936 54.2225 48.116 54.2494C48.1384 54.2763 48.1697 54.2988 48.2055 54.3145C48.2413 54.3302 48.2838 54.3391 48.333 54.3391C48.4203 54.3391 48.5098 54.2786 48.6038 54.1553C48.6955 54.032 48.7694 53.8437 48.8231 53.5881L48.8723 53.3438V53.346ZM59.4966 51.3755C59.378 51.5728 59.2437 51.7655 59.0915 51.9539C58.9394 52.1422 58.7671 52.3081 58.5769 52.4538C58.3867 52.5995 58.1741 52.7161 57.9436 52.8057C57.7132 52.8954 57.4581 52.9402 57.1806 52.9402C56.9792 52.9402 56.798 52.9156 56.6369 52.864C56.4758 52.8125 56.337 52.734 56.2207 52.6264C56.1043 52.5188 56.017 52.382 55.9544 52.2117C55.8917 52.0435 55.8626 51.8373 55.8626 51.5997C55.8626 51.4382 55.8783 51.2499 55.9119 51.0392C55.9454 50.8285 55.9969 50.611 56.0685 50.3868C56.1401 50.1649 56.2341 49.9452 56.3527 49.73C56.4713 49.5148 56.6145 49.3242 56.7801 49.1539C56.9457 48.9835 57.1448 48.849 57.3686 48.7459C57.5946 48.6427 57.8497 48.5912 58.1383 48.5912C58.3285 48.5912 58.4829 48.6136 58.6015 48.6584C58.7201 48.7033 58.8163 48.7638 58.8857 48.8378C58.9551 48.9118 59.0043 48.9969 59.0289 49.0956C59.0557 49.1942 59.0669 49.2951 59.0669 49.3982C59.0669 49.6426 59.0132 49.8712 58.9058 50.0797C58.7984 50.2905 58.6552 50.4743 58.4762 50.6312C58.2972 50.7881 58.0891 50.9137 57.8564 51.0101C57.6237 51.1065 57.3798 51.1625 57.1269 51.1782C57.1224 51.241 57.1157 51.3015 57.1135 51.3575C57.109 51.4136 57.1068 51.4674 57.1068 51.5167C57.1068 51.6602 57.1202 51.7768 57.1448 51.8687C57.1717 51.9606 57.2097 52.0323 57.2612 52.0861C57.3126 52.1377 57.3753 52.1758 57.4514 52.196C57.5274 52.2161 57.6147 52.2274 57.7176 52.2274C57.8855 52.2274 58.0376 52.2049 58.1719 52.1623C58.3084 52.1175 58.4337 52.057 58.5523 51.9808C58.6709 51.9045 58.7828 51.8126 58.8879 51.7095C58.9931 51.6041 59.1005 51.4943 59.2079 51.3755H59.4966ZM57.194 50.7769C57.3529 50.7657 57.5073 50.7209 57.655 50.6402C57.8027 50.5595 57.9347 50.4563 58.0466 50.3286C58.1585 50.2008 58.248 50.0551 58.3173 49.8914C58.3845 49.7278 58.418 49.5574 58.418 49.3825C58.418 49.2772 58.4024 49.1942 58.3733 49.1314C58.3419 49.0687 58.2882 49.0373 58.2077 49.0373C58.1003 49.0373 57.9951 49.0889 57.8922 49.192C57.7892 49.2951 57.693 49.4296 57.6013 49.5933C57.5118 49.7592 57.4312 49.9452 57.3596 50.1515C57.2903 50.3599 57.2343 50.5684 57.1918 50.7769H57.194ZM62.1146 47.9724C62.0833 47.9724 62.0586 47.9769 62.0385 47.9881C62.0184 47.9993 62.0072 48.0285 62.0072 48.0756C62.0072 48.098 62.0296 48.1361 62.0721 48.1921C62.1168 48.2482 62.1705 48.3177 62.2377 48.4029C62.3025 48.4881 62.3764 48.5889 62.4547 48.7033C62.533 48.8176 62.6046 48.9476 62.6718 49.0933C62.7389 49.2391 62.7926 49.3982 62.8373 49.5731C62.8821 49.7479 62.9022 49.9385 62.9022 50.1425C62.9022 50.3465 62.8821 50.5595 62.8396 50.7769C62.7993 50.9944 62.7389 51.2051 62.6606 51.4113C62.5822 51.6176 62.4838 51.8126 62.3674 51.9942C62.2511 52.178 62.1168 52.3372 61.9669 52.474C61.817 52.6107 61.6492 52.7205 61.4657 52.799C61.2822 52.8797 61.083 52.9178 60.8682 52.9178C60.6534 52.9178 60.4677 52.8887 60.2999 52.8326C60.132 52.7766 59.9911 52.6914 59.8747 52.5748C59.7584 52.4583 59.6711 52.3125 59.6084 52.131C59.5458 51.9516 59.5167 51.7364 59.5167 51.4898C59.5167 51.1715 59.5659 50.8554 59.6666 50.546C59.7673 50.2344 59.915 49.9564 60.1119 49.7098C60.3088 49.4632 60.5482 49.266 60.8347 49.1135C61.1211 48.9633 61.4478 48.8871 61.8192 48.8871C61.8483 48.8871 61.8752 48.8871 61.8975 48.8916C61.9199 48.8961 61.9423 48.8961 61.9624 48.8961C61.8505 48.7616 61.7342 48.636 61.6134 48.5217C61.4925 48.4051 61.3829 48.293 61.2822 48.1809C61.1815 48.0688 61.0987 47.9568 61.0338 47.8402C60.9689 47.7236 60.9354 47.5981 60.9354 47.4613C60.9354 47.2461 61.007 47.0892 61.1546 46.9883C61.3001 46.8874 61.5328 46.8381 61.8505 46.8381H63.5086C63.6071 46.8381 63.6854 46.8269 63.7481 46.8022C63.8107 46.7798 63.8577 46.7395 63.8913 46.6834C63.9248 46.6274 63.9562 46.5422 63.983 46.4301H64.3545C64.2851 46.7552 64.2135 47.0174 64.1396 47.217C64.0658 47.4187 63.9741 47.5734 63.8689 47.6855C63.7615 47.7976 63.6339 47.8716 63.484 47.9097C63.3341 47.9478 63.1506 47.968 62.9313 47.968H62.1213L62.1146 47.9724ZM61.1882 52.1623C61.3135 52.1623 61.4276 52.1175 61.5283 52.0278C61.629 51.9382 61.7163 51.8238 61.7924 51.6826C61.8684 51.5414 61.9311 51.3867 61.9848 51.2163C62.0363 51.0459 62.0788 50.88 62.1101 50.7164C62.1414 50.555 62.1661 50.4048 62.1795 50.268C62.1951 50.1313 62.2019 50.0304 62.2019 49.9609C62.2019 49.8511 62.1951 49.7592 62.1817 49.6874C62.1683 49.6134 62.1481 49.5574 62.1191 49.517C62.0922 49.4767 62.0586 49.4475 62.0184 49.4296C61.9781 49.4139 61.9333 49.4049 61.8796 49.4049C61.7454 49.4049 61.6245 49.4475 61.5149 49.5327C61.4075 49.6179 61.3113 49.7278 61.2262 49.86C61.1435 49.9945 61.0696 50.1425 61.0092 50.3061C60.9488 50.4698 60.8996 50.629 60.8593 50.7859C60.819 50.9428 60.7899 51.0885 60.772 51.223C60.7541 51.3575 60.7452 51.4607 60.7452 51.5324C60.7452 51.6557 60.7541 51.7588 60.7698 51.8395C60.7854 51.9202 60.8123 51.9852 60.8481 52.0323C60.8839 52.0794 60.9286 52.113 60.9846 52.131C61.0405 52.1489 61.1077 52.1579 61.186 52.1579L61.1882 52.1623ZM68.3039 51.3755C67.9503 52.4179 67.4267 52.938 66.7353 52.938C66.5652 52.938 66.4175 52.9133 66.2922 52.864C66.1669 52.8147 66.064 52.7474 65.9834 52.6667C65.9029 52.5838 65.8425 52.4896 65.8022 52.3798C65.7619 52.2722 65.7418 52.1601 65.7418 52.0435C65.7418 51.927 65.7597 51.77 65.7977 51.5683C65.8358 51.3665 65.8805 51.1311 65.9365 50.8599H65.0011L64.5693 52.8887H63.3542L64.247 48.6652H65.4621L65.0996 50.3555H66.0416L66.4243 48.6652H67.552L67.1067 50.7612C67.0441 51.0325 66.9926 51.2522 66.9568 51.4158C66.921 51.5795 66.9009 51.6961 66.9009 51.7678C66.9009 52.0054 67.0128 52.122 67.2388 52.122C67.3238 52.122 67.3976 52.1085 67.4603 52.0794C67.5229 52.0503 67.5811 52.0054 67.6348 51.9426C67.6885 51.8799 67.7377 51.8037 67.787 51.7095C67.834 51.6153 67.8877 51.5055 67.9458 51.3755H68.3039ZM73.1103 49.6807C72.9447 49.8533 72.7321 50.0013 72.4726 50.1223C72.2108 50.2434 71.9266 50.3308 71.6156 50.3824C71.582 50.7724 71.5081 51.1244 71.3918 51.4382C71.2754 51.7521 71.1278 52.0189 70.9487 52.2386C70.7697 52.4583 70.5661 52.6286 70.3356 52.7452C70.1052 52.864 69.8613 52.9223 69.6017 52.9223C69.407 52.9223 69.2258 52.8977 69.0602 52.8506C68.8946 52.8035 68.7514 52.725 68.6328 52.6197C68.5142 52.5143 68.4202 52.3753 68.3531 52.2072C68.286 52.039 68.2524 51.8328 68.2524 51.5907C68.2524 51.4248 68.2703 51.2387 68.3039 51.028C68.3374 50.8173 68.3934 50.6021 68.4694 50.3779C68.5455 50.1559 68.6417 49.9362 68.7626 49.7233C68.8812 49.5103 69.0266 49.3198 69.1989 49.1516C69.3712 48.9835 69.5681 48.849 69.7941 48.7459C70.0201 48.6427 70.2752 48.5912 70.5639 48.5912C71.2866 48.5912 71.6469 49.0418 71.6469 49.9407V49.9497C71.6603 49.9542 71.6737 49.9587 71.6849 49.9587H71.7364C71.8348 49.9587 71.9422 49.9452 72.0564 49.9161C72.1705 49.8869 72.2846 49.8488 72.401 49.8017C72.5151 49.7547 72.6292 49.7009 72.7388 49.6381C72.8485 49.5753 72.9492 49.5148 73.0387 49.4498L73.1125 49.6807H73.1103ZM70.9152 50.407C70.8279 50.3846 70.7675 50.342 70.7362 50.277C70.7048 50.212 70.6892 50.138 70.6892 50.0528C70.6892 49.934 70.7138 49.8376 70.7608 49.7614C70.8078 49.6852 70.8727 49.6291 70.9532 49.5933C70.9487 49.5036 70.9376 49.4251 70.9241 49.3646C70.9107 49.3041 70.8906 49.2525 70.866 49.2122C70.8413 49.1718 70.81 49.1449 70.7742 49.127C70.7362 49.1113 70.6892 49.1023 70.6332 49.1023C70.5325 49.1023 70.4341 49.1404 70.3401 49.2189C70.2461 49.2973 70.1589 49.4005 70.0738 49.5305C69.991 49.6605 69.9127 49.8085 69.8434 49.9744C69.774 50.1403 69.7136 50.3129 69.6643 50.4877C69.6151 50.6648 69.5771 50.8374 69.548 51.0101C69.5211 51.1827 69.5077 51.3374 69.5077 51.4786C69.5077 51.6198 69.5144 51.7319 69.5301 51.8216C69.5458 51.909 69.5704 51.9785 69.6039 52.0301C69.6375 52.0816 69.6822 52.1153 69.7382 52.1354C69.7941 52.1556 69.8613 52.1646 69.9396 52.1646C70.0403 52.1646 70.1432 52.1198 70.2461 52.0278C70.3491 51.9359 70.4453 51.8126 70.5325 51.6557C70.6198 51.4988 70.6981 51.3127 70.7653 51.0997C70.8324 50.8845 70.8816 50.6536 70.9152 50.407ZM75.1398 51.6893C75.0951 51.9337 75.0279 52.1354 74.934 52.2946C74.84 52.4538 74.7303 52.5816 74.6006 52.678C74.4708 52.7744 74.3298 52.8416 74.1732 52.8797C74.0165 52.9178 73.8532 52.938 73.6831 52.938C73.4862 52.938 73.3072 52.9133 73.1461 52.8618C72.985 52.8102 72.8485 52.7318 72.7344 52.6242C72.6203 52.5165 72.533 52.3798 72.4681 52.2094C72.4054 52.0413 72.3741 51.835 72.3741 51.5974C72.3741 51.436 72.3898 51.2477 72.4233 51.037C72.4569 50.8262 72.5084 50.6088 72.58 50.3846C72.6516 50.1627 72.7456 49.943 72.8642 49.7278C72.9828 49.5126 73.126 49.322 73.2915 49.1516C73.4571 48.9813 73.654 48.8467 73.88 48.7436C74.106 48.6405 74.3611 48.5889 74.6498 48.5889C74.84 48.5889 74.9944 48.6114 75.113 48.6562C75.2316 48.701 75.3278 48.7616 75.3972 48.8355C75.4665 48.9095 75.5157 48.9947 75.5404 49.0933C75.565 49.192 75.5784 49.2929 75.5784 49.396C75.5784 49.6403 75.5247 49.869 75.4173 50.0775C75.3099 50.2882 75.1667 50.472 74.9877 50.629C74.8087 50.7859 74.6006 50.9114 74.3678 51.0078C74.1351 51.1042 73.8912 51.1603 73.6384 51.176C73.6339 51.223 73.6272 51.2679 73.6249 51.3105C73.6205 51.3531 73.6182 51.3934 73.6182 51.4315C73.6182 51.566 73.6317 51.6781 73.6585 51.77C73.6854 51.8597 73.7234 51.9337 73.7704 51.9875C73.8174 52.0413 73.8711 52.0794 73.936 52.1018C74.0009 52.1242 74.068 52.1354 74.1418 52.1354C74.2246 52.1354 74.3097 52.122 74.3992 52.0973C74.4887 52.0727 74.5759 52.039 74.6632 51.9987C74.7505 51.9583 74.8333 51.909 74.9161 51.8575C74.9989 51.8059 75.0727 51.7476 75.1376 51.6871L75.1398 51.6893ZM73.6988 50.7769C73.8599 50.7724 74.0165 50.7276 74.1642 50.6469C74.3119 50.5662 74.4439 50.4608 74.558 50.333C74.6722 50.2053 74.7617 50.0595 74.8288 49.8937C74.8959 49.7278 74.9295 49.5574 74.9295 49.3825C74.9295 49.2772 74.9138 49.1942 74.8847 49.1314C74.8556 49.0687 74.7997 49.0373 74.7192 49.0373C74.6117 49.0373 74.5066 49.0911 74.4036 49.1965C74.3007 49.3018 74.2045 49.4386 74.115 49.6067C74.0255 49.7748 73.9449 49.9609 73.8733 50.1672C73.8017 50.3734 73.7413 50.5774 73.6988 50.7769ZM82.9894 49.6807C82.8238 49.8533 82.6113 50.0013 82.3517 50.1223C82.0899 50.2434 81.8057 50.3308 81.4947 50.3824C81.4611 50.7724 81.3873 51.1244 81.2709 51.4382C81.1546 51.7521 81.0069 52.0189 80.8279 52.2386C80.6489 52.4583 80.4452 52.6286 80.2148 52.7452C79.9843 52.864 79.7404 52.9223 79.4808 52.9223C79.2862 52.9223 79.1049 52.8977 78.9393 52.8506C78.7737 52.8035 78.6305 52.725 78.5119 52.6197C78.3933 52.5143 78.2994 52.3753 78.2322 52.2072C78.1651 52.039 78.1315 51.8328 78.1315 51.5907C78.1315 51.4248 78.1494 51.2387 78.183 51.028C78.2166 50.8173 78.2725 50.6021 78.3486 50.3779C78.4247 50.1559 78.5209 49.9362 78.6417 49.7233C78.7603 49.5103 78.9058 49.3198 79.0781 49.1516C79.2503 48.9835 79.4473 48.849 79.6733 48.7459C79.8993 48.6427 80.1544 48.5912 80.443 48.5912C81.1658 48.5912 81.526 49.0418 81.526 49.9407V49.9497C81.5394 49.9542 81.5529 49.9587 81.5641 49.9587H81.6155C81.714 49.9587 81.8214 49.9452 81.9355 49.9161C82.0496 49.8869 82.1637 49.8488 82.2801 49.8017C82.3942 49.7547 82.5083 49.7009 82.618 49.6381C82.7276 49.5753 82.8283 49.5148 82.9178 49.4498L82.9917 49.6807H82.9894ZM80.7943 50.407C80.707 50.3846 80.6466 50.342 80.6153 50.277C80.584 50.212 80.5683 50.138 80.5683 50.0528C80.5683 49.934 80.5929 49.8376 80.6399 49.7614C80.6869 49.6852 80.7518 49.6291 80.8324 49.5933C80.8279 49.5036 80.8167 49.4251 80.8033 49.3646C80.7898 49.3041 80.7697 49.2525 80.7451 49.2122C80.7205 49.1718 80.6891 49.1449 80.6533 49.127C80.6153 49.1113 80.5683 49.1023 80.5124 49.1023C80.4117 49.1023 80.3132 49.1404 80.2192 49.2189C80.1253 49.2973 80.038 49.4005 79.953 49.5305C79.8702 49.6605 79.7919 49.8085 79.7225 49.9744C79.6531 50.1403 79.5927 50.3129 79.5435 50.4877C79.4943 50.6648 79.4562 50.8374 79.4271 51.0101C79.4003 51.1827 79.3868 51.3374 79.3868 51.4786C79.3868 51.6198 79.3936 51.7319 79.4092 51.8216C79.4249 51.909 79.4495 51.9785 79.4831 52.0301C79.5166 52.0816 79.5614 52.1153 79.6173 52.1354C79.6733 52.1556 79.7404 52.1646 79.8187 52.1646C79.9194 52.1646 80.0223 52.1198 80.1253 52.0278C80.2282 51.9359 80.3244 51.8126 80.4117 51.6557C80.4989 51.4988 80.5773 51.3127 80.6444 51.0997C80.7115 50.8845 80.7608 50.6536 80.7943 50.407ZM84.8601 47.9747C84.8288 47.9747 84.8041 47.9792 84.784 47.9904C84.7639 48.0016 84.7527 48.0307 84.7527 48.0778C84.7527 48.1002 84.7751 48.1383 84.8176 48.1944C84.8623 48.2504 84.916 48.3199 84.9832 48.4051C85.048 48.4903 85.1219 48.5912 85.2002 48.7055C85.2785 48.8198 85.3501 48.9499 85.4173 49.0956C85.4844 49.2413 85.5381 49.4005 85.5828 49.5753C85.6276 49.7524 85.6477 49.9407 85.6477 50.1447C85.6477 50.3487 85.6276 50.5617 85.5851 50.7792C85.5448 50.9966 85.4844 51.2073 85.4061 51.4136C85.3277 51.6198 85.2293 51.8149 85.1129 51.9964C84.9966 52.1803 84.8623 52.3394 84.7124 52.4762C84.5625 52.6129 84.3947 52.7228 84.2112 52.8013C84.0277 52.882 83.8285 52.9201 83.6137 52.9201C83.3989 52.9201 83.2132 52.8909 83.0454 52.8349C82.8775 52.7788 82.7366 52.6936 82.6202 52.5771C82.5061 52.4605 82.4166 52.3148 82.3539 52.1332C82.2913 51.9539 82.2622 51.7386 82.2622 51.492C82.2622 51.1737 82.3114 50.8576 82.4121 50.5483C82.5128 50.2366 82.6605 49.9587 82.8574 49.7121C83.0543 49.4655 83.2937 49.2682 83.5802 49.1158C83.8666 48.9656 84.1933 48.8893 84.5647 48.8893C84.5938 48.8893 84.6207 48.8893 84.643 48.8938C84.6654 48.8961 84.6878 48.8983 84.7079 48.8983C84.596 48.7638 84.4797 48.6383 84.3589 48.5239C84.238 48.4096 84.1284 48.2953 84.0277 48.1832C83.927 48.0711 83.8442 47.959 83.7793 47.8424C83.7144 47.7258 83.6809 47.6003 83.6809 47.4636C83.6809 47.2484 83.7547 47.0914 83.9001 46.9905C84.0456 46.8897 84.2783 46.8403 84.596 46.8403H86.2541C86.3526 46.8403 86.4309 46.8291 86.4936 46.8045C86.5562 46.7821 86.6032 46.7417 86.6368 46.6857C86.6703 46.6296 86.7017 46.5444 86.7285 46.4323H87.1C87.0306 46.7574 86.959 47.0197 86.8851 47.2192C86.8113 47.4187 86.7196 47.5757 86.6144 47.6877C86.507 47.7998 86.3794 47.8738 86.2295 47.9119C86.0796 47.95 85.8961 47.9702 85.6768 47.9702H84.8668L84.8601 47.9747ZM83.9337 52.1646C84.059 52.1646 84.1731 52.1198 84.2738 52.0301C84.3745 51.9404 84.4618 51.8261 84.5379 51.6848C84.6139 51.5436 84.6766 51.3889 84.7303 51.2186C84.7818 51.0482 84.8243 50.8823 84.8556 50.7186C84.8869 50.5572 84.9116 50.407 84.925 50.2703C84.9406 50.1335 84.9474 50.0326 84.9474 49.9632C84.9474 49.8533 84.9406 49.7614 84.9272 49.6897C84.9138 49.6179 84.8937 49.5596 84.8646 49.5193C84.8377 49.4789 84.8041 49.4498 84.7639 49.4318C84.7236 49.4162 84.6788 49.4072 84.6251 49.4072C84.4909 49.4072 84.37 49.4498 84.2604 49.535C84.1508 49.6202 84.0568 49.73 83.9717 49.8623C83.889 49.9968 83.8151 50.1447 83.7547 50.3084C83.6943 50.472 83.6451 50.6312 83.6048 50.7881C83.5645 50.9451 83.5354 51.0908 83.5175 51.2253C83.4996 51.3598 83.4907 51.4629 83.4907 51.5346C83.4907 51.6579 83.4996 51.7611 83.5153 51.8418C83.5309 51.9225 83.5578 51.9875 83.5936 52.0346C83.6294 52.0816 83.6741 52.1153 83.7301 52.1332C83.786 52.1511 83.8532 52.1601 83.9315 52.1601L83.9337 52.1646ZM91.1612 49.6807C90.9957 49.8533 90.7831 50.0013 90.5235 50.1223C90.2617 50.2434 89.9775 50.3308 89.6665 50.3824C89.6329 50.7724 89.5591 51.1244 89.4428 51.4382C89.3264 51.7521 89.1787 52.0189 88.9997 52.2386C88.8207 52.4583 88.6171 52.6286 88.3866 52.7452C88.1561 52.864 87.9122 52.9223 87.6526 52.9223C87.458 52.9223 87.2767 52.8977 87.1111 52.8506C86.9456 52.8035 86.8024 52.725 86.6838 52.6197C86.5652 52.5143 86.4712 52.3753 86.4041 52.2072C86.3369 52.039 86.3034 51.8328 86.3034 51.5907C86.3034 51.4248 86.3213 51.2387 86.3548 51.028C86.3884 50.8173 86.4443 50.6021 86.5204 50.3779C86.5965 50.1559 86.6927 49.9362 86.8135 49.7233C86.9321 49.5103 87.0776 49.3198 87.2499 49.1516C87.4222 48.9835 87.6191 48.849 87.8451 48.7459C88.0711 48.6427 88.3262 48.5912 88.6148 48.5912C89.3376 48.5912 89.6978 49.0418 89.6978 49.9407V49.9497C89.7113 49.9542 89.7247 49.9587 89.7359 49.9587H89.7873C89.8858 49.9587 89.9932 49.9452 90.1073 49.9161C90.2214 49.8869 90.3356 49.8488 90.4519 49.8017C90.566 49.7547 90.6802 49.7009 90.7898 49.6381C90.8994 49.5753 91.0001 49.5148 91.0896 49.4498L91.1635 49.6807H91.1612ZM88.9661 50.407C88.8789 50.3846 88.8185 50.342 88.7871 50.277C88.7558 50.212 88.7401 50.138 88.7401 50.0528C88.7401 49.934 88.7647 49.8376 88.8117 49.7614C88.8587 49.6852 88.9236 49.6291 89.0042 49.5933C88.9997 49.5036 88.9885 49.4251 88.9751 49.3646C88.9617 49.3041 88.9415 49.2525 88.9169 49.2122C88.8923 49.1718 88.861 49.1449 88.8252 49.127C88.7871 49.1113 88.7401 49.1023 88.6842 49.1023C88.5835 49.1023 88.485 49.1404 88.3911 49.2189C88.2971 49.2973 88.2098 49.4005 88.1248 49.5305C88.042 49.6605 87.9637 49.8085 87.8943 49.9744C87.8249 50.1403 87.7645 50.3129 87.7153 50.4877C87.6661 50.6648 87.628 50.8374 87.5989 51.0101C87.5721 51.1827 87.5587 51.3374 87.5587 51.4786C87.5587 51.6198 87.5654 51.7319 87.581 51.8216C87.5967 51.909 87.6213 51.9785 87.6549 52.0301C87.6885 52.0816 87.7332 52.1153 87.7891 52.1354C87.8451 52.1556 87.9122 52.1646 87.9905 52.1646C88.0912 52.1646 88.1942 52.1198 88.2971 52.0278C88.4 51.9359 88.4962 51.8126 88.5835 51.6557C88.6708 51.4988 88.7491 51.3127 88.8162 51.0997C88.8833 50.8845 88.9326 50.6536 88.9661 50.407ZM89.7784 55.0027L91.1859 48.3535H92.4009L92.2644 48.988C92.3875 48.8826 92.5284 48.7974 92.6896 48.7279C92.8484 48.6584 93.0341 48.6248 93.249 48.6248C93.3922 48.6248 93.5264 48.6472 93.6517 48.6921C93.777 48.7369 93.8867 48.8109 93.9784 48.914C94.0702 49.0171 94.144 49.1539 94.1977 49.3242C94.2514 49.4946 94.2783 49.7053 94.2783 49.9542C94.2783 50.1447 94.2648 50.3487 94.2402 50.5707C94.2134 50.7926 94.1686 51.0145 94.106 51.2342C94.0433 51.4539 93.9605 51.6692 93.8576 51.8732C93.7547 52.0772 93.6271 52.2587 93.4727 52.4157C93.3183 52.5726 93.1371 52.6981 92.9267 52.7923C92.7164 52.8864 92.477 52.9335 92.204 52.9335C92.0966 52.9335 92.0026 52.9246 91.9243 52.9089C91.8437 52.8932 91.7766 52.8707 91.7207 52.8438C91.6647 52.8169 91.6177 52.7833 91.5797 52.7474C91.5416 52.7093 91.5126 52.6735 91.4879 52.6331L91.0516 54.6911L89.7806 54.996L89.7784 55.0027ZM91.6222 52.0121C91.6379 52.0592 91.6714 52.1018 91.7229 52.1444C91.7744 52.1848 91.846 52.2072 91.9422 52.2072C92.0899 52.2072 92.2219 52.1691 92.3382 52.0928C92.4546 52.0166 92.5553 51.9157 92.6426 51.7925C92.7298 51.6669 92.8037 51.5257 92.8641 51.3665C92.9245 51.2073 92.9737 51.0437 93.0118 50.8756C93.0498 50.7074 93.0789 50.5415 93.0968 50.3779C93.1147 50.2142 93.1237 50.0663 93.1237 49.934C93.1237 49.7726 93.108 49.6448 93.0789 49.5507C93.0476 49.4565 93.0118 49.387 92.9693 49.3399C92.9267 49.2929 92.8797 49.2637 92.8305 49.2503C92.7813 49.2368 92.7365 49.2323 92.6985 49.2323C92.6023 49.2323 92.5016 49.2682 92.3964 49.3377C92.2913 49.4072 92.1973 49.5126 92.119 49.6493L91.62 52.0121H91.6222ZM97.8697 53.5679C97.8092 53.8706 97.722 54.1149 97.6079 54.301C97.4937 54.4871 97.3662 54.6328 97.2275 54.7382C97.0865 54.8435 96.941 54.913 96.7889 54.9489C96.6367 54.9848 96.4913 55.0027 96.3503 55.0027C96.2205 55.0027 96.0997 54.9848 95.9856 54.9511C95.8715 54.9175 95.773 54.8659 95.688 54.7987C95.6029 54.7314 95.5358 54.6462 95.4843 54.5431C95.4329 54.44 95.4083 54.3189 95.4083 54.1822C95.4083 54.0051 95.4508 53.8504 95.5336 53.7159C95.6164 53.5814 95.726 53.4626 95.8558 53.3639C95.9856 53.2653 96.1355 53.1779 96.2988 53.1061C96.4622 53.0344 96.6233 52.9739 96.7822 52.9246L96.8851 52.4717C96.7956 52.5703 96.7039 52.6511 96.6143 52.7138C96.5226 52.7766 96.4353 52.8237 96.3503 52.8551C96.2653 52.8887 96.1825 52.9111 96.1042 52.9223C96.0236 52.9358 95.9475 52.9402 95.8737 52.9402C95.7484 52.9402 95.6298 52.9201 95.5202 52.882C95.4105 52.8438 95.3143 52.7833 95.2337 52.7004C95.1532 52.6174 95.0883 52.5143 95.0413 52.3865C94.9943 52.261 94.9719 52.1085 94.9719 51.9292C94.9719 51.853 94.9764 51.7678 94.9876 51.6759C94.9988 51.584 95.0144 51.4831 95.0368 51.3777L95.6097 48.6674H96.8247L96.2183 51.5391C96.2026 51.6109 96.1937 51.6826 96.1937 51.7543C96.1937 51.8037 96.1982 51.8507 96.2071 51.8956C96.2161 51.9404 96.2295 51.9785 96.2474 52.0121C96.2675 52.0458 96.2921 52.0749 96.3235 52.0951C96.3548 52.1153 96.3951 52.1265 96.4443 52.1265C96.5204 52.1265 96.5942 52.1085 96.6613 52.0749C96.7285 52.0413 96.7889 51.992 96.8448 51.9314C96.9008 51.8687 96.9478 51.7969 96.9903 51.7117C97.0328 51.6266 97.0708 51.5346 97.1044 51.436L97.6929 48.6719H98.9079L98.071 52.5905C98.2008 52.5457 98.3172 52.4941 98.4201 52.4314C98.5253 52.3686 98.6193 52.2901 98.7065 52.196C98.7938 52.1018 98.8721 51.9875 98.9415 51.8552C99.0109 51.723 99.0757 51.566 99.1339 51.38H99.4875C99.4024 51.6602 99.3017 51.8933 99.1854 52.0816C99.069 52.2677 98.9437 52.4224 98.8117 52.5412C98.6797 52.66 98.5432 52.7519 98.4045 52.8147C98.2657 52.8775 98.1292 52.9268 97.9972 52.9582L97.8697 53.5679ZM96.6971 53.3483C96.5875 53.3886 96.4823 53.4334 96.3839 53.4828C96.2854 53.5298 96.1982 53.5836 96.1221 53.6419C96.046 53.7002 95.9856 53.763 95.9408 53.8347C95.8961 53.9042 95.8737 53.9827 95.8737 54.0679C95.8737 54.097 95.8782 54.1306 95.8894 54.162C95.9005 54.1956 95.9185 54.2248 95.9408 54.2517C95.9632 54.2786 95.9945 54.301 96.0303 54.3167C96.0661 54.3324 96.1087 54.3414 96.1579 54.3414C96.2451 54.3414 96.3346 54.2808 96.4286 54.1575C96.5204 54.0342 96.5942 53.8459 96.6479 53.5904L96.6971 53.346V53.3483ZM102.564 53.5679C102.504 53.8706 102.417 54.1149 102.302 54.301C102.188 54.4871 102.061 54.6328 101.922 54.7382C101.783 54.8435 101.636 54.913 101.483 54.9489C101.331 54.9848 101.186 55.0027 101.045 55.0027C100.915 55.0027 100.794 54.9848 100.68 54.9511C100.566 54.9175 100.468 54.8659 100.383 54.7987C100.297 54.7314 100.23 54.6462 100.179 54.5431C100.127 54.44 100.103 54.3189 100.103 54.1822C100.103 54.0051 100.145 53.8504 100.228 53.7159C100.311 53.5814 100.421 53.4626 100.55 53.3639C100.68 53.2653 100.83 53.1779 100.993 53.1061C101.157 53.0344 101.318 52.9739 101.477 52.9246L101.58 52.4784C101.457 52.6107 101.311 52.7205 101.146 52.808C100.98 52.8954 100.788 52.9402 100.568 52.9402C100.423 52.9402 100.282 52.9178 100.148 52.8707C100.013 52.8237 99.8947 52.7475 99.7895 52.6398C99.6844 52.5322 99.6016 52.3932 99.5389 52.2184C99.4763 52.0458 99.445 51.8328 99.445 51.584C99.445 51.3912 99.4651 51.1849 99.5031 50.9652C99.5412 50.7455 99.6016 50.5258 99.6799 50.3061C99.7605 50.0864 99.8589 49.8757 99.9775 49.674C100.096 49.4722 100.237 49.2929 100.398 49.1382C100.559 48.9835 100.741 48.858 100.944 48.766C101.148 48.6741 101.372 48.627 101.615 48.627C101.859 48.627 102.027 48.6674 102.137 48.7503C102.244 48.8333 102.3 48.9342 102.3 49.0552V49.1045L102.39 48.6674H103.605L102.768 52.586C102.898 52.5412 103.014 52.4896 103.117 52.4269C103.222 52.3641 103.316 52.2856 103.403 52.1915C103.491 52.0973 103.569 51.983 103.638 51.8507C103.708 51.7185 103.773 51.5615 103.831 51.3755H104.184C104.099 51.6557 103.999 51.8888 103.882 52.0772C103.766 52.2632 103.641 52.4179 103.508 52.5367C103.376 52.6555 103.24 52.7474 103.101 52.8102C102.963 52.873 102.826 52.9223 102.694 52.9537L102.566 53.5635L102.564 53.5679ZM101.392 53.3483C101.282 53.3886 101.177 53.4334 101.078 53.4828C100.98 53.5298 100.893 53.5836 100.817 53.6419C100.741 53.7002 100.68 53.763 100.635 53.8347C100.591 53.9042 100.568 53.9827 100.568 54.0679C100.568 54.097 100.573 54.1306 100.584 54.162C100.595 54.1956 100.613 54.2248 100.635 54.2517C100.658 54.2786 100.689 54.301 100.725 54.3167C100.761 54.3324 100.803 54.3414 100.852 54.3414C100.94 54.3414 101.029 54.2808 101.123 54.1575C101.215 54.0342 101.289 53.8459 101.342 53.5904L101.392 53.346V53.3483ZM102.22 49.4632C102.22 49.4386 102.213 49.4072 102.204 49.3736C102.193 49.3377 102.175 49.3041 102.148 49.2704C102.121 49.2368 102.088 49.2099 102.043 49.1853C101.998 49.1628 101.942 49.1494 101.875 49.1494C101.756 49.1494 101.645 49.1875 101.539 49.266C101.434 49.3422 101.336 49.4453 101.248 49.5731C101.161 49.7009 101.083 49.8466 101.014 50.008C100.944 50.1694 100.886 50.3375 100.839 50.5101C100.792 50.6828 100.754 50.8509 100.729 51.0168C100.705 51.1827 100.691 51.3329 100.691 51.4651C100.691 51.6266 100.707 51.7521 100.736 51.8395C100.765 51.927 100.803 51.992 100.846 52.0346C100.888 52.0772 100.935 52.1018 100.984 52.1108C101.034 52.1198 101.078 52.1242 101.116 52.1242C101.175 52.1242 101.235 52.1108 101.302 52.0816C101.367 52.0525 101.434 52.0099 101.497 51.9561C101.562 51.9001 101.62 51.8328 101.671 51.7499C101.723 51.6669 101.763 51.5728 101.79 51.4651L102.217 49.4655L102.22 49.4632ZM108.988 49.6829C108.823 49.8555 108.61 50.0035 108.351 50.1246C108.089 50.2456 107.805 50.333 107.494 50.3846C107.46 50.7747 107.386 51.1266 107.27 51.4405C107.154 51.7543 107.006 52.0211 106.827 52.2408C106.648 52.4605 106.444 52.6309 106.214 52.7474C105.983 52.8663 105.739 52.9246 105.48 52.9246C105.285 52.9246 105.104 52.8999 104.938 52.8528C104.773 52.8057 104.63 52.7273 104.511 52.6219C104.392 52.5165 104.298 52.3776 104.231 52.2094C104.164 52.0413 104.131 51.835 104.131 51.5929C104.131 51.427 104.148 51.241 104.182 51.0302C104.216 50.8195 104.272 50.6043 104.348 50.3801C104.424 50.1582 104.52 49.9385 104.641 49.7255C104.759 49.5126 104.905 49.322 105.077 49.1539C105.249 48.9857 105.446 48.8512 105.672 48.7481C105.898 48.645 106.153 48.5934 106.442 48.5934C107.165 48.5934 107.525 49.044 107.525 49.943V49.9519C107.538 49.9564 107.552 49.9609 107.563 49.9609H107.615C107.713 49.9609 107.82 49.9475 107.935 49.9183C108.049 49.8892 108.163 49.8511 108.279 49.804C108.393 49.7569 108.507 49.7031 108.617 49.6403C108.727 49.5776 108.827 49.517 108.917 49.452L108.991 49.6829H108.988ZM106.793 50.4093C106.706 50.3869 106.646 50.3443 106.614 50.2792C106.583 50.2142 106.567 50.1403 106.567 50.0551C106.567 49.9363 106.592 49.8399 106.639 49.7636C106.686 49.6874 106.751 49.6314 106.831 49.5955C106.827 49.5058 106.816 49.4274 106.802 49.3668C106.789 49.3063 106.769 49.2547 106.744 49.2144C106.719 49.174 106.688 49.1471 106.652 49.1292C106.614 49.1135 106.567 49.1045 106.511 49.1045C106.411 49.1045 106.312 49.1427 106.218 49.2211C106.124 49.2996 106.037 49.4027 105.952 49.5327C105.869 49.6628 105.791 49.8107 105.722 49.9766C105.652 50.1425 105.592 50.3151 105.543 50.49C105.493 50.6671 105.455 50.8397 105.426 51.0123C105.399 51.1849 105.386 51.3396 105.386 51.4808C105.386 51.6221 105.393 51.7342 105.408 51.8238C105.424 51.9113 105.449 51.9808 105.482 52.0323C105.516 52.0839 105.56 52.1175 105.616 52.1377C105.672 52.1579 105.739 52.1668 105.818 52.1668C105.918 52.1668 106.021 52.122 106.124 52.0301C106.227 51.9382 106.323 51.8149 106.411 51.6579C106.498 51.501 106.576 51.3149 106.643 51.102C106.711 50.8868 106.76 50.6559 106.793 50.4093ZM113.045 49.6829C112.891 49.8488 112.689 49.9901 112.441 50.1089C112.193 50.2277 111.917 50.3151 111.615 50.3667C111.636 50.4294 111.647 50.4967 111.653 50.5639C111.658 50.6334 111.662 50.7074 111.662 50.7859C111.662 51.0639 111.618 51.3306 111.526 51.5884C111.434 51.8463 111.304 52.0727 111.13 52.2699C110.955 52.4672 110.747 52.6264 110.499 52.7452C110.25 52.864 109.969 52.9223 109.653 52.9223C109.411 52.9223 109.203 52.8842 109.026 52.808C108.85 52.7318 108.704 52.6264 108.59 52.4919C108.474 52.3574 108.389 52.196 108.335 52.0121C108.279 51.8261 108.252 51.6243 108.252 51.4046C108.252 51.2544 108.27 51.0684 108.304 50.8487C108.337 50.629 108.387 50.3913 108.449 50.1335C108.512 49.8757 108.59 49.609 108.684 49.3332C108.778 49.0575 108.881 48.7862 108.997 48.5217C109.112 48.2572 109.239 48.0038 109.38 47.764C109.519 47.5241 109.669 47.3156 109.828 47.134C109.986 46.9524 110.152 46.8112 110.327 46.7058C110.501 46.6005 110.68 46.5467 110.868 46.5467C111.009 46.5467 111.137 46.5691 111.251 46.6117C111.367 46.6543 111.463 46.7215 111.544 46.8134C111.624 46.9054 111.685 47.0242 111.73 47.1721C111.774 47.3201 111.794 47.4972 111.794 47.7057C111.794 47.885 111.772 48.0666 111.73 48.2504C111.685 48.4343 111.629 48.6158 111.562 48.7907C111.492 48.9678 111.419 49.1359 111.34 49.2951C111.26 49.4565 111.184 49.6 111.11 49.73C111.172 49.7592 111.231 49.795 111.28 49.8376C111.331 49.878 111.378 49.9273 111.425 49.9811C111.557 49.9811 111.694 49.9654 111.837 49.934C111.98 49.9026 112.119 49.8623 112.258 49.8107C112.394 49.7591 112.526 49.7031 112.649 49.6403C112.772 49.5776 112.88 49.5148 112.971 49.4498L113.05 49.6807L113.045 49.6829ZM110.819 50.5214C110.772 50.5371 110.729 50.5505 110.691 50.5595C110.653 50.5684 110.593 50.5729 110.515 50.5729C110.382 50.5729 110.277 50.537 110.197 50.4631C110.116 50.3913 110.078 50.2882 110.078 50.1559C110.078 50.0663 110.094 49.9878 110.123 49.9273C110.152 49.8668 110.195 49.8152 110.246 49.7771C110.297 49.739 110.36 49.7098 110.432 49.6897C110.503 49.6695 110.582 49.6583 110.667 49.6515C110.741 49.517 110.812 49.3668 110.884 49.2009C110.955 49.0351 111.016 48.8669 111.074 48.6921C111.13 48.5172 111.175 48.3423 111.208 48.1675C111.242 47.9926 111.257 47.8267 111.257 47.6698C111.257 47.4972 111.235 47.3761 111.193 47.3089C111.148 47.2416 111.078 47.208 110.982 47.208C110.89 47.208 110.801 47.2551 110.711 47.3515C110.622 47.4479 110.532 47.5779 110.447 47.7415C110.362 47.9052 110.28 48.0935 110.201 48.3087C110.121 48.5239 110.047 48.7481 109.977 48.9835C109.908 49.2189 109.845 49.4588 109.787 49.7009C109.731 49.9452 109.682 50.1761 109.642 50.3936C109.602 50.611 109.568 50.8105 109.548 50.9921C109.525 51.1715 109.514 51.3194 109.514 51.4315C109.514 51.5436 109.523 51.6423 109.543 51.7297C109.564 51.8194 109.593 51.8956 109.633 51.9606C109.673 52.0256 109.727 52.0749 109.792 52.1108C109.857 52.1467 109.935 52.1646 110.029 52.1646C110.165 52.1646 110.289 52.1287 110.398 52.057C110.508 51.9852 110.597 51.8933 110.671 51.779C110.745 51.6647 110.801 51.5369 110.839 51.3979C110.877 51.2567 110.897 51.1177 110.897 50.9809C110.897 50.7724 110.873 50.6178 110.823 50.5191L110.819 50.5214ZM117.371 51.38C117.29 51.6086 117.205 51.8059 117.111 51.974C117.017 52.1422 116.921 52.2834 116.82 52.4C116.719 52.5165 116.619 52.6085 116.514 52.6802C116.408 52.7519 116.308 52.8057 116.209 52.8461C116.111 52.8864 116.017 52.9111 115.925 52.9246C115.836 52.938 115.753 52.9447 115.679 52.9447C115.44 52.9447 115.249 52.8797 115.108 52.7497C114.967 52.6197 114.88 52.4269 114.851 52.1713C114.782 52.2677 114.708 52.3619 114.625 52.4538C114.542 52.5457 114.451 52.6286 114.35 52.7004C114.249 52.7744 114.135 52.8326 114.01 52.8775C113.884 52.9223 113.748 52.9447 113.596 52.9447C113.444 52.9447 113.309 52.9223 113.175 52.8752C113.041 52.8282 112.922 52.7519 112.817 52.6443C112.712 52.5367 112.629 52.3977 112.566 52.2229C112.504 52.0503 112.472 51.8373 112.472 51.5884C112.472 51.3957 112.493 51.1894 112.531 50.9697C112.569 50.75 112.629 50.5303 112.707 50.3106C112.788 50.0909 112.886 49.8802 113.005 49.6784C113.124 49.4767 113.265 49.2973 113.426 49.1427C113.587 48.988 113.768 48.8624 113.972 48.7705C114.175 48.6786 114.399 48.6315 114.643 48.6315C114.887 48.6315 115.055 48.6719 115.164 48.7548C115.272 48.8378 115.328 48.9387 115.328 49.0597V49.1225L115.417 48.6719H116.632L116.026 51.5436C116.012 51.5907 116.003 51.6355 115.997 51.6826C115.99 51.7274 115.988 51.7723 115.988 51.8171C115.988 52.0592 116.102 52.1803 116.335 52.1803C116.417 52.1803 116.493 52.1579 116.563 52.1153C116.632 52.0727 116.697 52.0166 116.755 51.9449C116.813 51.8732 116.863 51.788 116.907 51.6916C116.952 51.5929 116.988 51.492 117.019 51.3844H117.373L117.371 51.38ZM115.247 49.4744C115.247 49.4498 115.24 49.4184 115.231 49.3825C115.222 49.3467 115.202 49.3108 115.175 49.2749C115.149 49.2413 115.115 49.2122 115.07 49.1875C115.026 49.1651 114.97 49.1516 114.902 49.1516C114.784 49.1516 114.672 49.1897 114.567 49.2682C114.462 49.3444 114.363 49.4475 114.276 49.5753C114.189 49.7031 114.11 49.8488 114.041 50.0102C113.972 50.1716 113.913 50.3398 113.866 50.5124C113.819 50.685 113.781 50.8531 113.757 51.019C113.732 51.1849 113.719 51.3351 113.719 51.4674C113.719 51.6288 113.734 51.7543 113.764 51.8418C113.793 51.9292 113.831 51.9942 113.873 52.0368C113.916 52.0794 113.963 52.1041 114.012 52.113C114.061 52.122 114.106 52.1265 114.144 52.1265C114.207 52.1265 114.274 52.1108 114.343 52.0794C114.412 52.048 114.48 52.0009 114.544 51.9382C114.609 51.8754 114.668 51.7992 114.721 51.705C114.775 51.6109 114.815 51.5033 114.842 51.38L115.245 49.4744H115.247ZM122.067 51.38C121.714 52.4224 121.19 52.9425 120.499 52.9425C120.329 52.9425 120.181 52.9178 120.056 52.8685C119.93 52.8192 119.828 52.7519 119.747 52.6712C119.666 52.5883 119.606 52.4941 119.566 52.3843C119.525 52.2767 119.505 52.1646 119.505 52.048C119.505 51.9314 119.523 51.7745 119.561 51.5728C119.599 51.371 119.644 51.1356 119.7 50.8644H118.765L118.333 52.8932H117.118L118.011 48.6696H119.226L118.863 50.3599H119.805L120.188 48.6696H121.316L120.87 50.7657C120.808 51.037 120.756 51.2567 120.72 51.4203C120.682 51.584 120.664 51.7005 120.664 51.7723C120.664 52.0099 120.776 52.1265 121.002 52.1265C121.087 52.1265 121.161 52.113 121.224 52.0839C121.286 52.0547 121.345 52.0099 121.398 51.9471C121.452 51.8844 121.504 51.8081 121.55 51.714C121.597 51.6198 121.651 51.51 121.709 51.38H122.067ZM126.746 51.38C126.666 51.6086 126.581 51.8059 126.487 51.974C126.393 52.1422 126.296 52.2834 126.196 52.4C126.095 52.5165 125.994 52.6085 125.889 52.6802C125.784 52.7519 125.683 52.8057 125.585 52.8461C125.486 52.8864 125.392 52.9111 125.301 52.9246C125.211 52.938 125.128 52.9447 125.055 52.9447C124.813 52.9447 124.621 52.8775 124.477 52.7452C124.334 52.6129 124.249 52.4112 124.218 52.1444C124.11 52.317 124.003 52.456 123.893 52.5614C123.784 52.6667 123.674 52.7474 123.569 52.8057C123.461 52.864 123.359 52.9021 123.256 52.9201C123.155 52.938 123.059 52.947 122.971 52.947C122.846 52.947 122.727 52.9268 122.618 52.8887C122.508 52.8506 122.412 52.79 122.331 52.7071C122.251 52.6242 122.186 52.521 122.139 52.3932C122.092 52.2677 122.07 52.1153 122.07 51.9359C122.07 51.8597 122.074 51.7745 122.085 51.6826C122.096 51.5907 122.112 51.4898 122.135 51.3844L122.707 48.6741H123.922L123.316 51.5459C123.3 51.6333 123.291 51.714 123.291 51.7857C123.291 51.8821 123.309 51.9628 123.345 52.0301C123.381 52.0973 123.446 52.131 123.542 52.131C123.625 52.131 123.701 52.113 123.768 52.0749C123.837 52.0368 123.898 51.9852 123.956 51.9202C124.012 51.8552 124.061 51.7745 124.104 51.6826C124.146 51.5907 124.184 51.4898 124.218 51.3844L124.791 48.6741H126.006L125.399 51.5459C125.386 51.5929 125.377 51.6378 125.37 51.6848C125.366 51.7297 125.361 51.7745 125.361 51.8194C125.361 51.9382 125.388 52.0189 125.446 52.0637C125.502 52.1085 125.589 52.131 125.708 52.131C125.791 52.131 125.867 52.113 125.936 52.0749C126.006 52.0368 126.071 51.9852 126.129 51.9202C126.187 51.8552 126.236 51.7745 126.281 51.6826C126.326 51.5907 126.361 51.4898 126.393 51.3844H126.746V51.38ZM129.461 51.6938C129.416 51.9382 129.349 52.1399 129.255 52.2991C129.161 52.4583 129.051 52.586 128.921 52.6824C128.791 52.7788 128.65 52.8461 128.494 52.8842C128.337 52.9223 128.174 52.9425 128.004 52.9425C127.807 52.9425 127.628 52.9178 127.467 52.8663C127.306 52.8147 127.169 52.7362 127.055 52.6286C126.941 52.521 126.854 52.3843 126.789 52.2139C126.726 52.0458 126.695 51.8395 126.695 51.6019C126.695 51.4405 126.71 51.2522 126.744 51.0415C126.778 50.8307 126.829 50.6133 126.901 50.3891C126.972 50.1672 127.066 49.9475 127.185 49.7322C127.303 49.517 127.447 49.3265 127.612 49.1561C127.778 48.9857 127.975 48.8512 128.201 48.7481C128.427 48.645 128.682 48.5934 128.97 48.5934C129.161 48.5934 129.315 48.6158 129.434 48.6607C129.552 48.7055 129.648 48.766 129.718 48.84C129.787 48.914 129.836 48.9992 129.861 49.0978C129.886 49.1965 129.899 49.2973 129.899 49.4005C129.899 49.6448 129.845 49.8735 129.738 50.082C129.631 50.2927 129.487 50.4765 129.308 50.6334C129.129 50.7904 128.921 50.9159 128.689 51.0123C128.456 51.1087 128.212 51.1647 127.959 51.1804C127.955 51.2275 127.948 51.2724 127.946 51.3149C127.941 51.3575 127.939 51.3979 127.939 51.436C127.939 51.5705 127.952 51.6826 127.979 51.7745C128.006 51.8642 128.044 51.9382 128.091 51.992C128.138 52.0458 128.192 52.0839 128.257 52.1063C128.322 52.1287 128.389 52.1399 128.463 52.1399C128.545 52.1399 128.63 52.1265 128.72 52.1018C128.809 52.0772 128.897 52.0435 128.984 52.0032C129.071 51.9628 129.154 51.9135 129.237 51.8619C129.32 51.8104 129.393 51.7521 129.458 51.6916L129.461 51.6938ZM128.019 50.7814C128.181 50.7769 128.337 50.7321 128.485 50.6514C128.633 50.5707 128.765 50.4653 128.879 50.3375C128.993 50.2097 129.082 50.064 129.149 49.8981C129.217 49.7322 129.25 49.5619 129.25 49.387C129.25 49.2816 129.235 49.1987 129.205 49.1359C129.176 49.0732 129.12 49.0418 129.04 49.0418C128.932 49.0418 128.827 49.0956 128.724 49.2009C128.621 49.3063 128.525 49.4431 128.436 49.6112C128.346 49.7793 128.266 49.9654 128.194 50.1716C128.122 50.3779 128.062 50.5819 128.019 50.7814Z" fill="white"/>
</svg>
