<svg width="192" height="55" viewBox="0 0 192 55" fill="none" xmlns="http://www.w3.org/2000/svg">
<path d="M55.583 21.9095C43.2761 21.4611 36.5878 26.1442 33.5804 29.9799C29.7429 34.8715 25.9725 48.5127 39.4721 52.7721C55.6077 57.8632 70.7989 42.5339 72.739 34.2393C74.679 25.9447 67.9661 19.1453 67.9661 19.1453L59.0894 24.6758C59.0894 24.6758 60.3582 33.7169 65.6524 33.7169C65.5785 38.0503 63.7884 49.4094 48.5726 48.3625C36.9302 47.5622 33.661 32.5624 42.1573 27.5879C46.8563 24.3754 54.2405 24.3754 54.2405 24.3754L55.583 21.9095Z" fill="#FFC10E"/>
<path d="M75.7978 21.7615L82.4368 20.4164L81.3919 38.5009L84.4507 40.9669L80.4968 45.076C80.4968 45.076 75.1265 44.4775 75.4241 38.7251C75.7217 32.9726 75.7978 21.7615 75.7978 21.7615Z" fill="#29BBBC"/>
<path d="M101.007 28.785L99.8881 30.2803C99.8881 30.2803 102.871 31.4012 103.095 33.9411C103.661 38.1377 101.783 40.7472 99.7874 42.3007C97.373 44.1816 94.1799 44.8205 91.2486 43.9462C89.1542 43.3208 86.9837 41.8793 86.3102 38.6489C84.8938 31.8495 92.4256 28.785 92.4256 28.785H101.007ZM93.3252 31.251C93.3252 31.251 90.3424 34.1653 92.0564 37.2298C93.7727 40.2943 96.7554 40.9669 96.7554 40.9669C96.7554 40.9669 99.2168 38.4269 97.5006 34.6159C96.3079 31.5514 93.3229 31.2532 93.3229 31.2532L93.3252 31.251Z" fill="#D43E98"/>
<path d="M105.482 43.5068V34.5397C105.482 34.5397 108.541 28.637 110.852 28.2627C113.164 27.8883 115.254 28.785 115.254 28.785V21.5373L121.369 20.4164L120.848 41.7134L121.369 43.5068L114.806 45.076L115.104 37.454L109.136 44.334L105.482 43.5068ZM115.328 33.1946L111.076 31.9997V39.1734L115.328 33.1946Z" fill="#0DAF4A"/>
<path d="M123.533 33.5667V31.251L131.962 28.785L132.707 43.6548L126.368 44.7017V33.643L123.533 33.5667Z" fill="#FFC10E"/>
<path d="M128.865 26.5431C130.822 26.5431 132.408 25.1711 132.408 23.4786C132.408 21.7861 130.822 20.4141 128.865 20.4141C126.909 20.4141 125.323 21.7861 125.323 23.4786C125.323 25.1711 126.909 26.5431 128.865 26.5431Z" fill="#D43E98"/>
<path d="M136.288 44.3318V29.8297L142.329 28.7828V31.2487C142.329 31.2487 144.193 29.0809 145.983 28.7828C147.773 28.4846 150.608 29.6795 151.13 31.2487C152.546 28.8568 153.07 28.915 154.486 28.7357C155.903 28.5564 160.902 29.1549 160.902 31.9953V41.9331L154.562 45.8943L155.084 35.5821C155.084 35.5821 154.269 33.2215 152.846 31.9953C151.801 32.892 151.43 35.5821 151.43 35.5821V42.4756L145.961 45.8943V36.7411C145.961 36.7411 146.024 32.8561 143.786 31.9953C142.965 33.078 142.182 34.5733 142.182 34.5733L142.144 43.9888L136.288 44.3296V44.3318Z" fill="#29BBBC"/>
<path d="M142.745 19.3201H133.858C133.345 19.3201 132.931 18.9054 132.931 18.392V9.48767C132.931 8.9743 133.345 8.55957 133.858 8.55957H142.745C143.258 8.55957 143.672 8.9743 143.672 9.48767V18.392C143.672 18.9054 143.258 19.3201 142.745 19.3201ZM142.627 15.8521V10.5346C142.627 10.0212 142.213 9.60648 141.7 9.60648H136.393C135.88 9.60648 135.466 10.0212 135.466 10.5346V15.8521C135.466 16.3655 135.88 16.7802 136.393 16.7802H141.7C142.213 16.7802 142.627 16.3655 142.627 15.8521Z" fill="#0DAF4A"/>
<path d="M160.074 14.0878H152.976C152.463 14.0878 152.049 13.6731 152.049 13.1597V6.0488C152.049 5.53543 152.463 5.1207 152.976 5.1207H160.074C160.586 5.1207 161 5.53543 161 6.0488V13.1597C161 13.6731 160.586 14.0878 160.074 14.0878ZM154.162 8.16505V12.2877C154.162 12.8011 154.576 13.2158 155.088 13.2158H159.203C159.716 13.2158 160.13 12.8011 160.13 12.2877V8.16505C160.13 7.65168 159.716 7.23695 159.203 7.23695H155.088C154.576 7.23695 154.162 7.65168 154.162 8.16505Z" fill="#29BBBC"/>
<path d="M158.315 10.8574V21.5552C158.315 22.0685 157.901 22.4833 157.388 22.4833H146.711C146.198 22.4833 145.784 22.0685 145.784 21.5552V10.8574C145.784 10.344 146.198 9.92927 146.711 9.92927H157.388C157.901 9.92927 158.315 10.344 158.315 10.8574ZM154.43 11.151H147.928C147.415 11.151 147.001 11.5658 147.001 12.0791V18.5938C147.001 19.1071 147.415 19.5219 147.928 19.5219H154.43C154.943 19.5219 155.357 19.1071 155.357 18.5938V12.0791C155.357 11.5658 154.943 11.151 154.43 11.151Z" fill="#FFC10E"/>
<path d="M136.511 13.422V0.930785C136.511 0.417416 136.925 0.00268555 137.438 0.00268555H149.906C150.418 0.00268555 150.832 0.417416 150.832 0.930785V13.422C150.832 13.9354 150.418 14.3501 149.906 14.3501H137.438C136.925 14.3501 136.511 13.9354 136.511 13.422ZM140.819 12.9557H148.514C149.026 12.9557 149.44 12.541 149.44 12.0276V4.31812C149.44 3.80475 149.026 3.39002 148.514 3.39002H140.819C140.306 3.39002 139.892 3.80475 139.892 4.31812V12.0276C139.892 12.541 140.306 12.9557 140.819 12.9557Z" fill="#D43E98"/>
<path d="M85.9052 51.3755C85.8246 51.6041 85.7396 51.8014 85.6456 51.9696C85.5516 52.1377 85.4554 52.2789 85.3547 52.3955C85.254 52.5121 85.1533 52.604 85.0482 52.6757C84.943 52.7475 84.8423 52.8013 84.7438 52.8416C84.6454 52.8797 84.5514 52.9066 84.4597 52.9201C84.3702 52.9335 84.2874 52.9402 84.2135 52.9402C84.0882 52.9402 83.9696 52.9201 83.86 52.882C83.7503 52.8438 83.6541 52.7833 83.5736 52.7004C83.493 52.6174 83.4281 52.5143 83.3811 52.3865C83.3341 52.261 83.3118 52.1085 83.3118 51.9292C83.3118 51.853 83.3162 51.7678 83.3274 51.6759C83.3386 51.584 83.3543 51.4831 83.3766 51.3777L83.4169 51.167C83.3274 51.2656 83.2357 51.3463 83.1462 51.4091C83.0567 51.4719 82.9694 51.519 82.8844 51.5526C82.7993 51.5862 82.7165 51.6109 82.6382 51.6221C82.5577 51.6355 82.4816 51.64 82.4078 51.64C82.2534 51.64 82.1146 51.6109 81.9871 51.5548C81.8618 51.4988 81.7544 51.4113 81.6693 51.2925C81.6044 51.5795 81.5127 51.8193 81.3986 52.0144C81.2845 52.2094 81.1569 52.3708 81.0204 52.4964C80.8839 52.6219 80.7407 52.7228 80.593 52.7923C80.4454 52.864 80.3044 52.9178 80.1724 52.9537L80.0448 53.5635C79.9844 53.8661 79.8971 54.1105 79.783 54.2965C79.6689 54.4826 79.5413 54.6283 79.4026 54.7337C79.2616 54.839 79.1162 54.9085 78.964 54.9444C78.8119 54.9803 78.6664 54.9982 78.5255 54.9982C78.3957 54.9982 78.2748 54.9803 78.1607 54.9466C78.0466 54.913 77.9482 54.8615 77.8631 54.7942C77.7781 54.7269 77.711 54.6418 77.6595 54.5386C77.608 54.4355 77.5834 54.3145 77.5834 54.1777C77.5834 54.0006 77.6259 53.8459 77.7087 53.7114C77.7915 53.5769 77.9012 53.4581 78.0309 53.3595C78.163 53.2586 78.3107 53.1734 78.474 53.1017C78.6373 53.0299 78.7985 52.9694 78.9573 52.9201L79.0603 52.4672C78.9708 52.5659 78.879 52.6466 78.7895 52.7093C78.7 52.7721 78.6105 52.8192 78.5255 52.8506C78.4404 52.8842 78.3576 52.9066 78.2793 52.9178C78.201 52.929 78.1227 52.9358 78.0488 52.9358C77.9235 52.9358 77.8049 52.9156 77.6953 52.8775C77.5857 52.8394 77.4894 52.7788 77.4089 52.6959C77.3283 52.6129 77.2634 52.5098 77.2164 52.382C77.1695 52.2565 77.1471 52.1041 77.1471 51.9247C77.1471 51.8485 77.1516 51.7633 77.1628 51.6714C77.1739 51.5795 77.1896 51.4786 77.212 51.3732L77.7848 48.6629H78.9998L78.3957 51.5346C78.38 51.6064 78.3711 51.6781 78.3711 51.7499C78.3711 51.7992 78.3755 51.8463 78.3845 51.8911C78.3934 51.9359 78.4069 51.974 78.4248 52.0077C78.4449 52.0413 78.4695 52.0704 78.5009 52.0906C78.5322 52.1108 78.5725 52.122 78.6217 52.122C78.6978 52.122 78.7716 52.1041 78.8387 52.0704C78.9059 52.0368 78.9663 51.9875 79.0222 51.927C79.0782 51.8642 79.1251 51.7924 79.1677 51.7073C79.2102 51.6221 79.2482 51.5302 79.2818 51.4315L79.8703 48.6674H81.0853L80.2507 52.586C80.3916 52.5367 80.5192 52.474 80.6355 52.3977C80.7519 52.3215 80.8571 52.2274 80.9511 52.113C81.045 51.9987 81.1256 51.8619 81.195 51.7028C81.2643 51.5436 81.3225 51.3531 81.365 51.1334L81.8662 48.6674H83.0813L82.7568 50.2389C82.7367 50.3151 82.7277 50.3936 82.7277 50.4743C82.7277 50.5707 82.7456 50.6514 82.7837 50.7186C82.8217 50.7859 82.8866 50.8195 82.9828 50.8195C83.1484 50.8195 83.2871 50.7523 83.4057 50.62C83.5221 50.4877 83.6049 50.3106 83.6496 50.0932L83.9495 48.6652H85.1645L84.5604 51.5369C84.5469 51.584 84.538 51.6288 84.5335 51.6759C84.529 51.7207 84.5268 51.7655 84.5268 51.8104C84.5268 51.9292 84.5536 52.0099 84.6096 52.0547C84.6655 52.0996 84.7528 52.122 84.8736 52.122C84.9564 52.122 85.0325 52.1041 85.0996 52.0659C85.1667 52.0278 85.2316 51.9763 85.2898 51.9113C85.348 51.8463 85.3972 51.7655 85.442 51.6736C85.4867 51.5817 85.5225 51.4808 85.5539 51.3755H85.9074H85.9052ZM78.8723 53.346C78.7627 53.3864 78.6575 53.4312 78.559 53.4805C78.4606 53.5276 78.3733 53.5814 78.2972 53.6397C78.2211 53.698 78.1607 53.7607 78.116 53.8325C78.0712 53.902 78.0488 53.9804 78.0488 54.0656C78.0488 54.0948 78.0533 54.1284 78.0645 54.1598C78.0757 54.1934 78.0936 54.2225 78.116 54.2494C78.1384 54.2763 78.1697 54.2988 78.2055 54.3145C78.2413 54.3302 78.2838 54.3391 78.333 54.3391C78.4203 54.3391 78.5098 54.2786 78.6038 54.1553C78.6955 54.032 78.7694 53.8437 78.8231 53.5881L78.8723 53.3438V53.346ZM89.4966 51.3755C89.378 51.5728 89.2437 51.7655 89.0915 51.9539C88.9394 52.1422 88.7671 52.3081 88.5769 52.4538C88.3867 52.5995 88.1741 52.7161 87.9436 52.8057C87.7132 52.8954 87.4581 52.9402 87.1806 52.9402C86.9792 52.9402 86.798 52.9156 86.6369 52.864C86.4758 52.8125 86.337 52.734 86.2207 52.6264C86.1043 52.5188 86.017 52.382 85.9544 52.2117C85.8917 52.0435 85.8626 51.8373 85.8626 51.5997C85.8626 51.4382 85.8783 51.2499 85.9119 51.0392C85.9454 50.8285 85.9969 50.611 86.0685 50.3868C86.1401 50.1649 86.2341 49.9452 86.3527 49.73C86.4713 49.5148 86.6145 49.3242 86.7801 49.1539C86.9457 48.9835 87.1448 48.849 87.3686 48.7459C87.5946 48.6427 87.8497 48.5912 88.1383 48.5912C88.3285 48.5912 88.4829 48.6136 88.6015 48.6584C88.7201 48.7033 88.8163 48.7638 88.8857 48.8378C88.9551 48.9118 89.0043 48.9969 89.0289 49.0956C89.0557 49.1942 89.0669 49.2951 89.0669 49.3982C89.0669 49.6426 89.0132 49.8712 88.9058 50.0797C88.7984 50.2905 88.6552 50.4743 88.4762 50.6312C88.2972 50.7881 88.0891 50.9137 87.8564 51.0101C87.6237 51.1065 87.3798 51.1625 87.1269 51.1782C87.1224 51.241 87.1157 51.3015 87.1135 51.3575C87.109 51.4136 87.1068 51.4674 87.1068 51.5167C87.1068 51.6602 87.1202 51.7768 87.1448 51.8687C87.1717 51.9606 87.2097 52.0323 87.2612 52.0861C87.3126 52.1377 87.3753 52.1758 87.4514 52.196C87.5274 52.2161 87.6147 52.2274 87.7176 52.2274C87.8855 52.2274 88.0376 52.2049 88.1719 52.1623C88.3084 52.1175 88.4337 52.057 88.5523 51.9808C88.6709 51.9045 88.7828 51.8126 88.8879 51.7095C88.9931 51.6041 89.1005 51.4943 89.2079 51.3755H89.4966ZM87.194 50.7769C87.3529 50.7657 87.5073 50.7209 87.655 50.6402C87.8027 50.5595 87.9347 50.4563 88.0466 50.3286C88.1585 50.2008 88.248 50.0551 88.3173 49.8914C88.3845 49.7278 88.418 49.5574 88.418 49.3825C88.418 49.2772 88.4024 49.1942 88.3733 49.1314C88.3419 49.0687 88.2882 49.0373 88.2077 49.0373C88.1003 49.0373 87.9951 49.0889 87.8922 49.192C87.7892 49.2951 87.693 49.4296 87.6013 49.5933C87.5118 49.7592 87.4312 49.9452 87.3596 50.1515C87.2903 50.3599 87.2343 50.5684 87.1918 50.7769H87.194ZM92.1146 47.9724C92.0833 47.9724 92.0586 47.9769 92.0385 47.9881C92.0184 47.9993 92.0072 48.0285 92.0072 48.0756C92.0072 48.098 92.0296 48.1361 92.0721 48.1921C92.1168 48.2482 92.1705 48.3177 92.2377 48.4029C92.3025 48.4881 92.3764 48.5889 92.4547 48.7033C92.533 48.8176 92.6046 48.9476 92.6717 49.0933C92.7389 49.2391 92.7926 49.3982 92.8373 49.5731C92.8821 49.7479 92.9022 49.9385 92.9022 50.1425C92.9022 50.3465 92.8821 50.5595 92.8396 50.7769C92.7993 50.9944 92.7389 51.2051 92.6606 51.4113C92.5822 51.6176 92.4838 51.8126 92.3674 51.9942C92.2511 52.178 92.1168 52.3372 91.9669 52.474C91.817 52.6107 91.6492 52.7205 91.4657 52.799C91.2822 52.8797 91.083 52.9178 90.8682 52.9178C90.6534 52.9178 90.4677 52.8887 90.2999 52.8326C90.132 52.7766 89.9911 52.6914 89.8747 52.5748C89.7584 52.4583 89.6711 52.3125 89.6084 52.131C89.5458 51.9516 89.5167 51.7364 89.5167 51.4898C89.5167 51.1715 89.5659 50.8554 89.6666 50.546C89.7673 50.2344 89.915 49.9564 90.1119 49.7098C90.3088 49.4632 90.5482 49.266 90.8347 49.1135C91.1211 48.9633 91.4478 48.8871 91.8192 48.8871C91.8483 48.8871 91.8752 48.8871 91.8975 48.8916C91.9199 48.8961 91.9423 48.8961 91.9624 48.8961C91.8505 48.7616 91.7342 48.636 91.6134 48.5217C91.4925 48.4051 91.3829 48.293 91.2822 48.1809C91.1815 48.0688 91.0987 47.9568 91.0338 47.8402C90.9689 47.7236 90.9354 47.5981 90.9354 47.4613C90.9354 47.2461 91.007 47.0892 91.1546 46.9883C91.3001 46.8874 91.5328 46.8381 91.8505 46.8381H93.5086C93.6071 46.8381 93.6854 46.8269 93.7481 46.8022C93.8107 46.7798 93.8577 46.7395 93.8913 46.6834C93.9248 46.6274 93.9562 46.5422 93.983 46.4301H94.3545C94.2851 46.7552 94.2135 47.0174 94.1396 47.217C94.0658 47.4187 93.9741 47.5734 93.8689 47.6855C93.7615 47.7976 93.6339 47.8716 93.484 47.9097C93.3341 47.9478 93.1506 47.968 92.9313 47.968H92.1213L92.1146 47.9724ZM91.1882 52.1623C91.3135 52.1623 91.4276 52.1175 91.5283 52.0278C91.629 51.9382 91.7163 51.8238 91.7924 51.6826C91.8684 51.5414 91.9311 51.3867 91.9848 51.2163C92.0363 51.0459 92.0788 50.88 92.1101 50.7164C92.1414 50.555 92.166 50.4048 92.1795 50.268C92.1951 50.1313 92.2019 50.0304 92.2019 49.9609C92.2019 49.8511 92.1951 49.7592 92.1817 49.6874C92.1683 49.6134 92.1481 49.5574 92.1191 49.517C92.0922 49.4767 92.0586 49.4475 92.0184 49.4296C91.9781 49.4139 91.9333 49.4049 91.8796 49.4049C91.7454 49.4049 91.6245 49.4475 91.5149 49.5327C91.4075 49.6179 91.3113 49.7278 91.2262 49.86C91.1435 49.9945 91.0696 50.1425 91.0092 50.3061C90.9488 50.4698 90.8996 50.629 90.8593 50.7859C90.819 50.9428 90.7899 51.0885 90.772 51.223C90.7541 51.3575 90.7452 51.4607 90.7452 51.5324C90.7452 51.6557 90.7541 51.7588 90.7698 51.8395C90.7854 51.9202 90.8123 51.9852 90.8481 52.0323C90.8839 52.0794 90.9286 52.113 90.9846 52.131C91.0405 52.1489 91.1077 52.1579 91.186 52.1579L91.1882 52.1623ZM98.3039 51.3755C97.9503 52.4179 97.4267 52.938 96.7353 52.938C96.5652 52.938 96.4175 52.9133 96.2922 52.864C96.1669 52.8147 96.064 52.7474 95.9834 52.6667C95.9029 52.5838 95.8425 52.4896 95.8022 52.3798C95.7619 52.2722 95.7418 52.1601 95.7418 52.0435C95.7418 51.927 95.7597 51.77 95.7977 51.5683C95.8358 51.3665 95.8805 51.1311 95.9365 50.8599H95.0011L94.5693 52.8887H93.3542L94.247 48.6652H95.4621L95.0996 50.3555H96.0416L96.4243 48.6652H97.552L97.1067 50.7612C97.0441 51.0325 96.9926 51.2522 96.9568 51.4158C96.921 51.5795 96.9009 51.6961 96.9009 51.7678C96.9009 52.0054 97.0127 52.122 97.2388 52.122C97.3238 52.122 97.3976 52.1085 97.4603 52.0794C97.5229 52.0503 97.5811 52.0054 97.6348 51.9426C97.6885 51.8799 97.7377 51.8037 97.787 51.7095C97.834 51.6153 97.8877 51.5055 97.9458 51.3755H98.3039ZM103.11 49.6807C102.945 49.8533 102.732 50.0013 102.473 50.1223C102.211 50.2434 101.927 50.3308 101.616 50.3824C101.582 50.7724 101.508 51.1244 101.392 51.4382C101.275 51.7521 101.128 52.0189 100.949 52.2386C100.77 52.4583 100.566 52.6286 100.336 52.7452C100.105 52.864 99.8613 52.9223 99.6017 52.9223C99.407 52.9223 99.2258 52.8977 99.0602 52.8506C98.8946 52.8035 98.7514 52.725 98.6328 52.6197C98.5142 52.5143 98.4202 52.3753 98.3531 52.2072C98.286 52.039 98.2524 51.8328 98.2524 51.5907C98.2524 51.4248 98.2703 51.2387 98.3039 51.028C98.3374 50.8173 98.3934 50.6021 98.4695 50.3779C98.5455 50.1559 98.6417 49.9362 98.7626 49.7233C98.8812 49.5103 99.0266 49.3198 99.1989 49.1516C99.3712 48.9835 99.5681 48.849 99.7941 48.7459C100.02 48.6427 100.275 48.5912 100.564 48.5912C101.287 48.5912 101.647 49.0418 101.647 49.9407V49.9497C101.66 49.9542 101.674 49.9587 101.685 49.9587H101.736C101.835 49.9587 101.942 49.9452 102.056 49.9161C102.17 49.8869 102.285 49.8488 102.401 49.8017C102.515 49.7547 102.629 49.7009 102.739 49.6381C102.848 49.5753 102.949 49.5148 103.039 49.4498L103.113 49.6807H103.11ZM100.915 50.407C100.828 50.3846 100.767 50.342 100.736 50.277C100.705 50.212 100.689 50.138 100.689 50.0528C100.689 49.934 100.714 49.8376 100.761 49.7614C100.808 49.6852 100.873 49.6291 100.953 49.5933C100.949 49.5036 100.938 49.4251 100.924 49.3646C100.911 49.3041 100.891 49.2525 100.866 49.2122C100.841 49.1718 100.81 49.1449 100.774 49.127C100.736 49.1113 100.689 49.1023 100.633 49.1023C100.533 49.1023 100.434 49.1404 100.34 49.2189C100.246 49.2973 100.159 49.4005 100.074 49.5305C99.991 49.6605 99.9127 49.8085 99.8434 49.9744C99.774 50.1403 99.7136 50.3129 99.6643 50.4877C99.6151 50.6648 99.5771 50.8374 99.548 51.0101C99.5211 51.1827 99.5077 51.3374 99.5077 51.4786C99.5077 51.6198 99.5144 51.7319 99.5301 51.8216C99.5458 51.909 99.5704 51.9785 99.6039 52.0301C99.6375 52.0816 99.6822 52.1153 99.7382 52.1354C99.7941 52.1556 99.8613 52.1646 99.9396 52.1646C100.04 52.1646 100.143 52.1198 100.246 52.0278C100.349 51.9359 100.445 51.8126 100.533 51.6557C100.62 51.4988 100.698 51.3127 100.765 51.0997C100.832 50.8845 100.882 50.6536 100.915 50.407ZM105.14 51.6893C105.095 51.9337 105.028 52.1354 104.934 52.2946C104.84 52.4538 104.73 52.5816 104.601 52.678C104.471 52.7744 104.33 52.8416 104.173 52.8797C104.017 52.9178 103.853 52.938 103.683 52.938C103.486 52.938 103.307 52.9133 103.146 52.8618C102.985 52.8102 102.848 52.7318 102.734 52.6241C102.62 52.5165 102.533 52.3798 102.468 52.2094C102.405 52.0413 102.374 51.835 102.374 51.5974C102.374 51.436 102.39 51.2477 102.423 51.037C102.457 50.8262 102.508 50.6088 102.58 50.3846C102.652 50.1627 102.746 49.943 102.864 49.7278C102.983 49.5126 103.126 49.322 103.292 49.1516C103.457 48.9813 103.654 48.8467 103.88 48.7436C104.106 48.6405 104.361 48.5889 104.65 48.5889C104.84 48.5889 104.994 48.6114 105.113 48.6562C105.232 48.701 105.328 48.7616 105.397 48.8355C105.467 48.9095 105.516 48.9947 105.54 49.0933C105.565 49.192 105.578 49.2929 105.578 49.396C105.578 49.6403 105.525 49.869 105.417 50.0775C105.31 50.2882 105.167 50.472 104.988 50.629C104.809 50.7859 104.601 50.9114 104.368 51.0078C104.135 51.1042 103.891 51.1603 103.638 51.176C103.634 51.223 103.627 51.2679 103.625 51.3105C103.62 51.3531 103.618 51.3934 103.618 51.4315C103.618 51.566 103.632 51.6781 103.659 51.77C103.685 51.8597 103.723 51.9337 103.77 51.9875C103.817 52.0413 103.871 52.0794 103.936 52.1018C104.001 52.1242 104.068 52.1354 104.142 52.1354C104.225 52.1354 104.31 52.122 104.399 52.0973C104.489 52.0727 104.576 52.039 104.663 51.9987C104.75 51.9583 104.833 51.909 104.916 51.8575C104.999 51.8059 105.073 51.7476 105.138 51.6871L105.14 51.6893ZM103.699 50.7769C103.86 50.7724 104.017 50.7276 104.164 50.6469C104.312 50.5662 104.444 50.4608 104.558 50.333C104.672 50.2053 104.762 50.0595 104.829 49.8937C104.896 49.7278 104.929 49.5574 104.929 49.3825C104.929 49.2772 104.914 49.1942 104.885 49.1314C104.856 49.0687 104.8 49.0373 104.719 49.0373C104.612 49.0373 104.507 49.0911 104.404 49.1965C104.301 49.3018 104.204 49.4386 104.115 49.6067C104.025 49.7748 103.945 49.9609 103.873 50.1672C103.802 50.3734 103.741 50.5774 103.699 50.7769ZM112.989 49.6807C112.824 49.8533 112.611 50.0013 112.352 50.1223C112.09 50.2434 111.806 50.3308 111.495 50.3824C111.461 50.7724 111.387 51.1244 111.271 51.4382C111.155 51.7521 111.007 52.0189 110.828 52.2386C110.649 52.4583 110.445 52.6286 110.215 52.7452C109.984 52.864 109.74 52.9223 109.481 52.9223C109.286 52.9223 109.105 52.8977 108.939 52.8506C108.774 52.8035 108.631 52.725 108.512 52.6197C108.393 52.5143 108.299 52.3753 108.232 52.2072C108.165 52.039 108.132 51.8328 108.132 51.5907C108.132 51.4248 108.149 51.2387 108.183 51.028C108.217 50.8173 108.273 50.6021 108.349 50.3779C108.425 50.1559 108.521 49.9362 108.642 49.7233C108.76 49.5103 108.906 49.3198 109.078 49.1516C109.25 48.9835 109.447 48.849 109.673 48.7459C109.899 48.6427 110.154 48.5912 110.443 48.5912C111.166 48.5912 111.526 49.0418 111.526 49.9407V49.9497C111.539 49.9542 111.553 49.9587 111.564 49.9587H111.616C111.714 49.9587 111.821 49.9452 111.936 49.9161C112.05 49.8869 112.164 49.8488 112.28 49.8017C112.394 49.7547 112.508 49.7009 112.618 49.6381C112.728 49.5753 112.828 49.5148 112.918 49.4498L112.992 49.6807H112.989ZM110.794 50.407C110.707 50.3846 110.647 50.342 110.615 50.277C110.584 50.212 110.568 50.138 110.568 50.0528C110.568 49.934 110.593 49.8376 110.64 49.7614C110.687 49.6852 110.752 49.6291 110.832 49.5933C110.828 49.5036 110.817 49.4251 110.803 49.3646C110.79 49.3041 110.77 49.2525 110.745 49.2122C110.72 49.1718 110.689 49.1449 110.653 49.127C110.615 49.1113 110.568 49.1023 110.512 49.1023C110.412 49.1023 110.313 49.1404 110.219 49.2189C110.125 49.2973 110.038 49.4005 109.953 49.5305C109.87 49.6605 109.792 49.8085 109.722 49.9744C109.653 50.1403 109.593 50.3129 109.543 50.4877C109.494 50.6648 109.456 50.8374 109.427 51.0101C109.4 51.1827 109.387 51.3374 109.387 51.4786C109.387 51.6198 109.394 51.7319 109.409 51.8216C109.425 51.909 109.449 51.9785 109.483 52.0301C109.517 52.0816 109.561 52.1153 109.617 52.1354C109.673 52.1556 109.74 52.1646 109.819 52.1646C109.919 52.1646 110.022 52.1198 110.125 52.0278C110.228 51.9359 110.324 51.8126 110.412 51.6557C110.499 51.4988 110.577 51.3127 110.644 51.0997C110.712 50.8845 110.761 50.6536 110.794 50.407ZM114.86 47.9747C114.829 47.9747 114.804 47.9792 114.784 47.9904C114.764 48.0016 114.753 48.0307 114.753 48.0778C114.753 48.1002 114.775 48.1383 114.818 48.1944C114.862 48.2504 114.916 48.3199 114.983 48.4051C115.048 48.4903 115.122 48.5912 115.2 48.7055C115.279 48.8198 115.35 48.9499 115.417 49.0956C115.484 49.2413 115.538 49.4005 115.583 49.5753C115.628 49.7524 115.648 49.9407 115.648 50.1447C115.648 50.3487 115.628 50.5617 115.585 50.7792C115.545 50.9966 115.484 51.2073 115.406 51.4136C115.328 51.6198 115.229 51.8149 115.113 51.9964C114.997 52.1803 114.862 52.3394 114.712 52.4762C114.562 52.6129 114.395 52.7228 114.211 52.8013C114.028 52.882 113.829 52.9201 113.614 52.9201C113.399 52.9201 113.213 52.8909 113.045 52.8349C112.878 52.7788 112.737 52.6936 112.62 52.5771C112.506 52.4605 112.417 52.3148 112.354 52.1332C112.291 51.9539 112.262 51.7386 112.262 51.492C112.262 51.1737 112.311 50.8576 112.412 50.5483C112.513 50.2366 112.66 49.9587 112.857 49.7121C113.054 49.4655 113.294 49.2682 113.58 49.1158C113.867 48.9656 114.193 48.8893 114.565 48.8893C114.594 48.8893 114.621 48.8893 114.643 48.8938C114.665 48.8961 114.688 48.8983 114.708 48.8983C114.596 48.7638 114.48 48.6383 114.359 48.5239C114.238 48.4096 114.128 48.2953 114.028 48.1832C113.927 48.0711 113.844 47.959 113.779 47.8424C113.714 47.7258 113.681 47.6003 113.681 47.4636C113.681 47.2483 113.755 47.0914 113.9 46.9905C114.046 46.8897 114.278 46.8403 114.596 46.8403H116.254C116.353 46.8403 116.431 46.8291 116.494 46.8045C116.556 46.7821 116.603 46.7417 116.637 46.6857C116.67 46.6296 116.702 46.5444 116.729 46.4323H117.1C117.031 46.7574 116.959 47.0197 116.885 47.2192C116.811 47.4187 116.72 47.5756 116.614 47.6877C116.507 47.7998 116.379 47.8738 116.23 47.9119C116.08 47.95 115.896 47.9702 115.677 47.9702H114.867L114.86 47.9747ZM113.934 52.1646C114.059 52.1646 114.173 52.1198 114.274 52.0301C114.375 51.9404 114.462 51.8261 114.538 51.6848C114.614 51.5436 114.677 51.3889 114.73 51.2186C114.782 51.0482 114.824 50.8823 114.856 50.7186C114.887 50.5572 114.912 50.407 114.925 50.2703C114.941 50.1335 114.947 50.0326 114.947 49.9632C114.947 49.8533 114.941 49.7614 114.927 49.6897C114.914 49.6179 114.894 49.5596 114.865 49.5193C114.838 49.4789 114.804 49.4498 114.764 49.4319C114.724 49.4162 114.679 49.4072 114.625 49.4072C114.491 49.4072 114.37 49.4498 114.26 49.535C114.151 49.6202 114.057 49.73 113.972 49.8623C113.889 49.9968 113.815 50.1447 113.755 50.3084C113.694 50.472 113.645 50.6312 113.605 50.7881C113.564 50.9451 113.535 51.0908 113.518 51.2253C113.5 51.3598 113.491 51.4629 113.491 51.5346C113.491 51.6579 113.5 51.7611 113.515 51.8418C113.531 51.9225 113.558 51.9875 113.594 52.0346C113.629 52.0816 113.674 52.1153 113.73 52.1332C113.786 52.1511 113.853 52.1601 113.931 52.1601L113.934 52.1646ZM121.161 49.6807C120.996 49.8533 120.783 50.0013 120.524 50.1223C120.262 50.2434 119.978 50.3308 119.667 50.3824C119.633 50.7724 119.559 51.1244 119.443 51.4382C119.326 51.7521 119.179 52.0189 119 52.2386C118.821 52.4583 118.617 52.6286 118.387 52.7452C118.156 52.864 117.912 52.9223 117.653 52.9223C117.458 52.9223 117.277 52.8977 117.111 52.8506C116.946 52.8035 116.802 52.725 116.684 52.6197C116.565 52.5143 116.471 52.3753 116.404 52.2072C116.337 52.039 116.303 51.8328 116.303 51.5907C116.303 51.4248 116.321 51.2387 116.355 51.028C116.388 50.8173 116.444 50.6021 116.52 50.3779C116.596 50.1559 116.693 49.9362 116.814 49.7233C116.932 49.5103 117.078 49.3198 117.25 49.1516C117.422 48.9835 117.619 48.849 117.845 48.7459C118.071 48.6427 118.326 48.5912 118.615 48.5912C119.338 48.5912 119.698 49.0418 119.698 49.9407V49.9497C119.711 49.9542 119.725 49.9587 119.736 49.9587H119.787C119.886 49.9587 119.993 49.9452 120.107 49.9161C120.221 49.8869 120.336 49.8488 120.452 49.8017C120.566 49.7547 120.68 49.7009 120.79 49.6381C120.899 49.5753 121 49.5148 121.09 49.4498L121.163 49.6807H121.161ZM118.966 50.407C118.879 50.3846 118.818 50.342 118.787 50.277C118.756 50.212 118.74 50.138 118.74 50.0528C118.74 49.934 118.765 49.8376 118.812 49.7614C118.859 49.6852 118.924 49.6291 119.004 49.5933C119 49.5036 118.989 49.4251 118.975 49.3646C118.962 49.3041 118.942 49.2525 118.917 49.2122C118.892 49.1718 118.861 49.1449 118.825 49.127C118.787 49.1113 118.74 49.1023 118.684 49.1023C118.583 49.1023 118.485 49.1404 118.391 49.2189C118.297 49.2973 118.21 49.4005 118.125 49.5305C118.042 49.6605 117.964 49.8085 117.894 49.9744C117.825 50.1403 117.765 50.3129 117.715 50.4877C117.666 50.6648 117.628 50.8374 117.599 51.0101C117.572 51.1827 117.559 51.3374 117.559 51.4786C117.559 51.6198 117.565 51.7319 117.581 51.8216C117.597 51.909 117.621 51.9785 117.655 52.0301C117.688 52.0816 117.733 52.1153 117.789 52.1354C117.845 52.1556 117.912 52.1646 117.991 52.1646C118.091 52.1646 118.194 52.1198 118.297 52.0278C118.4 51.9359 118.496 51.8126 118.584 51.6557C118.671 51.4988 118.749 51.3127 118.816 51.0997C118.883 50.8845 118.933 50.6536 118.966 50.407ZM119.778 55.0027L121.186 48.3535H122.401L122.264 48.988C122.387 48.8826 122.528 48.7974 122.69 48.7279C122.848 48.6584 123.034 48.6248 123.249 48.6248C123.392 48.6248 123.526 48.6472 123.652 48.6921C123.777 48.7369 123.887 48.8109 123.978 48.914C124.07 49.0171 124.144 49.1539 124.198 49.3242C124.251 49.4946 124.278 49.7053 124.278 49.9542C124.278 50.1447 124.265 50.3487 124.24 50.5707C124.213 50.7926 124.169 51.0145 124.106 51.2342C124.043 51.4539 123.961 51.6692 123.858 51.8732C123.755 52.0772 123.627 52.2587 123.473 52.4157C123.318 52.5726 123.137 52.6981 122.927 52.7923C122.716 52.8864 122.477 52.9335 122.204 52.9335C122.097 52.9335 122.003 52.9246 121.924 52.9089C121.844 52.8932 121.777 52.8708 121.721 52.8438C121.665 52.8169 121.618 52.7833 121.58 52.7474C121.542 52.7093 121.513 52.6735 121.488 52.6331L121.052 54.6911L119.781 54.996L119.778 55.0027ZM121.622 52.0121C121.638 52.0592 121.671 52.1018 121.723 52.1444C121.774 52.1848 121.846 52.2072 121.942 52.2072C122.09 52.2072 122.222 52.1691 122.338 52.0928C122.455 52.0166 122.555 51.9157 122.643 51.7924C122.73 51.6669 122.804 51.5257 122.864 51.3665C122.925 51.2073 122.974 51.0437 123.012 50.8756C123.05 50.7074 123.079 50.5415 123.097 50.3779C123.115 50.2142 123.124 50.0663 123.124 49.934C123.124 49.7726 123.108 49.6448 123.079 49.5507C123.048 49.4565 123.012 49.387 122.969 49.3399C122.927 49.2929 122.88 49.2637 122.831 49.2503C122.781 49.2368 122.737 49.2323 122.699 49.2323C122.602 49.2323 122.502 49.2682 122.396 49.3377C122.291 49.4072 122.197 49.5126 122.119 49.6493L121.62 52.0121H121.622ZM127.87 53.5679C127.809 53.8706 127.722 54.1149 127.608 54.301C127.494 54.4871 127.366 54.6328 127.227 54.7382C127.086 54.8435 126.941 54.913 126.789 54.9489C126.637 54.9848 126.491 55.0027 126.35 55.0027C126.221 55.0027 126.1 54.9848 125.986 54.9511C125.871 54.9175 125.773 54.8659 125.688 54.7987C125.603 54.7314 125.536 54.6462 125.484 54.5431C125.433 54.44 125.408 54.3189 125.408 54.1822C125.408 54.0051 125.451 53.8504 125.534 53.7159C125.616 53.5814 125.726 53.4626 125.856 53.3639C125.986 53.2653 126.135 53.1779 126.299 53.1061C126.462 53.0344 126.623 52.9739 126.782 52.9246L126.885 52.4717C126.796 52.5704 126.704 52.6511 126.614 52.7138C126.523 52.7766 126.435 52.8237 126.35 52.8551C126.265 52.8887 126.182 52.9111 126.104 52.9223C126.024 52.9358 125.948 52.9402 125.874 52.9402C125.748 52.9402 125.63 52.9201 125.52 52.882C125.411 52.8438 125.314 52.7833 125.234 52.7004C125.153 52.6174 125.088 52.5143 125.041 52.3865C124.994 52.261 124.972 52.1085 124.972 51.9292C124.972 51.853 124.976 51.7678 124.988 51.6759C124.999 51.584 125.014 51.4831 125.037 51.3777L125.61 48.6674H126.825L126.218 51.5391C126.203 51.6109 126.194 51.6826 126.194 51.7543C126.194 51.8037 126.198 51.8507 126.207 51.8956C126.216 51.9404 126.229 51.9785 126.247 52.0121C126.268 52.0458 126.292 52.0749 126.323 52.0951C126.355 52.1153 126.395 52.1265 126.444 52.1265C126.52 52.1265 126.594 52.1085 126.661 52.0749C126.728 52.0413 126.789 51.992 126.845 51.9314C126.901 51.8687 126.948 51.7969 126.99 51.7117C127.033 51.6266 127.071 51.5346 127.104 51.436L127.693 48.6719H128.908L128.071 52.5905C128.201 52.5457 128.317 52.4941 128.42 52.4314C128.525 52.3686 128.619 52.2901 128.707 52.196C128.794 52.1018 128.872 51.9875 128.941 51.8552C129.011 51.723 129.076 51.566 129.134 51.38H129.487C129.402 51.6602 129.302 51.8933 129.185 52.0816C129.069 52.2677 128.944 52.4224 128.812 52.5412C128.68 52.66 128.543 52.7519 128.404 52.8147C128.266 52.8775 128.129 52.9268 127.997 52.9582L127.87 53.5679ZM126.697 53.3483C126.588 53.3886 126.482 53.4334 126.384 53.4828C126.285 53.5298 126.198 53.5836 126.122 53.6419C126.046 53.7002 125.986 53.763 125.941 53.8347C125.896 53.9042 125.874 53.9827 125.874 54.0679C125.874 54.097 125.878 54.1306 125.889 54.162C125.901 54.1956 125.918 54.2248 125.941 54.2517C125.963 54.2786 125.995 54.301 126.03 54.3167C126.066 54.3324 126.109 54.3414 126.158 54.3414C126.245 54.3414 126.335 54.2808 126.429 54.1575C126.52 54.0342 126.594 53.8459 126.648 53.5904L126.697 53.346V53.3483ZM132.564 53.5679C132.504 53.8706 132.417 54.1149 132.302 54.301C132.188 54.4871 132.061 54.6328 131.922 54.7382C131.783 54.8435 131.636 54.913 131.483 54.9489C131.331 54.9848 131.186 55.0027 131.045 55.0027C130.915 55.0027 130.794 54.9848 130.68 54.9511C130.566 54.9175 130.468 54.8659 130.383 54.7987C130.297 54.7314 130.23 54.6462 130.179 54.5431C130.127 54.44 130.103 54.3189 130.103 54.1822C130.103 54.0051 130.145 53.8504 130.228 53.7159C130.311 53.5814 130.421 53.4626 130.55 53.3639C130.68 53.2653 130.83 53.1779 130.993 53.1061C131.157 53.0344 131.318 52.9739 131.477 52.9246L131.58 52.4784C131.457 52.6107 131.311 52.7206 131.146 52.808C130.98 52.8954 130.788 52.9402 130.568 52.9402C130.423 52.9402 130.282 52.9178 130.148 52.8708C130.013 52.8237 129.895 52.7475 129.79 52.6398C129.684 52.5322 129.602 52.3932 129.539 52.2184C129.476 52.0458 129.445 51.8328 129.445 51.584C129.445 51.3912 129.465 51.1849 129.503 50.9652C129.541 50.7455 129.602 50.5258 129.68 50.3061C129.76 50.0864 129.859 49.8757 129.978 49.674C130.096 49.4722 130.237 49.2929 130.398 49.1382C130.559 48.9835 130.741 48.858 130.944 48.766C131.148 48.6741 131.372 48.627 131.615 48.627C131.859 48.627 132.027 48.6674 132.137 48.7503C132.244 48.8333 132.3 48.9342 132.3 49.0552V49.1045L132.39 48.6674H133.605L132.768 52.586C132.898 52.5412 133.014 52.4896 133.117 52.4269C133.222 52.3641 133.316 52.2856 133.403 52.1915C133.491 52.0973 133.569 51.983 133.638 51.8507C133.708 51.7185 133.773 51.5615 133.831 51.3755H134.184C134.099 51.6557 133.999 51.8888 133.882 52.0772C133.766 52.2632 133.641 52.4179 133.508 52.5367C133.376 52.6555 133.24 52.7474 133.101 52.8102C132.963 52.873 132.826 52.9223 132.694 52.9537L132.566 53.5635L132.564 53.5679ZM131.392 53.3483C131.282 53.3886 131.177 53.4334 131.078 53.4828C130.98 53.5298 130.893 53.5836 130.817 53.6419C130.741 53.7002 130.68 53.763 130.635 53.8347C130.591 53.9042 130.568 53.9827 130.568 54.0679C130.568 54.097 130.573 54.1306 130.584 54.162C130.595 54.1956 130.613 54.2248 130.635 54.2517C130.658 54.2786 130.689 54.301 130.725 54.3167C130.761 54.3324 130.803 54.3414 130.852 54.3414C130.94 54.3414 131.029 54.2808 131.123 54.1575C131.215 54.0342 131.289 53.8459 131.342 53.5904L131.392 53.346V53.3483ZM132.22 49.4632C132.22 49.4386 132.213 49.4072 132.204 49.3736C132.193 49.3377 132.175 49.3041 132.148 49.2704C132.121 49.2368 132.088 49.2099 132.043 49.1853C131.998 49.1628 131.942 49.1494 131.875 49.1494C131.756 49.1494 131.645 49.1875 131.539 49.266C131.434 49.3422 131.336 49.4453 131.248 49.5731C131.161 49.7009 131.083 49.8466 131.014 50.008C130.944 50.1694 130.886 50.3375 130.839 50.5101C130.792 50.6828 130.754 50.8509 130.729 51.0168C130.705 51.1827 130.691 51.3329 130.691 51.4651C130.691 51.6266 130.707 51.7521 130.736 51.8395C130.765 51.927 130.803 51.992 130.846 52.0346C130.888 52.0772 130.935 52.1018 130.984 52.1108C131.034 52.1198 131.078 52.1242 131.116 52.1242C131.175 52.1242 131.235 52.1108 131.302 52.0816C131.367 52.0525 131.434 52.0099 131.497 51.9561C131.562 51.9001 131.62 51.8328 131.671 51.7499C131.723 51.6669 131.763 51.5728 131.79 51.4651L132.217 49.4655L132.22 49.4632ZM138.988 49.6829C138.823 49.8555 138.61 50.0035 138.351 50.1246C138.089 50.2456 137.805 50.333 137.494 50.3846C137.46 50.7747 137.386 51.1266 137.27 51.4405C137.154 51.7543 137.006 52.0211 136.827 52.2408C136.648 52.4605 136.444 52.6309 136.214 52.7474C135.983 52.8663 135.739 52.9246 135.48 52.9246C135.285 52.9246 135.104 52.8999 134.938 52.8528C134.773 52.8057 134.63 52.7273 134.511 52.6219C134.392 52.5165 134.298 52.3776 134.231 52.2094C134.164 52.0413 134.131 51.835 134.131 51.5929C134.131 51.427 134.148 51.241 134.182 51.0302C134.216 50.8195 134.272 50.6043 134.348 50.3801C134.424 50.1582 134.52 49.9385 134.641 49.7255C134.759 49.5126 134.905 49.322 135.077 49.1539C135.249 48.9857 135.446 48.8512 135.672 48.7481C135.898 48.645 136.153 48.5934 136.442 48.5934C137.165 48.5934 137.525 49.044 137.525 49.943V49.9519C137.538 49.9564 137.552 49.9609 137.563 49.9609H137.615C137.713 49.9609 137.82 49.9475 137.935 49.9183C138.049 49.8892 138.163 49.8511 138.279 49.804C138.393 49.7569 138.507 49.7031 138.617 49.6403C138.727 49.5776 138.827 49.517 138.917 49.452L138.991 49.6829H138.988ZM136.793 50.4093C136.706 50.3869 136.646 50.3443 136.614 50.2792C136.583 50.2142 136.567 50.1403 136.567 50.0551C136.567 49.9363 136.592 49.8399 136.639 49.7636C136.686 49.6874 136.751 49.6314 136.831 49.5955C136.827 49.5058 136.816 49.4274 136.802 49.3668C136.789 49.3063 136.769 49.2547 136.744 49.2144C136.719 49.174 136.688 49.1471 136.652 49.1292C136.614 49.1135 136.567 49.1045 136.511 49.1045C136.411 49.1045 136.312 49.1427 136.218 49.2211C136.124 49.2996 136.037 49.4027 135.952 49.5327C135.869 49.6628 135.791 49.8107 135.722 49.9766C135.652 50.1425 135.592 50.3151 135.543 50.49C135.493 50.6671 135.455 50.8397 135.426 51.0123C135.399 51.1849 135.386 51.3396 135.386 51.4808C135.386 51.6221 135.393 51.7342 135.408 51.8238C135.424 51.9113 135.449 51.9808 135.482 52.0323C135.516 52.0839 135.56 52.1175 135.616 52.1377C135.672 52.1579 135.739 52.1668 135.818 52.1668C135.918 52.1668 136.021 52.122 136.124 52.0301C136.227 51.9382 136.323 51.8149 136.411 51.6579C136.498 51.501 136.576 51.3149 136.643 51.102C136.711 50.8868 136.76 50.6559 136.793 50.4093ZM143.045 49.6829C142.891 49.8488 142.689 49.9901 142.441 50.1089C142.193 50.2277 141.917 50.3151 141.615 50.3667C141.636 50.4294 141.647 50.4967 141.653 50.5639C141.658 50.6334 141.662 50.7074 141.662 50.7859C141.662 51.0639 141.618 51.3306 141.526 51.5884C141.434 51.8463 141.304 52.0727 141.13 52.2699C140.955 52.4672 140.747 52.6264 140.499 52.7452C140.25 52.864 139.969 52.9223 139.653 52.9223C139.411 52.9223 139.203 52.8842 139.026 52.808C138.85 52.7318 138.704 52.6264 138.59 52.4919C138.474 52.3574 138.389 52.196 138.335 52.0121C138.279 51.8261 138.252 51.6243 138.252 51.4046C138.252 51.2544 138.27 51.0684 138.304 50.8487C138.337 50.629 138.387 50.3913 138.449 50.1335C138.512 49.8757 138.59 49.609 138.684 49.3332C138.778 49.0575 138.881 48.7862 138.997 48.5217C139.112 48.2572 139.239 48.0038 139.38 47.764C139.519 47.5241 139.669 47.3156 139.828 47.134C139.986 46.9524 140.152 46.8112 140.327 46.7058C140.501 46.6005 140.68 46.5467 140.868 46.5467C141.009 46.5467 141.137 46.5691 141.251 46.6117C141.367 46.6543 141.463 46.7215 141.544 46.8134C141.624 46.9054 141.685 47.0242 141.73 47.1721C141.774 47.3201 141.794 47.4972 141.794 47.7057C141.794 47.885 141.772 48.0666 141.73 48.2504C141.685 48.4343 141.629 48.6158 141.562 48.7907C141.492 48.9678 141.419 49.1359 141.34 49.2951C141.26 49.4565 141.184 49.6 141.11 49.73C141.172 49.7592 141.231 49.795 141.28 49.8376C141.331 49.878 141.378 49.9273 141.425 49.9811C141.557 49.9811 141.694 49.9654 141.837 49.934C141.98 49.9026 142.119 49.8623 142.258 49.8107C142.394 49.7591 142.526 49.7031 142.649 49.6403C142.772 49.5776 142.88 49.5148 142.971 49.4498L143.05 49.6807L143.045 49.6829ZM140.819 50.5214C140.772 50.537 140.729 50.5505 140.691 50.5595C140.653 50.5684 140.593 50.5729 140.515 50.5729C140.382 50.5729 140.277 50.537 140.197 50.4631C140.116 50.3913 140.078 50.2882 140.078 50.1559C140.078 50.0663 140.094 49.9878 140.123 49.9273C140.152 49.8668 140.195 49.8152 140.246 49.7771C140.297 49.739 140.36 49.7098 140.432 49.6897C140.503 49.6695 140.582 49.6583 140.667 49.6515C140.741 49.517 140.812 49.3668 140.884 49.2009C140.955 49.0351 141.016 48.8669 141.074 48.6921C141.13 48.5172 141.175 48.3423 141.208 48.1675C141.242 47.9926 141.257 47.8267 141.257 47.6698C141.257 47.4972 141.235 47.3761 141.193 47.3089C141.148 47.2416 141.078 47.208 140.982 47.208C140.89 47.208 140.801 47.2551 140.711 47.3515C140.622 47.4479 140.532 47.5779 140.447 47.7415C140.362 47.9052 140.28 48.0935 140.201 48.3087C140.121 48.5239 140.047 48.7481 139.977 48.9835C139.908 49.2189 139.845 49.4588 139.787 49.7009C139.731 49.9452 139.682 50.1761 139.642 50.3936C139.602 50.611 139.568 50.8105 139.548 50.9921C139.525 51.1715 139.514 51.3194 139.514 51.4315C139.514 51.5436 139.523 51.6423 139.543 51.7297C139.564 51.8194 139.593 51.8956 139.633 51.9606C139.673 52.0256 139.727 52.0749 139.792 52.1108C139.857 52.1467 139.935 52.1646 140.029 52.1646C140.165 52.1646 140.289 52.1287 140.398 52.057C140.508 51.9852 140.597 51.8933 140.671 51.779C140.745 51.6647 140.801 51.5369 140.839 51.3979C140.877 51.2567 140.897 51.1177 140.897 50.9809C140.897 50.7724 140.873 50.6178 140.823 50.5191L140.819 50.5214ZM147.371 51.38C147.29 51.6086 147.205 51.8059 147.111 51.974C147.017 52.1422 146.921 52.2834 146.82 52.4C146.719 52.5165 146.619 52.6085 146.514 52.6802C146.408 52.7519 146.308 52.8057 146.209 52.8461C146.111 52.8864 146.017 52.9111 145.925 52.9246C145.836 52.938 145.753 52.9447 145.679 52.9447C145.44 52.9447 145.249 52.8797 145.108 52.7497C144.967 52.6197 144.88 52.4269 144.851 52.1713C144.782 52.2677 144.708 52.3619 144.625 52.4538C144.542 52.5457 144.451 52.6286 144.35 52.7004C144.249 52.7744 144.135 52.8326 144.01 52.8775C143.884 52.9223 143.748 52.9447 143.596 52.9447C143.444 52.9447 143.309 52.9223 143.175 52.8752C143.041 52.8282 142.922 52.7519 142.817 52.6443C142.712 52.5367 142.629 52.3977 142.566 52.2229C142.504 52.0503 142.472 51.8373 142.472 51.5884C142.472 51.3957 142.493 51.1894 142.531 50.9697C142.569 50.75 142.629 50.5303 142.707 50.3106C142.788 50.0909 142.886 49.8802 143.005 49.6784C143.124 49.4767 143.265 49.2973 143.426 49.1427C143.587 48.988 143.768 48.8624 143.972 48.7705C144.175 48.6786 144.399 48.6315 144.643 48.6315C144.887 48.6315 145.055 48.6719 145.164 48.7548C145.272 48.8378 145.328 48.9387 145.328 49.0597V49.1225L145.417 48.6719H146.632L146.026 51.5436C146.012 51.5907 146.003 51.6355 145.997 51.6826C145.99 51.7274 145.988 51.7723 145.988 51.8171C145.988 52.0592 146.102 52.1803 146.335 52.1803C146.417 52.1803 146.493 52.1579 146.563 52.1153C146.632 52.0727 146.697 52.0166 146.755 51.9449C146.813 51.8732 146.863 51.788 146.907 51.6916C146.952 51.5929 146.988 51.4921 147.019 51.3844H147.373L147.371 51.38ZM145.247 49.4744C145.247 49.4498 145.24 49.4184 145.231 49.3825C145.222 49.3467 145.202 49.3108 145.175 49.2749C145.149 49.2413 145.115 49.2122 145.07 49.1875C145.026 49.1651 144.97 49.1516 144.902 49.1516C144.784 49.1516 144.672 49.1897 144.567 49.2682C144.462 49.3444 144.363 49.4475 144.276 49.5753C144.189 49.7031 144.11 49.8488 144.041 50.0102C143.972 50.1716 143.913 50.3398 143.866 50.5124C143.819 50.685 143.781 50.8531 143.757 51.019C143.732 51.1849 143.719 51.3351 143.719 51.4674C143.719 51.6288 143.734 51.7543 143.764 51.8418C143.793 51.9292 143.831 51.9942 143.873 52.0368C143.916 52.0794 143.963 52.1041 144.012 52.113C144.061 52.122 144.106 52.1265 144.144 52.1265C144.207 52.1265 144.274 52.1108 144.343 52.0794C144.412 52.048 144.48 52.0009 144.544 51.9382C144.609 51.8754 144.668 51.7992 144.721 51.705C144.775 51.6109 144.815 51.5033 144.842 51.38L145.245 49.4744H145.247ZM152.067 51.38C151.714 52.4224 151.19 52.9425 150.499 52.9425C150.329 52.9425 150.181 52.9178 150.056 52.8685C149.93 52.8192 149.828 52.7519 149.747 52.6712C149.666 52.5883 149.606 52.4941 149.566 52.3843C149.525 52.2767 149.505 52.1646 149.505 52.048C149.505 51.9314 149.523 51.7745 149.561 51.5728C149.599 51.371 149.644 51.1356 149.7 50.8643H148.765L148.333 52.8932H147.118L148.011 48.6696H149.226L148.863 50.3599H149.805L150.188 48.6696H151.316L150.87 50.7657C150.808 51.037 150.756 51.2567 150.72 51.4203C150.682 51.584 150.664 51.7005 150.664 51.7723C150.664 52.0099 150.776 52.1265 151.002 52.1265C151.087 52.1265 151.161 52.113 151.224 52.0839C151.286 52.0547 151.345 52.0099 151.398 51.9471C151.452 51.8844 151.504 51.8081 151.55 51.714C151.597 51.6198 151.651 51.51 151.709 51.38H152.067ZM156.746 51.38C156.666 51.6086 156.581 51.8059 156.487 51.974C156.393 52.1422 156.297 52.2834 156.196 52.4C156.095 52.5165 155.994 52.6085 155.889 52.6802C155.784 52.7519 155.683 52.8057 155.585 52.8461C155.486 52.8864 155.392 52.9111 155.301 52.9246C155.211 52.938 155.128 52.9447 155.055 52.9447C154.813 52.9447 154.621 52.8775 154.477 52.7452C154.334 52.6129 154.249 52.4112 154.218 52.1444C154.11 52.317 154.003 52.456 153.893 52.5614C153.784 52.6667 153.674 52.7474 153.569 52.8057C153.461 52.864 153.358 52.9021 153.256 52.9201C153.155 52.938 153.059 52.947 152.971 52.947C152.846 52.947 152.727 52.9268 152.618 52.8887C152.508 52.8506 152.412 52.79 152.331 52.7071C152.251 52.6242 152.186 52.521 152.139 52.3932C152.092 52.2677 152.07 52.1153 152.07 51.9359C152.07 51.8597 152.074 51.7745 152.085 51.6826C152.096 51.5907 152.112 51.4898 152.135 51.3844L152.707 48.6741H153.922L153.316 51.5459C153.3 51.6333 153.291 51.714 153.291 51.7857C153.291 51.8821 153.309 51.9628 153.345 52.0301C153.381 52.0973 153.446 52.131 153.542 52.131C153.625 52.131 153.701 52.113 153.768 52.0749C153.837 52.0368 153.898 51.9852 153.956 51.9202C154.012 51.8552 154.061 51.7745 154.104 51.6826C154.146 51.5907 154.184 51.4898 154.218 51.3844L154.791 48.6741H156.006L155.399 51.5459C155.386 51.5929 155.377 51.6378 155.37 51.6848C155.366 51.7297 155.361 51.7745 155.361 51.8194C155.361 51.9382 155.388 52.0189 155.446 52.0637C155.502 52.1085 155.589 52.131 155.708 52.131C155.791 52.131 155.867 52.113 155.936 52.0749C156.006 52.0368 156.071 51.9852 156.129 51.9202C156.187 51.8552 156.236 51.7745 156.281 51.6826C156.326 51.5907 156.361 51.4898 156.393 51.3844H156.746V51.38ZM159.461 51.6938C159.416 51.9382 159.349 52.1399 159.255 52.2991C159.161 52.4583 159.051 52.586 158.921 52.6824C158.791 52.7788 158.65 52.8461 158.494 52.8842C158.337 52.9223 158.174 52.9425 158.004 52.9425C157.807 52.9425 157.628 52.9178 157.467 52.8663C157.306 52.8147 157.169 52.7362 157.055 52.6286C156.941 52.521 156.854 52.3843 156.789 52.2139C156.726 52.0458 156.695 51.8395 156.695 51.6019C156.695 51.4405 156.71 51.2522 156.744 51.0415C156.778 50.8307 156.829 50.6133 156.901 50.3891C156.972 50.1672 157.066 49.9475 157.185 49.7322C157.303 49.517 157.447 49.3265 157.612 49.1561C157.778 48.9857 157.975 48.8512 158.201 48.7481C158.427 48.645 158.682 48.5934 158.97 48.5934C159.161 48.5934 159.315 48.6158 159.434 48.6607C159.552 48.7055 159.648 48.766 159.718 48.84C159.787 48.914 159.836 48.9992 159.861 49.0978C159.886 49.1965 159.899 49.2973 159.899 49.4005C159.899 49.6448 159.845 49.8735 159.738 50.082C159.631 50.2927 159.487 50.4765 159.308 50.6334C159.129 50.7904 158.921 50.9159 158.689 51.0123C158.456 51.1087 158.212 51.1647 157.959 51.1804C157.955 51.2275 157.948 51.2724 157.946 51.3149C157.941 51.3575 157.939 51.3979 157.939 51.436C157.939 51.5705 157.952 51.6826 157.979 51.7745C158.006 51.8642 158.044 51.9382 158.091 51.992C158.138 52.0458 158.192 52.0839 158.257 52.1063C158.322 52.1287 158.389 52.1399 158.463 52.1399C158.545 52.1399 158.63 52.1265 158.72 52.1018C158.809 52.0772 158.897 52.0435 158.984 52.0032C159.071 51.9628 159.154 51.9135 159.237 51.8619C159.32 51.8104 159.393 51.7521 159.458 51.6916L159.461 51.6938ZM158.019 50.7814C158.181 50.7769 158.337 50.7321 158.485 50.6514C158.633 50.5707 158.765 50.4653 158.879 50.3375C158.993 50.2097 159.082 50.064 159.149 49.8981C159.217 49.7323 159.25 49.5619 159.25 49.387C159.25 49.2816 159.235 49.1987 159.205 49.1359C159.176 49.0732 159.12 49.0418 159.04 49.0418C158.932 49.0418 158.827 49.0956 158.724 49.2009C158.621 49.3063 158.525 49.4431 158.436 49.6112C158.346 49.7793 158.266 49.9654 158.194 50.1716C158.122 50.3779 158.062 50.5819 158.019 50.7814Z" fill="#373737"/>
</svg>
