<svg width="250" height="55" viewBox="0 0 250 55" fill="none" xmlns="http://www.w3.org/2000/svg">
<path d="M0.930903 37.0228C1.62441 38.2697 2.30247 39.5264 3.02264 40.7581C3.25006 41.1473 3.5912 41.4726 3.89303 41.8424C3.96463 41.7437 4.01657 41.6964 4.00814 41.6797C3.52522 40.7581 3.02685 39.8448 2.55375 38.9175C2.21823 38.2614 1.8406 37.6122 1.63003 36.9157C1.49806 36.4834 1.67494 35.9677 1.65388 35.4909C1.63423 35.0377 1.51771 34.9821 1.13446 35.0933C0.891596 34.0938 0.647329 33.0943 0.404463 32.0934C0.398847 32.0711 0.387616 32.0406 0.397442 32.0253C1.10919 30.991 0.146151 30.1972 0.00155434 29.2853C-0.00546491 29.2408 0.00717193 29.1936 0.126499 29.0337C0.146153 29.1685 0.165807 29.302 0.193884 29.4938C0.706289 28.6876 0.678212 28.1148 0.237403 27.613C0.168615 27.5351 0.150364 27.3641 0.181249 27.2571C0.485884 26.2117 0.664174 25.1663 0.508347 24.0654C0.452193 23.672 0.565903 23.2424 0.66698 22.8448C0.845269 22.1414 1.05023 21.445 1.28187 20.7568C1.70583 19.4974 2.21683 18.2643 2.58183 16.9896C3.06757 15.2964 3.65858 13.9299 4.67216 12.6899C4.78447 12.5537 5.11578 12.6023 5.24774 12.4703C5.59449 12.1227 5.94827 11.7571 6.18833 11.3373C6.51261 10.7701 6.64036 10.0765 7.02782 9.56767C7.37457 9.1117 7.90944 8.70301 8.44711 8.50561C9.10973 8.26372 9.12799 7.79803 9.24451 7.31565C9.19677 7.27256 9.15044 7.22807 9.10271 7.18498C7.88978 8.36103 6.67686 9.53848 5.46393 10.7145C5.43165 10.6881 5.39936 10.6617 5.36707 10.6367C5.43165 10.5324 5.47236 10.3948 5.56361 10.3267C6.70213 9.48565 7.06012 7.88978 8.39658 7.29758C9.32172 6.88749 9.84816 6.08816 10.6133 5.53628C10.9783 5.27216 11.3391 5.28189 11.7757 5.25687C12.2867 5.22628 12.7766 4.75642 13.2609 4.45615C13.355 4.39776 13.3592 4.19758 13.4532 4.1392C14.2885 3.62207 15.0873 3.00485 15.99 2.64203C17.5595 2.01091 19.1908 1.52436 20.808 1.01696C21.1393 0.912701 21.5268 0.976647 21.8876 0.976647C22.3368 0.976647 22.772 1.12261 23.1777 0.68889C23.3406 0.513733 23.8361 0.647186 24.1801 0.631894C24.4019 0.622164 24.6251 0.598531 24.8469 0.580459C24.8441 0.502612 24.8427 0.424765 24.8399 0.348307C24.2334 0.287142 23.6255 0.227366 23.0191 0.1662C23.0177 0.148128 23.0149 0.130056 23.0135 0.111985C23.8656 0.0730611 24.7205 -0.0256383 25.5699 0.0105051C26.429 0.0466485 27.2924 0.174541 28.1375 0.337186C28.9854 0.499832 29.8151 0.755616 30.6532 0.971087C30.6799 0.876558 30.7066 0.783419 30.7332 0.68889C30.3893 0.5888 30.0453 0.48732 29.7 0.387231L29.7435 0.156469C30.6995 0.326065 31.6682 0.447007 32.6088 0.681939C33.4427 0.889069 34.2457 1.21575 35.0571 1.5049C35.3365 1.60499 35.5737 1.64808 35.6944 2.08041C35.7815 2.39458 36.4455 2.55167 36.8512 2.77826C36.8891 2.7296 36.927 2.67956 36.9649 2.63091C36.8961 2.47521 36.8259 2.32091 36.7571 2.16521C36.7838 2.12351 36.8105 2.0818 36.8372 2.04149C37.7693 2.54194 38.7029 3.04378 39.635 3.54422C39.614 3.59427 39.5915 3.64292 39.5705 3.69297C39.2813 3.5901 38.9921 3.48584 38.7029 3.38297C38.6566 3.42606 38.6116 3.46916 38.5653 3.51225C45.1395 6.99453 49.5518 12.2061 51.6422 19.2722C51.5818 19.2694 51.52 19.268 51.4597 19.2652C51.3951 19.4779 51.2421 19.7059 51.2772 19.8991C51.5846 21.5534 51.9735 23.1924 52.2472 24.8522C52.5996 26.9805 53.0685 29.0837 52.82 31.2913C52.5027 34.1035 51.7503 36.767 50.5752 39.3262C48.1368 44.6351 44.4474 48.8556 39.315 51.754C35.7759 53.7516 31.9588 54.9485 27.861 55.0014C26.0331 55.025 24.2039 54.7233 22.3719 54.6302C20.8993 54.5551 19.4435 54.4259 18.0635 53.8879C17.443 53.646 16.8562 53.3165 16.2525 53.0288C15.0775 52.4672 13.887 51.9361 12.7359 51.33C12.3947 51.1507 12.1631 50.767 11.8809 50.4765C11.9273 50.4195 11.9736 50.3611 12.0199 50.3041C12.1926 50.3236 12.3653 50.343 12.6418 50.3736C10.8814 49.0599 9.22063 47.8199 7.55988 46.5786C7.50794 46.6425 7.45459 46.7051 7.40265 46.769C8.46396 47.6225 9.52386 48.4775 10.5852 49.331C10.5768 49.3769 10.5697 49.4228 10.5613 49.4686C10.3423 49.4464 10.0784 49.4923 9.91274 49.3866C9.36523 49.0377 8.80229 48.686 8.33762 48.2412C7.25525 47.2027 6.23044 46.1045 5.17053 45.0439C4.84484 44.7172 4.42228 44.4725 4.14432 44.1125C3.83688 43.7149 3.66981 43.2144 3.39747 42.7849C2.99456 42.1496 2.99878 41.2252 2.07785 40.9457C1.9852 40.9179 1.89956 40.7873 1.85885 40.6858C1.40681 39.5528 0.966002 38.4157 0.520982 37.28L0.502732 37.2883C0.748406 37.7304 0.992673 38.1738 1.23835 38.6159C1.29169 38.5909 1.34644 38.5658 1.39979 38.5394C1.24677 38.0251 1.09516 37.5121 0.94214 36.9978L0.925289 37.0172L0.930903 37.0228ZM10.4911 11.8002C10.9347 11.1608 11.6521 10.7104 11.7813 9.8443C11.8065 9.67749 12.1673 9.55516 12.3807 9.42448C12.5295 9.33413 12.712 9.28964 12.8412 9.17982C14.5033 7.76884 16.4463 6.87776 18.4945 6.17991C18.6517 6.12709 18.8061 6.06731 18.962 6.01032C18.8707 5.89911 18.7795 5.78651 18.6896 5.6753C18.166 5.88382 17.6451 6.0979 17.1187 6.30225C15.1688 7.05848 13.4125 8.12193 11.8571 9.51345C11.0485 10.2377 10.2132 10.9328 9.3905 11.6417C9.34698 11.5987 9.30487 11.5542 9.26135 11.5111C9.46631 11.2191 9.67127 10.9286 9.87624 10.6367C9.82289 10.5991 9.77095 10.5616 9.7176 10.5241C9.42981 10.848 8.88512 11.1844 8.90196 11.493C8.94829 12.3688 8.26602 12.701 7.87715 13.2599C7.30719 14.0773 6.79899 14.9378 6.17709 15.9178C6.57438 15.7399 6.97167 15.6676 6.99413 15.5327C7.11767 14.8015 7.76765 14.4679 8.1144 13.9188C8.71385 12.9707 9.573 12.334 10.515 11.778C10.3465 12.0226 10.2033 12.2909 10.0054 12.5106C8.32919 14.3664 7.07275 16.4905 5.95669 18.7036C5.8528 18.9094 5.87386 19.1763 5.83736 19.414C6.15884 19.1582 6.32449 18.8468 6.49857 18.541C7.07275 17.5331 7.57252 16.4711 8.24637 15.5313C9.3512 13.9925 10.5529 12.5217 12.1505 11.4263C12.2951 11.3276 12.3344 11.0774 12.4214 10.898C12.3793 10.8508 12.3358 10.8049 12.2937 10.7576C12.0255 10.848 11.7293 10.8939 11.4935 11.0384C11.1369 11.2581 10.8224 11.5444 10.4897 11.803L10.4911 11.8002ZM45.0778 26.6315C44.9641 25.3679 44.9641 24.0807 44.7156 22.8434C43.9505 19.0275 41.6257 16.1305 38.7843 13.6296C36.7164 11.81 34.3524 10.4129 31.6626 9.63717C28.174 8.63211 24.6658 7.93704 21.0902 9.22013C19.6007 9.75533 18.0873 10.2613 16.6765 10.962C15.6769 11.4582 14.8094 12.2326 13.9193 12.9276C12.0129 14.4178 10.428 16.1986 9.33716 18.3519C8.57908 19.8477 7.80134 21.3727 7.35352 22.9713C6.97167 24.3378 6.97869 25.8281 6.93517 27.2668C6.84392 30.2612 7.63148 33.111 8.97356 35.7369C9.98153 37.7109 11.2843 39.5431 13.1219 40.9555C14.9385 42.3512 16.786 43.6774 18.9774 44.4002C20.4514 44.8868 22.0013 45.1398 23.4894 45.5874C24.9662 46.0308 26.5413 45.3705 28.0238 46.1337C28.5039 46.3812 29.3715 46.06 29.9934 45.8237C31.028 45.4303 31.9953 44.8659 33.0145 44.4294C33.4764 44.2306 33.9972 44.1695 34.4885 44.0346C34.598 44.004 34.7033 43.9387 34.7918 43.8678C35.1947 43.5453 35.5639 43.1741 35.9935 42.8919C38.5288 41.2335 40.41 39.0051 42.1381 36.5446C44.2621 33.5197 45.1072 30.2348 45.0778 26.6329V26.6315ZM5.63942 20.0896C5.54255 20.1396 5.47938 20.1507 5.46674 20.1827C4.75359 21.8717 4.01797 23.558 4.0278 25.4374C4.0292 25.7627 4.15274 26.088 4.21872 26.4133C4.29453 26.4036 4.37034 26.3952 4.44615 26.3855C4.6104 25.3512 4.74937 24.3128 4.94451 23.2841C5.14385 22.2346 5.39655 21.1947 5.63942 20.0896ZM4.59355 26.9958C3.78072 28.0689 4.91784 34.1841 6.06338 35.2379C5.0512 32.5382 4.49809 29.9081 4.59355 26.9958ZM3.74282 24.2475C3.77651 24.2419 3.8102 24.2363 3.84249 24.2294C4.16678 23.0853 4.49106 21.9398 4.82237 20.7735C4.04464 21.1002 4.34086 22.2485 3.34412 22.5835C3.25849 23.2104 3.1518 24.0042 3.0437 24.7994C3.13635 24.8174 3.2276 24.8355 3.32026 24.8522C3.46486 24.2822 3.61085 23.7137 3.75545 23.1437C3.78353 23.1479 3.8116 23.1534 3.83827 23.1576C3.80599 23.5204 3.77371 23.8833 3.74142 24.2461L3.74282 24.2475ZM3.12091 36.5557C3.19531 36.5307 3.26972 36.507 3.34272 36.482C2.77837 34.6123 2.21402 32.7426 1.64967 30.8728C1.79848 32.8579 2.30106 34.7499 3.12091 36.5557ZM20.3447 6.82494C20.3237 6.75404 20.3026 6.68314 20.2816 6.61225C18.5941 6.80964 17.1636 7.65067 15.7584 8.56121C17.2872 7.98292 18.8159 7.40323 20.3447 6.82494ZM1.82375 24.7159C1.61879 23.1173 2.89348 21.7327 2.51023 20.1229C2.06942 21.6285 1.55983 23.1229 1.82375 24.7159ZM1.55842 28.6876C1.82235 28.2038 2.26315 27.8771 1.79006 27.3947C1.71846 27.3224 1.77321 27.1264 1.77321 26.9874C1.77321 26.6107 1.77321 26.234 1.77321 25.8711C0.783499 26.7191 1.2215 27.6491 1.55842 28.6876ZM6.41294 12.6454C7.42231 12.6552 8.22952 11.7669 8.10177 10.7979C7.53883 11.4138 6.97588 12.0296 6.41294 12.6454ZM4.24118 42.7279C4.91643 44.3154 5.29828 44.6602 6.19815 44.5017C5.61976 43.8664 5.22949 43.1269 4.24118 42.7279ZM19.0518 7.48386C18.1238 8.00933 17.3124 8.46946 16.501 8.92821C17.5848 9.02969 18.983 8.2665 19.0518 7.48386ZM22.3242 6.09512C22.341 6.22857 22.3593 6.36063 22.3761 6.49408C23.0977 6.38287 23.8193 6.27027 24.5408 6.15906L24.4987 5.81987C23.7743 5.91162 23.0486 6.00337 22.3242 6.09512ZM20.0864 7.44215C20.1384 7.5478 20.1903 7.65346 20.2423 7.75771C20.7743 7.50193 21.5268 7.72296 21.7991 6.91668C21.2278 7.09184 20.6578 7.267 20.0864 7.44215ZM3.05773 28.3859C3.1181 28.3845 3.17847 28.3831 3.23883 28.3817V25.924C3.17847 25.924 3.1181 25.924 3.05773 25.9254V28.3859ZM10.2707 13.9104C10.3423 13.9674 10.4139 14.023 10.4855 14.08C10.967 13.5254 11.4485 12.9707 11.9301 12.416C11.8627 12.3577 11.7939 12.2993 11.7265 12.2409C11.2408 12.7969 10.7565 13.3544 10.2707 13.9104ZM48.4596 14.315C48.3782 14.3608 48.2968 14.4067 48.2168 14.454C48.6042 15.0907 48.9931 15.7273 49.3806 16.364C49.4325 16.3334 49.4859 16.3042 49.5378 16.2737C49.1784 15.6203 48.819 14.9683 48.4596 14.315ZM11.2604 8.16363C11.2197 8.11498 11.179 8.06771 11.1383 8.01906C10.595 8.45139 10.0503 8.88372 9.50702 9.31605C9.56318 9.38278 9.61793 9.44812 9.67408 9.51484C10.2033 9.06444 10.7326 8.61404 11.2618 8.16363H11.2604ZM7.16821 46.3214C6.91692 46.0239 6.56737 45.6124 6.21921 45.2009C6.16025 45.2704 6.10128 45.34 6.04091 45.4095C6.46067 45.7487 6.88042 46.0878 7.16821 46.32V46.3214Z" fill="white"/>
<path d="M71.0511 36.1983V16.7364H78.0985C79.7452 16.7364 81.1589 16.9964 82.3381 17.5149C83.5173 18.0334 84.4256 18.7841 85.0616 19.7669C85.6975 20.7303 86.0162 21.9077 86.0162 23.2978C86.0162 24.688 85.6975 25.8182 85.0616 26.801C84.4256 27.7643 83.5173 28.515 82.3381 29.053C81.1589 29.5715 79.7452 29.8315 78.0985 29.8315H71.8373L72.4831 29.1642V36.1983H71.0511ZM84.6966 36.1983L79.5866 29.1364H81.215L86.325 36.1983H84.6966ZM72.4831 29.2476L71.8373 28.5803H78.0985C80.2141 28.5803 81.8145 28.1174 82.8996 27.1902C84.0045 26.263 84.5562 24.966 84.5562 23.2978C84.5562 21.6297 84.0045 20.3132 82.8996 19.4055C81.8145 18.4783 80.2141 18.0153 78.0985 18.0153H71.8373L72.4831 17.3203V29.2476ZM95.3307 25.6889H105.972V26.94H95.3307V25.6889ZM95.4992 34.9193H107.628V36.1983H94.0673V16.7364H107.207V18.0153H95.4992V34.9193ZM115.657 36.1983V16.7364H116.864L130.875 34.4467H130.229V16.7364H131.661V36.1983H130.482L116.443 18.488H117.089V36.1983H115.657ZM145.094 36.1983V18.0153H138.019V16.7364H153.602V18.0153H146.526V36.1983H145.094ZM168.025 36.3373C166.565 36.3373 165.207 36.0968 163.954 35.6144C162.718 35.114 161.633 34.4189 160.697 33.5292C159.78 32.6215 159.068 31.5733 158.563 30.3875C158.058 29.1823 157.805 27.8755 157.805 26.4673C157.805 25.0591 158.058 23.7608 158.563 22.575C159.068 21.3697 159.78 20.323 160.697 19.4333C161.633 18.5255 162.718 17.8305 163.954 17.3481C165.207 16.8476 166.565 16.5974 168.025 16.5974C169.485 16.5974 170.833 16.8476 172.068 17.3481C173.322 17.8305 174.408 18.5158 175.325 19.4055C176.242 20.2952 176.953 21.3419 177.459 22.5472C177.982 23.733 178.245 25.0397 178.245 26.4673C178.245 27.895 177.982 29.2101 177.459 30.4153C176.953 31.6011 176.242 32.6395 175.325 33.5292C174.408 34.4189 173.322 35.114 172.068 35.6144C170.833 36.0968 169.485 36.3373 168.025 36.3373ZM168.025 35.0305C169.279 35.0305 170.44 34.8179 171.506 34.3911C172.573 33.9643 173.5 33.3624 174.286 32.5839C175.072 31.8054 175.68 30.8977 176.111 29.8593C176.56 28.8208 176.785 27.6907 176.785 26.4673C176.785 25.244 176.56 24.0944 176.111 23.0754C175.68 22.037 175.072 21.1292 174.286 20.3508C173.5 19.5723 172.573 18.9704 171.506 18.5436C170.44 18.1168 169.279 17.9041 168.025 17.9041C166.771 17.9041 165.61 18.1168 164.543 18.5436C163.476 18.9704 162.54 19.5723 161.736 20.3508C160.949 21.1292 160.332 22.037 159.883 23.0754C159.452 24.0944 159.237 25.226 159.237 26.4673C159.237 27.7087 159.452 28.8208 159.883 29.8593C160.332 30.8977 160.949 31.8054 161.736 32.5839C162.54 33.3624 163.476 33.9643 164.543 34.3911C165.61 34.8179 166.771 35.0305 168.025 35.0305ZM193.713 36.3373C191.28 36.3373 189.361 35.6325 187.957 34.2243C186.553 32.8161 185.851 30.7211 185.851 27.9409V16.7364H187.283V27.8853C187.283 30.3138 187.844 32.1113 188.968 33.279C190.091 34.4467 191.681 35.0305 193.741 35.0305C195.8 35.0305 197.363 34.4467 198.486 33.279C199.609 32.1113 200.17 30.3138 200.17 27.8853V16.7364H201.602V27.9409C201.602 30.7211 200.9 32.8161 199.496 34.2243C198.093 35.6325 196.165 36.3373 193.713 36.3373ZM219.402 36.3373C217.942 36.3373 216.584 36.0968 215.33 35.6144C214.095 35.114 213.018 34.4189 212.102 33.5292C211.185 32.6395 210.473 31.6011 209.968 30.4153C209.462 29.2101 209.21 27.895 209.21 26.4673C209.21 25.0397 209.462 23.733 209.968 22.5472C210.473 21.3419 211.185 20.2952 212.102 19.4055C213.038 18.5158 214.123 17.8305 215.358 17.3481C216.594 16.8476 217.942 16.5974 219.402 16.5974C220.862 16.5974 222.079 16.8198 223.276 17.2647C224.493 17.7095 225.532 18.3865 226.393 19.2943L225.494 20.2118C224.652 19.3957 223.716 18.8119 222.687 18.4602C221.676 18.089 220.599 17.9041 219.458 17.9041C218.204 17.9041 217.033 18.1168 215.948 18.5436C214.881 18.9704 213.945 19.5723 213.14 20.3508C212.354 21.1292 211.737 22.037 211.287 23.0754C210.856 24.1138 210.642 25.244 210.642 26.4673C210.642 27.6907 210.856 28.8208 211.287 29.8593C211.737 30.8977 212.354 31.8054 213.14 32.5839C213.945 33.3624 214.881 33.9643 215.948 34.3911C217.033 34.8179 218.204 35.0305 219.458 35.0305C220.599 35.0305 221.676 34.854 222.687 34.5023C223.716 34.1311 224.652 33.5292 225.494 32.6951L226.393 33.6126C225.532 34.5204 224.493 35.2071 223.276 35.67C222.079 36.1148 220.787 36.3373 219.402 36.3373ZM248.568 16.7364H250V36.1983H248.568V16.7364ZM235.428 36.1983H233.996V16.7364H235.428V36.1983ZM248.737 26.94H235.259V25.6889H248.737V26.94Z" fill="white"/>
</svg>
