<svg width="250" height="25" viewBox="0 0 250 25" fill="none" xmlns="http://www.w3.org/2000/svg">
<path d="M249.999 12.493C249.999 14.0998 248.587 15.4092 246.839 15.4092H240.527V21.2346C240.527 22.8413 239.115 24.1507 237.367 24.1507C235.618 24.1507 234.215 22.8484 234.215 21.2346V15.4092H227.902C226.161 15.4092 224.743 14.1069 224.743 12.493C224.743 10.8792 226.154 9.57685 227.902 9.57685H234.215V3.75154C234.215 2.1448 235.626 0.835345 237.367 0.835345C239.108 0.835345 240.527 2.13772 240.527 3.75154V9.57685H246.839C248.58 9.57685 249.999 10.8792 249.999 12.493Z" fill="#58687C"/>
<path d="M2.70604 4.99717C1.21046 4.99717 -0.00134277 3.87882 -0.00134277 2.49858C-0.00134277 1.11835 1.21046 0 2.70604 0H35.2637C36.7593 0 37.9711 1.11835 37.9711 2.49858C37.9711 3.87882 36.7593 4.99717 35.2637 4.99717H21.6961V22.5014C21.6961 23.8817 20.4843 25 18.9887 25C17.4931 25 16.2813 23.8817 16.2813 22.5014V4.99717H2.70604Z" fill="#58687C"/>
<path d="M125.743 0C127.238 0 128.45 1.11835 128.45 2.49858V14.9986C128.45 17.9785 127.146 20.5974 124.776 22.374C122.491 24.0869 119.262 25 115.45 25H103.485C99.6734 25 96.4445 24.094 94.159 22.374C91.789 20.5974 90.4852 17.9785 90.4852 14.9986V2.49858C90.4852 1.11835 91.697 0 93.1926 0C94.6882 0 95.9 1.11835 95.9 2.49858V14.9986C95.9 16.485 96.4599 17.66 97.572 18.4952C98.8835 19.479 100.924 19.9958 103.485 19.9958H115.45C118.004 19.9958 120.052 19.479 121.363 18.4952C122.475 17.66 123.035 16.485 123.035 14.9986V2.49858C123.035 1.11835 124.247 0 125.743 0Z" fill="#58687C"/>
<path d="M138.789 22.3811C136.419 20.6045 135.115 17.9856 135.115 15.0057V10.0085C135.115 7.0286 136.419 4.40968 138.789 2.63307C141.074 0.906002 144.303 0 148.115 0H170.372C171.868 0 173.08 1.11835 173.08 2.49858C173.08 3.87882 171.868 4.99717 170.372 4.99717H148.115C145.561 4.99717 143.513 5.51387 142.202 6.49774C141.09 7.33296 140.53 8.50793 140.53 9.99434V14.9915C140.53 16.4779 141.09 17.6529 142.202 18.4881C143.513 19.472 145.553 19.9887 148.115 19.9887H170.372C171.868 19.9887 173.08 21.107 173.08 22.4873C173.08 23.8675 171.868 24.9858 170.372 24.9858H148.115C144.303 24.9858 141.074 24.0798 138.789 22.3599V22.3811Z" fill="#58687C"/>
<path d="M178.924 22.5014V2.49858C178.924 1.11835 180.136 0 181.631 0C183.127 0 184.339 1.11835 184.339 2.49858V10.0014H211.474V2.49858C211.474 1.11835 212.686 0 214.181 0C215.677 0 216.889 1.11835 216.889 2.49858V22.5014C216.889 23.8817 215.677 25 214.181 25C212.686 25 211.474 23.8817 211.474 22.5014V14.9986H184.339V22.5014C184.339 23.8817 183.127 25 181.631 25C180.136 25 178.924 23.8817 178.924 22.5014Z" fill="#58687C"/>
<path d="M79.3105 2.62599C77.0249 0.91308 73.796 0 69.9842 0H58.0195C54.2077 0 50.9788 0.906002 48.6932 2.62599C46.3233 4.40261 45.0195 7.02152 45.0195 10.0014V14.9986C45.0195 17.9785 46.3233 20.5974 48.6932 22.374C50.8638 24.002 53.8856 24.8938 57.4443 24.9788C57.7971 24.0232 58.38 23.1172 59.2083 22.3528L60.0597 21.5671C60.1287 21.5034 60.1594 21.4255 60.1594 21.3406V13.0946C60.1594 11.7568 61.3405 10.6668 62.7901 10.6668C64.2396 10.6668 65.4208 11.7568 65.4208 13.0946V16.5841C65.8042 16.3788 66.2567 16.2585 66.7399 16.2585C67.8827 16.2585 68.8644 16.938 69.2249 17.8865C69.6467 17.6246 70.1453 17.4759 70.6898 17.4759C71.8326 17.4759 72.8143 18.1554 73.1748 19.1039C73.5966 18.842 74.0951 18.6934 74.6397 18.6934C76.0892 18.6934 77.2704 19.7834 77.2704 21.1212V23.5773C78.0067 23.2375 78.6892 22.8412 79.3028 22.3811C81.6727 20.6045 82.9766 17.9856 82.9766 15.0057V10.0085C82.9766 7.0286 81.6727 4.40968 79.3028 2.63307L79.3105 2.62599ZM74.2102 16.6195C73.3358 15.7772 72.1087 15.2676 70.7972 15.2676C70.7742 15.2676 70.7588 15.2676 70.7358 15.2676C70.3677 15.2676 70.0149 15.1614 69.7158 14.949C69.409 14.7296 69.0638 14.5456 68.7034 14.404C68.8414 13.9298 68.9181 13.4343 68.9181 12.9176C68.9181 9.69705 65.9883 7.09938 62.4603 7.27633C59.3157 7.43205 56.7771 9.8457 56.685 12.7548C56.639 14.2271 57.2066 15.5719 58.1729 16.5982V19.9462C58.1729 20.2293 58.0502 20.5054 57.8355 20.7036C57.2833 21.2132 56.8077 21.7724 56.4166 22.374C53.0036 20.3992 50.7257 16.8955 50.7257 12.9105C50.7257 6.52605 55.8107 1.55719 62.8131 1.95357C68.8337 2.29332 74.4709 6.60391 74.8774 12.1602C74.9925 13.7245 74.747 15.2251 74.2178 16.6053L74.2102 16.6195Z" fill="#58687C"/>
</svg>
