<svg width="250" height="25" viewBox="0 0 250 25" fill="none" xmlns="http://www.w3.org/2000/svg">
<path d="M250 12.493C250 14.0998 248.589 15.4092 246.84 15.4092H240.528V21.2346C240.528 22.8413 239.117 24.1507 237.368 24.1507C235.619 24.1507 234.216 22.8484 234.216 21.2346V15.4092H227.904C226.163 15.4092 224.744 14.1069 224.744 12.493C224.744 10.8792 226.155 9.57685 227.904 9.57685H234.216V3.75154C234.216 2.1448 235.627 0.835345 237.368 0.835345C239.109 0.835345 240.528 2.13772 240.528 3.75154V9.57685H246.84C248.581 9.57685 250 10.8792 250 12.493Z" fill="white"/>
<path d="M2.70739 4.99717C1.21181 4.99717 0 3.87882 0 2.49858C0 1.11835 1.21181 0 2.70739 0H35.2651C36.7606 0 37.9724 1.11835 37.9724 2.49858C37.9724 3.87882 36.7606 4.99717 35.2651 4.99717H21.6974V22.5014C21.6974 23.8817 20.4856 25 18.9901 25C17.4945 25 16.2827 23.8817 16.2827 22.5014V4.99717H2.70739Z" fill="white"/>
<path d="M125.744 0C127.24 0 128.451 1.11835 128.451 2.49858V14.9986C128.451 17.9785 127.147 20.5974 124.778 22.374C122.492 24.0869 119.263 25 115.451 25H103.487C99.6748 25 96.4459 24.094 94.1603 22.374C91.7904 20.5974 90.4865 17.9785 90.4865 14.9986V2.49858C90.4865 1.11835 91.6983 0 93.1939 0C94.6895 0 95.9013 1.11835 95.9013 2.49858V14.9986C95.9013 16.485 96.4612 17.66 97.5733 18.4952C98.8848 19.479 100.925 19.9958 103.487 19.9958H115.451C118.005 19.9958 120.053 19.479 121.365 18.4952C122.477 17.66 123.037 16.485 123.037 14.9986V2.49858C123.037 1.11835 124.248 0 125.744 0Z" fill="white"/>
<path d="M138.79 22.3811C136.42 20.6045 135.116 17.9856 135.116 15.0057V10.0085C135.116 7.0286 136.42 4.40968 138.79 2.63307C141.076 0.906002 144.305 0 148.116 0H170.374C171.869 0 173.081 1.11835 173.081 2.49858C173.081 3.87882 171.869 4.99717 170.374 4.99717H148.116C145.562 4.99717 143.515 5.51387 142.203 6.49774C141.091 7.33296 140.531 8.50793 140.531 9.99434V14.9915C140.531 16.4779 141.091 17.6529 142.203 18.4881C143.515 19.472 145.555 19.9887 148.116 19.9887H170.374C171.869 19.9887 173.081 21.107 173.081 22.4873C173.081 23.8675 171.869 24.9858 170.374 24.9858H148.116C144.305 24.9858 141.076 24.0798 138.79 22.3599V22.3811Z" fill="white"/>
<path d="M178.925 22.5014V2.49858C178.925 1.11835 180.137 0 181.633 0C183.128 0 184.34 1.11835 184.34 2.49858V10.0014H211.475V2.49858C211.475 1.11835 212.687 0 214.183 0C215.678 0 216.89 1.11835 216.89 2.49858V22.5014C216.89 23.8817 215.678 25 214.183 25C212.687 25 211.475 23.8817 211.475 22.5014V14.9986H184.34V22.5014C184.34 23.8817 183.128 25 181.633 25C180.137 25 178.925 23.8817 178.925 22.5014Z" fill="white"/>
<path d="M79.3118 2.62599C77.0263 0.91308 73.7974 0 69.9855 0H58.0209C54.2091 0 50.9801 0.906002 48.6946 2.62599C46.3247 4.4026 45.0208 7.02152 45.0208 10.0014V14.9986C45.0208 17.9785 46.3247 20.5974 48.6946 22.374C50.8651 24.002 53.8869 24.8938 57.4457 24.9788C57.7985 24.0232 58.3814 23.1172 59.2097 22.3528L60.061 21.5671C60.13 21.5034 60.1607 21.4255 60.1607 21.3406V13.0946C60.1607 11.7568 61.3418 10.6668 62.7914 10.6668C64.241 10.6668 65.4221 11.7568 65.4221 13.0946V16.5841C65.8056 16.3788 66.2581 16.2585 66.7413 16.2585C67.8841 16.2585 68.8658 16.938 69.2262 17.8865C69.6481 17.6246 70.1466 17.4759 70.6912 17.4759C71.8339 17.4759 72.8157 18.1554 73.1761 19.1039C73.598 18.842 74.0965 18.6934 74.641 18.6934C76.0906 18.6934 77.2717 19.7834 77.2717 21.1212V23.5773C78.008 23.2375 78.6906 22.8412 79.3042 22.3811C81.6741 20.6045 82.9779 17.9856 82.9779 15.0057V10.0085C82.9779 7.0286 81.6741 4.40968 79.3042 2.63307L79.3118 2.62599ZM74.2115 16.6195C73.3372 15.7772 72.11 15.2676 70.7985 15.2676C70.7755 15.2676 70.7602 15.2676 70.7372 15.2676C70.369 15.2676 70.0162 15.1614 69.7171 14.949C69.4103 14.7296 69.0652 14.5456 68.7047 14.404C68.8428 13.9298 68.9195 13.4343 68.9195 12.9176C68.9195 9.69706 65.9897 7.09938 62.4616 7.27633C59.3171 7.43205 56.7784 9.8457 56.6864 12.7548C56.6403 14.2271 57.2079 15.5719 58.1743 16.5982V19.9462C58.1743 20.2293 58.0516 20.5054 57.8368 20.7036C57.2846 21.2132 56.8091 21.7724 56.4179 22.374C53.0049 20.3992 50.727 16.8955 50.727 12.9105C50.727 6.52605 55.812 1.55719 62.8144 1.95357C68.8351 2.29332 74.4723 6.60391 74.8788 12.1602C74.9938 13.7245 74.7484 15.2251 74.2192 16.6053L74.2115 16.6195Z" fill="white"/>
</svg>
