<svg width="132" height="20" viewBox="0 0 132 20" fill="none" xmlns="http://www.w3.org/2000/svg">
<path d="M0 3.537C0 1.584 1.584 0 3.537 0H6.374V16.462C6.374 18.416 4.79 19.999 2.837 19.999H0V3.537ZM10.072 5.649H17.081V20H19.645C21.599 20 23.182 18.416 23.182 16.463V5.65H26.724C28.678 5.65 30.261 4.066 30.261 2.113V0H13.609C11.656 0 10.072 1.584 10.072 3.537V5.649ZM120.15 4.161C120.15 4.161 123.14 4.132 123.256 4.161C123.898 4.161 124.446 4.349 124.895 4.722C124.97 4.784 125.039 4.848 125.101 4.914C125.753 5.597 126.63 6.019 127.574 6.019H131.815V5.556C131.815 4.266 131.608 3.215 131.193 2.404C130.781 1.59 130.094 0.988 129.133 0.592C128.174 0.197 126.866 0 125.213 0H115.084C113.532 0 112.272 0.207 111.305 0.619C110.338 1.033 109.626 1.679 109.169 2.555C108.712 3.434 108.485 4.564 108.485 5.952C108.485 7.34 108.621 8.359 108.894 9.145C109.166 9.933 109.572 10.519 110.106 10.905C110.641 11.291 111.29 11.544 112.053 11.666C112.815 11.788 113.816 11.848 115.056 11.848H123.691C124.242 11.848 124.741 12.071 125.102 12.432C125.491 12.822 125.72 13.371 125.681 13.974C125.613 15.034 124.693 15.839 123.631 15.839H120.149C120.149 15.839 117.289 15.866 117.173 15.839C116.531 15.839 115.983 15.65 115.534 15.277C115.459 15.215 115.39 15.151 115.328 15.085C114.676 14.402 113.799 13.98 112.855 13.98H108.485V14.443C108.485 15.733 108.692 16.784 109.107 17.595C109.519 18.409 110.206 19.011 111.167 19.407C112.126 19.802 113.434 19.999 115.087 19.999H125.216C126.768 19.999 128.028 19.792 128.995 19.38C129.962 18.966 130.674 18.32 131.131 17.444C131.588 16.565 131.815 15.435 131.815 14.047C131.815 12.659 131.679 11.642 131.405 10.854C131.133 10.066 130.727 9.48 130.193 9.094C129.658 8.708 129.009 8.455 128.246 8.333C127.484 8.211 126.483 8.151 125.243 8.151H116.608C116.057 8.151 115.558 7.928 115.197 7.567C114.836 7.205 114.613 6.706 114.613 6.155C114.613 5.043 115.559 4.162 116.671 4.162H120.149L120.15 4.161ZM102.795 9.999C103.3 10.281 103.702 10.607 104.004 10.977C104.526 11.616 104.786 12.664 104.786 14.117C104.786 15.57 104.547 16.675 104.065 17.54C103.585 18.405 102.853 19.031 101.871 19.419C100.889 19.805 99.633 19.999 98.104 19.999H82.719V3.537C82.719 1.583 84.303 0 86.256 0H98.103C99.632 0 100.888 0.193 101.87 0.58C102.852 0.968 103.584 1.594 104.064 2.459C104.546 3.324 104.785 4.464 104.785 5.882C104.785 7.3 104.525 8.383 104.003 9.022C103.701 9.392 103.298 9.719 102.794 10L102.795 9.999ZM98.413 14.1C98.413 13.529 98.353 13.088 98.233 12.782C98.113 12.475 97.859 12.242 97.47 12.085C97.082 11.927 96.481 11.848 95.67 11.848H89.08V16.222H95.502C96.351 16.222 96.981 16.151 97.39 16.01C97.8 15.87 98.073 15.637 98.209 15.311C98.345 14.984 98.413 14.719 98.413 14.1ZM98.413 6.106C98.413 5.487 98.345 5.015 98.209 4.688C98.073 4.361 97.799 4.129 97.39 3.989C96.98 3.848 96.351 3.777 95.502 3.777H89.08V8.151H95.67C96.481 8.151 97.082 8.072 97.47 7.914C97.859 7.758 98.114 7.525 98.233 7.219C98.353 6.912 98.413 6.677 98.413 6.106ZM40.334 0H37.497C35.543 0 33.959 1.584 33.959 3.537V20H47.864C49.818 20 51.401 18.416 51.401 16.463V14.35H40.333V0H40.334ZM75.481 0H62.487C60.886 0 59.484 1.075 59.069 2.622L54.423 20H58.307C59.908 20 61.31 18.924 61.723 17.378L62.494 14.499H66.622C68.576 14.499 70.158 12.915 70.159 10.962V10H63.701L64.936 5.391C65.19 4.44 66.053 3.779 67.038 3.779H72.646V16.463C72.646 18.417 74.23 20 76.183 20H79.021V3.541C79.022 1.586 77.436 0 75.481 0Z" fill="white"/>
</svg>
