<svg width="76" height="30" viewBox="0 0 76 30" fill="none" xmlns="http://www.w3.org/2000/svg">
<path d="M0 5.46839C0 2.58258 2.33857 0.243164 5.22335 0.243164H9.40276V24.5315C9.40276 27.4173 7.06419 29.7567 4.17941 29.7567H0V5.46839ZM14.5422 8.58048H24.8815V29.7567H28.6591C31.5439 29.7567 33.8825 27.4173 33.8825 24.5315V8.58048H39.1022C41.9869 8.58048 44.3255 6.24107 44.3255 3.35526V0.243164H19.7661C16.8813 0.243164 14.5427 2.58258 14.5427 5.46839V8.58048H14.5422ZM58.8281 21.4194V0.243164H54.6482C51.7634 0.243164 49.4248 2.58258 49.4248 5.46839V29.7567H69.932C72.8168 29.7567 75.1554 27.4173 75.1554 24.5315V21.4194H58.8281Z" fill="white"/>
</svg>
