<svg width="75" height="29" viewBox="0 0 75 29" fill="none" xmlns="http://www.w3.org/2000/svg">
<path d="M0 5.13431C0 2.29871 2.33374 0 5.21255 0H9.38332V23.8657C9.38332 26.7013 7.04958 29 4.17077 29H0V5.13431ZM14.5121 8.19226H24.8301V29H28.5999C31.4787 29 33.8124 26.7013 33.8124 23.8657V8.19226H39.0213C41.9001 8.19226 44.2339 5.89355 44.2339 3.05794V0H19.7252C16.8464 0 14.5127 2.29871 14.5127 5.13431V8.19226H14.5121ZM58.7065 20.8077V0H54.5352C51.6564 0 49.3226 2.29871 49.3226 5.13431V29H69.7875C72.6663 29 75 26.7013 75 23.8657V20.8077H58.7065Z" fill="#26AFF0"/>
</svg>
