<svg version="1.1" id="Layer_1" xmlns="http://www.w3.org/2000/svg" xmlns:xlink="http://www.w3.org/1999/xlink" x="0px" y="0px"
	 viewBox="0 0 68 74" style="enable-background:new 0 0 68 74;" xml:space="preserve">
<style type="text/css">
	.st0{fill:#FFFFFF;}
	.st1{fill:#26AFF0;}
</style>
<g>
	<path class="st0" d="M60,31c0.1,20.1-23.8,37-24.9,37.7L34,69.5l-1.1-0.9l-0.1-0.1C28.6,65.6,7.9,49.8,8,31C8,16.7,19.7,5,34,5
		S60,16.7,60,31z"/>
</g>
<g>
	<path class="st1" d="M34,7C20.8,7,10,17.8,10,31C9.9,50.3,33.1,66.3,34,67c0,0,24.1-16.7,24-36C58,17.8,47.2,7,34,7z M34,43
		c-6.6,0-12-5.4-12-12s5.4-12,12-12s12,5.4,12,12S40.6,43,34,43z"/>
</g>
</svg>
